<?xml version="1.0" encoding="utf-8"?>
<!-- Generator: Adobe Illustrator 17.1.0, SVG Export Plug-In . SVG Version: 6.00 Build 0)  -->
<!DOCTYPE svg PUBLIC "-//W3C//DTD SVG 1.1//EN" "http://www.w3.org/Graphics/SVG/1.1/DTD/svg11.dtd">
<svg version="1.1" id="Layer_1" xmlns="http://www.w3.org/2000/svg" xmlns:xlink="http://www.w3.org/1999/xlink" x="0px" y="0px"
	 viewBox="155.9 49.6 283.5 326" enable-background="new 155.9 49.6 283.5 326" xml:space="preserve">
<g>
	<path fill="#4679BB" d="M297.7,62.1c65.4,0,118.6,53.1,118.6,118.6S363,299.2,297.7,299.2S179.1,246,179.1,180.6
		S232.3,62.1,297.7,62.1v-1.6c-66.2,0-120.2,54-120.2,120.2s53.8,120.2,120.2,120.2S417.8,247,417.8,180.6
		c0-66.2-53.8-120.2-120.2-120.2L297.7,62.1"/>
	<path fill="#4679BB" d="M297.7,65.6c63.2,0,114.6,51.4,114.6,114.6s-51.4,114.6-114.6,114.6s-114.6-51.4-114.6-114.6
		C183.1,117,234.5,65.6,297.7,65.6"/>
	<path fill="#FFFFFF" stroke="#272525" stroke-width="0.53" d="M384.3,308.7H211c-4.7,0-8.5,3.8-8.5,8.5v39.1c0,4.7,3.8,8.5,8.5,8.5
		h173.3c4.7,0,8.5-3.8,8.5-8.5v-39.2C392.8,312.5,389,308.7,384.3,308.7z"/>
	<path fill="#272525" d="M244.4,323.7h0.5h1.3h0.5h0.5h0.5h0.5h1.3h0.2h0.2h2.1h0.5h0.4h0.5h0.4h0.3h0.4h0.3h1.2h0.7h0.3h0.3h0.3
		h0.3h1.1h0.2h0.8v4H260h-0.3h-0.3h-0.3h-0.2h-1.3h-0.3h-0.5h-0.9h-0.3h-1.1h-0.2h-0.8h-0.3h-0.3h-0.2h-1.2h-0.9h-0.3h-1.1l0,0h-0.8
		v6.3c0,0.2,0.1,0.3,0.3,0.3h0.5h0.4h0.5h0.4h0.5h0.4h1.1h0.4h0.3h0.4h0.3h1.2h0.7h0.3h0.3h0.3h0.3h1.1h0.2h0.8v3.9h-0.5h-0.4h-1.1
		h-0.2h-0.8h-0.9h-0.3h-1.1h-0.2h-0.8h-0.7h-0.3h-0.9h-0.3h-1.1h-0.3h-0.8v6.6c0,0.2,0.1,0.3,0.3,0.3h0.2h0.2h1.3h0.2h0.2h2.1h0.5
		h0.4h0.5h0.4h0.3h0.4h0.3h1.2h0.7h0.3h0.3h0.3h0.3h1.1h0.2h0.8v3.9h-0.2h-0.5h-1.2h-0.2h-0.8h-1.3h-0.3h-1.2H255h-0.2h-2.1h-1.1
		h-0.2h-0.8h-0.3h-0.2h-1.3h-0.3h-0.2h-1.2h-0.9h-0.3h-1.1h-0.2h-0.8v-0.3v-1.2V347v-0.5v-0.1V346v-1.2v-0.1v-1.3v-0.5v-0.3v-1.2
		v-0.2v-0.2v-2.1v-0.5v-0.2v-0.2v-1.2v-0.9v-0.1v-0.3v-0.2v-0.3v-0.2v-1.3v-1.1v-0.2v-0.8v-0.9v-0.3V329v-0.3v-0.8v-0.7v-0.3V326
		v-0.3v-1.1v-0.2v-0.8L244.4,323.7L244.4,323.7z"/>
	<path fill="#272525" d="M264.7,331h1.2h0.9h0.3h1.1h0.5h0.5l0.2,0.3l0.1,0.3l0.2,0.2l0.1,0.3l0.2,0.2c0.2,0.2,0.3,0.4,0.3,0.6
		l0.1,0.2l0.2,0.2l0.1,0.2l0.2,0.2l0.1,0.2l0.1,0.2l0.1,0.2l0.2,0.2l0.1,0.2l0.1,0.1l0.1,0.2l0.7,0.9c0.2-0.5,0.5-0.9,0.7-1.1
		l0.1-0.1l0.6-0.9l0.3-0.5l0.1-0.1l0.1-0.2l0.1-0.2l0.2-0.2l0.1-0.2l0.1-0.1l0.3-0.3c0.2-0.4,0.3-0.6,0.5-0.9h0.3h0.7h0.3h0.9h0.3
		h1.1h0.5h0.5l-0.2,0.5l-0.3,0.3l-0.3,0.3c-0.2,0.4-0.4,0.8-0.7,1.1l-0.2,0.3l-0.1,0.1l-0.5,0.7l-0.4,0.7l-0.3,0.3L277,336l-0.1,0.2
		l-0.2,0.3c-0.2,0.3-0.4,0.5-0.5,0.7l-0.1,0.2l-0.4,0.5l-0.1,0.1c0,0.1-0.1,0.1-0.1,0.1l-0.1,0.1l-0.1,0.1l-0.1,0.1
		c-0.3,0.5-0.6,0.9-0.8,1.1l0.1,0.3l0.1,0.3c0.1,0.1,0.1,0.1,0.1,0.2l0.2,0.2l0.1,0.3l0.1,0.2c0.2,0.2,0.3,0.3,0.3,0.5l0.1,0.1
		l0.3,0.5c0.1,0,0.1,0.1,0.1,0.1c0.3,0.3,0.5,0.7,0.7,1l0.2,0.3l0.1,0.1l0.7,1.1l0.2,0.3l0.2,0.3c0.2,0.3,0.4,0.6,0.5,0.8
		c0.1,0.1,0.1,0.1,0.1,0.2l0.1,0.2l0.1,0.2c0.1,0,0.1,0.1,0.1,0.1c0.2,0.2,0.4,0.5,0.5,0.7l0.3,0.4l0.1,0.2c0.3,0.4,0.5,0.7,0.7,1.1
		h-0.3h-0.7h-0.3h-0.9H278H277h-0.2H276l-0.3-0.3l-0.1-0.3l-0.3-0.3l-0.1-0.3l-0.2-0.2c-0.2-0.3-0.3-0.5-0.5-0.7l-0.1-0.1l-0.6-0.9
		c-0.2-0.3-0.3-0.5-0.4-0.7c-0.1,0-0.1-0.1-0.1-0.1l-0.1-0.1l-0.1-0.2l-0.9-1.5l-0.2-0.1l-0.1,0.3l-0.1,0.1
		c-0.1,0.3-0.2,0.5-0.4,0.7l-0.2,0.3l-0.1,0.2l0.1,0.1c-0.2,0.3-0.3,0.6-0.5,0.8l-0.2,0.2l-0.1,0.3l-0.1,0.2l-0.1,0.1
		c-0.1,0.3-0.2,0.5-0.4,0.7l-0.1,0.2c0,0.1-0.1,0.1-0.1,0.1l-0.1,0.2l-0.1,0.1l-0.1,0.3l-0.1,0.2c-0.3,0.4-0.5,0.7-0.6,0.9h-0.4
		h-0.9h-0.3h-1h-0.3h-1.1h-0.2h-0.8l0.2-0.4l0.3-0.4l0.1-0.1l0.7-1.1l0.3-0.4l0.3-0.3l0.1-0.3l0.1-0.1l0.3-0.4l0.3-0.6l0.2-0.3
		l0.7-1l0.2-0.2l0.1-0.3l0.2-0.3l0.1-0.2l0.2-0.3l0.1-0.2l0.1-0.2l0.1-0.2l0.1-0.2l0.1-0.1l0.1-0.2l0.1-0.2l0.1-0.2
		c0.1-0.2,0.3-0.4,0.4-0.5c0.1-0.3,0.2-0.5,0.4-0.7l-0.2-0.5l-0.6-0.9l-0.2-0.4l-0.3-0.3l-0.2-0.3l-0.2-0.3l-0.1-0.3l-0.2-0.3
		l-0.1-0.1l-0.1-0.2l-0.1-0.2c-0.2-0.2-0.4-0.5-0.5-0.7l-0.4-0.7l-0.2-0.3L266,334c-0.1-0.1-0.1-0.1-0.1-0.2l0,0l-0.1-0.3l-0.1-0.1
		l-0.1-0.2c-0.1,0-0.1-0.1-0.1-0.1c-0.3-0.3-0.5-0.7-0.7-1c-0.3-0.3-0.5-0.7-0.7-1L264.7,331L264.7,331z"/>
	<path fill="#272525" d="M299,335.5l-0.7,0.3c-0.2,0.1-0.4,0.3-0.5,0.3l-0.1,0.1l-0.4,0.1c-0.2,0.1-0.4,0.2-0.5,0.3l-1.1,0.6
		c-1.1-2.2-2.8-3.1-5.1-2.7l-0.2,0.1l-0.2,0.1l-0.7,0.4c-0.4,0.4-0.7,0.8-0.9,1c-1.4,2.9-1.4,5.7,0.1,8.2c0.9,1.2,2,1.7,3.4,1.6
		c1.8-0.3,3-1.2,3.7-2.8l0.7,0.4l0.3,0.1c0.2,0.1,0.4,0.1,0.5,0.2l0.3,0.1l0.1,0.1l1.5,0.7c-2,3.6-5,5.1-8.8,4.6
		c-4-0.8-6.2-3.3-6.8-7.5c-0.3-2.6,0.1-4.9,1.3-7c1.4-2.5,3.5-3.8,6.3-4C294.8,330.8,297.4,332.4,299,335.5z"/>
	<path fill="#272525" d="M318.1,338.4l0.1,1c0.1,0.1,0.1,0.1,0.1,0.2v2h-0.5h-1.3h-0.2H316h-2.1h-0.5h-0.5h-0.5h-0.4h-0.1h-0.4h-0.3
		h-1.1h-0.7h-0.3h-0.3h-0.3h-0.3h-1.1h-0.2h-0.8c0.2,2.3,1.4,3.6,3.5,4c2.1,0.3,3.8-0.3,5.2-1.6c0.2,0.2,0.3,0.4,0.5,0.6l0.1,0.2
		l0.2,0.2c0.3,0.3,0.5,0.5,0.7,0.8c0.1,0,0.1,0.1,0.1,0.1l0.9,1.1c-2.8,2.4-5.9,3.1-9.2,2.3c-3.8-1.3-5.9-4-6.3-8.2
		c-0.2-6.2,2.4-9.7,7.8-10.5C314.7,330.8,317.5,333.4,318.1,338.4z"/>
	<path fill="#FFFFFF" d="M306,338.5h0.4h1.1h0.4h0.3h0.4h0.3h1.2h0.7h0.3h0.3h0.3h0.3h1.1h0.5h0.5v-0.2c-0.1-0.2-0.1-0.4-0.1-0.5
		c-0.1-0.3-0.2-0.5-0.2-0.7c-0.8-1.9-2.2-2.8-4.1-2.9C307.3,334.8,306.2,336.2,306,338.5z"/>
	<path fill="#272525" d="M331.2,330.6c0.6,0,1.1,0.1,1.5,0.1c4.7,1.7,6.8,5.1,6.3,10.2c-0.3,3.9-2,6.5-5.2,7.9
		c-2.9,1.1-5.4,0.7-7.5-1.1v6.9h-0.9h-0.6h-0.3h-0.2H324h-0.2h-1.2v-0.2v-0.2v-0.3v-0.2v-0.3v-0.1v-1.3v-0.2v-1.2v-0.9v-0.2v-0.3
		v-0.2v-0.2v-0.2v-1.3v-0.3v-0.3v-0.9v-0.3v-1.1v-0.2v-0.8v-0.5v-0.5v-0.5v-0.5V341v-0.3v-2v-0.5v-0.4v-0.5v-0.4v-0.3v-0.4v-0.3
		v-1.1v-0.7v-0.3v-0.3v-0.3v-0.3v-1.1v-0.2v-0.8h0.9h0.7h0.3h0.2h0.3h0.2h1.3v1.4c1.2-0.9,2.4-1.5,3.7-1.7L331.2,330.6L331.2,330.6z
		"/>
	<path fill="#FFFFFF" d="M326.5,339.2c-0.3,2.3,0.1,4,1.1,5.2c1.7,1.2,3.3,1.3,4.9,0.4c1.8-1.4,2.6-3.2,2.4-5.6
		c-0.5-2.9-2.1-4.4-4.7-4.7C327.5,335.2,326.3,336.8,326.5,339.2z"/>
	<path fill="#272525" d="M349.5,324.1v6.9h0.3h0.3h0.3h0.3h0.3h0.9h0.3h1.1h0.5h0.5v3.5h-0.5h-0.3h-0.3H353h-0.3h-0.8h-0.3h-1.1
		h-0.2h-0.8v8.9c0,0.6,0,1.1,0.1,1.5c1.1,1,2.5,1.1,4.3,0.5l0.1,0.2v0.4c0.1,0.3,0.1,0.5,0.1,0.7c0.1,0.3,0.1,0.5,0.1,0.7l0.2,1.7
		c-4.1,1-6.9,0.5-8.3-1.6l-0.1-0.1l-0.1-0.4c-0.1-0.3-0.2-0.6-0.3-0.8v-0.4c-0.1-0.6-0.1-1.1-0.1-1.5v-1.3v-0.5v-0.2V342v-0.2v-0.3
		v-0.2v-0.3v-0.2v-1.3v-0.3v-0.3v-0.2v-1.2v-0.8v-0.3v-1.1V335v-0.8h-0.3h-0.3h-0.3h-0.3h-1.1H343h-0.8v-0.9v-0.2v-0.3v-0.2v-0.3
		V332v-1.3h0.3h0.3h0.3h0.3h1.1h0.5h0.5v-0.4v0v-1.2v-0.7v-0.3v-0.3v-0.3v-0.2v-1.1v-0.2v-0.8l0.3-0.1l0.3-0.1l0.3-0.1l0.2-0.1
		l0.3-0.1c0.1,0,0.1-0.1,0.2-0.1c0.2,0,0.1-0.1,0.2-0.1c0.1,0,0.1-0.1,0.2-0.1l0.2-0.1l0.5-0.1c0.1-0.1,0.1-0.1,0.1-0.1
		c0.1-0.1,0.1-0.1,0.1-0.1l1-0.4C349.4,323.8,349.5,324,349.5,324.1z"/>
</g>
</svg>
