<?xml version="1.0" encoding="utf-8"?>
<!-- Generator: Adobe Illustrator 17.1.0, SVG Export Plug-In . SVG Version: 6.00 Build 0)  -->
<!DOCTYPE svg PUBLIC "-//W3C//DTD SVG 1.1//EN" "http://www.w3.org/Graphics/SVG/1.1/DTD/svg11.dtd">
<svg version="1.1" id="Layer_1" xmlns="http://www.w3.org/2000/svg" xmlns:xlink="http://www.w3.org/1999/xlink" x="0px" y="0px"
	 viewBox="155.9 70.9 283.5 283.5" enable-background="new 155.9 70.9 283.5 283.5" xml:space="preserve">
<g>
	<path fill="#4679BB" d="M297.6,93.7c65.6,0,118.9,53.3,118.9,118.9s-53.3,118.9-118.9,118.9s-118.9-53.3-118.9-118.9
		C178.8,147.1,232.2,93.7,297.6,93.7v-1.6c-66.4,0-120.5,54.1-120.5,120.5s54,120.5,120.5,120.5s120.5-54,120.5-120.5
		c0-66.4-54-120.5-120.5-120.5V93.7"/>
	<path fill="#4679BB" d="M297.6,97.3c63.4,0,114.9,51.5,114.9,114.9S361,327.1,297.6,327.1s-114.9-51.5-114.9-114.9
		C182.8,148.8,234.3,97.3,297.6,97.3"/>
</g>
</svg>
