<?xml version="1.0" encoding="utf-8"?>
<!-- Generator: Adobe Illustrator 17.1.0, SVG Export Plug-In . SVG Version: 6.00 Build 0)  -->
<!DOCTYPE svg PUBLIC "-//W3C//DTD SVG 1.1//EN" "http://www.w3.org/Graphics/SVG/1.1/DTD/svg11.dtd">
<svg version="1.1" id="Layer_1" xmlns="http://www.w3.org/2000/svg" xmlns:xlink="http://www.w3.org/1999/xlink" x="0px" y="0px"
	 viewBox="155.9 70.9 283.5 283.5" enable-background="new 155.9 70.9 283.5 283.5" xml:space="preserve">
<g>
	<path fill="#ED1C24" d="M415.8,332.9c6.4-0.1,12.3-3.5,15.6-9c3.2-5.6,3.2-12.5,0-18.1L313.2,101.3c-3.2-5.6-9.2-9.1-15.7-9.1
		c-6.4,0-12.4,3.4-15.6,9L164,305.8c-3.2,5.6-3.2,12.5,0,18c3.2,5.7,9.2,9.1,15.6,9.1L415.8,332.9"/>
	<polygon fill="#FFFFFF" points="190,308.8 405.3,308.8 297.7,122.4 	"/>
	<polyline fill="#1F1D1E" points="201.7,300.3 389.4,300.3 348.2,228.7 201.7,300.3 	"/>
	<polygon fill="none" stroke="#1F1D1E" stroke-width="3.600000e-002" stroke-miterlimit="10" points="201.7,300.3 389.4,300.3 
		348.2,228.7 	"/>
</g>
</svg>
