<?xml version="1.0" encoding="utf-8"?>
<!-- Generator: Adobe Illustrator 17.1.0, SVG Export Plug-In . SVG Version: 6.00 Build 0)  -->
<!DOCTYPE svg PUBLIC "-//W3C//DTD SVG 1.1//EN" "http://www.w3.org/Graphics/SVG/1.1/DTD/svg11.dtd">
<svg version="1.1" id="Layer_1" xmlns="http://www.w3.org/2000/svg" xmlns:xlink="http://www.w3.org/1999/xlink" x="0px" y="0px"
	 viewBox="155.9 28.3 283.5 368.5" enable-background="new 155.9 28.3 283.5 368.5" xml:space="preserve">
<g>
	<g>
		<path fill="#FFFFFF" stroke="#272525" stroke-width="0.53" d="M384.5,363.9H210.7c-4.7,0-8.5-3.8-8.5-8.5v-36.2
			c0-4.7,3.8-8.5,8.5-8.5h173.8c4.7,0,8.5,3.8,8.5,8.5v36.2C393,360.1,389.2,363.9,384.5,363.9z"/>
		<polyline fill="#FFFFFF" points="319.6,289.1 173.5,289.1 296.7,74.2 420,289.1 319.6,289.1 		"/>
		<path fill="#ED1C24" d="M416.1,302.3c6.4-0.1,12.4-3.5,15.6-9.1c3.2-5.6,3.2-12.5,0-18.1L313.3,70.3c-3.2-5.6-9.2-9.1-15.7-9.1
			c-6.5,0-12.4,3.4-15.6,9L163.7,275.1c-3.3,5.6-3.3,12.5,0,18.1c3.2,5.6,9.2,9,15.6,9L416.1,302.3"/>
		<polygon fill="#FFFFFF" points="189.8,278.1 405.6,278.1 297.6,91.4 		"/>
		<path fill="#1F1D1E" d="M296.9,235.7c8.9,0,16,7.2,16,16c0,8.9-7.2,16-16,16c-8.8,0-16-7.2-16-16
			C280.8,242.9,288,235.7,296.9,235.7"/>
		<path fill="#1F1D1E" d="M294.6,227.7h4.8l18-71.1c0.3-1.4,0.4-2.8,0.4-4.3c0-11.5-9.3-20.8-20.8-20.8c-11.5,0-20.9,9.3-20.9,20.8
			c0,1.4,0.2,2.9,0.4,4.3L294.6,227.7"/>
	</g>
	<g>
		<path d="M239.4,323.5h8.9c0.5,0,0.9-0.1,1.3-0.1c4.2,0,6.9,1.5,8,4.6c0.2,0.8,0.3,1.6,0.3,2.4c0,2.3-1,4.1-3.1,5.5
			c2.2,0.5,3.6,1.8,4.2,3.8c0.1,0.5,0.2,1,0.3,1.5s0.1,0.9,0.1,1.4c0,3.3-1.6,5.8-4.9,7.3h-0.2l-0.5,0.2h-0.2
			c-0.4,0.2-0.8,0.3-1.2,0.3c-0.2,0-0.4,0-0.5,0s-0.3,0-0.5,0.1h-12V323.5z M244.1,334.3h6.7c0.2,0,0.5-0.1,0.7-0.1s0.4-0.1,0.5-0.2
			c1.2-0.8,1.8-1.9,1.8-3.2v-0.2c0-0.1,0-0.1,0-0.2c-0.3-1.1-1-1.9-1.9-2.5l-0.8-0.2l-0.4-0.1h-6.5V334.3z M244.1,346.2h6.4l1.5-0.1
			c2-0.9,3-2.2,3-4c0-0.4-0.1-0.9-0.2-1.3c-0.5-1.2-1.3-2.1-2.3-2.6c-0.3-0.1-0.6-0.1-0.9-0.2s-0.5-0.1-0.7-0.1h-7V346.2z"/>
		<path d="M278.3,332.9l0.2,0.4c0.6,0.7,0.9,1.4,1.1,2.1c0,0.3,0.1,0.6,0.1,0.9s0,0.5,0,0.7v9.3c0.4,0.9,1.1,1.4,1.9,1.5l-0.1,0.2
			c0,0.1-0.1,0.1-0.1,0.1l-0.1,0.2l-0.1,0.1c-0.1,0.3-0.3,0.5-0.4,0.6c-0.2,0.4-0.4,0.8-0.6,1c-0.1,0.2-0.2,0.4-0.3,0.6
			s-0.2,0.3-0.3,0.4c-1.4-0.4-2.4-1-3.2-1.9H276c-1.5,1.1-3.1,1.6-4.7,1.6c-0.9,0-1.7-0.1-2.6-0.4c-2.5-0.9-4-2.5-4.6-4.9v-0.1
			c0-4.5,2.7-6.8,8-6.8h0.1c0.1,0,0.2-0.1,0.4-0.1l0.2-0.1h0.5l0.2-0.1h0.2l1.8-0.2c0-0.1,0-0.2,0-0.4v-0.4c0-2-1-2.9-3.1-2.9
			c-1.4,0-3.4,0.5-5.9,1.5l-0.3-0.6L266,335l-0.1-0.1l-0.1-0.1l-0.1-0.4c-0.1-0.2-0.2-0.4-0.3-0.6c-0.2-0.3-0.4-0.7-0.5-1l0.2-0.1
			l0.1-0.1l0.2-0.1l0.1-0.1h0.2c0,0,0.1-0.1,0.1-0.1h0c0.4-0.2,0.8-0.4,1.1-0.5l0.4-0.1c0.3-0.1,0.5-0.2,0.7-0.2l0.6-0.1
			c0.4-0.2,0.8-0.3,1.2-0.3l1.5-0.3c0.2,0,0.5,0,0.7-0.1s0.4,0,0.6,0C275,330.7,276.8,331.4,278.3,332.9z M273.8,341.8h-0.4
			c-0.1,0-0.2,0-0.3,0.1s-0.2,0-0.3,0h-0.1l-0.3,0.1h-0.2c-0.1,0-0.1,0.1-0.2,0.1h-0.2l-1.1,0.3h-0.2c-0.3,0.2-0.6,0.3-0.8,0.4
			c-0.8,0.7-1.1,1.4-1.1,2.1c0,0.6,0.3,1.2,0.9,1.8c0.9,0.6,1.8,0.8,2.6,0.8c1.1,0,2.1-0.4,3.1-1.3c0.1-0.3,0.2-0.5,0.3-0.6l0.1-0.2
			l-0.1-0.3v-3.3H274C273.9,341.8,273.9,341.8,273.8,341.8z"/>
		<path d="M296.8,330.8v4.5c-0.1,0-0.2,0-0.3,0h-0.3c-2.3,0-4,1-5,2.9l-0.2,1.1l-0.1,0.5v10.5h-4.3v-19.1h4.3v1.1
			c0,0.3,0,0.6,0.1,0.8c1.4-1.5,3-2.3,4.9-2.3H296.8z"/>
		<path d="M312.1,330.8v4.5c-0.1,0-0.2,0-0.3,0h-0.3c-2.3,0-4,1-5,2.9l-0.2,1.1l-0.1,0.5v10.5h-4.3v-19.1h4.3v1.1
			c0,0.3,0,0.6,0.1,0.8c1.4-1.5,3-2.3,4.9-2.3H312.1z"/>
		<path d="M321.5,325.6v0.2c0,1-0.3,1.8-0.9,2.4c-0.6,0.3-1.2,0.5-1.8,0.5c-0.9,0-1.7-0.5-2.2-1.5c-0.1-0.4-0.2-0.8-0.2-1.1
			c0-1.2,0.7-2,2-2.4h0.2C320.1,323.6,321.1,324.3,321.5,325.6z M316.8,331.2h4.3v19.2h-4.3V331.2z"/>
		<path d="M343.2,339l0.1,1.1c0,0.1,0.1,0.1,0.1,0.2v2.1h-12.9c0.3,2.4,1.5,3.8,3.7,4.2c0.4,0,0.7,0.1,1,0.1c1.8,0,3.3-0.6,4.5-1.7
			c0.2,0.3,0.3,0.5,0.6,0.6l0.1,0.2l0.2,0.2c0.2,0.2,0.3,0.3,0.4,0.4s0.2,0.3,0.3,0.4c0.1,0,0.1,0.1,0.1,0.1l1,1.1
			c-2.2,1.9-4.6,2.8-7.1,2.8c-0.4,0-0.9,0-1.3-0.1s-0.9-0.1-1.3-0.2c-4.1-1.3-6.3-4.3-6.7-8.7c0-0.1,0-0.2,0-0.4s0-0.3,0-0.3
			c0-6.1,2.7-9.6,8.2-10.4C339.6,330.9,342.7,333.7,343.2,339z M330.4,339.1h8.5v-0.2c0-0.1-0.1-0.3-0.1-0.4v-0.1
			c-0.1-0.3-0.2-0.5-0.2-0.7c-0.9-2-2.3-3-4.3-3C331.9,335.2,330.6,336.7,330.4,339.1z"/>
		<path d="M358.3,330.8v4.5c-0.1,0-0.2,0-0.3,0h-0.3c-2.3,0-4,1-5,2.9l-0.2,1.1l-0.1,0.5v10.5h-4.3v-19.1h4.3v1.1
			c0,0.3,0,0.6,0.1,0.8c1.4-1.5,3-2.3,4.9-2.3H358.3z"/>
	</g>
</g>
</svg>
