<?xml version="1.0" encoding="utf-8"?>
<!-- Generator: Adobe Illustrator 17.1.0, SVG Export Plug-In . SVG Version: 6.00 Build 0)  -->
<!DOCTYPE svg PUBLIC "-//W3C//DTD SVG 1.1//EN" "http://www.w3.org/Graphics/SVG/1.1/DTD/svg11.dtd">
<svg version="1.1" id="Layer_1" xmlns="http://www.w3.org/2000/svg" xmlns:xlink="http://www.w3.org/1999/xlink" x="0px" y="0px"
	 viewBox="155.9 70.9 283.5 283.5" enable-background="new 155.9 70.9 283.5 283.5" xml:space="preserve">
<g>
	<path fill="#ED1C24" d="M179.7,332.7c-6.6,0.1-12.4-3.4-15.7-9c-3.3-5.6-3.3-12.4,0-18.1L282,101.5c3.3-5.7,9.1-9,15.7-9
		c6.5,0,12.3,3.4,15.6,9l117.9,204.1c3.3,5.6,3.3,12.4,0,18c-3.3,5.7-9.2,9.1-15.6,9.1H179.7"/>
	<polygon fill="#FFFFFF" points="405.1,308.6 190,308.6 297.6,122.5 	"/>
	<polyline fill="#1F1D1E" points="298,281.8 309.5,301.8 286.5,301.8 292.2,291.8 298,281.8 	"/>
	<polyline fill="#1F1D1E" points="298,235.3 267.6,182.8 328.4,182.8 298,235.3 	"/>
</g>
</svg>
