<?xml version="1.0" encoding="utf-8"?>
<!-- Generator: Adobe Illustrator 17.1.0, SVG Export Plug-In . SVG Version: 6.00 Build 0)  -->
<!DOCTYPE svg PUBLIC "-//W3C//DTD SVG 1.1//EN" "http://www.w3.org/Graphics/SVG/1.1/DTD/svg11.dtd">
<svg version="1.1" id="Layer_1" xmlns="http://www.w3.org/2000/svg" xmlns:xlink="http://www.w3.org/1999/xlink" x="0px" y="0px"
	 viewBox="155.9 70.9 283.5 283.5" enable-background="new 155.9 70.9 283.5 283.5" xml:space="preserve">
<g>
	<path fill="#4679BB" d="M297.6,93.7c65.6,0,118.9,53.3,118.9,118.9s-53.4,118.9-118.9,118.9s-118.9-53.3-118.9-118.9
		C178.7,147,232,93.7,297.6,93.7v-1.6c-66.5,0-120.5,54.1-120.5,120.5s54.1,120.5,120.5,120.5c66.5,0,120.5-54,120.5-120.5
		S364,92.1,297.6,92.1V93.7"/>
	<path fill="#4679BB" d="M297.6,97.3c63.5,0,114.9,51.5,114.9,114.9c0,63.5-51.5,114.9-114.9,114.9c-63.5,0-114.9-51.5-114.9-114.9
		C182.7,148.8,234.2,97.3,297.6,97.3"/>
	<g enable-background="new    ">
		<path fill="#FFFFFF" d="M278.5,272.6v3.8h-3.2v7.2c0,1.5,0,2.3,0.1,2.6c0.1,0.2,0.2,0.4,0.4,0.6c0.2,0.2,0.5,0.2,0.8,0.2
			c0.4,0,1.1-0.2,1.9-0.5l0.4,3.7c-1.1,0.5-2.3,0.7-3.7,0.7c-0.9,0-1.6-0.1-2.3-0.4s-1.2-0.7-1.5-1.1c-0.3-0.5-0.5-1.1-0.7-1.8
			c-0.1-0.6-0.2-1.7-0.2-3.3v-7.8h-2.2v-3.8h2.2v-3.6l4.8-2.8v6.3L278.5,272.6L278.5,272.6z"/>
		<path fill="#FFFFFF" d="M285.3,278.1l-4.3-0.8c0.5-1.7,1.3-3,2.5-3.8s2.9-1.2,5.3-1.2c2.1,0,3.7,0.3,4.7,0.8
			c1,0.5,1.8,1.1,2.2,1.9c0.4,0.8,0.6,2.2,0.6,4.2l-0.1,5.5c0,1.6,0.1,2.7,0.2,3.5c0.2,0.7,0.4,1.5,0.9,2.4h-4.7
			c-0.1-0.3-0.3-0.8-0.5-1.4c-0.1-0.3-0.1-0.5-0.2-0.6c-0.8,0.8-1.7,1.4-2.6,1.8s-1.9,0.6-2.9,0.6c-1.8,0-3.3-0.5-4.4-1.5
			c-1.1-1-1.6-2.3-1.6-3.8c0-1,0.2-1.9,0.7-2.7c0.5-0.8,1.2-1.4,2-1.8c0.9-0.4,2.1-0.8,3.8-1.1c2.2-0.4,3.7-0.8,4.6-1.2v-0.5
			c0-0.9-0.2-1.6-0.7-1.9c-0.5-0.3-1.3-0.6-2.5-0.6c-0.8,0-1.5,0.2-2,0.5C285.8,276.7,285.6,277.3,285.3,278.1z M291.7,281.9
			c-0.6,0.2-1.6,0.4-2.9,0.7c-1.3,0.3-2.2,0.6-2.6,0.8c-0.6,0.4-0.9,1-0.9,1.7c0,0.7,0.2,1.2,0.7,1.7c0.5,0.5,1.1,0.7,1.9,0.7
			c0.9,0,1.7-0.3,2.4-0.8c0.6-0.4,0.9-0.9,1.1-1.6c0.1-0.4,0.2-1.2,0.2-2.3L291.7,281.9L291.7,281.9z"/>
		<path fill="#FFFFFF" d="M298.7,290.5l6.5-9.2l-6.2-8.7h5.8l3.2,4.9l3.3-4.9h5.6l-6.1,8.5l6.6,9.4h-5.8L308,285l-3.7,5.5H298.7
			L298.7,290.5z"/>
		<path fill="#FFFFFF" d="M320.2,270.2v-4.4h4.7v4.4H320.2z M320.2,290.5v-17.9h4.7v17.9H320.2z"/>
	</g>
	<g>
		<path fill="#FFFFFF" d="M231.4,238.5c-0.4-1.1-0.5-2.4-0.5-3.8c0-6.8,5.6-12.4,12.4-12.4c1.7,0,3.3,0.3,4.8,1
			c1.4,0.6,2.9,1.5,3.9,2.7c1.1,1.1,2,2.5,2.7,4c0.7,1.6,1,3.2,1,4.8c0,1.2-0.2,2.5-0.6,3.8v0.1h75.9v-0.2c-0.4-1.1-0.5-2.4-0.5-3.8
			c0-1.7,0.4-3.3,1-4.8c0.6-1.5,1.5-2.8,2.7-4c1.1-1.1,2.5-2,3.9-2.7c1.5-0.7,3.2-1,4.8-1c1.6,0,3.3,0.3,4.8,1
			c1.5,0.6,2.9,1.5,4,2.7c1.1,1.1,2,2.5,2.7,4c0.6,1.6,1,3.2,1,4.8c0,1.4-0.2,2.6-0.5,3.8v0.1h0.1l42.9-8.7l0,0v-37.4
			c0-3.3-1.3-6.5-3.7-8.9c-2.4-2.4-5.5-3.7-8.9-3.7H204.7c0,0,0,0-0.1,0c-1.4,0-2.4,1.1-2.5,2.3l-1.3,27.5l0.1-0.1
			c-1.4,0-2.6,1.1-2.6,2.6v21.3c0,2.8,2.3,5,5,5c0,0,0,0,0.1,0h0.1v-0.2v0.1L231.4,238.5L231.4,238.5L231.4,238.5z"/>
		<path fill="#4679BB" d="M223.3,192.4c0-1.4-1.1-2.5-2.5-2.5h-7.4c-1.4,0-2.5,1.1-2.5,2.5v36.1c0,1.4,1.1,2.4,2.5,2.4h7.4
			c1.4,0,2.5-1.1,2.5-2.4V192.4z"/>
		<path fill="#4679BB" d="M275.5,207.4c-1.4,0-2.5-1.1-2.5-2.6v-12.5c0-1.4,1.1-2.5,2.5-2.5h29.9c1.4,0,2.6,1.1,2.6,2.5v12.5
			c0,1.4-1.1,2.6-2.6,2.6H275.5z"/>
		<path fill="#4679BB" d="M234.5,207.4c-1.4,0-2.6-1.1-2.6-2.6v-12.5c0-1.4,1.1-2.5,2.6-2.5h29.9c1.3,0.1,2.4,1.1,2.4,2.5v12.5
			c0,1.4-1.1,2.5-2.4,2.5L234.5,207.4z"/>
		<path fill="#4679BB" d="M346.5,207.4c1.4,0,2.6-1.1,2.6-2.6v-12.5c0-1.4-1.1-2.6-2.6-2.6h-29.8h-0.1c-1.4,0-2.5,1.1-2.5,2.6v12.5
			c0,1.4,1.1,2.6,2.5,2.6h0.1l0,0v-0.2v0.1L346.5,207.4z"/>
		<path fill="#4679BB" d="M357.7,207.4c-1.4,0-2.5-1.1-2.5-2.6v-12.5c0-1.4,1.1-2.5,2.5-2.5h24.9c4.1,0,7.4,3.3,7.4,7.4l-0.1,7.5
			c0,1.4-1.1,2.5-2.4,2.5L357.7,207.4z"/>
		<path fill="#FFFFFF" d="M243.2,224.8c5.5,0,9.9,4.4,9.9,9.9c0,5.5-4.4,9.9-9.9,9.9c-5.5,0-9.9-4.4-9.9-9.9
			C233.3,229.2,237.7,224.8,243.2,224.8"/>
		<path fill="#4679BB" d="M243.2,229.8c2.7,0,5,2.2,5,5c0,2.7-2.2,5-5,5c-2.7,0-5-2.2-5-5C238.3,231.9,240.4,229.8,243.2,229.8"/>
		<path fill="#FFFFFF" d="M342.7,224.7c5.5,0,10,4.4,10,9.9c0,5.5-4.4,10-10,10s-10-4.4-10-10C332.8,229.2,337.3,224.7,342.7,224.7z
			"/>
		<path fill="#4679BB" d="M342.7,229.8c2.8,0,5,2.2,5,5c0,2.7-2.3,5-5,5s-5-2.2-5-5C337.7,231.9,340,229.8,342.7,229.8"/>
	</g>
</g>
</svg>
