<?xml version="1.0" encoding="utf-8"?>
<!-- Generator: Adobe Illustrator 17.1.0, SVG Export Plug-In . SVG Version: 6.00 Build 0)  -->
<!DOCTYPE svg PUBLIC "-//W3C//DTD SVG 1.1//EN" "http://www.w3.org/Graphics/SVG/1.1/DTD/svg11.dtd">
<svg version="1.1" id="Layer_1" xmlns="http://www.w3.org/2000/svg" xmlns:xlink="http://www.w3.org/1999/xlink" x="0px" y="0px"
	 viewBox="155.9 70.9 283.5 283.5" enable-background="new 155.9 70.9 283.5 283.5" xml:space="preserve">
<g>
	<path fill="#4679BB" d="M297.6,93.7c65.6,0,118.9,53.3,118.9,118.9s-53.4,118.9-118.9,118.9s-118.9-53.3-118.9-118.9
		C178.7,147,232,93.7,297.6,93.7v-1.6c-66.5,0-120.5,54.1-120.5,120.5s54.1,120.5,120.5,120.5c66.5,0,120.5-54,120.5-120.5
		S364,92.1,297.6,92.1V93.7"/>
	<path fill="#4679BB" d="M297.6,97.3c63.5,0,114.9,51.5,114.9,114.9c0,63.5-51.5,114.9-114.9,114.9c-63.5,0-114.9-51.5-114.9-114.9
		C182.7,148.8,234.2,97.3,297.6,97.3"/>
	<g>
		<path fill="#FFFFFF" d="M276.1,136.9c1.2-4.2,2.6-8.3,3.8-12.6c0,0,0,0,0-0.1c0,0,0,0,0-0.1c0-0.2-0.1-0.4-0.3-0.5
			c0,0,0,0-0.1-0.1c-1.4-0.6-2.4-2-2.4-3.7c0-2.2,1.7-4.1,3.9-4.1c0.5,0,1,0,1.5,0c1.8,0,3.7,0,5.5,0c0,1.3,0,2.6,0,4.1
			c-1.7,0-3.3,0-5,0c-0.3,0-0.6,0-1,0c-0.2,0-0.5,0.2-0.5,0.5c0,0.2,0.1,0.3,0.2,0.5c1.3,0.8,2.1,1.6,2.1,3c0,0.6-0.1,0.8-0.2,1.4
			c-0.1,0.4-0.7,2-0.7,2c9.1,0,18.1,0,27.2,0c0.5-1.3,1.1-2.6,1.6-4c-2-0.5-4.1-1.1-6.2-1.6c-0.5-0.1-0.8-0.5-0.8-0.9
			c0-0.5,0.5-1,1.1-1c4.7,0,9.3,0,13.9,0c0,2.2-1.8,4-3.9,4c-0.5,1.1-0.9,2.3-1.4,3.5c1.7,3.2,3.4,6.4,5.2,9.5
			c1.7-0.8,3.8-1.1,5.6-1.1c8.2,0,14.9,6.7,14.9,14.9s-6.7,14.9-14.9,14.9c-7.7,0-14-5.8-14.9-13.4c0,0,0,0,0.1,0
			c-0.6,0-1.2,0-1.8,0c-0.4,1.4-1.1,2.6-2.5,3.5c0.5,1,1,2,1.5,3c0.8,0,1.5,0,2.3,0c0,0.6,0,1.3,0,2c-0.5,0-1.1,0-1.6,0
			c-0.3,0.3-0.7,0.5-1.1,0.5c-0.5,0-0.8-0.2-1.1-0.5c-0.7,0-1.4,0-2,0c0-0.6,0-1.3,0-2c0.6,0,1.2,0,1.9,0c-0.4-0.8-0.8-1.5-1.2-2.3
			c-0.8,0.3-1.1,0.3-2,0.3c-3.2,0-5.9-2.6-5.9-5.9c0-0.6,0.1-1.2,0.2-1.7c0,0,0,0,0-0.1c-5.6-3.9-11.3-7.7-17-11.7
			c-0.2,0.5-0.3,1.1-0.5,1.6c0,0,0,0,0.1,0.1c3.8,2.9,5.8,7.1,5.8,11.9c0,8.2-6.7,14.9-15,14.9c-8.2,0-14.9-6.7-14.9-14.9
			c0-8.3,6.7-14.9,14.9-14.9C272.9,135.9,273.8,136,276.1,136.9C276,136.9,276,136.9,276.1,136.9"/>
		<path fill="#4679BB" d="M298.9,150.9c0,2.2,1.7,4,4,4c2.2,0,4.1-1.7,4.1-4c0-2.2-1.8-4.1-4.1-4.1
			C300.6,146.8,298.9,148.6,298.9,150.9z"/>
		<path fill="#4679BB" d="M278.3,143.8c-0.2,0.8-0.5,1.7-0.8,2.6c-0.8,2.7-3.8,5.1-6.5,5.9c-0.1,0.1-0.2,0.1-0.5,0.1
			c-0.8,0-1.4-0.8-1.4-1.5c0-0.5,0.2-1,0.6-1.2c0.1,0,0.2-0.1,0.2-0.2c1.7-1.2,3.2-2.5,3.8-4.2c0.4-1.3,0.8-2.6,1.2-4.1
			c0,0,0,0-0.1,0c-1.3-0.6-2.7-0.9-4.3-0.9c-5.7,0-10.4,4.7-10.4,10.5c0,5.8,4.7,10.4,10.4,10.4c5.8,0,10.5-4.7,10.5-10.4
			C281,148.1,280,145.7,278.3,143.8z"/>
		<path fill="#FFFFFF" d="M306.9,146.4c2-4.9,4-9.8,5.9-14.7c1.3,2.3,2.5,4.7,3.8,7.1c0,0,0,0-0.1,0.1c-3.5,2.5-5.6,6.2-6.1,10.6
			c0,0,0,0,0.1,0c-0.6,0-1.2,0-1.8,0c-0.3-1.2-0.8-2-1.7-2.9C306.9,146.4,306.9,146.4,306.9,146.4z"/>
		<path fill="#4679BB" d="M318.7,142.8c-2.1,1.7-3.3,3.8-3.8,6.5c2.3,0,4.8,0,7.2,0C321,147.1,319.9,144.9,318.7,142.8L318.7,142.8z
			"/>
		<path fill="#4679BB" d="M326.6,150.2c0.1,0.2,0.2,0.5,0.2,0.7c0,0.8-0.7,1.5-1.5,1.5c-3.4,0-6.8,0-10.4,0
			c0.8,5.2,5.2,8.9,10.4,8.9c5.8,0,10.4-4.7,10.4-10.4c0-5.8-4.7-10.5-10.4-10.5c-1.1,0-2.5,0.2-3.5,0.6
			C323.4,144,325,147,326.6,150.2z"/>
		<path fill="#4679BB" d="M299.6,145.8c-0.5-1-1-2-1.5-3c-0.8,0-1.6,0-2.4,0c0-0.6,0-1.3,0-2c0.5,0,1.1,0,1.6,0c0,0,0,0,0.1-0.1
			c0.3-0.3,0.7-0.5,1.1-0.5c0.5,0,0.8,0.2,1.1,0.5c0,0,0,0,0,0.1c0.7,0,1.4,0,2,0c0,0.6,0,1.3,0,2c-0.6,0-1.2,0-1.8,0
			c0.4,0.8,0.8,1.5,1.1,2.3c0,0,0.1,0,0.2-0.1c0.6-0.2,1.2-0.3,1.8-0.3c0.1,0,0.1,0,0.2,0c0,0,0,0,0.1,0c1.9-4.7,3.8-9.3,5.7-13.9
			c-9,0-17.9,0-26.9,0c-0.2,0.9-0.5,1.8-0.8,2.8c6,4.1,12,8.2,18,12.4C299.3,146.1,299.5,146,299.6,145.8z"/>
		<path fill="#4679BB" d="M306.9,146.4c2-5,4.1-9.9,5.9-14.7h-0.1c1.1,2.2,2.4,4.7,3.8,7.1l0,0l-0.1,0.1c-1.7,1.3-3.2,2.8-4.2,4.6
			c-1,1.8-1.7,3.8-2,5.9v0.1h0.1v-0.1h-1.8l0,0C308.4,148.1,307.9,147.3,306.9,146.4L306.9,146.4L306.9,146.4L306.9,146.4"/>
	</g>
	<g>
		<path fill="#FFFFFF" d="M231.4,238.4c-0.4-1.1-0.5-2.4-0.5-3.8c0-6.8,5.6-12.4,12.4-12.4c1.7,0,3.3,0.3,4.8,1
			c1.4,0.6,2.9,1.5,3.9,2.7c1.1,1.1,2,2.5,2.7,4c0.7,1.6,1,3.2,1,4.8c0,1.2-0.2,2.5-0.6,3.8v0.1h75.9v-0.1c-0.4-1.1-0.5-2.4-0.5-3.8
			c0-1.7,0.4-3.3,1-4.8c0.6-1.5,1.5-2.8,2.7-4c1.1-1.1,2.5-2,3.9-2.7c1.5-0.7,3.2-1,4.8-1c1.6,0,3.3,0.3,4.8,1
			c1.5,0.6,2.9,1.5,4,2.7c1.1,1.1,2,2.5,2.7,4c0.6,1.6,1,3.2,1,4.8c0,1.4-0.2,2.6-0.5,3.8v0.1h0.1l42.9-8.7l0,0v-37.4
			c0-3.3-1.3-6.5-3.7-8.9c-2.4-2.4-5.5-3.7-8.9-3.7H204.7c0,0,0,0-0.1,0c-1.4,0-2.4,1.1-2.5,2.3l-1.3,27.5l0.1-0.1
			c-1.4,0-2.6,1.1-2.6,2.6v21.2c0,2.8,2.3,5,5,5c0,0,0,0,0.1,0h0.1v-0.2v0.1L231.4,238.4L231.4,238.4L231.4,238.4z"/>
		<path fill="#4679BB" d="M223.3,192.3c0-1.4-1.1-2.5-2.5-2.5h-7.4c-1.4,0-2.5,1.1-2.5,2.5v36.1c0,1.4,1.1,2.4,2.5,2.4h7.4
			c1.4,0,2.5-1.1,2.5-2.4V192.3z"/>
		<path fill="#4679BB" d="M275.5,207.3c-1.4,0-2.5-1.1-2.5-2.6v-12.5c0-1.4,1.1-2.5,2.5-2.5h29.9c1.4,0,2.6,1.1,2.6,2.5v12.5
			c0,1.4-1.1,2.6-2.6,2.6H275.5z"/>
		<path fill="#4679BB" d="M234.5,207.3c-1.4,0-2.6-1.1-2.6-2.6v-12.5c0-1.4,1.1-2.5,2.6-2.5h29.9c1.3,0.1,2.4,1.1,2.4,2.5v12.5
			c0,1.4-1.1,2.5-2.4,2.5L234.5,207.3z"/>
		<path fill="#4679BB" d="M346.5,207.3c1.4,0,2.6-1.1,2.6-2.6v-12.5c0-1.4-1.1-2.6-2.6-2.6h-29.8h-0.1c-1.4,0-2.5,1.1-2.5,2.6v12.5
			c0,1.4,1.1,2.6,2.5,2.6h0.1l0,0v-0.2v0.1L346.5,207.3z"/>
		<path fill="#4679BB" d="M357.7,207.3c-1.4,0-2.5-1.1-2.5-2.6v-12.5c0-1.4,1.1-2.5,2.5-2.5h24.9c4.1,0,7.4,3.3,7.4,7.4l-0.1,7.5
			c0,1.4-1.1,2.5-2.4,2.5L357.7,207.3z"/>
		<path fill="#FFFFFF" d="M243.2,224.7c5.5,0,9.9,4.4,9.9,9.9c0,5.5-4.4,9.9-9.9,9.9c-5.5,0-9.9-4.4-9.9-9.9
			C233.3,229.2,237.7,224.7,243.2,224.7"/>
		<path fill="#4679BB" d="M243.2,229.7c2.7,0,5,2.2,5,5c0,2.7-2.2,5-5,5c-2.7,0-5-2.2-5-5C238.3,231.9,240.4,229.7,243.2,229.7"/>
		<path fill="#FFFFFF" d="M342.7,224.7c5.5,0,10,4.4,10,9.9c0,5.5-4.4,10-10,10s-10-4.4-10-10C332.8,229.1,337.3,224.7,342.7,224.7z
			"/>
		<path fill="#4679BB" d="M342.7,229.7c2.8,0,5,2.2,5,5c0,2.7-2.3,5-5,5s-5-2.2-5-5S340,229.7,342.7,229.7"/>
	</g>
</g>
</svg>
