<?xml version="1.0" encoding="utf-8"?>
<!-- Generator: Adobe Illustrator 17.1.0, SVG Export Plug-In . SVG Version: 6.00 Build 0)  -->
<!DOCTYPE svg PUBLIC "-//W3C//DTD SVG 1.1//EN" "http://www.w3.org/Graphics/SVG/1.1/DTD/svg11.dtd">
<svg version="1.1" id="Layer_1" xmlns="http://www.w3.org/2000/svg" xmlns:xlink="http://www.w3.org/1999/xlink" x="0px" y="0px"
	 viewBox="155.9 70.9 283.5 283.5" enable-background="new 155.9 70.9 283.5 283.5" xml:space="preserve">
<g>
	<path fill="#4679BB" d="M297.6,93.7c65.6,0,118.9,53.3,118.9,118.9s-53.4,118.9-118.9,118.9s-118.9-53.3-118.9-118.9
		C178.7,147,232,93.7,297.6,93.7v-1.6c-66.5,0-120.5,54.1-120.5,120.5s54.1,120.5,120.5,120.5c66.5,0,120.5-54,120.5-120.5
		S364,92.1,297.6,92.1V93.7"/>
	<path fill="#4679BB" d="M297.6,97.3c63.5,0,114.9,51.5,114.9,114.9c0,63.5-51.5,114.9-114.9,114.9c-63.5,0-114.9-51.5-114.9-114.9
		C182.7,148.8,234.2,97.3,297.6,97.3"/>
	<g enable-background="new    ">
		<path fill="#FFFFFF" d="M278.5,272.6v3.8h-3.2v7.2c0,1.5,0,2.3,0.1,2.6c0.1,0.2,0.2,0.4,0.4,0.6c0.2,0.2,0.5,0.2,0.8,0.2
			c0.4,0,1.1-0.2,1.9-0.5l0.4,3.7c-1.1,0.5-2.3,0.7-3.7,0.7c-0.9,0-1.6-0.1-2.3-0.4s-1.2-0.7-1.5-1.1c-0.3-0.5-0.5-1.1-0.7-1.8
			c-0.1-0.6-0.2-1.7-0.2-3.3v-7.8h-2.2v-3.8h2.2v-3.6l4.8-2.8v6.3L278.5,272.6L278.5,272.6z"/>
		<path fill="#FFFFFF" d="M285.3,278.1l-4.3-0.8c0.5-1.7,1.3-3,2.5-3.8s2.9-1.2,5.3-1.2c2.1,0,3.7,0.3,4.7,0.8
			c1,0.5,1.8,1.1,2.2,1.9c0.4,0.8,0.6,2.2,0.6,4.2l-0.1,5.5c0,1.6,0.1,2.7,0.2,3.5c0.2,0.7,0.4,1.5,0.9,2.4h-4.7
			c-0.1-0.3-0.3-0.8-0.5-1.4c-0.1-0.3-0.1-0.5-0.2-0.6c-0.8,0.8-1.7,1.4-2.6,1.8s-1.9,0.6-2.9,0.6c-1.8,0-3.3-0.5-4.4-1.5
			c-1.1-1-1.6-2.3-1.6-3.8c0-1,0.2-1.9,0.7-2.7c0.5-0.8,1.2-1.4,2-1.8c0.9-0.4,2.1-0.8,3.8-1.1c2.2-0.4,3.7-0.8,4.6-1.2v-0.5
			c0-0.9-0.2-1.6-0.7-1.9c-0.5-0.3-1.3-0.6-2.5-0.6c-0.8,0-1.5,0.2-2,0.5C285.8,276.7,285.6,277.3,285.3,278.1z M291.7,281.9
			c-0.6,0.2-1.6,0.4-2.9,0.7c-1.3,0.3-2.2,0.6-2.6,0.8c-0.6,0.4-0.9,1-0.9,1.7c0,0.7,0.2,1.2,0.7,1.7c0.5,0.5,1.1,0.7,1.9,0.7
			c0.9,0,1.7-0.3,2.4-0.8c0.6-0.4,0.9-0.9,1.1-1.6c0.1-0.4,0.2-1.2,0.2-2.3L291.7,281.9L291.7,281.9z"/>
		<path fill="#FFFFFF" d="M298.7,290.5l6.5-9.2l-6.2-8.7h5.8l3.2,4.9l3.3-4.9h5.6l-6.1,8.5l6.6,9.4h-5.8L308,285l-3.7,5.5H298.7
			L298.7,290.5z"/>
		<path fill="#FFFFFF" d="M320.2,270.2v-4.4h4.7v4.4H320.2z M320.2,290.5v-17.9h4.7v17.9H320.2z"/>
	</g>
	<g>
		<path fill="#FFFFFF" d="M231.4,238.5c-0.4-1.1-0.5-2.4-0.5-3.8c0-6.8,5.6-12.4,12.4-12.4c1.7,0,3.3,0.3,4.8,1
			c1.4,0.6,2.9,1.5,3.9,2.7c1.1,1.1,2,2.5,2.7,4c0.7,1.6,1,3.2,1,4.8c0,1.2-0.2,2.5-0.6,3.8v0.1h75.9v-0.2c-0.4-1.1-0.5-2.4-0.5-3.8
			c0-1.7,0.4-3.3,1-4.8c0.6-1.5,1.5-2.8,2.7-4c1.1-1.1,2.5-2,3.9-2.7c1.5-0.7,3.2-1,4.8-1c1.6,0,3.3,0.3,4.8,1
			c1.5,0.6,2.9,1.5,4,2.7c1.1,1.1,2,2.5,2.7,4c0.6,1.6,1,3.2,1,4.8c0,1.4-0.2,2.6-0.5,3.8v0.1h0.1l42.9-8.7l0,0v-37.4
			c0-3.3-1.3-6.5-3.7-8.9c-2.4-2.4-5.5-3.7-8.9-3.7H204.7c0,0,0,0-0.1,0c-1.4,0-2.4,1.1-2.5,2.3l-1.3,27.5l0.1-0.1
			c-1.4,0-2.6,1.1-2.6,2.6v21.3c0,2.8,2.3,5,5,5c0,0,0,0,0.1,0h0.1v-0.2v0.1L231.4,238.5L231.4,238.5L231.4,238.5z"/>
		<path fill="#4679BB" d="M223.3,192.4c0-1.4-1.1-2.5-2.5-2.5h-7.4c-1.4,0-2.5,1.1-2.5,2.5v36.1c0,1.4,1.1,2.4,2.5,2.4h7.4
			c1.4,0,2.5-1.1,2.5-2.4V192.4z"/>
		<path fill="#4679BB" d="M275.5,207.4c-1.4,0-2.5-1.1-2.5-2.6v-12.5c0-1.4,1.1-2.5,2.5-2.5h29.9c1.4,0,2.6,1.1,2.6,2.5v12.5
			c0,1.4-1.1,2.6-2.6,2.6H275.5z"/>
		<path fill="#4679BB" d="M234.5,207.4c-1.4,0-2.6-1.1-2.6-2.6v-12.5c0-1.4,1.1-2.5,2.6-2.5h29.9c1.3,0.1,2.4,1.1,2.4,2.5v12.5
			c0,1.4-1.1,2.5-2.4,2.5L234.5,207.4z"/>
		<path fill="#4679BB" d="M346.5,207.4c1.4,0,2.6-1.1,2.6-2.6v-12.5c0-1.4-1.1-2.6-2.6-2.6h-29.8h-0.1c-1.4,0-2.5,1.1-2.5,2.6v12.5
			c0,1.4,1.1,2.6,2.5,2.6h0.1l0,0v-0.2v0.1L346.5,207.4z"/>
		<path fill="#4679BB" d="M357.7,207.4c-1.4,0-2.5-1.1-2.5-2.6v-12.5c0-1.4,1.1-2.5,2.5-2.5h24.9c4.1,0,7.4,3.3,7.4,7.4l-0.1,7.5
			c0,1.4-1.1,2.5-2.4,2.5L357.7,207.4z"/>
		<path fill="#FFFFFF" d="M243.2,224.8c5.5,0,9.9,4.4,9.9,9.9c0,5.5-4.4,9.9-9.9,9.9c-5.5,0-9.9-4.4-9.9-9.9
			C233.3,229.2,237.7,224.8,243.2,224.8"/>
		<path fill="#4679BB" d="M243.2,229.8c2.7,0,5,2.2,5,5c0,2.7-2.2,5-5,5c-2.7,0-5-2.2-5-5C238.3,231.9,240.4,229.8,243.2,229.8"/>
		<path fill="#FFFFFF" d="M342.7,224.7c5.5,0,10,4.4,10,9.9c0,5.5-4.4,10-10,10s-10-4.4-10-10C332.8,229.2,337.3,224.7,342.7,224.7z
			"/>
		<path fill="#4679BB" d="M342.7,229.8c2.8,0,5,2.2,5,5c0,2.7-2.3,5-5,5s-5-2.2-5-5C337.7,231.9,340,229.8,342.7,229.8"/>
	</g>
	<g>
		<path fill="#FFFFFF" d="M276,134.7c1.2-4.2,2.6-8.3,3.8-12.6c0,0,0,0,0-0.1c0,0,0,0,0-0.1c0-0.2-0.1-0.4-0.3-0.5c0,0,0,0-0.1-0.1
			c-1.4-0.6-2.4-2-2.4-3.7c0-2.2,1.7-4.1,3.9-4.1c0.5,0,1,0,1.5,0c1.8,0,3.7,0,5.5,0c0,1.3,0,2.6,0,4.1c-1.7,0-3.3,0-5,0
			c-0.3,0-0.6,0-1,0c-0.2,0-0.5,0.2-0.5,0.5s0.1,0.3,0.2,0.5c1.3,0.8,2.1,1.6,2.1,3c0,0.6-0.1,0.8-0.2,1.4c-0.1,0.4-0.7,2-0.7,2
			c9.1,0,18.1,0,27.2,0c0.5-1.3,1.1-2.6,1.6-4c-2-0.5-4.1-1.1-6.2-1.6c-0.5-0.1-0.8-0.5-0.8-0.9c0-0.5,0.5-1,1.1-1
			c4.7,0,9.3,0,13.9,0c0,2.2-1.8,4-3.9,4c-0.5,1.1-0.9,2.3-1.4,3.5c1.7,3.2,3.4,6.4,5.2,9.5c1.7-0.8,3.8-1.1,5.6-1.1
			c8.2,0,14.9,6.7,14.9,14.9s-6.7,14.9-14.9,14.9c-7.7,0-14-5.8-14.9-13.4c0,0,0,0,0.1,0c-0.6,0-1.2,0-1.8,0
			c-0.4,1.4-1.1,2.6-2.5,3.5c0.5,1,1,2,1.5,3c0.8,0,1.5,0,2.3,0c0,0.6,0,1.3,0,2c-0.5,0-1.1,0-1.6,0c-0.3,0.3-0.7,0.5-1.1,0.5
			c-0.5,0-0.8-0.2-1.1-0.5c-0.7,0-1.4,0-2,0c0-0.6,0-1.3,0-2c0.6,0,1.2,0,1.9,0c-0.4-0.8-0.8-1.5-1.2-2.3c-0.8,0.3-1.1,0.3-2,0.3
			c-3.2,0-5.9-2.6-5.9-5.9c0-0.6,0.1-1.2,0.2-1.7c0,0,0,0,0-0.1c-5.6-3.9-11.3-7.7-17-11.7c-0.2,0.5-0.3,1.1-0.5,1.6
			c0,0,0,0,0.1,0.1c3.8,2.9,5.8,7.1,5.8,11.9c0,8.2-6.7,14.9-15,14.9c-8.2,0-14.9-6.7-14.9-14.9c0-8.3,6.7-14.9,14.9-14.9
			C272.8,133.6,273.7,133.8,276,134.7C275.9,134.7,275.9,134.7,276,134.7"/>
		<path fill="#4679BB" d="M298.9,148.6c0,2.2,1.7,4,4,4c2.2,0,4.1-1.7,4.1-4c0-2.2-1.8-4.1-4.1-4.1
			C300.6,144.6,298.9,146.4,298.9,148.6z"/>
		<path fill="#4679BB" d="M278.2,141.6c-0.2,0.8-0.5,1.7-0.8,2.6c-0.8,2.7-3.8,5.1-6.5,5.9c-0.1,0.1-0.2,0.1-0.5,0.1
			c-0.8,0-1.4-0.8-1.4-1.5c0-0.5,0.2-1,0.6-1.2c0.1,0,0.2-0.1,0.2-0.2c1.7-1.2,3.2-2.5,3.8-4.2c0.4-1.3,0.8-2.6,1.2-4.1
			c0,0,0,0-0.1,0c-1.3-0.6-2.7-0.9-4.3-0.9c-5.7,0-10.4,4.7-10.4,10.5c0,5.8,4.7,10.4,10.4,10.4c5.8,0,10.5-4.7,10.5-10.4
			C280.9,145.8,279.9,143.4,278.2,141.6z"/>
		<path fill="#FFFFFF" d="M306.8,144.1c2-4.9,4-9.8,5.9-14.7c1.3,2.3,2.5,4.7,3.8,7.1c0,0,0,0-0.1,0.1c-3.5,2.5-5.6,6.2-6.1,10.6
			c0,0,0,0,0.1,0c-0.6,0-1.2,0-1.8,0c-0.3-1.2-0.8-2-1.7-2.9C306.8,144.2,306.8,144.2,306.8,144.1z"/>
		<path fill="#4679BB" d="M318.6,140.5c-2.1,1.7-3.3,3.8-3.8,6.5c2.3,0,4.8,0,7.2,0C320.9,144.9,319.8,142.7,318.6,140.5
			L318.6,140.5z"/>
		<path fill="#4679BB" d="M326.5,147.9c0.1,0.2,0.2,0.5,0.2,0.7c0,0.8-0.7,1.5-1.5,1.5c-3.4,0-6.8,0-10.4,0
			c0.8,5.2,5.2,8.9,10.4,8.9c5.8,0,10.4-4.7,10.4-10.4c0-5.8-4.7-10.5-10.4-10.5c-1.1,0-2.5,0.2-3.5,0.6
			C323.3,141.8,324.9,144.8,326.5,147.9z"/>
		<path fill="#4679BB" d="M299.5,143.6c-0.5-1-1-2-1.5-3c-0.8,0-1.6,0-2.4,0c0-0.6,0-1.3,0-2c0.5,0,1.1,0,1.6,0c0,0,0,0,0.1-0.1
			c0.3-0.3,0.7-0.5,1.1-0.5c0.5,0,0.8,0.2,1.1,0.5c0,0,0,0,0,0.1c0.7,0,1.4,0,2,0c0,0.6,0,1.3,0,2c-0.6,0-1.2,0-1.8,0
			c0.4,0.8,0.8,1.5,1.1,2.3c0,0,0.1,0,0.2-0.1c0.6-0.2,1.2-0.3,1.8-0.3c0.1,0,0.2,0,0.2,0s0,0,0.1,0c1.9-4.7,3.8-9.3,5.7-13.9
			c-9,0-17.9,0-26.9,0c-0.2,0.9-0.5,1.8-0.8,2.8c6,4.1,12,8.2,18,12.4C299.2,143.8,299.4,143.7,299.5,143.6z"/>
		<path fill="#4679BB" d="M306.8,144.1c2-5,4.1-9.9,5.9-14.7h-0.1c1.1,2.2,2.4,4.7,3.8,7.1l0,0l-0.1,0.1c-1.7,1.3-3.2,2.8-4.2,4.6
			c-1.1,1.8-1.7,3.8-2,5.9v0.1h0.2v-0.1h-1.8l0,0C308.3,145.8,307.8,145,306.8,144.1L306.8,144.1L306.8,144.1L306.8,144.1"/>
	</g>
</g>
</svg>
