<?xml version="1.0" encoding="utf-8"?>
<!-- Generator: Adobe Illustrator 17.1.0, SVG Export Plug-In . SVG Version: 6.00 Build 0)  -->
<!DOCTYPE svg PUBLIC "-//W3C//DTD SVG 1.1//EN" "http://www.w3.org/Graphics/SVG/1.1/DTD/svg11.dtd">
<svg version="1.1" id="Layer_1" xmlns="http://www.w3.org/2000/svg" xmlns:xlink="http://www.w3.org/1999/xlink" x="0px" y="0px"
	 viewBox="155.9 70.9 283.5 283.5" enable-background="new 155.9 70.9 283.5 283.5" xml:space="preserve">
<g>
	<path fill="#4679BB" d="M297.6,93.7c65.6,0,118.9,53.3,118.9,118.9s-53.4,118.9-118.9,118.9s-118.9-53.3-118.9-118.9
		C178.7,147,232,93.7,297.6,93.7v-1.6c-66.5,0-120.5,54.1-120.5,120.5s54.1,120.5,120.5,120.5c66.5,0,120.5-54,120.5-120.5
		S364,92.1,297.6,92.1V93.7"/>
	<path fill="#4679BB" d="M297.6,97.3c63.5,0,114.9,51.5,114.9,114.9c0,63.5-51.5,114.9-114.9,114.9c-63.5,0-114.9-51.5-114.9-114.9
		C182.7,148.8,234.2,97.3,297.6,97.3"/>
	<g>
		<path fill="#FFFFFF" d="M231.4,238.4c-0.4-1.1-0.5-2.4-0.5-3.8c0-6.8,5.6-12.4,12.4-12.4c1.7,0,3.3,0.3,4.8,1
			c1.4,0.6,2.9,1.5,3.9,2.7c1.1,1.1,2,2.5,2.7,4c0.7,1.6,1,3.2,1,4.8c0,1.2-0.2,2.5-0.6,3.8v0.1h75.9v-0.1c-0.4-1.1-0.5-2.4-0.5-3.8
			c0-1.7,0.4-3.3,1-4.8c0.6-1.5,1.5-2.8,2.7-4c1.1-1.1,2.5-2,3.9-2.7c1.5-0.7,3.2-1,4.8-1c1.6,0,3.3,0.3,4.8,1
			c1.5,0.6,2.9,1.5,4,2.7c1.1,1.1,2,2.5,2.7,4c0.6,1.6,1,3.2,1,4.8c0,1.4-0.2,2.6-0.5,3.8v0.1h0.1l42.9-8.7l0,0v-37.4
			c0-3.3-1.3-6.5-3.7-8.9c-2.4-2.4-5.5-3.7-8.9-3.7H204.7c0,0,0,0-0.1,0c-1.4,0-2.4,1.1-2.5,2.3l-1.3,27.5l0.1-0.1
			c-1.4,0-2.6,1.1-2.6,2.6v21.2c0,2.8,2.3,5,5,5c0,0,0,0,0.1,0h0.1v-0.2v0.1L231.4,238.4L231.4,238.4L231.4,238.4z"/>
		<path fill="#4679BB" d="M223.3,192.3c0-1.4-1.1-2.5-2.5-2.5h-7.4c-1.4,0-2.5,1.1-2.5,2.5v36.1c0,1.4,1.1,2.4,2.5,2.4h7.4
			c1.4,0,2.5-1.1,2.5-2.4V192.3z"/>
		<path fill="#4679BB" d="M275.5,207.3c-1.4,0-2.5-1.1-2.5-2.6v-12.5c0-1.4,1.1-2.5,2.5-2.5h29.9c1.4,0,2.6,1.1,2.6,2.5v12.5
			c0,1.4-1.1,2.6-2.6,2.6H275.5z"/>
		<path fill="#4679BB" d="M234.5,207.3c-1.4,0-2.6-1.1-2.6-2.6v-12.5c0-1.4,1.1-2.5,2.6-2.5h29.9c1.3,0.1,2.4,1.1,2.4,2.5v12.5
			c0,1.4-1.1,2.5-2.4,2.5L234.5,207.3z"/>
		<path fill="#4679BB" d="M346.5,207.3c1.4,0,2.6-1.1,2.6-2.6v-12.5c0-1.4-1.1-2.6-2.6-2.6h-29.8h-0.1c-1.4,0-2.5,1.1-2.5,2.6v12.5
			c0,1.4,1.1,2.6,2.5,2.6h0.1l0,0v-0.2v0.1L346.5,207.3z"/>
		<path fill="#4679BB" d="M357.7,207.3c-1.4,0-2.5-1.1-2.5-2.6v-12.5c0-1.4,1.1-2.5,2.5-2.5h24.9c4.1,0,7.4,3.3,7.4,7.4l-0.1,7.5
			c0,1.4-1.1,2.5-2.4,2.5L357.7,207.3z"/>
		<path fill="#FFFFFF" d="M243.2,224.7c5.5,0,9.9,4.4,9.9,9.9c0,5.5-4.4,9.9-9.9,9.9c-5.5,0-9.9-4.4-9.9-9.9
			C233.3,229.1,237.7,224.7,243.2,224.7"/>
		<path fill="#4679BB" d="M243.2,229.7c2.7,0,5,2.2,5,5c0,2.7-2.2,5-5,5c-2.7,0-5-2.2-5-5C238.3,231.9,240.4,229.7,243.2,229.7"/>
		<path fill="#FFFFFF" d="M342.7,224.7c5.5,0,10,4.4,10,9.9c0,5.5-4.4,10-10,10s-10-4.4-10-10C332.8,229.1,337.3,224.7,342.7,224.7z
			"/>
		<path fill="#4679BB" d="M342.7,229.7c2.8,0,5,2.2,5,5c0,2.7-2.3,5-5,5s-5-2.2-5-5S340,229.7,342.7,229.7"/>
	</g>
</g>
</svg>
