<?xml version="1.0" encoding="utf-8"?>
<!-- Generator: Adobe Illustrator 17.1.0, SVG Export Plug-In . SVG Version: 6.00 Build 0)  -->
<!DOCTYPE svg PUBLIC "-//W3C//DTD SVG 1.1//EN" "http://www.w3.org/Graphics/SVG/1.1/DTD/svg11.dtd">
<svg version="1.1" id="Layer_1" xmlns="http://www.w3.org/2000/svg" xmlns:xlink="http://www.w3.org/1999/xlink" x="0px" y="0px"
	 viewBox="155.9 70.9 283.5 283.5" enable-background="new 155.9 70.9 283.5 283.5" xml:space="preserve">
<g>
	<path fill="#4679BB" d="M297.6,93.7c65.6,0,118.9,53.3,118.9,118.9s-53.4,118.9-118.9,118.9s-118.9-53.3-118.9-118.9
		C178.7,147,232,93.7,297.6,93.7v-1.6c-66.5,0-120.5,54.1-120.5,120.5s54.1,120.5,120.5,120.5c66.5,0,120.5-54,120.5-120.5
		S364,92.1,297.6,92.1V93.7"/>
	<path fill="#4679BB" d="M297.6,97.3c63.5,0,114.9,51.5,114.9,114.9c0,63.5-51.5,114.9-114.9,114.9c-63.5,0-114.9-51.5-114.9-114.9
		C182.7,148.8,234.2,97.3,297.6,97.3"/>
	<g>
		<path fill="#FFFFFF" d="M254,187.2c-0.3-0.8-0.3-1.7-0.3-2.6c0-4.7,3.9-8.5,8.5-8.5c1.2,0,2.3,0.2,3.3,0.7c1,0.4,2,1,2.7,1.9
			c0.8,0.8,1.4,1.7,1.9,2.8c0.5,1.1,0.7,2.2,0.7,3.3c0,0.8-0.1,1.7-0.4,2.6v0.1h52.3v-0.1c-0.3-0.8-0.3-1.7-0.3-2.6
			c0-1.2,0.3-2.3,0.7-3.3c0.4-1,1-1.9,1.9-2.8c0.8-0.8,1.7-1.4,2.7-1.9c1-0.5,2.2-0.7,3.3-0.7s2.3,0.2,3.3,0.7c1,0.4,2,1,2.8,1.9
			c0.8,0.8,1.4,1.7,1.9,2.8c0.4,1.1,0.7,2.2,0.7,3.3c0,1-0.1,1.8-0.3,2.6v0.1h0.1l29.6-6l0,0v-25.8c0-2.3-0.9-4.5-2.6-6.1
			c-1.7-1.7-3.8-2.6-6.1-2.6H235.7c0,0,0,0-0.1,0c-1,0-1.7,0.8-1.7,1.6l-0.9,19l0.1-0.1c-1,0-1.8,0.8-1.8,1.8v14.6
			c0,1.9,1.6,3.4,3.4,3.4c0,0,0,0,0.1,0h0.1v-0.1v0.1L254,187.2L254,187.2L254,187.2z"/>
		<path fill="#4679BB" d="M248.5,155.5c0-1-0.8-1.7-1.7-1.7h-5.1c-1,0-1.7,0.8-1.7,1.7v24.9c0,1,0.8,1.7,1.7,1.7h5.1
			c1,0,1.7-0.8,1.7-1.7V155.5z"/>
		<path fill="#4679BB" d="M284.5,165.8c-1,0-1.7-0.8-1.7-1.8v-8.6c0-1,0.8-1.7,1.7-1.7h20.6c1,0,1.8,0.8,1.8,1.7v8.6
			c0,1-0.8,1.8-1.8,1.8H284.5z"/>
		<path fill="#4679BB" d="M256.2,165.8c-1,0-1.8-0.8-1.8-1.8v-8.6c0-1,0.8-1.7,1.8-1.7h20.6c0.9,0.1,1.7,0.8,1.7,1.7v8.6
			c0,1-0.8,1.7-1.7,1.7L256.2,165.8z"/>
		<path fill="#4679BB" d="M333.4,165.8c1,0,1.8-0.8,1.8-1.8v-8.6c0-1-0.8-1.8-1.8-1.8h-20.5h-0.1c-1,0-1.7,0.8-1.7,1.8v8.6
			c0,1,0.8,1.8,1.7,1.8h0.1l0,0v-0.1v0.1H333.4z"/>
		<path fill="#4679BB" d="M341.2,165.8c-1,0-1.7-0.8-1.7-1.8v-8.6c0-1,0.8-1.7,1.7-1.7h17.2c2.8,0,5.1,2.3,5.1,5.1l-0.1,5.2
			c0,1-0.8,1.7-1.7,1.7L341.2,165.8z"/>
		<path fill="#FFFFFF" d="M262.2,177.8c3.8,0,6.8,3,6.8,6.8s-3,6.8-6.8,6.8c-3.8,0-6.8-3-6.8-6.8
			C255.3,180.9,258.4,177.8,262.2,177.8"/>
		<path fill="#4679BB" d="M262.2,181.2c1.9,0,3.4,1.5,3.4,3.4c0,1.9-1.5,3.4-3.4,3.4s-3.4-1.5-3.4-3.4
			C258.8,182.8,260.2,181.2,262.2,181.2"/>
		<path fill="#FFFFFF" d="M330.8,177.8c3.8,0,6.9,3,6.9,6.8s-3,6.9-6.9,6.9s-6.9-3-6.9-6.9C324,180.8,327.1,177.8,330.8,177.8z"/>
		<path fill="#4679BB" d="M330.8,181.2c1.9,0,3.4,1.5,3.4,3.4c0,1.9-1.6,3.4-3.4,3.4c-1.8,0-3.4-1.5-3.4-3.4
			C327.4,182.7,329,181.2,330.8,181.2"/>
	</g>
	<g>
		<path fill="#FFFFFF" d="M365.8,264.1h-11v2.2h-6.6c0,2.4-2,4.4-4.4,4.4s-4.4-2-4.4-4.4h-6.6c0,2.4-1.9,4.3-4.3,4.4h-0.1
			c-2.4,0-4.4-2-4.4-4.4h-48.1c0,2.4-2,4.4-4.4,4.4s-4.4-2-4.4-4.4h-6.6c0,2.4-1.9,4.4-4.4,4.4c-2.4,0-4.4-2-4.4-4.4h-6.6v-2.2
			h-10.9v-19.7l3.7-15.1c0.4-1.4,1.7-2.4,3.2-2.4h43.5l1.5-1.5c0.4-0.4,1-0.6,1.5-0.6h10.1l-11-7.7l10.4-7.7v-3.3
			c0-0.6,0.5-1.1,1.1-1.1h3.3c0.6,0,1.1,0.5,1.1,1.1v3.3l10.4,7.7l-11,7.7h10.1c0.6,0,1.1,0.3,1.5,0.7l1.6,1.5h43.5
			c1.5,0,2.8,1,3.2,2.4l3.8,15.1L365.8,264.1L365.8,264.1z"/>
		<polyline fill="#4679BB" points="300,209.3 289.6,217 300,224.1 310.4,217 300,209.3 		"/>
		<path fill="#4679BB" d="M251.9,234L251.9,234C251.8,233.9,251.8,233.9,251.9,234c-0.1-1,0.6-1.7,1.5-1.7c0,0,0,0,0.1,0h5.4
			c0.9,0,1.6,0.7,1.6,1.6c0,0,0,0,0,0.1v26.2c0,0.9-0.7,1.6-1.6,1.6h-5.4c0,0,0,0-0.1,0c-0.9,0-1.6-0.7-1.6-1.6L251.9,234z"/>
		<path fill="#4679BB" d="M262.8,234L262.8,234C262.7,233.9,262.7,233.9,262.8,234c-0.1-1,0.7-1.7,1.5-1.7h5.5
			c0.9,0,1.7,0.7,1.7,1.6c0,0,0,0,0,0.1v26.2c0,0.9-0.7,1.6-1.7,1.6h-5.5c-0.9,0-1.6-0.7-1.6-1.6L262.8,234z"/>
		<path fill="#4679BB" d="M339.5,234L339.5,234C339.4,233.9,339.4,233.9,339.5,234c-0.1-1,0.6-1.7,1.5-1.7h0.1h5.5
			c0.9,0,1.5,0.7,1.5,1.6c0,0,0,0,0,0.1v26.2c0,0.9-0.7,1.6-1.5,1.6h-5.5c0,0,0,0-0.1,0c-0.9,0-1.6-0.7-1.6-1.6L339.5,234z"/>
		<path fill="#4679BB" d="M328.6,234L328.6,234C328.5,233.9,328.5,233.9,328.6,234c-0.1-1,0.7-1.7,1.5-1.7h5.5
			c0.9,0,1.7,0.7,1.7,1.6c0,0,0,0,0,0.1v26.2c0,0.9-0.7,1.6-1.7,1.6h-5.5c-0.9,0-1.6-0.7-1.6-1.6L328.6,234z"/>
		<path fill="#4679BB" d="M307,242.7L307,242.7c0,0.9-0.7,1.5-1.5,1.5h-10.9c0,0,0,0-0.1,0c-0.8,0-1.6-0.7-1.6-1.5v-8.8
			c0,0,0,0,0-0.1c0-0.9,0.7-1.6,1.6-1.6h0.1h10.9c0.9,0,1.6,0.7,1.6,1.6c0,0,0,0,0,0.1L307,242.7z"/>
		<path fill="#4679BB" d="M289.1,242.7L289.1,242.7c0,0.8-0.6,1.5-1.5,1.5h-11c-0.9,0-1.6-0.7-1.7-1.5v-8.8c0,0,0,0,0-0.1
			c0-0.9,0.8-1.6,1.7-1.6h11c0.8,0,1.5,0.7,1.5,1.6c0,0,0,0,0,0.1V242.7z"/>
		<path fill="#4679BB" d="M324.8,242.7L324.8,242.7c0,0.9-0.7,1.5-1.5,1.5h-10.9c0,0,0,0-0.1,0c-0.9,0-1.6-0.7-1.6-1.5v-8.8
			c0,0,0,0,0-0.1c0-0.9,0.7-1.6,1.6-1.6c0,0,0,0,0.1,0h10.9c0.9,0,1.6,0.7,1.6,1.6c0,0,0,0,0,0.1L324.8,242.7z"/>
		<path fill="#4679BB" d="M352.2,242.7L352.2,242.7c0,0.9,0.7,1.5,1.5,1.5h5.4c1.2,0,2.1-1,2.1-2.2c0-0.2,0-0.3-0.1-0.5l-2-8.2
			c-0.2-0.7-0.8-1.1-1.5-1.1h-3.9c-0.9,0-1.7,0.7-1.7,1.6c0,0,0,0,0,0.1L352.2,242.7z"/>
		<path fill="#4679BB" d="M247.9,242.7L247.9,242.7c0,0.9-0.7,1.5-1.6,1.5h-5.4c-1.2,0-2.2-1-2.2-2.2c0-0.2,0-0.3,0.1-0.5l2-8.2
			c0.2-0.7,0.8-1.1,1.5-1.1h0.1h3.9c0.9,0,1.7,0.7,1.7,1.6c0,0,0,0,0,0.1L247.9,242.7z"/>
	</g>
</g>
</svg>
