<?xml version="1.0" encoding="utf-8"?>
<!-- Generator: Adobe Illustrator 17.1.0, SVG Export Plug-In . SVG Version: 6.00 Build 0)  -->
<!DOCTYPE svg PUBLIC "-//W3C//DTD SVG 1.1//EN" "http://www.w3.org/Graphics/SVG/1.1/DTD/svg11.dtd">
<svg version="1.1" id="Layer_1" xmlns="http://www.w3.org/2000/svg" xmlns:xlink="http://www.w3.org/1999/xlink" x="0px" y="0px"
	 viewBox="155.9 28.3 283.5 368.5" enable-background="new 155.9 28.3 283.5 368.5" xml:space="preserve">
<g>
	<path fill="#FFFFFF" stroke="#272525" stroke-width="0.53" d="M384.2,387.3H211c-4.7,0-8.5-3.8-8.5-8.5v-83.9
		c0-4.7,3.8-8.5,8.5-8.5h173.2c4.7,0,8.5,3.8,8.5,8.5v83.9C392.6,383.5,388.8,387.3,384.2,387.3z"/>
	<g>
		<path fill="#272525" d="M250.3,327.3c0.3-0.1,0.6-0.2,0.9-0.4c2.2-1,3.7-2.8,4.5-5.4c0.8-2.4,0.5-4.7-1.1-7l-0.7-0.7
			c-0.1-0.1-0.1-0.2-0.2-0.2c-0.1-0.1-0.2-0.2-0.4-0.3l-0.2-0.2l-0.4-0.2c-0.4-0.2-0.9-0.4-1.5-0.6l-0.6-0.2l-2-0.5h-0.2l-2.3-0.5
			H246l-0.6-0.1c-0.2,0-0.4-0.1-0.7-0.2l-0.7-0.1h-0.2l-0.7-0.3l-0.5-0.3c-0.6-0.7-0.9-1.5-0.9-2.5c0.5-1.5,1.7-2.2,3.5-2.3
			c2.5-0.2,4.5,0.7,6.2,2.9l0.2,0.3l0.3-0.2c0.1-0.1,0.3-0.2,0.4-0.4c0.3-0.2,0.6-0.4,0.8-0.7c0.2-0.1,0.4-0.3,0.6-0.5l0.5-0.4
			c0.2-0.1,0.4-0.3,0.6-0.5l0.7-0.4l-0.3-0.4c-2.3-3.4-5.9-4.8-10.6-4.4c-5.4,0.5-8.2,3.3-8.3,8.4c0.5,4.2,3.1,6.7,7.7,7.2
			c0.3,0.1,0.7,0.2,1.1,0.3l0.5,0.1h0.1l0.6,0.1h0.1c0.3,0.1,0.6,0.2,1,0.2l0.9,0.2l0.1,0.1h0.1c0.2,0,0.4,0.1,0.6,0.2h0.1
			c0.9,0.7,1.3,1.7,1.3,2.9c-0.1,0.3-0.2,0.6-0.5,0.9l-0.1,0.2c-0.2,0.1-0.4,0.3-0.6,0.6c-3.8,1.8-7,0.9-9.7-2.6l-0.1-0.2H239
			l-0.1,0.1c-0.3,0.2-0.7,0.5-1,0.8c-0.1,0-0.1,0.1-0.2,0.1l-1,0.8l-0.2,0.1c-0.3,0.1-0.5,0.4-0.8,0.6c-0.1,0-0.1,0.1-0.2,0.1
			l-0.2,0.1l-0.3,0.5l0.2,0.2c2.8,3.3,6.4,5,10.7,5C247.7,327.7,248.9,327.6,250.3,327.3z"/>
		<path fill="#272525" d="M263,326.6c1.3,0.8,2.6,1.2,4,1.2c1.5,0,2.9-0.5,4.3-1.5v1h4.9v-18.9h-4.9v11.5l-0.2,0.9v0.2
			c-0.6,1.1-1.5,1.8-2.7,2.1h-0.1c-1,0-1.8-0.4-2.5-1.4c-0.1-0.3-0.2-0.7-0.3-1.1c0-0.1,0-0.2-0.1-0.3v-0.1v-11.8h-4.8v13.3
			c-0.1,0.5,0,0.9,0.1,1.4l0.1,0.5C261.1,324.7,261.9,325.7,263,326.6z"/>
		<path fill="#272525" d="M292.6,309.2c-2.1-1.3-4.4-1.5-7-0.6c-2.9,1.2-4.7,3.5-5.4,6.9c-0.9,6.5,1.5,10.6,7.3,12.2
			c0.3,0,0.7,0.1,1,0.1c1.5,0,2.8-0.4,4.1-1.3c0,0.1,0,0.2,0,0.3v0.6h5v-26.1h-5V309.2z"/>
		<path fill="#FFFFFF" d="M292.5,318.4c0.1,1.7-0.3,2.9-1,3.6c-0.8,0.7-2.1,0.9-3.8,0.6c-1.5-0.8-2.4-2.2-2.7-4.2
			c-0.2-2.9,1-4.7,3.6-5.6c1.5,0.1,2.5,0.5,3.2,1.2C292.5,315,292.8,316.4,292.5,318.4z"/>
		<path fill="#272525" d="M313.9,327.3h5v-26.1h-5v8c-2.1-1.3-4.4-1.5-7.1-0.6c-2.9,1.2-4.7,3.5-5.4,6.9c-0.9,6.5,1.5,10.6,7.3,12.2
			c0.3,0.1,0.7,0.1,1,0.1c1.5,0,2.8-0.4,4.1-1.3c0,0.1,0,0.2,0,0.3L313.9,327.3L313.9,327.3z"/>
		<path fill="#FFFFFF" d="M313.8,318.4c0.1,1.7-0.3,2.9-1,3.6c-0.8,0.7-2.1,0.9-3.8,0.6c-1.5-0.8-2.4-2.2-2.7-4.2
			c-0.2-2.9,1-4.7,3.6-5.6c1.5,0.1,2.5,0.5,3.2,1.2C313.8,315,314.1,316.4,313.8,318.4z"/>
		<path fill="#272525" d="M331.8,327.8c2.5,0,4.8-0.9,7-2.7l0.3-0.3l-1.2-1.3c0-0.1-0.1-0.1-0.2-0.2c-0.2-0.3-0.4-0.5-0.7-0.8
			l-0.1-0.1l-0.1-0.2l-0.1-0.1c-0.2-0.1-0.3-0.3-0.4-0.5l-0.3-0.4l-0.4,0.3c-1.3,1.2-2.9,1.7-4.9,1.5c-1.7-0.3-2.7-1.4-3-3.1h12.1
			v-2.4c0-0.1,0-0.2-0.1-0.3l-0.1-0.9l0,0c-0.6-5.3-3.6-8-9.1-8.2c-5.6,0.9-8.3,4.5-8.1,11c0.4,4.4,2.6,7.3,6.6,8.6
			C330.2,327.7,331,327.8,331.8,327.8z"/>
		<path fill="#FFFFFF" d="M331,312.5c1.7,0,2.9,0.9,3.6,2.5c0,0.2,0.1,0.4,0.2,0.6c0,0.1,0,0.2,0,0.2h-7.1
			C328,314.1,329.1,313,331,312.5z"/>
		<path fill="#272525" d="M358.8,312.1v-0.3c-1.3-2.6-3.5-4-6.7-4c-0.1,0-0.2,0-0.3,0c-1.3,0.2-2.5,0.7-3.6,1.5v-1.1h-4.8v18.9h4.8
			v-11.4l0.2-1c0.4-0.9,1.2-1.6,2.1-2c0.9-0.3,1.6-0.3,2.2,0c0.6,0.3,1.1,1,1.4,1.9l0.1,0.3v12.2h4.9v-14.3
			C359,312.7,358.9,312.4,358.8,312.1z"/>
		<path fill="#272525" d="M251.3,349.9c-1.3-0.8-2.8-1.2-4.6-1.2c-0.1,0-0.2,0-0.2,0c-2.5,0.4-4.5,1.8-5.8,4.2
			c-1.4,2.4-1.6,5.2-0.6,8.2c0.7,2.4,2.3,4.2,4.9,5.2c2.2,0.7,4.3,0.4,6.3-0.9v1.9c-0.1,0.3-0.2,0.6-0.5,1l-0.1,0.2
			c-2.4,1.4-5.2,1.3-8.3-0.4l-0.5-0.2l-0.3,0.9c-0.1,0.2-0.3,0.5-0.4,0.8l-0.5,1.1l-0.6,1.3l0.3,0.2c2.2,1.2,4.5,1.9,7.1,1.9
			c1.4,0,2.9-0.2,4.5-0.6l1.4-0.7l0.4-0.4c0.5-0.4,0.9-0.8,1.2-1.4l0.3-0.4l0.5-1.3l0.2-1.3v-18.8h-4.8L251.3,349.9L251.3,349.9z"/>
		<path fill="#FFFFFF" d="M248.2,361.9c-2.1-0.1-3.3-1.3-3.6-3.5c-0.2-1.6,0.3-3,1.4-4.4l1.3-0.5h0.2c0.1,0,0.2,0,0.3-0.1
			c2.3,0.1,3.4,1.4,3.5,4C251.4,360.2,250.4,361.6,248.2,361.9z"/>
		<path fill="#272525" d="M271.8,360.5l-0.2,0.9v0.2c-0.6,1.1-1.5,1.8-2.7,2.1h-0.1c-1,0-1.8-0.4-2.5-1.4c-0.1-0.3-0.2-0.7-0.3-1.1
			c0-0.1,0-0.2-0.1-0.3v-0.1V349h-4.8v13.3c-0.1,0.5,0,0.9,0.1,1.4l0.1,0.5c0.4,1.1,1.2,2.1,2.3,3c1.3,0.8,2.6,1.2,4,1.2
			c1.5,0,2.9-0.5,4.3-1.5v1h4.9v-18.9h-4.9L271.8,360.5L271.8,360.5z"/>
		<path fill="#272525" d="M297.2,352.7v-0.3c-1.3-2.6-3.5-4-6.7-4c-0.1,0-0.2,0-0.3,0c-1.3,0.2-2.5,0.7-3.6,1.5v-1.1h-4.8v18.9h4.8
			v-11.4l0.2-1c0.4-0.9,1.1-1.6,2.1-2c0.9-0.3,1.6-0.3,2.2,0c0.6,0.3,1.1,1,1.4,1.9l0.1,0.3v12.2h4.9v-14.3
			C297.5,353.3,297.4,353,297.2,352.7z"/>
		<path fill="#272525" d="M312.3,342.1c-0.7-0.2-1.6-0.3-2.7-0.3h-1c-2.1,0.1-3.8,1.1-5.1,2.9l-0.1,0.1c-0.3,0.8-0.4,1.7-0.4,2.8
			v1.6h-2.9v4.2h2.9V368h4.9v-14.6h3.3v-4.2h-3.3v-1.3c0.7-1.5,1.9-1.9,3.7-1.3l0.5,0.1l0.1-1.5c0-0.2,0.1-0.4,0.1-0.7l0.1-0.8v-0.3
			l0.2-1.1L312.3,342.1z"/>
		<path fill="#272525" d="M317,342L317,342c-1.9,0.6-2.6,1.9-2.1,3.9c0.4,0.8,1.2,1.7,2.5,1.7c0.5,0,1.2-0.1,1.9-0.5l0.1-0.1
			c0.7-0.7,1-1.6,1-2.8v-0.1C319.8,342.7,318.6,341.9,317,342z"/>
		<rect x="315" y="349.1" fill="#272525" width="4.9" height="18.9"/>
		<path fill="#272525" d="M329.9,350.3C329.9,350.2,329.9,350.2,329.9,350.3V349H325v18.8h4.9v-10.3l0.2-1.4
			c0.9-1.7,2.3-2.5,4.3-2.5c0.2,0,0.4,0,0.5,0h0.4v-5.1h-1.3C332.5,348.6,331.1,349.2,329.9,350.3z"/>
		<path fill="#272525" d="M355.2,356.9L355.2,356.9c-0.6-5.3-3.6-8-9.1-8.2c-5.6,0.9-8.3,4.5-8.1,11c0.4,4.4,2.6,7.3,6.6,8.6
			c0.9,0.2,1.7,0.3,2.6,0.3c2.5,0,4.8-0.9,7-2.7l0.3-0.3l-1.2-1.3c0-0.1-0.1-0.1-0.2-0.2c-0.2-0.3-0.4-0.5-0.7-0.8l-0.1-0.1
			l-0.1-0.2l-0.1-0.1c-0.2-0.1-0.3-0.3-0.4-0.5l-0.3-0.4l-0.4,0.3c-1.3,1.2-3,1.7-4.9,1.5c-1.7-0.3-2.7-1.4-3-3.1h12.1v-2.4
			c0-0.1,0-0.2-0.1-0.3L355.2,356.9z"/>
		<path fill="#FFFFFF" d="M343.1,356.5c0.2-1.8,1.3-2.9,3.2-3.4c1.7,0,2.9,0.9,3.6,2.5c0,0.2,0.1,0.4,0.2,0.6c0,0.1,0,0.2,0,0.2
			L343.1,356.5L343.1,356.5z"/>
	</g>
	<path fill="#ED1C24" d="M415.6,278.1c6.4-0.1,12.4-3.5,15.5-9.1c3.2-5.6,3.2-12.5,0-18l-118-204c-3.2-5.6-9.2-9.1-15.6-9.1
		c-6.5,0-12.4,3.4-15.5,9L164.2,251c-3.3,5.6-3.3,12.5,0,18c3.2,5.6,9.2,9,15.5,9L415.6,278.1"/>
	<polygon fill="#FFFFFF" points="190.2,254 405.2,254 297.6,68 	"/>
	<path fill="#1F1D1E" d="M296.9,211.8c8.9,0,15.9,7.2,15.9,15.9c0,8.9-7.2,15.9-15.9,15.9s-15.9-7.2-15.9-15.9
		C280.8,218.9,288,211.8,296.9,211.8"/>
	<path fill="#1F1D1E" d="M294.6,203.8h4.8l17.9-70.8c0.3-1.4,0.4-2.8,0.4-4.3c0-11.5-9.3-20.7-20.7-20.7c-11.5,0-20.8,9.3-20.8,20.7
		c0,1.4,0.2,2.9,0.4,4.3L294.6,203.8"/>
</g>
</svg>
