<?xml version="1.0" encoding="utf-8"?>
<!-- Generator: Adobe Illustrator 17.1.0, SVG Export Plug-In . SVG Version: 6.00 Build 0)  -->
<!DOCTYPE svg PUBLIC "-//W3C//DTD SVG 1.1//EN" "http://www.w3.org/Graphics/SVG/1.1/DTD/svg11.dtd">
<svg version="1.1" id="Layer_1" xmlns="http://www.w3.org/2000/svg" xmlns:xlink="http://www.w3.org/1999/xlink" x="0px" y="0px"
	 viewBox="155.9 70.9 283.5 283.5" enable-background="new 155.9 70.9 283.5 283.5" xml:space="preserve">
<g>
	<path fill="#ED1C24" d="M415.8,332.8c6.4-0.1,12.4-3.5,15.6-9.1c3.2-5.6,3.2-12.5,0-18.1L313.2,101.5c-3.2-5.6-9.2-9.1-15.7-9.1
		c-6.5,0-12.4,3.4-15.6,9L164,305.8c-3.3,5.6-3.3,12.5,0,18.1c3.2,5.6,9.2,9,15.6,9H415.8"/>
	<polygon fill="#FFFFFF" points="190.1,308.7 405.3,308.7 297.6,122.5 	"/>
	<polygon fill="#272525" points="240.6,287.8 248.6,287.8 248.6,270.3 265.8,270.3 265.8,263 248.6,263 248.6,253 267.4,253 
		267.4,245.9 240.6,245.9 	"/>
	<path fill="#272525" d="M297.7,263.5c-3-4.7-7.5-7.1-13.5-7.1c-0.3,0-0.7,0-1,0c-8.9,2-13.1,8.1-12.6,18.1
		c0.3,4.9,2.5,8.9,6.8,11.9c2.3,1.5,4.8,2.2,7.6,2.2c1.4,0,2.8-0.2,4.3-0.6c5.2-1.4,8.4-4.8,9.7-10.3
		C300.1,273.2,299.7,268.4,297.7,263.5L297.7,263.5z"/>
	<path fill="#FFFFFF" d="M291.9,274.9c-0.5,4-2.7,6.2-6.9,6.5c-4.1-0.4-6.4-2.9-7-7.5c-0.5-5.7,1.6-9.1,6.4-10.3
		c2.7,0.2,4.8,1.1,6,2.6C292,268.1,292.5,271,291.9,274.9z"/>
	<path fill="#272525" d="M314.5,259.9c0-0.2,0-0.5,0-0.8v-1.6h-7.4v30.1h7.4v-16.6l0.4-2.4c1.6-3,4.3-4.4,8.2-4.2h0.4v-7.8h-1.8
		C318.9,256.8,316.5,257.8,314.5,259.9z"/>
	<path fill="#272525" d="M348.7,245.9V259c-3.4-2.4-7.3-2.7-11.6-1.2c-4.6,1.9-7.5,5.6-8.6,11c-1.5,10.4,2.4,17,11.6,19.5
		c0.5,0.1,1.1,0.1,1.6,0.1c2.5,0,4.8-0.8,7-2.5c0,0.3,0,0.6,0,0.9v0.8h7.5v-41.9L348.7,245.9L348.7,245.9L348.7,245.9z"/>
	<path fill="#FFFFFF" d="M346.9,279.5c-1.3,1.2-3.5,1.5-6.4,1c-2.5-1.4-4-3.8-4.6-7c-0.3-4.8,1.6-7.9,6-9.4c2.5,0.1,4.3,0.8,5.4,2.1
		c1.3,1.5,1.7,3.9,1.3,7.2C348.8,276.3,348.2,278.4,346.9,279.5z"/>
</g>
</svg>
