<?xml version="1.0" encoding="utf-8"?>
<!-- Generator: Adobe Illustrator 17.1.0, SVG Export Plug-In . SVG Version: 6.00 Build 0)  -->
<!DOCTYPE svg PUBLIC "-//W3C//DTD SVG 1.1//EN" "http://www.w3.org/Graphics/SVG/1.1/DTD/svg11.dtd">
<svg version="1.1" id="Layer_1" xmlns="http://www.w3.org/2000/svg" xmlns:xlink="http://www.w3.org/1999/xlink" x="0px" y="0px"
	 viewBox="155.9 70.9 283.5 283.5" enable-background="new 155.9 70.9 283.5 283.5" xml:space="preserve">
<g>
	<path fill="#ED1C24" d="M416.1,333.1c6.4-0.1,12.4-3.5,15.6-9.1c3.2-5.6,3.2-12.5,0-18.1L313.3,101.1c-3.2-5.6-9.2-9.1-15.7-9.1
		c-6.5,0-12.4,3.4-15.6,9L163.7,306c-3.3,5.6-3.3,12.5,0,18.1c3.2,5.6,9.2,9,15.6,9L416.1,333.1"/>
	<polygon fill="#FFFFFF" points="189.8,308.9 405.6,308.9 297.6,122.2 	"/>
	<path fill="#272525" d="M245.2,255.8L245.2,255.8l0.2-0.2l0.2-0.3c0.1-0.1,0.2-0.1,0.2-0.2c0.1-0.1,0.2-0.1,0.2-0.2l0.6-0.4
		c5.2-3.9,10.4-3.6,15.8,0.9l0.9,1.5l0.2,0.2c0,0.1,0.1,0.1,0.1,0.1c0.1,0.3,0.2,0.6,0.4,1l0.1,0.3l0.3-0.1c0.4-0.1,0.8-0.3,1.2-0.6
		l1.4-0.6l0.1-0.1l0.6-0.2l0.2-0.1l0.2-0.2l0.2-0.1c0.1,0,0.2-0.1,0.3-0.3c0.3-0.1,0.7-0.3,1-0.5l1.2-0.5l-0.2-0.4
		c-3.6-7.2-9.9-10.5-18.8-10.1c-0.5,0.1-1.1,0.2-1.9,0.2l-0.4,0.1h-0.2l-0.4,0.1l-1.1,0.1l-0.1,0c-10.7,4.2-15.1,13.3-13.1,26.9
		c0.4,4.4,2.4,8.4,5.7,11.9c3.6,3.5,8.1,5.3,13.4,5.3c1.3,0,2.6-0.1,4-0.3c1-0.2,1.9-0.5,2.7-1l0.4-0.1l0.1-0.1
		c1-0.6,1.9-1.4,2.7-2.4c0,0.6,0,1.3,0,2.1l0,0.4h7.2v-24.2h-19v7.2h11.8c0.7,5-1.2,8.3-5.7,10.1c-4.4,1.6-8.4,0.9-12.2-2.4
		c-0.6-0.5-1.2-1.3-1.6-2.2l-0.1-0.1l-0.2-0.1c-2.2-5.9-2.2-12.3,0-19C244.5,257,244.8,256.5,245.2,255.8z"/>
	<path fill="#272525" d="M302.8,281v-14.2c0-0.7-0.1-1.5-0.2-2.5c-0.2-1.2-0.8-2.3-1.7-3.3l-0.3-0.6l-0.1-0.1
		c-2.7-2.7-6.4-3.9-10.9-3.4l-2.3,0.4c-0.6,0-1.3,0.2-1.9,0.4l-0.8,0.2c-0.4,0.1-0.7,0.2-1.1,0.3l-0.6,0.1c-0.5,0.2-1.1,0.4-1.7,0.7
		c-0.1,0-0.2,0-0.3,0.1h-0.3l-0.3,0.3l-1.1,0.4l0.1,0.4c0.1,0.5,0.4,1.1,0.8,1.6c0.1,0.3,0.2,0.6,0.4,0.9l0.2,0.7l0.1,0.2l0.2,0.3
		l0.8,1.9l0.4-0.1c6.1-2.4,10.1-2.8,12-1.4c1,0.7,1.4,2.1,1.3,3.9l-2.3,0.3h-0.3l-0.4,0.1h-0.7l-0.4,0.1c-0.2,0-0.3,0-0.5,0.1
		c0,0,0,0,0,0c-4.5,0-7.8,1.1-9.9,3.2c-1.8,1.8-2.7,4.5-2.7,7.9c0.8,3.8,3.3,6.5,7.3,7.9c3.9,1.4,7.8,0.8,11.4-1.8
		c1.3,1.4,3,2.4,5.1,2.9l0.3,0.1l0.2-0.2c0.2-0.4,0.5-0.9,0.9-1.6c0.4-0.4,0.7-0.9,1-1.5c0.2-0.3,0.5-0.6,0.6-1l0.2-0.2l0.2-0.3
		c0.1-0.1,0.2-0.2,0.2-0.3l0.6-0.9l-0.6-0.1C304.3,282.8,303.4,282.1,302.8,281z"/>
	<path fill="#FFFFFF" d="M295.4,279.8c-0.2,0.2-0.3,0.5-0.4,0.8c-2.6,2.3-5.3,2.5-8.2,0.7c-0.9-0.8-1.3-1.7-1.3-2.5
		c0-0.9,0.5-1.9,1.6-2.8c0.4-0.1,0.8-0.3,1.2-0.5l0.3,0l1.6-0.4h0.3c0.1,0,0.3,0,0.4-0.1l0.7-0.1c0.3,0,0.7,0,1-0.1h0.6
		c0.1,0,0.3,0,0.4-0.1h1.6l0,4.8l0.1,0.3L295.4,279.8z"/>
	<path fill="#272525" d="M329.8,283.3c0-0.4,0-0.8-0.1-1.2v-0.6l-0.3-0.9l-0.4,0.1c-2.7,1-4.8,0.8-6.4-0.6c-0.1-0.6-0.1-1.3-0.1-2.2
		v-14h7.8v-6.5h-7.8v-10.8c0-0.3-0.1-0.6-0.3-0.8l-0.2-0.2l-1.8,0.7c-0.1,0-0.2,0-0.3,0.1c-0.1,0-0.2,0.1-0.2,0.1l-0.7,0.2l-0.4,0.2
		c-0.1,0-0.2,0.1-0.3,0.1c-0.1,0-0.2,0.1-0.3,0.1c-0.1,0-0.2,0.1-0.3,0.1l-0.5,0.1l-0.4,0.2l-0.9,0.2l-0.7,0.3v9.2H310v6.5h5.2
		l0,15.6c0,0.6,0,1.5,0.1,2.4l0,0.4c0.1,0.4,0.2,0.9,0.4,1.3l0.2,0.7l0.1,0.3c1.6,2.4,4.3,3.6,8,3.6c1.8,0,3.8-0.3,6-0.8l0.4-0.1
		l-0.4-3C330,284.1,329.9,283.7,329.8,283.3z"/>
	<path fill="#272525" d="M361.8,272c0-0.2,0-0.3-0.1-0.4l-0.1-1.5v0c-0.9-8.4-5.7-12.8-14.4-13.1c-9,1.4-13.3,7.3-13,17.5
		c0.6,7,4.2,11.6,10.6,13.8c1.4,0.3,2.8,0.5,4.2,0.5c4,0,7.7-1.5,11.2-4.4l0.3-0.3l-1.7-2c-0.1-0.1-0.1-0.2-0.3-0.3
		c-0.3-0.4-0.6-0.9-1.1-1.3l-0.3-0.3l-0.1-0.3l-0.1-0.1c-0.3-0.2-0.5-0.5-0.8-0.9l-0.3-0.4l-0.4,0.3c-2.2,2.1-4.9,2.9-8.2,2.5
		c-3-0.6-4.7-2.4-5.2-5.6h19.7V272z"/>
	<path fill="#FFFFFF" d="M341.9,269.8c0.3-3.2,2.2-5.2,5.6-6.1c2.9,0,4.9,1.4,6.2,4.3c0.1,0.3,0.1,0.7,0.3,1c0,0.2,0,0.5,0.1,0.7
		H341.9z"/>
</g>
</svg>
