<?xml version="1.0" encoding="utf-8"?>
<!-- Generator: Adobe Illustrator 17.1.0, SVG Export Plug-In . SVG Version: 6.00 Build 0)  -->
<!DOCTYPE svg PUBLIC "-//W3C//DTD SVG 1.1//EN" "http://www.w3.org/Graphics/SVG/1.1/DTD/svg11.dtd">
<svg version="1.1" id="Layer_1" xmlns="http://www.w3.org/2000/svg" xmlns:xlink="http://www.w3.org/1999/xlink" x="0px" y="0px"
	 viewBox="155.9 70.9 283.5 283.5" enable-background="new 155.9 70.9 283.5 283.5" xml:space="preserve">
<g>
	<path fill="#ED1C24" d="M297.6,333c66.5,0,120.4-53.9,120.4-120.4c0-66.5-53.9-120.4-120.4-120.4c-66.5,0-120.4,53.9-120.4,120.4
		C177.3,279.1,231.1,333,297.6,333"/>
	<path fill="#FFFFFF" d="M297.6,309c53.2,0,96.3-43.2,96.3-96.3c0-53.2-43.1-96.3-96.3-96.3c-53.2,0-96.3,43.1-96.3,96.3
		C201.3,265.8,244.4,309,297.6,309"/>
	<polyline fill="#262425" points="278.5,300.6 297.8,277.7 317,300.6 278.5,300.6 	"/>
	<polyline fill="#262425" points="316.9,124.1 297.7,147 278.5,124.1 316.9,124.1 	"/>
</g>
</svg>
