<?xml version="1.0" encoding="utf-8"?>
<!-- Generator: Adobe Illustrator 17.1.0, SVG Export Plug-In . SVG Version: 6.00 Build 0)  -->
<!DOCTYPE svg PUBLIC "-//W3C//DTD SVG 1.1//EN" "http://www.w3.org/Graphics/SVG/1.1/DTD/svg11.dtd">
<svg version="1.1" id="Layer_1" xmlns="http://www.w3.org/2000/svg" xmlns:xlink="http://www.w3.org/1999/xlink" x="0px" y="0px"
	 viewBox="0 0 283.5 283.5" enable-background="new 0 0 283.5 283.5" xml:space="preserve">
<g>
	<path fill="#ED1C24" d="M260.1,262c6.1-0.1,12-3.4,15.2-9c3.3-5.7,3.1-12.4,0.2-17.7L157.2,30.2c-3.2-5.2-8.9-8.7-15.4-8.7
		c-6.5,0-12.3,3.5-15.4,8.7L7.9,235.2C5,240.6,4.8,247.3,8.1,253c3.3,5.7,9.1,8.9,15.2,9H260.1z"/>
	<polygon fill="#FFFFFF" points="141.7,51.8 34.1,238.2 249.3,238.2 	"/>
	<g>
		<circle cx="175.8" cy="221.9" r="8.6"/>
		<circle cx="194.6" cy="221.9" r="8.6"/>
		<path d="M204.1,203h-5.3v-26.7h-7.1c0,0-0.6-4,2.1-4c0-0.8,0-4.3,0-4.3H177c0,0,0,3.5,0,4.3c2.8,0,2.1,4,2.1,4h-32.8
			c0,0,0.8-5.1-3.9-8.4h-7.9c-4.7,3.3-3.9,8.4-3.9,8.4h-21.9V168H84.1v10.5h9.4V194H78.8v18.3h5.2c-0.7,1.6-1.1,3.4-1.1,5.2
			c0,7.3,5.9,13.1,13.1,13.1c7.3,0,13.1-5.9,13.1-13.1c0-1.9-0.4-3.6-1.1-5.2h4.2c-0.7,1.6-1.1,3.4-1.1,5.2
			c0,7.3,5.9,13.1,13.1,13.1c7.3,0,13.1-5.9,13.1-13.1c0-1.9-0.4-3.6-1.1-5.2h4c-0.7,1.6-1.1,3.4-1.1,5.2c0,7.3,5.9,13.1,13.1,13.1
			c7.3,0,13.1-5.9,13.1-13.1c0-1.9-0.4-3.6-1.1-5.2h39.5V203z"/>
		<path d="M167,131.6c-2.8-5.2-8.7-8.8-15.1-8.8c-0.8,0-1.5,0.1-2.3,0.2c-3.3-4.5-8.6-7.4-14.5-7.4c-9.9,0-17.9,8-17.9,17.9
			s8,17.9,17.9,17.9c1.5,0,3.1-0.2,4.5-0.6c3.1,3.3,7.5,5.4,12.3,5.4c2.6,0,5-0.6,7.1-1.6c2.2,3.2,5.8,5.2,10,5.2
			c2.4,0,4.6-0.7,6.5-1.9c0,0,1.3-0.9,2.4-0.9c1.2,0,3.3,2.1,3.3,2.9c0,0.8,0,6.8,0,6.8h8.3C189.5,166.9,192.9,140.5,167,131.6z"/>
	</g>
</g>
</svg>
