<?xml version="1.0" encoding="utf-8"?>
<!-- Generator: Adobe Illustrator 17.1.0, SVG Export Plug-In . SVG Version: 6.00 Build 0)  -->
<!DOCTYPE svg PUBLIC "-//W3C//DTD SVG 1.1//EN" "http://www.w3.org/Graphics/SVG/1.1/DTD/svg11.dtd">
<svg version="1.1" id="Layer_1" xmlns="http://www.w3.org/2000/svg" xmlns:xlink="http://www.w3.org/1999/xlink" x="0px" y="0px"
	 viewBox="0 0 283.5 283.5" enable-background="new 0 0 283.5 283.5" xml:space="preserve">
<g>
	<path fill="#ED1C24" d="M260.1,262c6.1-0.1,12-3.4,15.2-9c3.3-5.7,3.1-12.4,0.2-17.7L157.2,30.2c-3.2-5.2-8.9-8.7-15.4-8.7
		c-6.5,0-12.3,3.5-15.4,8.7L7.9,235.2C5,240.6,4.8,247.3,8.1,253c3.3,5.7,9.1,8.9,15.2,9H260.1z"/>
	<polygon fill="#FFFFFF" points="141.7,51.8 34.1,238.2 249.3,238.2 	"/>
	<g>
		<polygon points="202.9,184.9 202.9,175.3 199.4,175.3 199.4,169.8 191.7,160.1 184,169.8 184,175.3 174.4,175.3 174.4,169.8 
			166.7,160.1 159,169.8 159,175.3 149.4,175.3 149.4,169.8 141.7,160.1 134,169.8 134,175.3 124.4,175.3 124.4,169.8 116.7,160.1 
			109,169.8 109,175.3 99.4,175.3 99.4,169.8 91.7,160.1 84,169.8 84,175.3 80.2,175.3 80.2,184.9 84,184.9 84,211.2 80.2,211.2 
			80.2,220.7 84,220.7 84,230.5 99.4,230.5 99.4,220.7 109,220.7 109,230.5 124.4,230.5 124.4,220.7 134,220.7 134,230.5 
			149.4,230.5 149.4,220.7 159,220.7 159,230.5 174.4,230.5 174.4,220.7 184,220.7 184,230.5 199.4,230.5 199.4,220.7 202.9,220.7 
			202.9,211.2 199.4,211.2 199.4,184.9 		"/>
		<rect x="99.4" y="184.9" fill="#FFFFFF" width="9.6" height="26.4"/>
		<rect x="124.4" y="184.9" fill="#FFFFFF" width="9.6" height="26.4"/>
		<rect x="149.4" y="184.9" fill="#FFFFFF" width="9.5" height="26.4"/>
		<rect x="174.4" y="184.9" fill="#FFFFFF" width="9.6" height="26.4"/>
	</g>
</g>
</svg>
