<?xml version="1.0" encoding="utf-8"?>
<!-- Generator: Adobe Illustrator 17.1.0, SVG Export Plug-In . SVG Version: 6.00 Build 0)  -->
<!DOCTYPE svg PUBLIC "-//W3C//DTD SVG 1.1//EN" "http://www.w3.org/Graphics/SVG/1.1/DTD/svg11.dtd">
<svg version="1.1" id="Layer_1" xmlns="http://www.w3.org/2000/svg" xmlns:xlink="http://www.w3.org/1999/xlink" x="0px" y="0px"
	 viewBox="155.9 70.9 283.5 283.5" enable-background="new 155.9 70.9 283.5 283.5" xml:space="preserve">
<g>
	<path fill="#4679BB" d="M297.6,93.3c65.8,0,119.4,53.5,119.4,119.3s-53.6,119.3-119.4,119.3c-65.8,0-119.3-53.5-119.3-119.3
		S231.8,93.3,297.6,93.3v-1.2c-66.5,0-120.5,54.1-120.5,120.5c0,66.5,54.1,120.5,120.5,120.5c66.5,0,120.6-54.1,120.6-120.5
		c0-66.5-54.1-120.5-120.6-120.5V93.3"/>
	<path fill="#4679BB" d="M297.6,96.3c64.1,0,116,52,116,116c0,64.1-52,116.1-116,116.1s-116.1-52-116.1-116.1
		C181.6,148.3,233.6,96.3,297.6,96.3"/>
	<polyline fill="#FFFFFF" points="291.6,260.4 259.6,228.4 395.9,228.4 395.9,196.4 259.6,196.4 291.6,164.4 243.6,164.4 
		195.5,212.4 243.6,260.4 291.6,260.4 	"/>
</g>
</svg>
