<?xml version="1.0" encoding="utf-8"?>
<!-- Generator: Adobe Illustrator 17.1.0, SVG Export Plug-In . SVG Version: 6.00 Build 0)  -->
<!DOCTYPE svg PUBLIC "-//W3C//DTD SVG 1.1//EN" "http://www.w3.org/Graphics/SVG/1.1/DTD/svg11.dtd">
<svg version="1.1" id="Layer_1" xmlns="http://www.w3.org/2000/svg" xmlns:xlink="http://www.w3.org/1999/xlink" x="0px" y="0px"
	 viewBox="0 0 283.5 283.5" enable-background="new 0 0 283.5 283.5" xml:space="preserve">
<circle fill="#ED1C24" cx="141.7" cy="141.7" r="120.5"/>
<circle fill="#FFFFFF" cx="141.7" cy="141.7" r="96.5"/>
<g>
	<circle cx="99" cy="140" r="10.3"/>
	<circle cx="180.8" cy="140" r="10.3"/>
	<path d="M92,96.8c0,0-5.6-0.2-6.8,6.1l-2.7,15.2c0,0-2.9,0.7-2.9,3.8c0,0.7,0.1,1.5,0.1,1.5l3.6,16.6h4.2c0-6.3,5.1-11.4,11.5-11.4
		s11.5,5.1,11.5,11.5h58.9c0-6.3,5.1-11.5,11.5-11.5c6.3,0,11.5,5.1,11.5,11.5h12V91c0,0,0-2.9-2.6-2.9h-81.6
		c-2.6,0-2.6,2.9-2.6,2.9v23h-5.3V99.8c0,0,0-2.9-2.5-2.9L92,96.8z"/>
	<circle fill="#FFFFFF" cx="99" cy="140" r="5.2"/>
	<circle fill="#FFFFFF" cx="180.8" cy="140" r="5.2"/>
	<path fill="#FFFFFF" d="M87.4,114H103v-13l-10.3-0.1c0,0-3,0-3.3,2L87.4,114z"/>
</g>
<g>
	<polygon points="79.6,178.5 89.4,168.7 99.2,168.7 92.8,175.1 119.2,175.1 119.2,181.9 92.8,181.9 99.2,188.3 89.4,188.3 	"/>
	<polygon points="193.6,188.3 183.8,188.3 190.3,181.9 163.9,181.9 163.9,175.1 190.3,175.1 183.8,168.7 193.6,168.7 203.5,178.5 	
		"/>
</g>
</svg>
