<?xml version="1.0" encoding="utf-8"?>
<!-- Generator: Adobe Illustrator 17.1.0, SVG Export Plug-In . SVG Version: 6.00 Build 0)  -->
<!DOCTYPE svg PUBLIC "-//W3C//DTD SVG 1.1//EN" "http://www.w3.org/Graphics/SVG/1.1/DTD/svg11.dtd">
<svg version="1.1" id="Layer_1" xmlns="http://www.w3.org/2000/svg" xmlns:xlink="http://www.w3.org/1999/xlink" x="0px" y="0px"
	 viewBox="155.9 70.9 283.5 283.5" enable-background="new 155.9 70.9 283.5 283.5" xml:space="preserve">
<g>
	<path fill="#4679BB" d="M297.6,93.4c65.7,0,119.2,53.5,119.2,119.2s-53.5,119.2-119.2,119.2c-65.7,0-119.2-53.5-119.2-119.2
		S231.9,93.4,297.6,93.4v-1.2c-66.4,0-120.4,54-120.4,120.4S231.2,333,297.6,333C364,333,418,279,418,212.6S364,92.2,297.6,92.2
		V93.4"/>
	<path fill="#4679BB" d="M297.6,97.6c63.5,0,115,51.5,115,115c0,63.5-51.5,115-115,115c-63.5,0-115-51.5-115-115
		C182.6,149.1,234.2,97.6,297.6,97.6"/>
	<path fill="#FFFFFF" d="M242.3,128.8L224.6,145l20.7,0.9c-25.1,20.2-37.4,54.1-28.6,87.3l15.5-4.1c-7.5-28.1,3.7-56.8,25.8-72.8
		l-1,24.2l17.7-16.3l1.4-33.9L242.3,128.8z"/>
	<path fill="#FFFFFF" d="M392,181.2l-11.2,17.5c-4.9-31.9-28.1-59.5-61.3-68.4l-4.1,15.4c28,7.5,47.2,31.6,50.1,58.8l-20.5-13
		l5.3,23.4l28.6,18.2l18.2-28.6L392,181.2z"/>
	<path fill="#FFFFFF" d="M357.3,270.9L346,259.6c-20.5,20.5-51,25.1-75.9,14l21.3-11.1l-22.9-7.2l-30,15.7l15.6,30.1l22.9,7.2
		l-9.6-18.4C297.5,301.5,333,295.2,357.3,270.9z"/>
</g>
</svg>
