<?xml version="1.0" encoding="utf-8"?>
<!-- Generator: Adobe Illustrator 17.1.0, SVG Export Plug-In . SVG Version: 6.00 Build 0)  -->
<!DOCTYPE svg PUBLIC "-//W3C//DTD SVG 1.1//EN" "http://www.w3.org/Graphics/SVG/1.1/DTD/svg11.dtd">
<svg version="1.1" id="Layer_1" xmlns="http://www.w3.org/2000/svg" xmlns:xlink="http://www.w3.org/1999/xlink" x="0px" y="0px"
	 viewBox="155.9 70.9 283.5 283.5" enable-background="new 155.9 70.9 283.5 283.5" xml:space="preserve">
<g>
	<path fill="#4679BB" d="M297.6,93.7c65.6,0,118.9,53.3,118.9,118.9s-53.4,118.9-118.9,118.9s-118.9-53.3-118.9-118.9
		C178.6,147,231.9,93.7,297.6,93.7v-1.6c-66.5,0-120.5,54.1-120.5,120.5s54.1,120.5,120.5,120.5c66.5,0,120.5-54,120.5-120.5
		S364,92.1,297.6,92.1V93.7"/>
	<path fill="#4679BB" d="M297.6,97.3c63.5,0,114.9,51.5,114.9,114.9c0,63.5-51.5,114.9-114.9,114.9c-63.5,0-114.9-51.5-114.9-114.9
		C182.6,148.8,234.1,97.3,297.6,97.3"/>
	<g>
		<path fill="#FFFFFF" d="M242.6,216.2c13.5,0,24.4,11,24.4,24.4c0,13.5-10.9,24.4-24.4,24.4s-24.4-11-24.4-24.4
			C218.2,227.1,229.1,216.2,242.6,216.2"/>
		<path fill="#4679BB" d="M242.5,225.5c8.3,0,15.1,6.8,15.1,15.1c0,8.3-6.8,15.1-15.1,15.1s-15.1-6.8-15.1-15.1
			C227.4,232.3,234.2,225.5,242.5,225.5z"/>
		<path fill="#FFFFFF" d="M242.5,231.3c5.1,0,9.3,4.2,9.3,9.3s-4.2,9.3-9.3,9.3s-9.3-4.2-9.3-9.3
			C233.3,235.5,237.4,231.3,242.5,231.3z"/>
		<path fill="#FFFFFF" d="M347.2,216.2c13.5,0,24.4,11,24.4,24.4c0,13.5-10.9,24.4-24.4,24.4c-13.5,0-24.4-11-24.4-24.4
			C322.7,227.1,333.7,216.2,347.2,216.2"/>
		<path fill="#4679BB" d="M347.2,225.5c8.3,0,15.1,6.8,15.1,15.1c0,8.3-6.8,15.1-15.1,15.1s-15.1-6.8-15.1-15.1
			C332.1,232.3,338.8,225.5,347.2,225.5z"/>
		<path fill="#FFFFFF" d="M347.2,231.3c5.1,0,9.3,4.2,9.3,9.3s-4.1,9.3-9.3,9.3c-5.1,0-9.3-4.2-9.3-9.3S342.1,231.3,347.2,231.3z"/>
		<polyline fill="#FFFFFF" points="345.9,223.7 349.4,233.8 341.7,236 338.3,225.9 345.9,223.7 		"/>
		<polyline fill="#FFFFFF" points="249.6,237.6 261.7,217.9 253.8,213.2 241.7,233 249.6,237.6 		"/>
		<path fill="#FFFFFF" d="M358.7,213.2c10.7,4.6,18.2,15.2,18.2,27.6H367l-5.2-13.1l-16.4-7.1l-16.9,11.3v20.5h-21.2
			c-10.2,0.2-17.1,0.2-25.8,0.2c-8.7,0-11.5-6.1-11.5-11.9c0-15.1-12.5-27.6-27.6-27.6l-0.4,0.1V203h6.2c4.9,0,12.6-2.6,15.6-7.4
			l12.6-19.3c1.6-2.5,2.7-1.1,2.3,0.3l-5.2,21.5c-0.7,2.7,2.5,4.4,5.2,1.9l6.3-5.8l6.7-11.3v-1.4c-3.3,0-5.9-2.2-5.9-4.9v-7.5h-2.2
			c0.6-5.3,3.6-9.6,9.8-9.6s9.6,4.3,9.6,9.6c-0.1,4.8-1,4.7-1.9,6.2v3.4c0.8-0.1,1.6,0.1,3.1,0.6c1.4,0.6,6.5,2.6,7.7,3.3
			c1.1,0.7,1.5,0.8,3,2.3l12,12.6c2.7,2.8,2.9,5.8,2.9,8.4h24.5c3.3,0,4.4,2,4.4,6.1V213.2"/>
		<path fill="#4679BB" d="M297.2,198.8l-19.1,11l15.5,6.3l10.5-10.5C300.9,203.8,299.4,202.2,297.2,198.8z"/>
		<path fill="#4679BB" d="M323.3,235.4c1.2-5.8,4.6-10.8,9.1-14.3c0.7-0.7,0.5-1.5-0.7-1.5h-10v15.8
			C321.7,236.3,323,236.5,323.3,235.4z"/>
	</g>
</g>
</svg>
