<?xml version="1.0" encoding="utf-8"?>
<!-- Generator: Adobe Illustrator 17.1.0, SVG Export Plug-In . SVG Version: 6.00 Build 0)  -->
<!DOCTYPE svg PUBLIC "-//W3C//DTD SVG 1.1//EN" "http://www.w3.org/Graphics/SVG/1.1/DTD/svg11.dtd">
<svg version="1.1" id="Layer_1" xmlns="http://www.w3.org/2000/svg" xmlns:xlink="http://www.w3.org/1999/xlink" x="0px" y="0px"
	 viewBox="155.9 28.3 283.5 368.5" enable-background="new 155.9 28.3 283.5 368.5" xml:space="preserve">
<g>
	<g>
		<path fill="#FFFFFF" stroke="#272525" stroke-width="0.53" d="M392.5,387.9H202.7c-4.7,0-8.5-3.8-8.5-8.5v-84.2
			c0-4.7,3.8-8.5,8.5-8.5h189.8c4.7,0,8.5,3.8,8.5,8.5v84.2C401,384.1,397.2,387.9,392.5,387.9z"/>
		<polyline fill="#FFFFFF" points="319.6,265.1 173.5,265.1 296.7,50.2 420,265.1 319.6,265.1 		"/>
		<path fill="#ED1C24" d="M416.1,278.3c6.4-0.1,12.4-3.5,15.6-9.1c3.2-5.6,3.2-12.5,0-18.1L313.3,46.3c-3.2-5.6-9.2-9.1-15.7-9.1
			c-6.5,0-12.4,3.4-15.6,9L163.7,251.1c-3.3,5.6-3.3,12.5,0,18.1c3.2,5.6,9.2,9,15.6,9L416.1,278.3"/>
		<polygon fill="#FFFFFF" points="189.8,254.1 405.6,254.1 297.6,67.4 		"/>
		<path fill="#1F1D1E" d="M296.9,211.7c8.9,0,16,7.2,16,16c0,8.9-7.2,16-16,16c-8.8,0-16-7.2-16-16
			C280.8,218.9,288,211.7,296.9,211.7"/>
		<path fill="#1F1D1E" d="M294.6,203.7h4.8l18-71.1c0.3-1.4,0.4-2.8,0.4-4.3c0-11.5-9.3-20.8-20.8-20.8c-11.5,0-20.9,9.3-20.9,20.8
			c0,1.4,0.2,2.9,0.4,4.3L294.6,203.7"/>
	</g>
	<g>
		<path d="M240.3,344.4h4.2v9c1.6-1.3,3.2-2,4.9-2c1.5,0,3.1,0.6,4.7,1.7c0.6,0.3,1,0.6,1.3,1c1.8,2.4,2.7,4.9,2.7,7.5
			c0,0.7-0.1,1.5-0.2,2.2s-0.3,1.5-0.6,2.2c-1,2.5-2.7,4.1-5,5c-1,0.4-2,0.5-3,0.5c-1.7,0-3.3-0.6-4.7-1.8v1.4h-4.2V344.4z
			 M244.9,358.2c0,0.2-0.1,0.5-0.2,0.8v5.3c0.8,2,2.1,3,4,3h0.3c0.1,0,0.2,0,0.3,0c2.6-0.6,4-2.2,4.3-5.1v-0.3c0-3.9-1.8-6-5.3-6.1
			C246.7,356.2,245.6,356.9,244.9,358.2z"/>
		<path d="M275.4,353.7l0.2,0.4c0.6,0.7,0.9,1.4,1.1,2.1c0,0.3,0.1,0.6,0.1,0.9s0,0.5,0,0.7v9.3c0.4,0.9,1.1,1.4,1.9,1.5l-0.1,0.2
			c0,0.1-0.1,0.1-0.1,0.1l-0.1,0.2l-0.1,0.1c-0.1,0.3-0.3,0.5-0.4,0.6c-0.2,0.4-0.4,0.8-0.6,1c-0.1,0.2-0.2,0.4-0.3,0.6
			s-0.2,0.3-0.3,0.4c-1.4-0.4-2.4-1-3.2-1.9h-0.2c-1.5,1.1-3.1,1.6-4.7,1.6c-0.9,0-1.7-0.1-2.6-0.4c-2.5-0.9-4-2.5-4.6-4.9v-0.1
			c0-4.5,2.7-6.8,8-6.8h0.1c0.1,0,0.2-0.1,0.4-0.1l0.2-0.1h0.5l0.2-0.1h0.2l1.8-0.2c0-0.1,0-0.2,0-0.4v-0.4c0-2-1-2.9-3.1-2.9
			c-1.4,0-3.4,0.5-5.9,1.5l-0.3-0.6l-0.1-0.4l-0.1-0.1l-0.1-0.1l-0.1-0.4c-0.1-0.2-0.2-0.4-0.3-0.6c-0.2-0.3-0.4-0.7-0.5-1l0.2-0.1
			l0.1-0.1l0.2-0.1l0.1-0.1h0.2c0,0,0.1-0.1,0.1-0.1h0c0.4-0.2,0.8-0.4,1.1-0.5l0.4-0.1c0.3-0.1,0.5-0.2,0.7-0.2l0.6-0.1
			c0.4-0.2,0.8-0.3,1.2-0.3l1.5-0.3c0.2,0,0.5,0,0.7-0.1s0.4,0,0.6,0C272.2,351.5,274,352.3,275.4,353.7z M270.9,362.7h-0.4
			c-0.1,0-0.2,0-0.3,0.1s-0.2,0-0.3,0h-0.1l-0.3,0.1h-0.2c-0.1,0-0.1,0.1-0.2,0.1h-0.2l-1.1,0.3h-0.2c-0.3,0.2-0.6,0.3-0.8,0.4
			c-0.8,0.7-1.1,1.4-1.1,2.1c0,0.6,0.3,1.2,0.9,1.8c0.9,0.6,1.8,0.8,2.6,0.8c1.1,0,2.1-0.4,3.1-1.3c0.1-0.3,0.2-0.5,0.3-0.6l0.1-0.2
			l-0.1-0.3v-3.3h-1.4C271.1,362.6,271,362.7,270.9,362.7z"/>
		<path d="M294,351.6v4.5c-0.1,0-0.2,0-0.3,0h-0.3c-2.3,0-4,1-5,2.9l-0.2,1.1l-0.1,0.5v10.5h-4.3V352h4.3v1.1c0,0.3,0,0.6,0.1,0.8
			c1.4-1.5,3-2.3,4.9-2.3H294z"/>
		<path d="M309.2,351.6v4.5c-0.1,0-0.2,0-0.3,0h-0.3c-2.3,0-4,1-5,2.9l-0.2,1.1l-0.1,0.5v10.5H299V352h4.3v1.1c0,0.3,0,0.6,0.1,0.8
			c1.4-1.5,3-2.3,4.9-2.3H309.2z"/>
		<path d="M318.7,346.5v0.2c0,1-0.3,1.8-0.9,2.4c-0.6,0.3-1.2,0.5-1.8,0.5c-0.9,0-1.7-0.5-2.2-1.5c-0.1-0.4-0.2-0.8-0.2-1.1
			c0-1.2,0.7-2,2-2.4h0.2C317.2,344.5,318.2,345.2,318.7,346.5z M314,352.1h4.3v19.2H314V352.1z"/>
		<path d="M340.4,359.9l0.1,1.1c0,0.1,0.1,0.1,0.1,0.2v2.1h-12.9c0.3,2.4,1.5,3.8,3.7,4.2c0.4,0,0.7,0.1,1,0.1
			c1.8,0,3.3-0.6,4.5-1.7c0.2,0.3,0.3,0.5,0.6,0.6l0.1,0.2l0.2,0.2c0.2,0.2,0.3,0.3,0.4,0.4s0.2,0.3,0.3,0.4c0.1,0,0.1,0.1,0.1,0.1
			l1,1.1c-2.2,1.9-4.6,2.8-7.1,2.8c-0.4,0-0.9,0-1.3-0.1s-0.9-0.1-1.3-0.2c-4.1-1.3-6.3-4.3-6.7-8.7c0-0.1,0-0.2,0-0.4s0-0.3,0-0.3
			c0-6.1,2.7-9.6,8.2-10.4C336.8,351.8,339.8,354.6,340.4,359.9z M327.6,360h8.5v-0.2c0-0.1-0.1-0.3-0.1-0.4v-0.1
			c-0.1-0.3-0.2-0.5-0.2-0.7c-0.9-2-2.3-3-4.3-3C329,356.1,327.7,357.6,327.6,360z"/>
		<path d="M355.4,351.6v4.5c-0.1,0-0.2,0-0.3,0h-0.3c-2.3,0-4,1-5,2.9l-0.2,1.1l-0.1,0.5v10.5h-4.3V352h4.3v1.1c0,0.3,0,0.6,0.1,0.8
			c1.4-1.5,3-2.3,4.9-2.3H355.4z"/>
	</g>
</g>
<g>
	<path d="M215.8,300.2h5.3l0.2,0.4l0.1,0.1l0.1,0.2l0.1,0.1l0.1,0.2c0.2,0.2,0.4,0.4,0.6,0.7l0.3,0.4c0.2,0.2,0.4,0.4,0.5,0.6
		l0.3,0.4l0.7,0.8l0.1,0.3l0.7,0.8l0.2,0.3l0.1,0.1c0.2,0.2,0.3,0.4,0.4,0.6c0.3,0.3,0.5,0.5,0.6,0.7l0.1,0.2l0.4,0.4l0.3,0.4
		l0.1,0.1l0.1,0.2l0.2,0.2l0.6,0.8l0.8,1l0.3-0.4c0.1-0.1,0.2-0.2,0.3-0.3c0.1-0.1,0.1-0.2,0.2-0.4s0.1-0.2,0.2-0.3
		c0.2-0.2,0.3-0.3,0.4-0.4l0.1-0.1l0.1-0.1l0.1-0.1l0.6-0.8l0.3-0.4l0.2-0.4l0.4-0.6l0.3-0.4l0.1-0.1l0.6-0.8l0.1-0.2l0.2-0.2
		l0.2-0.4l0.3-0.4l0.3-0.4l0.1-0.1l0.1-0.1l0.4-0.4c0.1-0.2,0.2-0.4,0.4-0.6l0.1-0.2l0.1-0.1l0.1-0.1l0.1-0.2l0.2-0.1l0.1-0.2
		l0.7-0.9h5.3V327H237v-20.3l-0.1,0.1l-0.1,0.1l-0.4,0.4c-0.1,0.2-0.2,0.4-0.4,0.6c-0.1,0.2-0.2,0.3-0.3,0.4l-0.3,0.4l-0.1,0.1
		l-0.1,0.1l-0.1,0.1l-0.2,0.1l-0.1,0.1c-0.2,0.3-0.4,0.6-0.6,0.8l-0.2,0.4l-0.3,0.3l-0.3,0.4l-0.4,0.6L233,312l-0.2,0.2
		c0,0.1-0.1,0.1-0.1,0.1l-0.1,0.2l-0.4,0.4c-0.3,0.5-0.6,0.9-0.9,1.2c-0.2,0.4-0.5,0.8-0.7,1c-0.1,0.1-0.2,0.2-0.2,0.4
		s-0.2,0.2-0.2,0.3l-0.3,0.4c0,0.1-0.1,0.1-0.1,0.1l-0.1,0.1c-0.2,0.3-0.3,0.5-0.5,0.7s-0.3,0.4-0.5,0.5l-0.3-0.5
		c-0.2-0.2-0.3-0.3-0.4-0.4l-0.3-0.5l-0.2-0.2l-0.3-0.4c-0.1-0.1-0.1-0.1-0.1-0.2c-0.1,0-0.1-0.1-0.1-0.1l-0.1-0.1l-0.7-0.9
		l-0.3-0.4c-0.1-0.1-0.2-0.2-0.2-0.4l-0.3-0.4l-0.3-0.3l-0.2-0.4l-0.2-0.3l-0.2-0.2l-0.1-0.3l-0.2-0.2l-0.3-0.4l-0.1-0.3
		c-0.1,0-0.1-0.1-0.1-0.1l-0.1-0.1c-0.3-0.4-0.5-0.7-0.7-0.9l-0.1-0.1c-0.2-0.2-0.3-0.4-0.4-0.6l-0.2-0.1l-0.1-0.2
		c-0.2-0.2-0.3-0.4-0.4-0.5l-0.1-0.1c-0.3-0.5-0.6-0.9-0.9-1.2V327h-4.6V300.2z"/>
	<path d="M264.9,311.6c0.8,1.9,1.2,3.8,1.2,5.7c0,1.1-0.1,2.3-0.4,3.4c-0.8,3.5-2.8,5.7-6.1,6.5c-0.5,0.1-0.9,0.2-1.4,0.3
		s-0.9,0.1-1.4,0.1c-1.7,0-3.3-0.5-4.8-1.4c-2.7-1.9-4.1-4.4-4.3-7.5c0-0.2,0-0.3,0-0.5s0-0.3,0-0.5c0-5.9,2.7-9.4,8-10.6
		c0.1,0,0.2,0,0.3,0s0.2,0,0.3,0C260.2,307.1,263.1,308.6,264.9,311.6z M252.1,318.3c0.4,3.1,2,4.9,4.8,5.1c2.9-0.3,4.5-1.8,4.8-4.5
		c0-0.4,0.1-0.7,0.1-1s0-0.6,0-0.9c0-3.6-1.8-5.4-5.3-5.7c-3,0.7-4.5,2.7-4.5,6C252.1,317.6,252.1,317.9,252.1,318.3z"/>
	<path d="M269.3,307.6h4.5v0.3l0.1,0.2v0.2c0.2,0.3,0.3,0.6,0.4,0.9v0.2c0.1,0.3,0.2,0.5,0.3,0.8l0.1,0.2c0.1,0.3,0.2,0.6,0.2,0.8
		c0.2,0.4,0.3,0.8,0.4,1.1l0.1,0.4c0.2,0.4,0.3,0.7,0.4,1l0.1,0.4l0.2,0.4l0.1,0.5l0.1,0.1l0.1,0.2l0.1,0.7c0.1,0.2,0.2,0.4,0.2,0.6
		l0.4,0.9v0.2l0.1,0.2l0.1,0.5c0,0.1,0.1,0.1,0.1,0.2l0.1,0.3l0.1,0.6c0,0,0.1,0.1,0.1,0.1v0c0.1,0.4,0.2,0.7,0.4,1l0.2-0.8l0.2-0.6
		l0.1-0.3l0.2-0.5l0.4-1.3l0.3-0.8l0.4-1c0.1-0.4,0.2-0.8,0.4-1.1l0.3-1l0.1-0.3l0.1-0.2l0.1-0.5l0.1-0.1l0.3-1.1l0.1-0.2v-0.2
		l0.1-0.1l0.4-1.3l0.1-0.3c0.1-0.2,0.2-0.4,0.2-0.6s0.1-0.4,0.1-0.5l0.4-0.1h4.2l-0.1,0.6c-0.1,0.2-0.2,0.4-0.2,0.6l-0.3,0.8
		l-0.1,0.3l-0.1,0.2l-0.1,0.3l-0.2,0.5l-0.4,1.3c-0.1,0.1-0.1,0.3-0.2,0.4s-0.1,0.3-0.1,0.4l-0.4,1.2l-0.1,0.4l-0.1,0.1
		c-0.1,0.5-0.3,1-0.4,1.3l-0.1,0.5l-0.1,0.2l-0.1,0.3l-0.2,0.6l-0.1,0.3l-0.6,1.8l-0.1,0.1c-0.1,0.5-0.3,1-0.4,1.3l-0.1,0.4
		l-0.1,0.2l-0.1,0.4l-0.2,0.6l-0.4,0.9l-0.1,0.4l-0.4,1.2l-0.5,1.5h-5.2l-0.1-0.6c-0.1-0.3-0.2-0.5-0.3-0.8l-0.1-0.2
		c-0.1-0.2-0.1-0.4-0.2-0.6v-0.2l-0.2-0.5v-0.2c-0.1-0.2-0.2-0.4-0.2-0.6l-0.1-0.5c-0.2-0.4-0.3-0.8-0.4-1.2l-0.1-0.6
		c0-0.1-0.1-0.1-0.1-0.2l-0.4-1.1v-0.2c-0.2-0.3-0.3-0.6-0.3-0.9c0-0.1-0.1-0.1-0.1-0.2c-0.1-0.2-0.2-0.3-0.2-0.5s-0.1-0.3-0.1-0.4
		l-0.1-0.5c-0.1-0.2-0.1-0.3-0.1-0.4c0-0.1-0.1-0.1-0.1-0.2c0,0,0,0-0.1-0.1s0,0,0-0.1v0c-0.3-0.6-0.4-1.1-0.5-1.6
		c-0.1-0.1-0.1-0.3-0.1-0.4l-0.1-0.3l-0.3-1.1l-0.1-0.3l-0.3-1l-0.1-0.3l-0.1-0.3c0-0.1-0.1-0.2-0.1-0.3s-0.1-0.2-0.1-0.2v-0.3
		c0-0.1-0.1-0.1-0.1-0.2c-0.1-0.2-0.2-0.3-0.2-0.5s-0.1-0.3-0.1-0.4v-0.2C269.4,308.4,269.3,308,269.3,307.6z"/>
	<path d="M306.1,315.7l0.1,1.1c0,0.1,0.1,0.1,0.1,0.2v2.1h-12.9c0.3,2.4,1.5,3.8,3.7,4.2c0.4,0,0.7,0.1,1,0.1c1.8,0,3.3-0.6,4.5-1.7
		c0.2,0.3,0.3,0.5,0.6,0.6l0.1,0.2l0.2,0.2c0.2,0.2,0.3,0.3,0.4,0.4s0.2,0.3,0.3,0.4c0.1,0,0.1,0.1,0.1,0.1l1,1.1
		c-2.2,1.9-4.6,2.8-7.1,2.8c-0.4,0-0.9,0-1.3-0.1s-0.9-0.1-1.3-0.2c-4.1-1.3-6.3-4.3-6.7-8.7c0-0.1,0-0.2,0-0.4s0-0.3,0-0.3
		c0-6.1,2.7-9.6,8.2-10.4C302.5,307.6,305.6,310.4,306.1,315.7z M293.4,315.8h8.5v-0.2c0-0.1-0.1-0.3-0.1-0.4V315
		c-0.1-0.3-0.2-0.5-0.2-0.7c-0.9-2-2.3-3-4.3-3C294.8,311.9,293.5,313.4,293.4,315.8z"/>
	<path d="M323.7,309.5l0.2,0.4c0.6,0.7,0.9,1.4,1.1,2.1c0,0.3,0.1,0.6,0.1,0.9s0,0.5,0,0.7v9.3c0.4,0.9,1.1,1.4,1.9,1.5l-0.1,0.2
		c0,0.1-0.1,0.1-0.1,0.1l-0.1,0.2l-0.1,0.1c-0.1,0.3-0.3,0.5-0.4,0.6c-0.2,0.4-0.4,0.8-0.6,1c-0.1,0.2-0.2,0.4-0.3,0.6
		s-0.2,0.3-0.3,0.4c-1.4-0.4-2.4-1-3.2-1.9h-0.2c-1.5,1.1-3.1,1.6-4.7,1.6c-0.9,0-1.7-0.1-2.6-0.4c-2.5-0.9-4-2.5-4.6-4.9v-0.1
		c0-4.5,2.7-6.8,8-6.8h0.1c0.1,0,0.2-0.1,0.4-0.1l0.2-0.1h0.5l0.2-0.1h0.2l1.8-0.2c0-0.1,0-0.2,0-0.4v-0.4c0-2-1-2.9-3.1-2.9
		c-1.4,0-3.4,0.5-5.9,1.5l-0.3-0.6l-0.1-0.4l-0.1-0.1l-0.1-0.1l-0.1-0.4c-0.1-0.2-0.2-0.4-0.3-0.6c-0.2-0.3-0.4-0.7-0.5-1l0.2-0.1
		l0.1-0.1l0.2-0.1l0.1-0.1h0.2c0,0,0.1-0.1,0.1-0.1h0c0.4-0.2,0.8-0.4,1.1-0.5l0.4-0.1c0.3-0.1,0.5-0.2,0.7-0.2l0.6-0.1
		c0.4-0.2,0.8-0.3,1.2-0.3l1.5-0.3c0.2,0,0.5,0,0.7-0.1s0.4,0,0.6,0C320.5,307.3,322.3,308.1,323.7,309.5z M319.2,318.5h-0.4
		c-0.1,0-0.2,0-0.3,0.1s-0.2,0-0.3,0h-0.1l-0.3,0.1h-0.2c-0.1,0-0.1,0.1-0.2,0.1h-0.2l-1.1,0.3h-0.2c-0.3,0.2-0.6,0.3-0.8,0.4
		c-0.8,0.7-1.1,1.4-1.1,2.1c0,0.6,0.3,1.2,0.9,1.8c0.9,0.6,1.8,0.8,2.6,0.8c1.1,0,2.1-0.4,3.1-1.3c0.1-0.3,0.2-0.5,0.3-0.6l0.1-0.2
		l-0.1-0.3v-3.3h-1.4C319.4,318.4,319.3,318.5,319.2,318.5z"/>
	<path d="M332,300.2h4.2v9c1.6-1.3,3.2-2,4.9-2c1.5,0,3.1,0.6,4.7,1.7c0.6,0.3,1,0.6,1.3,1c1.8,2.4,2.7,4.9,2.7,7.5
		c0,0.7-0.1,1.5-0.2,2.2s-0.3,1.5-0.6,2.2c-1,2.5-2.7,4.1-5,5c-1,0.4-2,0.5-3,0.5c-1.7,0-3.3-0.6-4.7-1.8v1.4H332V300.2z M336.6,314
		c0,0.2-0.1,0.5-0.2,0.8v5.3c0.8,2,2.1,3,4,3h0.3c0.1,0,0.2,0,0.3,0c2.6-0.6,4-2.2,4.3-5.1v-0.3c0-3.9-1.8-6-5.3-6.1
		C338.4,312,337.3,312.7,336.6,314z"/>
	<path d="M354.1,300.1h4.3v19.5c0,0.2,0,0.3,0,0.4v0.4c0,0.8,0.1,1.5,0.2,2c0.5,0.6,1.3,1,2.3,1c0.4,0,1-0.1,1.5-0.2v0.4l0.1,0.2
		l0.1,1v0.4l0.1,0.1v0.4l0.2,1.2c-1.3,0.3-2.5,0.5-3.5,0.5c-2.7,0-4.5-1.1-5.2-3.4c0-0.1,0-0.2,0-0.3s0-0.2,0-0.2V300.1z"/>
	<path d="M382.1,315.7l0.1,1.1c0,0.1,0.1,0.1,0.1,0.2v2.1h-12.9c0.3,2.4,1.5,3.8,3.7,4.2c0.4,0,0.7,0.1,1,0.1c1.8,0,3.3-0.6,4.5-1.7
		c0.2,0.3,0.3,0.5,0.6,0.6l0.1,0.2l0.2,0.2c0.2,0.2,0.3,0.3,0.4,0.4s0.2,0.3,0.3,0.4c0.1,0,0.1,0.1,0.1,0.1l1,1.1
		c-2.2,1.9-4.6,2.8-7.1,2.8c-0.4,0-0.9,0-1.3-0.1s-0.9-0.1-1.3-0.2c-4.1-1.3-6.3-4.3-6.7-8.7c0-0.1,0-0.2,0-0.4s0-0.3,0-0.3
		c0-6.1,2.7-9.6,8.2-10.4C378.5,307.6,381.5,310.4,382.1,315.7z M369.3,315.8h8.5v-0.2c0-0.1-0.1-0.3-0.1-0.4V315
		c-0.1-0.3-0.2-0.5-0.2-0.7c-0.9-2-2.3-3-4.3-3C370.7,311.9,369.4,313.4,369.3,315.8z"/>
</g>
</svg>
