<?xml version="1.0" encoding="utf-8"?>
<!-- Generator: Adobe Illustrator 17.1.0, SVG Export Plug-In . SVG Version: 6.00 Build 0)  -->
<!DOCTYPE svg PUBLIC "-//W3C//DTD SVG 1.1//EN" "http://www.w3.org/Graphics/SVG/1.1/DTD/svg11.dtd">
<svg version="1.1" id="Layer_1" xmlns="http://www.w3.org/2000/svg" xmlns:xlink="http://www.w3.org/1999/xlink" x="0px" y="0px"
	 viewBox="155.9 70.9 283.5 283.5" enable-background="new 155.9 70.9 283.5 283.5" xml:space="preserve">
<g>
	<circle fill="#ED1C24" cx="297.6" cy="212.6" r="120.5"/>
	<circle fill="#FFFFFF" cx="297.6" cy="212.6" r="96.5"/>
	<g>
		<polygon points="278.1,150 283.1,150 293.4,165.2 293.4,150 298,150 298,172.7 293.1,172.7 282.6,157.4 282.6,172.7 278.1,172.7 
					"/>
		<path d="M302.6,164.7c0-6.6,3.9-9.1,7.8-9.1c3.5,0,7.9,2.5,7.9,9.1c0,4.8-3.2,8.6-7.6,8.6C305.5,173.3,302.6,169.9,302.6,164.7z"
			/>
		<path fill="#FFFFFF" d="M313.8,164.7c0-3.9-1.3-5.1-3.3-5.1c-2.5,0-3.4,2-3.4,5.1c0,2.6,1.3,4.6,3.4,4.6
			C312.6,169.3,313.8,167.3,313.8,164.7z"/>
		<path d="M219.3,220.8c-3.5,0-5.6-2-5.6-5.1c0-2.7,1.6-5.5,9.5-5.5v-0.9c0-0.9-0.9-1.5-2.5-1.5c-1.3,0-3.4,0.7-4.9,1.6l-2.1-3.2
			c1.2-0.8,4-2.4,6.9-2.4c4.6,0,6.9,1.6,6.9,4.8v6.7c0,1.4,0.4,1.9,1.9,2.1l-1.5,3.3c-0.8,0-2.9-0.2-4-1.6
			C222.5,220.5,221.1,220.8,219.3,220.8z"/>
		<path fill="#FFFFFF" d="M220.7,217.3c1.8,0,2.6-0.5,2.6-1.9v-2l-3.3,0.5c-1.4,0.2-1.8,0.9-1.8,1.9
			C218.2,216.8,218.8,217.3,220.7,217.3z"/>
		<path d="M236.6,206c0.9-1.3,2.6-1.9,4.2-1.9c0.2,0,0.5,0,0.8,0v4.1c-1.4,0.1-1.9,0.1-1.9,0.1c-1.9,0.1-3.4,1.3-3.4,3.9v8.1H232
			v-16.1h4.4L236.6,206z"/>
		<path d="M247.4,208.1h-2.6v-3.6h2.6v-5.1l4.5-1.2v6.2h4.2v3.6H252v7.2c0,1.6,0.6,1.8,1.3,1.8c0.6,0,1.2-0.1,2.5-0.4l1.1,3.5
			c-2,0.6-3.9,0.7-5.1,0.7c-1.5,0-4.1-0.8-4.1-3.8v-9.1H247.4z"/>
		<rect x="259.6" y="204.4" width="4.4" height="16.1"/>
		<path d="M259.3,200.4c0-1.3,1.1-2.5,2.5-2.5s2.5,1.2,2.5,2.5s-1.1,2.5-2.5,2.5C260.3,202.8,259.3,201.7,259.3,200.4z"/>
		<path d="M267.5,212.6c0-5.1,2.7-8.6,7.9-8.6c3.1,0,6.1,2,7.3,5.3l-4.2,1.5c-0.6-1.8-1.6-2.9-3.3-2.9c-2.2,0-3.2,2.1-3.2,4.8
			c0,2.8,0.8,4.6,3.2,4.6c1.6,0,2.5-0.9,3.3-2.9l4.4,1.5c-1.4,3.6-3.6,5.2-7.5,5.2C270.2,221,267.5,217.7,267.5,212.6z"/>
		<path d="M294.6,220.4c-0.7,0.4-1.4,0.4-2.2,0.4c-3.5,0-6.2-2.6-6.2-5.8v-10.5h4.2v9.2c0,1.9,0.9,3.2,2.7,3.2
			c2.1,0,3.4-1.1,3.4-2.7v-9.6h4.4v16h-4.5v-1.2C295.8,219.9,295.3,220,294.6,220.4z"/>
		<path d="M305.8,198h4.4v16.4c0,1.6,0.2,2.1,1.2,2.2c0.6,0,1.1,0,1.6-0.1l0.5,3.8c-1.5,0.4-2.9,0.6-4,0.6s-3.5-0.4-3.5-4.1V198
			H305.8z"/>
		<path d="M321.1,220.8c-3.5,0-5.6-2-5.6-5.1c0-2.7,1.6-5.5,9.5-5.5v-0.9c0-0.9-0.9-1.5-2.5-1.5c-1.3,0-3.4,0.7-4.9,1.6l-2.1-3.2
			c1.2-0.8,4-2.4,6.9-2.4c4.6,0,6.9,1.6,6.9,4.8v6.7c0,1.4,0.4,1.9,1.9,2.1l-1.5,3.3c-0.8,0-2.9-0.2-4-1.6
			C324.2,220.5,322.8,220.8,321.1,220.8z"/>
		<path fill="#FFFFFF" d="M322.5,217.3c1.8,0,2.6-0.5,2.6-1.9v-2l-3.3,0.5c-1.4,0.2-1.8,0.9-1.8,1.9
			C320,216.8,320.6,217.3,322.5,217.3z"/>
		<path d="M335.4,208.1h-2.6v-3.6h2.6v-5.1l4.5-1.2v6.2h4.2v3.6H340v7.2c0,1.6,0.6,1.8,1.3,1.8c0.6,0,1.2-0.1,2.5-0.4l1.1,3.5
			c-2,0.6-3.9,0.7-5.1,0.7c-1.5,0-4.1-0.8-4.1-3.8v-9.1H335.4z"/>
		<path d="M358.7,215.3l2.6,2.8c-2.1,1.9-3.5,2.7-6.5,2.7c-5.1,0-8.1-3.6-8.1-8.6c0-4.4,2.8-8.1,7.3-8.1c4.8,0,7.8,3.5,7.8,8.7v1.1
			h-10.8c0.1,1.9,1.8,3.2,4,3.2C356.2,217.1,356.8,216.8,358.7,215.3z"/>
		<path fill="#FFFFFF" d="M350.9,210.6h6.6c-0.1-1.5-1.8-2.9-3.3-2.9C352.6,207.7,351.3,208.8,350.9,210.6z"/>
		<path d="M364.5,212.5c0-4.6,2.4-8.6,7.2-8.6c1.6,0,2.8,0.2,4.5,1.4v-7.1h4.5v22.2h-4.5v-0.9c-1.4,1.2-2.8,1.4-4.6,1.4
			C366.9,220.8,364.5,217.4,364.5,212.5z"/>
		<path fill="#FFFFFF" d="M372.7,217c2.2,0,3.5-1.2,3.5-3.4v-2.5c0-1.9-1.3-3.4-3.4-3.4c-2.6,0-3.9,1.9-3.9,4.7S370.2,217,372.7,217
			z"/>
		<polygon points="243.9,262.7 247.2,252.5 251.6,252.5 246.2,268.8 241.3,268.8 235.6,252.5 240.3,252.5 		"/>
		<path d="M265.8,263.5l2.6,2.8c-2.1,1.9-3.5,2.7-6.5,2.7c-5.1,0-8.1-3.8-8.1-8.7c0-4.5,2.8-8.4,7.3-8.4c4.8,0,7.8,3.5,7.8,8.9v1.2
			H258c0.1,1.9,1.8,3.2,4,3.2C263.2,265.3,263.9,265.2,265.8,263.5z"/>
		<path fill="#FFFFFF" d="M258,258.8h6.6c-0.1-1.6-1.8-3.1-3.3-3.1C259.6,255.7,258.2,257,258,258.8z"/>
		<path d="M281.1,252c3.4,0,6.2,2.9,6.2,6.8v9.9h-4.5v-10c0-1.8-0.9-2.6-2.8-2.6c-2,0-3.1,1.6-3.1,3.4v9.2h-4.4v-22.8h4.4v7.5
			C278.6,252.2,279.5,252,281.1,252z"/>
		<rect x="291.6" y="252.4" width="4.4" height="16.5"/>
		<path d="M291.3,248.2c0-1.4,1.1-2.5,2.5-2.5c1.4,0,2.5,1.2,2.5,2.6c0,1.4-1.1,2.5-2.5,2.5C292.3,250.8,291.3,249.7,291.3,248.2z"
			/>
		<path d="M299.6,260.8c0-5.2,2.7-8.8,7.9-8.8c3.1,0,6.1,2,7.3,5.4l-4.2,1.5c-0.6-1.8-1.6-3.1-3.3-3.1c-2.2,0-3.2,2.2-3.2,4.8
			c0,2.8,0.8,4.7,3.2,4.7c1.6,0,2.5-0.9,3.3-2.9l4.4,1.5c-1.4,3.6-3.6,5.3-7.5,5.3C302.2,269.4,299.6,266,299.6,260.8z"/>
		<path d="M318.2,245.9h4.4v16.7c0,1.8,0.2,2.1,1.2,2.2c0.6,0,1.1,0,1.6-0.1l0.5,3.8c-1.5,0.4-2.9,0.6-4,0.6c-1.1,0-3.5-0.4-3.5-4.1
			v-19.1H318.2z"/>
		<path d="M339.6,263.5l2.6,2.8c-2.1,1.9-3.5,2.7-6.5,2.7c-5.1,0-8.1-3.8-8.1-8.7c0-4.5,2.8-8.4,7.3-8.4c4.8,0,7.8,3.5,7.8,8.9v1.2
			h-10.8c0.1,1.9,1.8,3.2,4,3.2C337.2,265.3,337.9,265.2,339.6,263.5z"/>
		<path fill="#FFFFFF" d="M332,258.8h6.6c-0.1-1.6-1.8-3.1-3.3-3.1C333.6,255.7,332.2,257,332,258.8z"/>
		<path d="M352.1,258.5l2.7,0.4c2.8,0.4,4.6,2.4,4.6,4.9c0,3.3-2.7,5.5-6.7,5.5c-3.4,0-5.6-0.8-7.9-3.1l3.2-2.8
			c1.3,1.4,2.8,2.1,4.4,2.1c1.3,0,2.4-0.6,2.4-1.4c0-0.7-0.7-1.3-2-1.5l-2.8-0.6c-2.5-0.5-4-2.4-4-4.6c0-3.3,2.6-5.4,6.7-5.4
			c2.2,0,4.2,0.4,6.5,2.5l-2.8,2.9c-1.2-1.3-2.4-1.8-3.8-1.8c-1.3,0-2.1,0.7-2.1,1.5C350.5,257.8,350.8,258.2,352.1,258.5z"/>
	</g>
</g>
</svg>
