<?xml version="1.0" encoding="utf-8"?>
<!-- Generator: Adobe Illustrator 17.1.0, SVG Export Plug-In . SVG Version: 6.00 Build 0)  -->
<!DOCTYPE svg PUBLIC "-//W3C//DTD SVG 1.1//EN" "http://www.w3.org/Graphics/SVG/1.1/DTD/svg11.dtd">
<svg version="1.1" id="Layer_1" xmlns="http://www.w3.org/2000/svg" xmlns:xlink="http://www.w3.org/1999/xlink" x="0px" y="0px"
	 viewBox="155.9 70.9 283.5 283.5" enable-background="new 155.9 70.9 283.5 283.5" xml:space="preserve">
<g>
	<circle fill="#ED1C24" cx="297.6" cy="212.6" r="120.5"/>
	<circle fill="#FFFFFF" cx="297.6" cy="212.6" r="96.5"/>
	<polygon points="278.1,150 283.1,150 293.4,165.2 293.4,150 298,150 298,172.7 293.1,172.7 282.6,157.4 282.6,172.7 278.1,172.7 	
		"/>
	<path d="M302.6,164.7c0-6.6,3.9-9.1,7.8-9.1c3.5,0,7.9,2.5,7.9,9.1c0,4.8-3.2,8.6-7.6,8.6C305.5,173.3,302.6,169.9,302.6,164.7z"/>
	<path fill="#FFFFFF" d="M313.8,164.7c0-3.9-1.3-5.1-3.3-5.1c-2.5,0-3.4,2-3.4,5.1c0,2.6,1.3,4.6,3.4,4.6
		C312.6,169.3,313.8,167.3,313.8,164.7z"/>
	<g>
		<path d="M241.1,206.4l0.2,0.4c0.5,0.6,0.8,1.2,0.9,1.8c0,0.3,0.1,0.5,0.1,0.7s0,0.4,0,0.6v7.7c0.4,0.7,0.9,1.1,1.6,1.3l-0.1,0.2
			c0,0.1-0.1,0.1-0.1,0.1l-0.1,0.2l-0.1,0.1c-0.1,0.2-0.2,0.4-0.4,0.5c-0.1,0.4-0.3,0.6-0.5,0.8c-0.1,0.2-0.2,0.4-0.2,0.5
			s-0.2,0.3-0.2,0.4c-1.1-0.3-2-0.8-2.7-1.6h-0.2c-1.3,0.9-2.6,1.4-3.9,1.4c-0.7,0-1.4-0.1-2.1-0.4c-2.1-0.8-3.4-2.1-3.8-4.1v-0.1
			c0-3.8,2.2-5.7,6.6-5.7h0c0.1,0,0.2-0.1,0.3-0.1l0.2-0.1h0.4l0.2-0.1h0.2l1.5-0.2c0-0.1,0-0.2,0-0.3v-0.3c0-1.6-0.9-2.4-2.6-2.4
			c-1.2,0-2.8,0.4-4.9,1.2l-0.2-0.5l-0.1-0.4l-0.1-0.1l-0.1-0.1l-0.1-0.4c-0.1-0.2-0.2-0.4-0.2-0.5c-0.2-0.3-0.3-0.5-0.4-0.8
			l0.2-0.1l0.1-0.1l0.2-0.1l0.1-0.1h0.2c0,0,0.1-0.1,0.1-0.1h0c0.4-0.2,0.7-0.3,0.9-0.4l0.3-0.1c0.2-0.1,0.4-0.2,0.6-0.2l0.5-0.1
			c0.3-0.1,0.7-0.2,1-0.2l1.3-0.2c0.2,0,0.4,0,0.6-0.1s0.4,0,0.5,0C238.4,204.5,239.9,205.2,241.1,206.4z M237.4,213.8H237
			c-0.1,0-0.2,0-0.3,0s-0.2,0-0.2,0h-0.1l-0.2,0.1H236c0,0-0.1,0.1-0.2,0.1h-0.2l-0.9,0.2h-0.2c-0.3,0.2-0.5,0.3-0.7,0.3
			c-0.6,0.6-1,1.2-1,1.8c0,0.5,0.3,1,0.8,1.5c0.8,0.5,1.5,0.7,2.2,0.7c0.9,0,1.8-0.4,2.6-1.1c0.1-0.2,0.2-0.4,0.2-0.5l0.1-0.2
			l-0.1-0.2v-2.8h-1.2C237.5,213.8,237.4,213.8,237.4,213.8z"/>
		<path d="M248,198.6h3.5v7.5c1.3-1.1,2.7-1.6,4.1-1.6c1.3,0,2.6,0.5,3.9,1.4c0.5,0.3,0.8,0.5,1.1,0.8c1.5,2,2.2,4.1,2.2,6.3
			c0,0.6-0.1,1.2-0.2,1.8s-0.3,1.2-0.5,1.9c-0.9,2.1-2.3,3.5-4.2,4.2c-0.9,0.3-1.7,0.4-2.5,0.4c-1.4,0-2.7-0.5-3.9-1.5v1.2H248
			V198.6z M251.8,210.1c0,0.2-0.1,0.4-0.2,0.6v4.4c0.6,1.7,1.7,2.5,3.3,2.5h0.2c0.1,0,0.2,0,0.2,0c2.2-0.5,3.4-1.9,3.6-4.2v-0.2
			c0-3.3-1.5-5-4.5-5.1C253.3,208.4,252.4,209.1,251.8,210.1z"/>
		<path d="M279.5,207.8v0.2c0.1,0.2,0.2,0.5,0.2,0.7v12.2h-3.6v-10.4l-0.1-0.4c-0.5-1.5-1.3-2.2-2.5-2.2c-0.4,0-0.7,0.1-1.2,0.2
			c-1,0.4-1.7,1.1-2.1,2l-0.2,1v9.7h-3.5v-16h3.5v1.3c1.1-1,2.3-1.6,3.6-1.8h0.3C276.6,204.5,278.4,205.6,279.5,207.8z"/>
		<path d="M297.7,208.1c0.7,1.6,1,3.2,1,4.8c0,1-0.1,1.9-0.4,2.8c-0.7,2.9-2.4,4.7-5.1,5.4c-0.4,0.1-0.8,0.2-1.2,0.2
			s-0.8,0.1-1.1,0.1c-1.4,0-2.8-0.4-4-1.2c-2.3-1.6-3.4-3.7-3.6-6.3c0-0.1,0-0.3,0-0.4s0-0.3,0-0.4c0-4.9,2.2-7.8,6.7-8.8
			c0.1,0,0.2,0,0.3,0s0.2,0,0.3,0C293.7,204.4,296.1,205.6,297.7,208.1z M287,213.7c0.3,2.6,1.7,4,4,4.3c2.4-0.2,3.7-1.5,4-3.8
			c0-0.3,0.1-0.6,0.1-0.8c0-0.3,0-0.5,0-0.8c0-3-1.5-4.5-4.4-4.7c-2.5,0.6-3.7,2.3-3.7,5C287,213.1,287,213.4,287,213.7z"/>
		<path d="M311.7,204.6v3.8c-0.1,0-0.2,0-0.2,0h-0.2c-1.9,0-3.3,0.8-4.2,2.4l-0.2,0.9l-0.1,0.4v8.8h-3.6V205h3.6v0.9
			c0,0.3,0,0.5,0.1,0.7c1.1-1.3,2.5-1.9,4.1-1.9H311.7z"/>
		<path d="M327,206.7c1.4-1.3,2.8-2,4.4-2c0.4,0,0.7,0,1.1,0.1s0.8,0.2,1.1,0.3c1.1,0.5,2,1.2,2.6,2.1l0.1,0.1l0.1,0.4l0.1,0.1
			l0.4,1.1c0,0.2,0,0.4,0,0.6s0,0.4,0,0.5v10.8h-3.5v-10l-0.1-1c-0.1-0.2-0.2-0.4-0.2-0.6c-0.6-0.9-1.3-1.4-2.1-1.4
			c-0.5,0-1,0.2-1.6,0.5c-0.6,0.4-1,0.9-1.2,1.5l-0.1,0.7v10.3h-3.6v-10.4l-0.1-0.5l-0.1-0.2v-0.2c-0.1-0.2-0.2-0.3-0.2-0.4
			s-0.1-0.3-0.2-0.4c-0.5-0.5-1.2-0.8-1.8-0.8c-1.3,0.2-2.2,0.8-2.8,1.8l-0.1,0.4l-0.1,0.6c0,0.1,0,0.1,0.1,0.2s0,0.1,0,0.2
			c0,0.1,0,0.1,0,0.2v9.5h-3.6v-16h3.6v1.2c1.1-0.8,2.2-1.3,3.4-1.4h0.1C324.5,204.7,326,205.3,327,206.7z"/>
		<path d="M352.6,206.4l0.2,0.4c0.5,0.6,0.8,1.2,0.9,1.8c0,0.3,0.1,0.5,0.1,0.7s0,0.4,0,0.6v7.7c0.4,0.7,0.9,1.1,1.6,1.3l-0.1,0.2
			c0,0.1-0.1,0.1-0.1,0.1l-0.1,0.2l-0.1,0.1c-0.1,0.2-0.2,0.4-0.4,0.5c-0.1,0.4-0.3,0.6-0.5,0.8c-0.1,0.2-0.2,0.4-0.2,0.5
			s-0.2,0.3-0.2,0.4c-1.1-0.3-2-0.8-2.7-1.6h-0.2c-1.3,0.9-2.6,1.4-3.9,1.4c-0.7,0-1.4-0.1-2.1-0.4c-2.1-0.8-3.4-2.1-3.8-4.1v-0.1
			c0-3.8,2.2-5.7,6.6-5.7h0c0.1,0,0.2-0.1,0.3-0.1l0.2-0.1h0.4l0.2-0.1h0.2l1.5-0.2c0-0.1,0-0.2,0-0.3v-0.3c0-1.6-0.9-2.4-2.6-2.4
			c-1.2,0-2.8,0.4-4.9,1.2l-0.2-0.5l-0.1-0.4l-0.1-0.1l-0.1-0.1l-0.1-0.4c-0.1-0.2-0.2-0.4-0.2-0.5c-0.2-0.3-0.3-0.5-0.4-0.8
			l0.2-0.1l0.1-0.1l0.2-0.1l0.1-0.1h0.2c0,0,0.1-0.1,0.1-0.1h0c0.4-0.2,0.7-0.3,0.9-0.4l0.3-0.1c0.2-0.1,0.4-0.2,0.6-0.2l0.5-0.1
			c0.3-0.1,0.7-0.2,1-0.2l1.3-0.2c0.2,0,0.4,0,0.6-0.1s0.4,0,0.5,0C349.9,204.5,351.4,205.2,352.6,206.4z M348.9,213.8h-0.4
			c-0.1,0-0.2,0-0.3,0s-0.2,0-0.2,0h-0.1l-0.2,0.1h-0.2c0,0-0.1,0.1-0.2,0.1h-0.2l-0.9,0.2h-0.2c-0.3,0.2-0.5,0.3-0.7,0.3
			c-0.6,0.6-1,1.2-1,1.8c0,0.5,0.3,1,0.8,1.5c0.8,0.5,1.5,0.7,2.2,0.7c0.9,0,1.8-0.4,2.6-1.1c0.1-0.2,0.2-0.4,0.2-0.5l0.1-0.2
			l-0.1-0.2v-2.8h-1.2C349,213.8,348.9,213.8,348.9,213.8z"/>
		<path d="M359.4,198.5h3.6v16.2c0,0.1,0,0.2,0,0.4v0.3c0,0.7,0,1.2,0.1,1.7c0.4,0.5,1.1,0.8,1.9,0.8c0.4,0,0.8-0.1,1.3-0.2v0.4
			l0.1,0.2l0.1,0.8v0.4l0.1,0.1v0.4l0.2,1c-1.1,0.3-2.1,0.4-2.9,0.4c-2.3,0-3.7-0.9-4.4-2.8c0-0.1,0-0.2,0-0.3c0-0.1,0-0.1,0-0.2
			V198.5z"/>
	</g>
	<g>
		<path d="M259.5,247h3.6v16.2c0,0.1,0,0.2,0,0.4v0.3c0,0.7,0,1.2,0.1,1.7c0.4,0.5,1.1,0.8,1.9,0.8c0.4,0,0.8-0.1,1.3-0.2v0.4
			l0.1,0.2l0.1,0.8v0.4l0.1,0.1v0.4l0.2,1c-1.1,0.3-2.1,0.4-2.9,0.4c-2.3,0-3.7-0.9-4.4-2.8c0-0.1,0-0.2,0-0.3s0-0.1,0-0.2V247z"/>
		<path d="M282.8,256.6c0.7,1.6,1,3.2,1,4.8c0,1-0.1,1.9-0.4,2.8c-0.7,2.9-2.4,4.7-5.1,5.4c-0.4,0.1-0.8,0.2-1.2,0.2
			s-0.8,0.1-1.1,0.1c-1.4,0-2.8-0.4-4-1.2c-2.3-1.6-3.4-3.7-3.6-6.3c0-0.1,0-0.3,0-0.4s0-0.3,0-0.4c0-4.9,2.2-7.8,6.7-8.8
			c0.1,0,0.2,0,0.3,0s0.2,0,0.3,0C278.9,252.9,281.3,254.1,282.8,256.6z M272.2,262.2c0.3,2.6,1.7,4,4,4.3c2.4-0.2,3.7-1.5,4-3.8
			c0-0.3,0.1-0.6,0.1-0.8s0-0.5,0-0.8c0-3-1.5-4.5-4.4-4.7c-2.5,0.6-3.7,2.3-3.7,5C272.1,261.6,272.2,261.9,272.2,262.2z"/>
		<path d="M299,254.9l0.2,0.4c0.5,0.6,0.8,1.2,0.9,1.8c0,0.3,0.1,0.5,0.1,0.7s0,0.4,0,0.6v7.7c0.4,0.7,0.9,1.1,1.6,1.3l-0.1,0.2
			c0,0.1-0.1,0.1-0.1,0.1l-0.1,0.2l-0.1,0.1c-0.1,0.2-0.2,0.4-0.4,0.5c-0.1,0.4-0.3,0.6-0.5,0.8c-0.1,0.2-0.2,0.4-0.2,0.5
			s-0.2,0.3-0.2,0.4c-1.1-0.3-2-0.8-2.7-1.6h-0.2c-1.3,0.9-2.6,1.4-3.9,1.4c-0.7,0-1.4-0.1-2.1-0.4c-2.1-0.8-3.4-2.1-3.8-4.1v-0.1
			c0-3.8,2.2-5.7,6.6-5.7h0c0.1,0,0.2-0.1,0.3-0.1l0.2-0.1h0.4l0.2-0.1h0.2l1.5-0.2c0-0.1,0-0.2,0-0.3v-0.3c0-1.6-0.9-2.4-2.6-2.4
			c-1.2,0-2.8,0.4-4.9,1.2l-0.2-0.5l-0.1-0.4l-0.1-0.1l-0.1-0.1l-0.1-0.4c-0.1-0.2-0.2-0.4-0.2-0.5c-0.2-0.3-0.3-0.5-0.4-0.8
			l0.2-0.1l0.1-0.1l0.2-0.1l0.1-0.1h0.2c0,0,0.1-0.1,0.1-0.1h0c0.4-0.2,0.7-0.3,0.9-0.4l0.3-0.1c0.2-0.1,0.4-0.2,0.6-0.2l0.5-0.1
			c0.3-0.1,0.7-0.2,1-0.2l1.3-0.2c0.2,0,0.4,0,0.6-0.1s0.4,0,0.5,0C296.3,253,297.8,253.7,299,254.9z M295.3,262.3h-0.4
			c-0.1,0-0.2,0-0.3,0s-0.2,0-0.2,0h-0.1l-0.2,0.1h-0.2c0,0-0.1,0.1-0.2,0.1h-0.2l-0.9,0.2h-0.2c-0.3,0.2-0.5,0.3-0.7,0.3
			c-0.6,0.6-1,1.2-1,1.8c0,0.5,0.3,1,0.8,1.5c0.8,0.5,1.5,0.7,2.2,0.7c0.9,0,1.8-0.4,2.6-1.1c0.1-0.2,0.2-0.4,0.2-0.5l0.1-0.2
			l-0.1-0.2v-2.8h-1.2C295.4,262.3,295.3,262.3,295.3,262.3z"/>
		<path d="M316,247.1h3.6v22.3H316V269c0-0.3,0-0.5-0.1-0.7c-1.2,1-2.6,1.5-3.9,1.5c-0.1,0-0.3,0-0.4,0s-0.3,0-0.4,0
			c-4.2-1.2-6.3-3.9-6.3-8.2c0-0.4,0-0.7,0-1.1s0.1-0.7,0.1-1.1c0.6-2.9,2.1-4.8,4.5-5.8c0.9-0.3,1.8-0.5,2.6-0.5
			c1.4,0,2.6,0.5,3.8,1.4V247.1z M308.5,262c0.3,1.8,1.2,3.2,2.6,4c0.3,0,0.5,0.1,0.7,0.1s0.5,0,0.7,0c2.2,0,3.3-1.3,3.3-3.8v-0.2
			c0-0.1,0-0.2,0-0.2c0.1-0.4,0.1-0.9,0.1-1.2c0-2.6-1.3-4-4-4c-2.3,0.7-3.5,2.3-3.5,4.8v0.3C308.5,261.8,308.5,261.9,308.5,262z"/>
		<path d="M336,255.4l-0.2,0.2l-0.2,0.2l-0.2,0.1l-0.2,0.4l-0.1,0.1l-0.1,0.1c-0.1,0.2-0.2,0.3-0.4,0.4l-0.8,0.9c-1.6-1-3-1.6-4-1.6
			c-1.1,0-1.9,0.5-2.4,1.6c0,0.6,0.3,1.1,0.8,1.4c0.2,0.1,0.4,0.1,0.5,0.2c0.4,0.1,0.7,0.1,0.9,0.2c3.7,0.3,5.8,1.8,6.2,4.5
			c0,0.1,0,0.2,0,0.3s0,0.2,0,0.3c0,2-0.8,3.4-2.5,4.4c-1.2,0.5-2.4,0.8-3.6,0.8c-2.3,0-4.6-1-6.8-2.9l0.1-0.2l0.3-0.3
			c0.2-0.2,0.4-0.4,0.5-0.5c0-0.1,0.1-0.1,0.1-0.1l0.1-0.2c0-0.1,0.1-0.1,0.1-0.1l0.1-0.1l0.1-0.1l0.8-0.9c1.4,1.4,3,2.1,4.5,2.1
			c0.7,0,1.3-0.1,2-0.4c0.2-0.2,0.4-0.4,0.5-0.5c0.1-0.2,0.1-0.5,0.1-0.7c0-0.5-0.2-0.9-0.5-1.3l-1.3-0.5c-4-0.2-6.2-2-6.6-5.2
			c0.3-3.2,2.1-4.9,5.4-5.2h0.2C332.2,253,334.4,253.8,336,255.4z"/>
	</g>
</g>
</svg>
