<?xml version="1.0" encoding="utf-8"?>
<!-- Generator: Adobe Illustrator 17.1.0, SVG Export Plug-In . SVG Version: 6.00 Build 0)  -->
<!DOCTYPE svg PUBLIC "-//W3C//DTD SVG 1.1//EN" "http://www.w3.org/Graphics/SVG/1.1/DTD/svg11.dtd">
<svg version="1.1" id="Layer_1" xmlns="http://www.w3.org/2000/svg" xmlns:xlink="http://www.w3.org/1999/xlink" x="0px" y="0px"
	 viewBox="155.9 70.9 283.5 283.5" enable-background="new 155.9 70.9 283.5 283.5" xml:space="preserve">
<g>
	<circle fill="#ED1C24" cx="297.6" cy="212.6" r="120.5"/>
	<circle fill="#FFFFFF" cx="297.6" cy="212.6" r="96.5"/>
	<g>
		<circle cx="254" cy="230.4" r="8.1"/>
		<circle cx="334.1" cy="230.4" r="8.1"/>
		<circle fill="#FFFFFF" cx="254" cy="230.4" r="4.1"/>
		<circle fill="#FFFFFF" cx="334.1" cy="230.4" r="4.1"/>
		<path d="M343.9,232.9c0.2-0.8,0.4-1.7,0.4-2.5c0-5.6-4.5-10.1-10.1-10.1s-10.1,4.5-10.1,10.1c0,0.9,0.1,1.7,0.4,2.5h-60.5
			c0.2-0.8,0.4-1.7,0.4-2.5c0-5.6-4.5-10.1-10.1-10.1s-10.1,4.5-10.1,10.1c0,0.9,0.1,1.7,0.4,2.5h-21.9c-4.5,0-4.4-4.7-4.4-4.7
			s0-14.2,0-16c0-1.8,2-1.9,2-1.9l0.7-20.5c0.1-4,3.1-3.5,3.1-3.5h144.4c6.4,0,9.7,6.2,9.7,9.8v30.2L343.9,232.9z"/>
		<path fill="#FFFFFF" d="M271,208.3c1.2,0,2.2-1,2.2-2.2v-9.5c0-1.2-1-2.2-2.2-2.2h-23.8c-1.2,0-2.2,1-2.2,2.2v9.5
			c0,1.2,1,2.2,2.2,2.2H271z"/>
		<path fill="#FFFFFF" d="M235.7,227.9c1.2,0,2.2-1,2.2-2.2v-29.3c0-1.2-1-2.2-2.2-2.2H230c-1.2,0-2.2,1-2.2,2.2v29.3
			c0,1.2,1,2.2,2.2,2.2L235.7,227.9L235.7,227.9z"/>
		<path fill="#FFFFFF" d="M304.2,208.3c1.2,0,2.2-1,2.2-2.2v-9.5c0-1.2-1-2.2-2.2-2.2h-23.8c-1.2,0-2.2,1-2.2,2.2v9.5
			c0,1.2,1,2.2,2.2,2.2H304.2z"/>
		<path fill="#FFFFFF" d="M337.2,208.3c1.2,0,2.2-1,2.2-2.2v-9.5c0-1.2-1-2.2-2.2-2.2h-23.8c-1.2,0-2.2,1-2.2,2.2v9.5
			c0,1.2,1,2.2,2.2,2.2H337.2z"/>
		<path fill="#FFFFFF" d="M369.9,208.3c1.2,0,2.2-1,2.2-2.2v-5.5c0-3.5-2.8-6.4-6.2-6.4h-19.6c-1.2,0-2.2,1-2.2,2.2v9.5
			c0,1.2,1,2.2,2.2,2.2L369.9,208.3L369.9,208.3z"/>
	</g>
</g>
</svg>
