<?xml version="1.0" encoding="utf-8"?>
<!-- Generator: Adobe Illustrator 17.1.0, SVG Export Plug-In . SVG Version: 6.00 Build 0)  -->
<!DOCTYPE svg PUBLIC "-//W3C//DTD SVG 1.1//EN" "http://www.w3.org/Graphics/SVG/1.1/DTD/svg11.dtd">
<svg version="1.1" id="Layer_1" xmlns="http://www.w3.org/2000/svg" xmlns:xlink="http://www.w3.org/1999/xlink" x="0px" y="0px"
	 viewBox="155.9 70.9 283.5 283.5" enable-background="new 155.9 70.9 283.5 283.5" xml:space="preserve">
<g>
	<path fill="#EB2027" d="M276.5,93.1c-66,11.6-110.1,74.6-98.5,140.6s74.6,110.1,140.7,98.5c66-11.6,110.1-74.6,98.6-140.7
		C405.6,125.5,342.6,81.5,276.5,93.1"/>
	<path fill="#FFFFFF" d="M280.8,117c-52.8,9.4-88.1,59.7-78.8,112.6c9.4,52.8,59.7,88.1,112.5,78.8c52.8-9.3,88.1-59.8,78.7-112.6
		C384,143,333.7,107.7,280.8,117"/>
	<g>
		<path fill="#221F1F" d="M265.4,183.6c4.6,0,8.3,3.7,8.3,8.2s-3.7,8.2-8.3,8.2c-4.6,0-8.3-3.7-8.3-8.2S260.8,183.6,265.4,183.6"/>
		<path fill="#FFFFFF" d="M265.4,187.7c2.3,0,4.1,1.9,4.1,4.1c0,2.3-1.8,4.1-4.1,4.1c-2.3,0-4.1-1.8-4.1-4.1
			C261.2,189.5,263.1,187.7,265.4,187.7z"/>
		<path fill="#221F1F" d="M330.3,183.6c4.5,0,8.2,3.7,8.2,8.2s-3.7,8.2-8.2,8.2s-8.2-3.7-8.2-8.2S325.7,183.6,330.3,183.6"/>
		<circle fill="#FFFFFF" cx="330.3" cy="191.8" r="4.1"/>
		<path fill="#221F1F" d="M252.5,174.4l2.2-12.3c0.4-2.4,2.5-4.3,5-4.3h13.9c1.1,0,2.1,0.9,2.1,2l0,0v11.3h4.1v-18.5
			c0-1.1,0.9-2.1,2.1-2.1h64.9c1.1,0,2,0.9,2,2.1l0,0v39.2h-9.5c0-5-4.1-9-9.1-9c-5,0-9.1,4-9.1,9h-46.9c0-5-4.1-9-9.1-9
			c-5,0-9.1,4-9.1,9h-3.3l-3-13.7V178c0-0.2-0.1-0.4-0.1-0.6C249.9,175.9,251,174.6,252.5,174.4L252.5,174.4"/>
		<path fill="#FFFFFF" d="M268.4,161.1v10.1h-12.2l1.5-8.6c0.2-1,1.1-1.7,2-1.7h8.7V161.1z"/>
		<polyline fill="#221F1F" points="321.3,191.8 324.6,191.8 326.5,186.5 334.1,186.5 338.5,191.8 344.1,191.8 336.7,181.3 
			336.7,181 321,181 321.3,191.8 		"/>
	</g>
	<g>
		<path fill="#231F20" d="M252.3,265.4c-0.3-0.8-0.4-1.7-0.4-2.7c0-4.8,4-8.8,8.8-8.8c1.2,0,2.3,0.2,3.4,0.7c1,0.4,2,1.1,2.8,1.9
			c0.8,0.8,1.4,1.8,1.9,2.8c0.5,1.1,0.7,2.3,0.7,3.4c0,0.8-0.1,1.8-0.4,2.7v0.1h53.6v-0.1c-0.3-0.8-0.4-1.7-0.4-2.7
			c0-1.2,0.3-2.3,0.7-3.4c0.4-1.1,1.1-2,1.9-2.8c0.8-0.8,1.8-1.4,2.8-1.9c1.1-0.5,2.3-0.7,3.4-0.7s2.3,0.2,3.4,0.7
			c1.1,0.4,2,1.1,2.8,1.9c0.8,0.8,1.4,1.8,1.9,2.8c0.4,1.1,0.7,2.3,0.7,3.4c0,1-0.1,1.8-0.4,2.7v0.1h0.1l30.3-6.1l0,0v-26.4
			c0-2.3-0.9-4.6-2.6-6.3c-1.7-1.7-3.9-2.6-6.3-2.6H233.4c0,0,0,0-0.1,0c-1,0-1.7,0.8-1.8,1.6l-0.9,19.4l0.1-0.1
			c-1,0-1.8,0.8-1.8,1.8v15c0,2,1.6,3.5,3.5,3.5c0,0,0,0,0.1,0h0.1v-0.1v0.1L252.3,265.4L252.3,265.4L252.3,265.4z"/>
		<path fill="#FFFFFF" d="M246.6,233c0-1-0.8-1.8-1.8-1.8h-5.2c-1,0-1.8,0.8-1.8,1.8v25.5c0,1,0.8,1.7,1.8,1.7h5.2
			c1,0,1.8-0.8,1.8-1.7V233z"/>
		<path fill="#FFFFFF" d="M283.5,243.6c-1,0-1.8-0.8-1.8-1.8V233c0-1,0.8-1.8,1.8-1.8h21.1c1,0,1.8,0.8,1.8,1.8v8.8
			c0,1-0.8,1.8-1.8,1.8H283.5z"/>
		<path fill="#FFFFFF" d="M254.5,243.6c-1,0-1.8-0.8-1.8-1.8V233c0-1,0.8-1.8,1.8-1.8h21.1c0.9,0.1,1.7,0.8,1.7,1.8v8.8
			c0,1-0.8,1.8-1.7,1.8H254.5z"/>
		<path fill="#FFFFFF" d="M333.6,243.6c1,0,1.8-0.8,1.8-1.8V233c0-1-0.8-1.8-1.8-1.8h-21h-0.1c-1,0-1.8,0.8-1.8,1.8v8.8
			c0,1,0.8,1.8,1.8,1.8h0.1l0,0v-0.1v0.1H333.6z"/>
		<path fill="#FFFFFF" d="M341.5,243.6c-1,0-1.8-0.8-1.8-1.8V233c0-1,0.8-1.8,1.8-1.8h17.6c2.9,0,5.2,2.3,5.2,5.2l-0.1,5.3
			c0,1-0.8,1.8-1.7,1.8L341.5,243.6z"/>
		<path fill="#231F20" d="M260.6,255.8c3.9,0,7,3.1,7,7c0,3.9-3.1,7-7,7c-3.9,0-7-3.1-7-7C253.6,259,256.7,255.8,260.6,255.8"/>
		<path fill="#FFFFFF" d="M260.6,259.4c1.9,0,3.5,1.6,3.5,3.5s-1.6,3.5-3.5,3.5s-3.5-1.6-3.5-3.5
			C257.1,260.9,258.6,259.4,260.6,259.4"/>
		<path fill="#231F20" d="M331,255.8c3.9,0,7.1,3.1,7.1,7c0,3.9-3.1,7.1-7.1,7.1s-7.1-3.1-7.1-7.1C324,259,327.1,255.8,331,255.8z"
			/>
		<path fill="#FFFFFF" d="M331,259.4c2,0,3.5,1.6,3.5,3.5s-1.6,3.5-3.5,3.5s-3.5-1.6-3.5-3.5S329,259.4,331,259.4"/>
	</g>
</g>
</svg>
