<?xml version="1.0" encoding="utf-8"?>
<!-- Generator: Adobe Illustrator 17.1.0, SVG Export Plug-In . SVG Version: 6.00 Build 0)  -->
<!DOCTYPE svg PUBLIC "-//W3C//DTD SVG 1.1//EN" "http://www.w3.org/Graphics/SVG/1.1/DTD/svg11.dtd">
<svg version="1.1" id="Layer_1" xmlns="http://www.w3.org/2000/svg" xmlns:xlink="http://www.w3.org/1999/xlink" x="0px" y="0px"
	 viewBox="155.9 70.9 283.5 283.5" enable-background="new 155.9 70.9 283.5 283.5" xml:space="preserve">
<g id="Layer_1_1_">
	<g>
		<circle fill="#ED1C24" cx="297.6" cy="212.6" r="120.5"/>
		<circle fill="#FFFFFF" cx="297.6" cy="212.6" r="96.5"/>
	</g>
</g>
<g id="Layer_2">
	<path fill="#FFFFFF" d="M297.6,116.9c52.9,0,95.7,42.9,95.7,95.7c0,52.8-42.9,95.7-95.7,95.7s-95.7-42.9-95.7-95.7
		C201.9,159.7,244.8,116.9,297.6,116.9"/>
	<path fill="#221F1F" d="M253.3,205.3c2.6-8.5,5-17,7.6-25.5c0-0.1,0-0.2,0-0.3c0-0.4-0.2-0.7-0.6-0.9c0,0,0,0-0.1,0
		c-3-1.3-4.9-4.2-4.9-7.4c0-4.4,3.5-8.1,8-8.1c1.1,0,2,0,3,0c3.6,0,7.3,0,11,0c0,2.7,0,5.3,0,8c-3.4,0-6.7,0-10.1,0
		c-0.6,0-1.3,0-2,0c-0.4,0-0.9,0.5-0.9,1c0,0.3,0.1,0.6,0.4,0.8c0,0,0,0,0.1,0.1c2.6,1.4,4.2,3.3,4.2,6.1c0,1.3-0.1,1.7-0.5,2.9
		c-0.1,0.7-1.2,4.2-1.2,4.2c18.2,0,36.4,0,54.8-0.1c1.1-2.7,2.2-5.3,3.4-7.9c-4.2-1.1-8.3-2-12.5-3.2c-0.8-0.2-1.4-1-1.4-1.9
		c0-1.1,0.9-2,1.9-2c9.4,0,18.7,0,28.2,0c0,4.4-3.6,8.1-8,8.1c-0.9,2.2-1.9,4.5-2.8,6.9c3.4,6.4,6.9,12.9,10.3,19.4c0,0,0,0,0.1,0
		c3.5-1.5,7.4-2.2,11.2-2.2c16.6,0,30.1,13.4,30.1,30.1s-13.4,30.1-30.1,30.1c-15.5,0-28.4-11.7-30-27c0,0,0,0,0.1,0
		c-1.1,0-2.3,0-3.5,0c0,0,0,0-0.1,0c-0.7,2.9-2.3,5.2-4.9,7c1.1,2,2,4.1,3,6.1c1.5,0,3.2,0,4.8,0c0,1.3,0,2.7,0,4c-1,0-2.1,0-3.3,0
		c-0.6,0.6-1.4,1.1-2.4,1.1c-0.8,0-1.6-0.3-2.2-1.1c-1.4,0-2.8,0-4.2,0c0-1.3,0-2.7,0-4c1.2,0,2.6,0,3.9,0c-0.8-1.5-1.6-3.1-2.5-4.8
		c0,0,0,0,0,0.1c-1.7,0.5-2.1,0.6-4,0.6c-6.5,0-12-5.4-12-12c0-1.2,0.3-2.3,0.6-3.4c0,0,0-0.1,0-0.2c-11.4-7.8-22.9-15.7-34.3-23.6
		c-0.3,1-0.6,2.1-1,3.3c0,0,0,0.1,0,0.2c7.5,5.7,11.8,14.4,11.8,23.8c0,16.6-13.4,30.1-30.1,30.1s-30.1-13.5-30.1-30.1
		c0-16.6,13.4-30.1,30.1-30.1C246.8,203.1,248.7,203.4,253.3,205.3C253.1,205.2,253.2,205.2,253.3,205.3"/>
	<path fill="#FFFFFF" d="M299.2,233.2c0,4.4,3.6,8,8,8c4.5,0,8.1-3.5,8.1-8c0-4.3-3.6-8-8.1-8C302.9,225.2,299.2,228.9,299.2,233.2z
		"/>
	<path fill="#FFFFFF" d="M257.6,219c-0.5,1.7-1.1,3.5-1.6,5.3c-1.7,5.6-7.6,10.3-13.3,11.8c-0.3,0.1-0.5,0.1-0.6,0.1
		c-1.7,0-3-1.4-3-3c0-1,0.5-1.9,1.2-2.4c0.1-0.1,0.3-0.2,0.4-0.4c3.4-2.3,6.3-5,7.4-8.4c0.8-2.7,1.6-5.4,2.6-8.1c0,0,0,0-0.1,0
		c-2.7-1.2-5.5-1.9-8.5-1.9c-11.7,0-21.1,9.5-21.1,21c0,11.7,9.5,21.1,21.1,21.1c11.5,0,21-9.5,21-21.1
		C263.2,227.7,261,222.9,257.6,219C257.6,219.1,257.6,219.1,257.6,219z"/>
	<path fill="#FFFFFF" d="M315.4,224.2c4-9.8,7.9-19.7,11.9-29.7c2.6,4.8,5,9.5,7.6,14.3c0,0-0.1,0-0.3,0.1
		c-8.7,3.7-12.2,11.9-12.3,21.3c0,0,0,0,0.1,0c-1.1,0-2.4,0-3.6,0c-0.6-2.3-1.6-4.2-3.4-5.7C315.5,224.4,315.5,224.3,315.4,224.2z"
		/>
	<path fill="#FFFFFF" d="M339.1,216.9c-4.2,3.4-6.7,7.8-7.5,13.2c0,0,0,0.1,0,0.3c4.9,0,9.7,0,14.7,0
		C344,225.9,341.6,221.4,339.1,216.9C339.2,216.8,339.2,216.8,339.1,216.9z"/>
	<path fill="#FFFFFF" d="M355.2,232c0.2,0.4,0.3,0.8,0.3,1.2c0,1.6-1.4,3-3,3c-6.9,0-13.8,0-20.8,0c0,0,0,0-0.1,0.1
		c1.6,10.3,10.4,17.9,20.9,17.9c11.7,0,21-9.5,21-21.1c0-11.6-9.4-21-21-21c-2.3,0-4.9,0.4-7.1,1.2
		C348.6,219.6,351.8,225.8,355.2,232z"/>
	<path fill="#FFFFFF" d="M300.6,223.2c-0.9-1.9-1.9-4-2.9-6c-1.6,0-3.3,0-4.9,0c0-1.3,0-2.7,0-4.1c1.1,0,2.2,0,3.4,0c0,0,0,0,0.1,0
		c0.5-0.7,1.3-1.1,2.1-1.1c0.8,0,1.6,0.4,2.2,1.1c0,0,0,0,0.1,0c1.3,0,2.7,0,4.2,0c0,1.3,0,2.7,0,4.1c-1.2,0-2.4,0-3.8,0
		c0.7,1.5,1.5,3,2.3,4.7c0.1,0,0.2,0,0.3-0.1c1.1-0.4,2.4-0.6,3.6-0.6c0.1,0,0.4,0,0.5,0c0,0,0,0,0.1,0.1
		c3.7-9.3,7.6-18.7,11.4-28.2c-18,0-36.1,0-54.2,0c-0.4,1.9-1.1,3.9-1.6,5.7c12,8.3,24.1,16.6,36.2,24.9
		C299.9,223.6,300.3,223.5,300.6,223.2z"/>
</g>
</svg>
