<?xml version="1.0" encoding="utf-8"?>
<!-- Generator: Adobe Illustrator 17.1.0, SVG Export Plug-In . SVG Version: 6.00 Build 0)  -->
<!DOCTYPE svg PUBLIC "-//W3C//DTD SVG 1.1//EN" "http://www.w3.org/Graphics/SVG/1.1/DTD/svg11.dtd">
<svg version="1.1" id="Layer_1" xmlns="http://www.w3.org/2000/svg" xmlns:xlink="http://www.w3.org/1999/xlink" x="0px" y="0px"
	 viewBox="155.9 70.9 283.5 283.5" enable-background="new 155.9 70.9 283.5 283.5" xml:space="preserve">
<g>
	<path fill="#ED1C24" d="M297.6,93.1c65.9,0,119.5,53.6,119.5,119.5s-53.6,119.5-119.5,119.5s-119.5-53.6-119.5-119.5
		S231.8,93.1,297.6,93.1v-1c-66.4,0-120.4,54-120.4,120.4c0,66.4,54,120.4,120.4,120.4c66.4,0,120.4-54,120.4-120.4
		c0-66.4-54-120.4-120.4-120.4V93.1"/>
	<path fill="#ED1C24" d="M297.8,97.3c63.6,0,115.1,51.6,115.1,115.1c0,63.6-51.6,115.1-115.1,115.1c-63.5,0-115.1-51.6-115.1-115.1
		C182.7,148.9,234.3,97.3,297.8,97.3"/>
	<path fill="#FFFFFF" d="M201.8,236.4c-3.5,0-6.4-2.9-6.4-6.4v-35.2c0-3.5,2.9-6.4,6.4-6.4h191.9c3.5,0,6.3,2.9,6.3,6.4V230
		c0,3.5-2.8,6.4-6.3,6.4H201.8"/>
</g>
</svg>
