<?xml version="1.0" encoding="utf-8"?>
<!-- Generator: Adobe Illustrator 17.1.0, SVG Export Plug-In . SVG Version: 6.00 Build 0)  -->
<!DOCTYPE svg PUBLIC "-//W3C//DTD SVG 1.1//EN" "http://www.w3.org/Graphics/SVG/1.1/DTD/svg11.dtd">
<svg version="1.1" id="Layer_1" xmlns="http://www.w3.org/2000/svg" xmlns:xlink="http://www.w3.org/1999/xlink" x="0px" y="0px"
	 viewBox="155.9 49.6 283.5 326" enable-background="new 155.9 49.6 283.5 326" xml:space="preserve">
<g>
	<path fill="#ED1C24" d="M297.6,61c65.9,0,119.5,53.6,119.5,119.5s-53.6,119.5-119.5,119.5s-119.5-53.6-119.5-119.5
		S231.8,61,297.6,61v-1c-66.4,0-120.4,54-120.4,120.4c0,66.4,54,120.4,120.4,120.4c66.4,0,120.4-54,120.4-120.4
		c0-66.4-54-120.4-120.4-120.4V61"/>
	<path fill="#ED1C24" d="M297.8,65.2c63.6,0,115.1,51.6,115.1,115.1c0,63.6-51.6,115.1-115.1,115.1c-63.5,0-115.1-51.6-115.1-115.1
		C182.7,116.7,234.3,65.2,297.8,65.2"/>
	<path fill="#FFFFFF" d="M201.8,204.3c-3.5,0-6.4-2.9-6.4-6.4v-35.2c0-3.5,2.9-6.4,6.4-6.4h191.9c3.5,0,6.3,2.9,6.3,6.4v35.2
		c0,3.5-2.8,6.4-6.3,6.4H201.8"/>
	<path fill="#FFFFFF" stroke="#272525" stroke-width="0.53" d="M384.5,308.8H210.7c-4.7,0-8.5,3.8-8.5,8.5v39.3
		c0,4.7,3.8,8.5,8.5,8.5h173.8c4.7,0,8.5-3.8,8.5-8.5v-39.3C393,312.6,389.2,308.8,384.5,308.8z"/>
	<polygon fill="#272525" points="248.6,338.9 259.1,338.9 259.1,334.1 248.6,334.1 248.6,328.3 260.1,328.3 260.1,323.5 
		243.3,323.5 243.3,349.8 260.9,349.8 260.9,345 248.6,345 	"/>
	<path fill="#272525" d="M280.4,348l-0.4-0.6c-0.1-0.2-0.3-0.4-0.5-0.6c0-0.1-0.1-0.2-0.1-0.2l-0.2-0.3c0-0.1-0.1-0.2-0.2-0.3
		c-0.1-0.2-0.3-0.5-0.5-0.8l-1.2-1.8l-0.3-0.3c-0.1-0.3-0.3-0.6-0.6-1c0-0.1-0.1-0.1-0.1-0.2l-0.2-0.4l-0.1-0.2
		c-0.1-0.2-0.2-0.4-0.3-0.5l-0.2-0.4l-0.2-0.2c0-0.1-0.1-0.2-0.2-0.2l-0.1-0.2c0.2-0.3,0.5-0.6,0.7-1l0.1-0.3
		c0.1-0.1,0.1-0.2,0.2-0.2l0.4-0.6l0.1-0.2c0.2-0.2,0.3-0.4,0.5-0.7l0.4-0.8l0.2-0.2l0.4-0.8l0.6-0.8l0.2-0.4
		c0.3-0.3,0.5-0.7,0.7-1.1l0.5-0.7l0.5-1.2h-5.4l-0.1,0.1c-0.2,0.3-0.4,0.6-0.6,0.9l-1.9,2.9l0,0.1c-0.2,0.2-0.3,0.4-0.4,0.6
		l-1.7-2.4c-0.1-0.2-0.2-0.4-0.4-0.7l-0.9-1.5h-5.5l0.2,0.6c0.1,0.3,0.4,0.7,0.7,1.1c0.1,0.3,0.3,0.6,0.6,1c0,0.1,0.1,0.1,0.1,0.2
		l0.3,0.6l0.2,0.2c0,0.1,0.1,0.1,0.1,0.2l0.7,1.1c0.1,0.2,0.3,0.4,0.5,0.6l0.5,0.8l0.1,0.3l0.5,0.7l0.2,0.2l0.2,0.4l0.6,0.8l0.1,0.2
		c-0.1,0.1-0.2,0.3-0.3,0.5c-0.1,0.1-0.3,0.3-0.4,0.5l-3.3,5l-0.1,0.1l-0.2,0.4l-0.3,0.3l-0.9,1.5l-0.4,0.6l-0.5,1h5.5l0.1-0.2
		c0.1-0.2,0.3-0.5,0.6-0.9l0.4-0.7c0.1-0.1,0.2-0.2,0.2-0.2l0.1-0.1c0.1-0.2,0.3-0.4,0.4-0.6l0.1-0.1l0.2-0.4l0.1-0.3l0.2-0.2
		c0.1-0.2,0.3-0.4,0.4-0.7l0.2-0.1l0.1-0.2l0.2-0.3c0.1-0.2,0.3-0.4,0.4-0.6l0,0l0.7,1.1l0.2,0.3l0.1,0.1c0,0.1,0.1,0.1,0.1,0.2
		c0.1,0.2,0.2,0.4,0.4,0.6l0.7,1.1c0.1,0.1,0.3,0.3,0.5,0.7l0.2,0.2l0.1,0.3l0.2,0.3l0.1,0.3l0.5,0.6h5.4l-0.2-0.6
		C281,348.8,280.8,348.4,280.4,348z"/>
	<path fill="#272525" d="M296.7,343.3l-1.3-0.8l-0.2,0.4c-0.6,1.4-1.7,2.3-3.4,2.5c-1.2,0.1-2.2-0.4-3-1.4c-1.5-2.4-1.5-4.9-0.1-7.7
		c0.3-0.2,0.5-0.5,0.9-0.9l0.6-0.3l0.2-0.1l0.2-0.1c2-0.3,3.5,0.5,4.6,2.5l0.2,0.4l1.4-0.8c0.2,0,0.4-0.1,0.6-0.3l0.4-0.1l0.1-0.1
		c0.2-0.1,0.4-0.2,0.6-0.3l1.1-0.4l-0.2-0.4c-1.6-3.2-4.4-4.9-8.4-4.9c-3,0.2-5.3,1.6-6.7,4.2c-1.2,2.1-1.6,4.5-1.3,7.2
		c0.6,4.4,3,7,7.1,7.9c0.5,0.1,1.1,0.1,1.6,0.1c3.3,0,5.9-1.7,7.7-4.9l0.2-0.4l-2.3-1.1C297.1,343.5,296.9,343.4,296.7,343.3z"/>
	<path fill="#272525" d="M318.5,338.6L318.5,338.6c-0.6-5.3-3.6-8-9.1-8.2c-5.6,0.9-8.3,4.5-8.1,11c0.4,4.4,2.6,7.3,6.6,8.6
		c0.9,0.2,1.7,0.3,2.6,0.3c2.5,0,4.8-0.9,7-2.7l0.3-0.3l-1.2-1.3c0-0.1-0.1-0.1-0.2-0.2c-0.2-0.3-0.4-0.5-0.7-0.8l-0.1-0.1l-0.1-0.2
		l-0.1-0.1c-0.2-0.1-0.3-0.3-0.4-0.5l-0.3-0.4l-0.4,0.3c-1.3,1.2-2.9,1.7-4.9,1.5c-1.7-0.3-2.7-1.4-3-3.1h12.1v-2.4
		c0-0.1,0-0.2-0.1-0.3L318.5,338.6z"/>
	<path fill="#FFFFFF" d="M306.4,338.3c0.2-1.8,1.3-2.9,3.2-3.4c1.7,0,2.9,0.9,3.6,2.5c0,0.2,0.1,0.4,0.2,0.6c0,0.1,0,0.2,0,0.2
		L306.4,338.3L306.4,338.3z"/>
	<path fill="#272525" d="M332.8,330.5c-0.4-0.1-1-0.1-1.5-0.1H330c-1.1,0.2-2.2,0.6-3.2,1.3v-1H322v24.7h4.8v-6.5
		c2.1,1.4,4.5,1.6,7.3,0.6c3.3-1.5,5.1-4.2,5.4-8.3C339.9,335.9,337.7,332.3,332.8,330.5z"/>
	<path fill="#FFFFFF" d="M332.3,344.7c-1.4,0.8-2.9,0.7-4.4-0.3c-0.9-1.1-1.2-2.7-0.9-4.8v-0.1c-0.2-2.3,0.9-3.7,3.3-4.2
		c2.4,0.2,3.8,1.6,4.3,4.3C334.7,341.8,334,343.5,332.3,344.7z"/>
	<path fill="#272525" d="M354.6,347.4c0-0.2-0.1-0.4-0.1-0.7c0-0.2,0-0.5-0.1-0.7v-0.4l-0.2-0.7l-0.4,0.1c-1.6,0.6-2.8,0.5-3.7-0.3
		c0-0.3-0.1-0.7,0-1.2V335h4.8v-4.3H350v-6.5c0-0.2-0.1-0.4-0.2-0.6l-0.2-0.2l-1.2,0.5c-0.1,0-0.1,0-0.2,0.1c-0.1,0-0.1,0-0.2,0.1
		l-0.4,0.1l-0.3,0.1c-0.1,0-0.1,0-0.2,0.1c-0.1,0-0.1,0-0.2,0.1c-0.1,0-0.1,0-0.2,0.1l-1.1,0.4l-0.5,0.2v5.6h-3.2v4.3h3.2v9.5
		c0,0.4,0,1,0.1,1.5l0,0.3c0.1,0.3,0.2,0.6,0.3,0.8l0.2,0.5l0.1,0.2c1,1.5,2.7,2.3,5,2.3c1.1,0,2.3-0.2,3.7-0.5l0.4-0.1L354.6,347.4
		z"/>
</g>
</svg>
