<?xml version="1.0" encoding="utf-8"?>
<!-- Generator: Adobe Illustrator 17.1.0, SVG Export Plug-In . SVG Version: 6.00 Build 0)  -->
<!DOCTYPE svg PUBLIC "-//W3C//DTD SVG 1.1//EN" "http://www.w3.org/Graphics/SVG/1.1/DTD/svg11.dtd">
<svg version="1.1" id="Layer_1" xmlns="http://www.w3.org/2000/svg" xmlns:xlink="http://www.w3.org/1999/xlink" x="0px" y="0px"
	 viewBox="155.9 70.9 283.5 283.5" enable-background="new 155.9 70.9 283.5 283.5" xml:space="preserve">
<g>
	<path fill="#EB2027" d="M276.5,93.1c-66,11.6-110.1,74.6-98.5,140.6s74.6,110.1,140.7,98.5c66-11.6,110.1-74.6,98.6-140.7
		C405.6,125.5,342.6,81.5,276.5,93.1"/>
	<path fill="#FFFFFF" d="M280.8,117c-52.8,9.4-88.1,59.7-78.8,112.6c9.4,52.8,59.7,88.1,112.5,78.8c52.8-9.3,88.1-59.8,78.7-112.6
		C384,143,333.7,107.7,280.8,117"/>
	<path fill="#221F1F" d="M241,226.1c7.3,0,13.3,5.9,13.3,13.2s-5.9,13.2-13.3,13.2c-7.3,0-13.3-5.9-13.3-13.2
		C227.8,232,233.7,226.1,241,226.1"/>
	<path fill="#FFFFFF" d="M241,232.7c3.7,0,6.6,3,6.6,6.6c0,3.7-3,6.6-6.6,6.6c-3.7,0-6.6-3-6.6-6.6
		C234.4,235.7,237.4,232.7,241,232.7z"/>
	<path fill="#221F1F" d="M345.4,226.1c7.3,0,13.2,5.9,13.2,13.2s-5.9,13.2-13.2,13.2c-7.3,0-13.2-5.9-13.2-13.2
		C332.2,232,338.1,226.1,345.4,226.1"/>
	<path fill="#FFFFFF" d="M345.5,232.7c3.7,0,6.6,3,6.6,6.6c0,3.7-3,6.6-6.6,6.6c-3.7,0-6.6-3-6.6-6.6
		C338.8,235.7,341.8,232.7,345.5,232.7z"/>
	<path fill="#221F1F" d="M220.4,211.3l3.5-19.7c0.7-3.9,4.1-6.9,8.1-6.9h22.4c1.8,0,3.3,1.4,3.3,3.2v0.1v18.2h6.6v-29.8
		c0-1.8,1.5-3.3,3.3-3.3H372c1.8,0,3.2,1.5,3.2,3.3h0.1v62.9H360c0-8-6.5-14.5-14.6-14.5s-14.6,6.5-14.6,14.5h-75.4
		c0-8-6.5-14.5-14.6-14.5c-8,0-14.6,6.5-14.6,14.5h-5.1l-4.9-22.1v-0.1c-0.1-0.3-0.1-0.7-0.1-1C216.1,213.7,217.9,211.7,220.4,211.3
		L220.4,211.3"/>
	<path fill="#FFFFFF" d="M246,190v16.3h-19.7l2.4-13.8c0.3-1.6,1.7-2.7,3.2-2.7h14v0.2H246z"/>
	<polyline fill="#221F1F" points="330.9,239.3 336.2,239.3 339.4,230.8 351.5,230.8 358.7,239.3 367.7,239.3 355.7,222.4 355.7,222 
		330.5,222 330.9,239.3 	"/>
</g>
</svg>
