<?xml version="1.0" encoding="utf-8"?>
<!-- Generator: Adobe Illustrator 17.1.0, SVG Export Plug-In . SVG Version: 6.00 Build 0)  -->
<!DOCTYPE svg PUBLIC "-//W3C//DTD SVG 1.1//EN" "http://www.w3.org/Graphics/SVG/1.1/DTD/svg11.dtd">
<svg version="1.1" id="Layer_1" xmlns="http://www.w3.org/2000/svg" xmlns:xlink="http://www.w3.org/1999/xlink" x="0px" y="0px"
	 viewBox="155.9 70.9 283.5 283.5" enable-background="new 155.9 70.9 283.5 283.5" xml:space="preserve">
<g>
	<circle fill="#ED1C24" cx="297.6" cy="212.6" r="120.5"/>
	<circle fill="#FFFFFF" cx="297.6" cy="212.6" r="96.5"/>
	<g>
		<path d="M344.7,159.6c7.3,3.1,12.4,10.3,12.4,18.7h-3.2c0,9.5-7.7,17.1-17.1,17.1c-6.5,0-12-3.5-14.9-8.8h-29.9
			c0,0-8.2,0.5-8.2-8.3c0-5.9-2.7-11.1-6.9-14.7l-1,1.6c3.7,3.2,6,7.9,6,13.1c0,9.5-7.7,17.1-17.1,17.1c-9.5,0-17.1-7.7-17.1-17.1
			c0-9.5,7.7-17.1,17.1-17.1c2.1,0,4.2,0.4,6.1,1.1l1-1.6c-2.1-0.9-4.5-1.3-7-1.3c-0.2,0-0.4,0-0.6,0v-7h4.3c0,0,8,0.3,12.5-7.4
			c1.3-2.4,7.3-11.9,7.3-11.9s0.4-0.6,0.8-0.4c0.4,0.2,0.4,0.6,0.3,0.9c-0.1,0.3-3.3,15.1-3.3,15.1c-0.1,0.5-0.4,1.9,0.7,2.6
			c1.1,0.7,2.2-0.3,2.5-0.4l4.9-3.9l4.6-8c0,0,0.4-1.1,0-1.1c-1,0-4.2-0.2-4.2-3.7v-4.2h-1.5c0-0.2,0-0.4,0-0.6
			c0-3.6,2.9-6.5,6.5-6.5s6.5,2.9,6.5,6.5c0,1.5-0.4,2.8-1.3,3.9v2.6h1.3l8.3,3.6l8.1,8.8c0,0,2.4,1.8,2.4,6.5h15.9
			C340.9,154.5,344.7,154.4,344.7,159.6z"/>
		<path fill="#FFFFFF" d="M272.2,171.2c1.7,1.9,2.7,4.3,2.7,7c0,5.7-4.6,10.3-10.3,10.3s-10.3-4.6-10.3-10.3
			c0-5.7,4.6-10.3,10.3-10.3c0.8,0,1.7,0.1,2.4,0.3l-2,3.4c-0.1,0-0.3,0-0.4,0c-3.6,0-6.5,2.9-6.5,6.5c0,3.6,2.9,6.5,6.5,6.5
			s6.5-2.9,6.5-6.5c0-1.3-0.4-2.6-1.1-3.5L272.2,171.2z"/>
		<path fill="#FFFFFF" d="M336,168.1c0.3,0,0.4,0,0.7,0c5.7,0,10.3,4.6,10.3,10.3s-4.6,10.3-10.3,10.3s-10.3-4.6-10.3-10.3
			c0-3.3,1.6-6.3,4-8.1l1.4,3.7c-1.1,1.1-1.7,2.7-1.7,4.4c0,3.6,2.9,6.5,6.5,6.5s6.5-2.9,6.5-6.5c0-3.4-2.6-6.2-5.8-6.5L336,168.1z"
			/>
		<path fill="#FFFFFF" d="M319.9,174.8c0.5-3.7,2.8-6.8,5.4-9.3c0.4-0.4,0.5-1.4-0.3-1.4c-0.7,0-6.5,0-6.5,0v10.8c0,0,0,0.8,0.6,0.8
			C319.7,175.7,319.9,175,319.9,174.8z"/>
		<path fill="#FFFFFF" d="M306.8,154.6c0,0-3.1-1.3-4.3-5.5l-13.8,8l13.7,4.4L306.8,154.6z"/>
	</g>
	<g>
		<path d="M298.1,275.4c9.2,0,30.7-1.1,30.7-1.1v15.3c0,0,2,3.7,7.4,3.7s7.9-3.5,7.9-3.5v-16.7c4.1-2.4,3.7-6.4,3.7-6.4v-21.4
			c0-7.3-6.9-7.8-6.9-7.8l-3.8-23.9c-1.6-10-9.6-11.8-13-11.8H272c-3.4,0-11.4,1.8-13,11.8l-3.8,23.9c0,0-6.9,0.4-6.9,7.8v21.4
			c0,0-0.4,4.1,3.7,6.4v16.7c0,0,2.5,3.5,7.9,3.5c5.4,0,7.4-3.7,7.4-3.7v-15.3C267.3,274.3,288.8,275.4,298.1,275.4z"/>
		<circle fill="#FFFFFF" cx="261" cy="249.5" r="7.2"/>
		<path fill="#FFFFFF" d="M298.1,232c6.5,0,25.6,1.1,30.8,1.1c6.6,0,5.4-6.3,5.4-6.3l-1.1-7.2c-1.1-6-6.1-8.7-10.5-9.1
			c-0.8-0.1-15.1-1.1-16.4-1.1h-16.5c-1.3,0-15.6,1-16.4,1.1c-4.3,0.4-9.3,3.1-10.5,9.1l-1.1,7.2c0,0-1.1,6.3,5.4,6.3
			C272.4,233,291.5,232,298.1,232z"/>
		<path fill="#FFFFFF" d="M298.1,248.7c2.7,0,22.4,0.3,25.5,0.7v3.4h-50.9v-3.5C275.6,248.9,295.3,248.7,298.1,248.7z"/>
		<path fill="#FFFFFF" d="M298.1,268.5c2.7,0,22.4-0.3,25.5-0.7v-3.4h-50.9v3.4C275.6,268.2,295.3,268.5,298.1,268.5z"/>
		<rect x="272.5" y="256.4" fill="#FFFFFF" width="51" height="4.1"/>
		<circle fill="#FFFFFF" cx="335" cy="249.5" r="7.2"/>
	</g>
</g>
</svg>
