<?xml version="1.0" encoding="utf-8"?>
<!-- Generator: Adobe Illustrator 17.1.0, SVG Export Plug-In . SVG Version: 6.00 Build 0)  -->
<!DOCTYPE svg PUBLIC "-//W3C//DTD SVG 1.1//EN" "http://www.w3.org/Graphics/SVG/1.1/DTD/svg11.dtd">
<svg version="1.1" id="Layer_1" xmlns="http://www.w3.org/2000/svg" xmlns:xlink="http://www.w3.org/1999/xlink" x="0px" y="0px"
	 viewBox="155.9 70.9 283.5 283.5" enable-background="new 155.9 70.9 283.5 283.5" xml:space="preserve">
<g>
	<circle fill="#ED1C24" cx="297.6" cy="212.6" r="120.5"/>
	<circle fill="#FFFFFF" cx="297.6" cy="212.6" r="96.5"/>
	<g>
		<path d="M361.7,200.8c10.9,4.6,18.6,15.4,18.6,27.9h-4.8c0,14.1-11.5,25.5-25.5,25.5c-9.6,0-17.9-5.3-22.4-13.1h-44.5
			c0,0-12.3,0.7-12.3-12.5c0-8.8-4-16.6-10.3-21.8l-1.4,2.4c5.5,4.7,9,11.7,9,19.5c0,14.1-11.5,25.5-25.5,25.5
			c-14.1,0-25.5-11.5-25.5-25.5c0-14.1,11.5-25.5,25.5-25.5c3.2,0,6.2,0.6,9,1.7l1.4-2.4c-3.3-1.2-6.7-1.9-10.4-1.9
			c-0.3,0-0.6,0-0.9,0v-10.3h6.5c0,0,11.9,0.4,18.6-11.1c2-3.5,11-17.8,11-17.8s0.5-1,1.1-0.7c0.6,0.3,0.5,0.9,0.4,1.2
			c-0.1,0.4-4.9,22.5-4.9,22.5c-0.2,0.7-0.6,2.8,1,3.9c1.6,1,3.3-0.4,3.7-0.7l7.3-5.8l6.8-11.8c0,0,0.7-1.5,0-1.5
			c-1.5,0-6.2-0.3-6.2-5.5v-6.5h-2.2c0-0.3,0-0.6,0-0.9c0-5.4,4.4-9.8,9.8-9.8s9.8,4.4,9.8,9.8c0,2.2-0.7,4.2-1.9,5.8v3.8h1.9
			l12.5,5.4l12.1,13.2c0,0,3.5,2.6,3.5,9.6h23.9C356.2,193.4,361.7,193.1,361.7,200.8z"/>
		<path fill="#FFFFFF" d="M253.6,218.3c2.6,2.7,4.2,6.4,4.2,10.4c0,8.5-6.8,15.3-15.3,15.3s-15.3-6.8-15.3-15.3s6.8-15.3,15.3-15.3
			c1.2,0,2.5,0.2,3.6,0.4l-3.1,5.1c-0.2,0-0.4,0-0.5,0c-5.4,0-9.7,4.3-9.7,9.7c0,5.4,4.3,9.7,9.7,9.7c5.4,0,9.7-4.3,9.7-9.7
			c0-1.9-0.6-3.8-1.6-5.3L253.6,218.3z"/>
		<path fill="#FFFFFF" d="M348.8,213.5c0.4,0,0.7,0,1.1,0c8.5,0,15.3,6.8,15.3,15.3s-6.8,15.3-15.3,15.3c-8.5,0-15.3-6.8-15.3-15.3
			c0-4.9,2.4-9.4,6-12.1l2.1,5.6c-1.6,1.8-2.5,4-2.5,6.5c0,5.4,4.3,9.7,9.7,9.7s9.7-4.3,9.7-9.7c0-5-3.8-9.2-8.8-9.7L348.8,213.5z"
			/>
		<path fill="#FFFFFF" d="M324.9,223.6c0.8-5.6,4.2-10.1,8-13.9c0.5-0.5,0.8-2.1-0.4-2.1s-9.8,0-9.8,0v16.2c0,0,0,1.2,0.9,1.2
			S324.8,223.9,324.9,223.6z"/>
		<path fill="#FFFFFF" d="M305.2,193.4c0,0-4.7-1.9-6.5-8.1l-20.6,11.9l20.4,6.6L305.2,193.4z"/>
	</g>
</g>
</svg>
