<?xml version="1.0" encoding="utf-8"?>
<!-- Generator: Adobe Illustrator 17.1.0, SVG Export Plug-In . SVG Version: 6.00 Build 0)  -->
<!DOCTYPE svg PUBLIC "-//W3C//DTD SVG 1.1//EN" "http://www.w3.org/Graphics/SVG/1.1/DTD/svg11.dtd">
<svg version="1.1" id="Layer_1" xmlns="http://www.w3.org/2000/svg" xmlns:xlink="http://www.w3.org/1999/xlink" x="0px" y="0px"
	 viewBox="155.9 70.9 283.5 283.5" enable-background="new 155.9 70.9 283.5 283.5" xml:space="preserve">
<g>
	<path fill="#ED1C24" d="M297.6,92.1c66.4,0,120.5,53.9,120.5,120.5s-53.9,120.5-120.5,120.5c-66.4,0-120.5-53.9-120.5-120.5
		S231.2,92.1,297.6,92.1"/>
	<path fill="#FFFFFF" d="M297.6,116.2c53.2,0,96.3,43.2,96.3,96.3c0,53.2-43.2,96.3-96.3,96.3c-53.2,0-96.3-43.2-96.3-96.3
		C201.3,159.4,244.5,116.2,297.6,116.2"/>
	<path d="M266.4,217.6c0-1.4-1.2-2.8-2.6-3.1c-3.4-0.4-6.5-2-8.8-4.5l-13.7-14.1c-4.7-4.9-10.6-7.6-17.4-7.6H216l-1.2,1.1l-0.6,1.2
		v1.2l0.6,1.9l-0.2,2.6l-0.4,2.8l0.2,2.5l0.4,2.5l-0.4,2.6l0.8,3.7l-0.6,1.9l0.2,2v1.7l0.4,1.7l-0.6,1.7l0.6,2.5l-0.6,3.3l-0.2,1.1
		l0.2,1.9l0.8,1.9l-0.2,1.4l-0.6,1.9v1.2l0.4,0.8l-0.4,1.7h11.2v-1.4c0-7,5.5-12.4,12.4-12.4c6.8,0,12.2,5.6,12.2,12.4v1.2l16-1.2
		h52.9c0-6.7,5.5-12.2,12.2-12.2c6.7,0,12.1,5.6,12.1,12.2H373c5.1,0,9-4.1,9-9v-30.2c0-7.1-5.1-13.3-12.2-14.3
		c0.2,0-8.5-1.4-18-2.2c-10.4-0.8-21.4-0.8-21.4-0.8s-10.2,0.2-20.2,1.1c-9.8,0.6-19.6,2-19.6,2c-6.7,1.1-12.1,7.1-12.1,14.3v30.2
		c0,2,0.6,3.7,1.9,5.6h-13.9L266.4,217.6"/>
	<polygon fill="#FFFFFF" points="217.1,194.8 229.8,194.8 244.2,209.9 217.1,209.9 217.1,194.8 	"/>
	<path d="M238.1,224.4L238.1,224.4c6,0,10.8,4.8,10.8,10.8c0,6-4.8,10.8-10.8,10.8s-10.8-4.8-10.8-10.8
		C227.2,229.3,232.1,224.4,238.1,224.4"/>
	<path fill="#FFFFFF" d="M238.1,229.7L238.1,229.7c3.2,0,5.7,2.6,5.7,5.7c0,3.2-2.6,5.7-5.7,5.7s-5.7-2.6-5.7-5.7
		C232.3,232.3,234.9,229.7,238.1,229.7"/>
	<path d="M331.4,224.4L331.4,224.4c6,0,10.8,4.8,10.8,10.8c0,6-4.8,10.8-10.8,10.8s-10.8-4.8-10.8-10.8
		C320.6,229.3,325.4,224.4,331.4,224.4"/>
	<path fill="#FFFFFF" d="M331.4,229.7L331.4,229.7c3.2,0,5.7,2.6,5.7,5.7c0,3.2-2.6,5.7-5.7,5.7c-3.2,0-5.7-2.6-5.7-5.7
		C325.7,232.3,328.2,229.7,331.4,229.7"/>
	<path fill="#FFFFFF" d="M293,195v11.2c0,0.9,0.7,1.7,1.7,1.7h16c0.9,0,1.7-0.7,1.7-1.7V195c0-0.9-0.7-1.7-1.7-1.7h-16
		C293.8,193.4,293,194.1,293,195"/>
	<path fill="#FFFFFF" d="M333,207.8h35.5l0,0c0.7-0.1,1.2-0.8,1.2-1.6h0.2v-11.2h-0.2c0-0.8-0.5-1.5-1.2-1.6l0,0H333
		c-0.8,0-1.4,0.7-1.4,1.7v11.2C331.6,207.1,332.2,207.8,333,207.8"/>
</g>
</svg>
