<?xml version="1.0" encoding="utf-8"?>
<!-- Generator: Adobe Illustrator 17.1.0, SVG Export Plug-In . SVG Version: 6.00 Build 0)  -->
<!DOCTYPE svg PUBLIC "-//W3C//DTD SVG 1.1//EN" "http://www.w3.org/Graphics/SVG/1.1/DTD/svg11.dtd">
<svg version="1.1" id="Layer_1" xmlns="http://www.w3.org/2000/svg" xmlns:xlink="http://www.w3.org/1999/xlink" x="0px" y="0px"
	 viewBox="155.9 70.9 283.5 283.5" enable-background="new 155.9 70.9 283.5 283.5" xml:space="preserve">
<g>
	<path fill="#ED1C24" d="M297.6,92.2c66.5,0,120.4,53.9,120.4,120.4C418,279,364.1,333,297.6,333c-66.5,0-120.4-53.9-120.4-120.4
		C177.3,146.1,231.2,92.2,297.6,92.2"/>
	<path fill="#FFFFFF" d="M297.6,116c53.2,0,96.3,43.2,96.3,96.3c0,53.2-43.1,96.3-96.3,96.3c-53.2,0-96.3-43.2-96.3-96.3
		C201.3,159.2,244.5,116,297.6,116"/>
	<path fill="#262425" d="M283.7,170.4c-13.3,0-24.1,10.8-24.1,24.1v98.3h24.1v-90.3c0-4.4,3.6-8,8-8h74.6l15.7-12.1l-15.7-12
		L283.7,170.4"/>
	<polyline fill="#ED1C24" points="219.1,290.6 234.5,303.6 376.3,134.6 361,121.6 219.1,290.6 	"/>
</g>
</svg>
