<?xml version="1.0" encoding="utf-8"?>
<!-- Generator: Adobe Illustrator 17.1.0, SVG Export Plug-In . SVG Version: 6.00 Build 0)  -->
<!DOCTYPE svg PUBLIC "-//W3C//DTD SVG 1.1//EN" "http://www.w3.org/Graphics/SVG/1.1/DTD/svg11.dtd">
<svg version="1.1" id="Layer_1" xmlns="http://www.w3.org/2000/svg" xmlns:xlink="http://www.w3.org/1999/xlink" x="0px" y="0px"
	 viewBox="155.9 70.9 283.5 283.5" enable-background="new 155.9 70.9 283.5 283.5" xml:space="preserve">
<g>
	<circle fill="#EC1D24" cx="297.6" cy="212.6" r="120.5"/>
	<circle fill="#FFFFFF" cx="297.6" cy="212.6" r="96.5"/>
	<polygon points="278.1,150 283.1,150 293.4,165.2 293.4,150 298,150 298,172.7 293.1,172.7 282.6,157.4 282.6,172.7 278.1,172.7 	
		"/>
	<path d="M302.6,164.7c0-6.6,3.9-9.1,7.8-9.1c3.5,0,7.9,2.5,7.9,9.1c0,4.8-3.2,8.6-7.6,8.6C305.5,173.3,302.6,169.9,302.6,164.7z"/>
	<path fill="#FFFFFF" d="M313.8,164.7c0-3.9-1.3-5.1-3.3-5.1c-2.5,0-3.4,2-3.4,5.1c0,2.6,1.3,4.6,3.4,4.6
		C312.6,169.3,313.8,167.3,313.8,164.7z"/>
	<path fill="#FFFFFF" d="M220.7,217.3c1.8,0,2.6-0.5,2.6-1.9v-2l-3.3,0.5c-1.4,0.2-1.8,0.9-1.8,1.9
		C218.2,216.8,218.8,217.3,220.7,217.3z"/>
	<polygon points="243.9,262.7 247.2,252.5 251.6,252.5 246.2,268.8 241.3,268.8 235.6,252.5 240.3,252.5 	"/>
	<path d="M265.8,263.5l2.6,2.8c-2.1,1.9-3.5,2.7-6.5,2.7c-5.1,0-8.1-3.8-8.1-8.7c0-4.5,2.8-8.4,7.3-8.4c4.8,0,7.8,3.5,7.8,8.9v1.2
		H258c0.1,1.9,1.8,3.2,4,3.2C263.2,265.3,263.9,265.2,265.8,263.5z"/>
	<path fill="#FFFFFF" d="M258,258.8h6.6c-0.1-1.6-1.8-3.1-3.3-3.1C259.6,255.7,258.2,257,258,258.8z"/>
	<path d="M281.1,252c3.4,0,6.2,2.9,6.2,6.8v9.9h-4.5v-10c0-1.8-0.9-2.6-2.8-2.6c-2,0-3.1,1.6-3.1,3.4v9.2h-4.4v-22.8h4.4v7.5
		C278.6,252.2,279.5,252,281.1,252z"/>
	<rect x="291.6" y="252.4" width="4.4" height="16.5"/>
	<path d="M291.3,248.2c0-1.4,1.1-2.5,2.5-2.5c1.4,0,2.5,1.2,2.5,2.6c0,1.4-1.1,2.5-2.5,2.5C292.3,250.8,291.3,249.7,291.3,248.2z"/>
	<path d="M299.6,260.8c0-5.2,2.7-8.8,7.9-8.8c3.1,0,6.1,2,7.3,5.4l-4.2,1.5c-0.6-1.8-1.6-3.1-3.3-3.1c-2.2,0-3.2,2.2-3.2,4.8
		c0,2.8,0.8,4.7,3.2,4.7c1.6,0,2.5-0.9,3.3-2.9l4.4,1.5c-1.4,3.6-3.6,5.3-7.5,5.3C302.2,269.4,299.6,266,299.6,260.8z"/>
	<path d="M318.2,245.9h4.4v16.7c0,1.8,0.2,2.1,1.2,2.2c0.6,0,1.1,0,1.6-0.1l0.5,3.8c-1.5,0.4-2.9,0.6-4,0.6c-1.1,0-3.5-0.4-3.5-4.1
		v-19.1H318.2z"/>
	<path d="M339.6,263.5l2.6,2.8c-2.1,1.9-3.5,2.7-6.5,2.7c-5.1,0-8.1-3.8-8.1-8.7c0-4.5,2.8-8.4,7.3-8.4c4.8,0,7.8,3.5,7.8,8.9v1.2
		h-10.8c0.1,1.9,1.8,3.2,4,3.2C337.2,265.3,337.9,265.2,339.6,263.5z"/>
	<path fill="#FFFFFF" d="M332,258.8h6.6c-0.1-1.6-1.8-3.1-3.3-3.1C333.6,255.7,332.2,257,332,258.8z"/>
	<path d="M352.1,258.5l2.7,0.4c2.8,0.4,4.6,2.4,4.6,4.9c0,3.3-2.7,5.5-6.7,5.5c-3.4,0-5.6-0.8-7.9-3.1l3.2-2.8
		c1.3,1.4,2.8,2.1,4.4,2.1c1.3,0,2.4-0.6,2.4-1.4c0-0.7-0.7-1.3-2-1.5l-2.8-0.6c-2.5-0.5-4-2.4-4-4.6c0-3.3,2.6-5.4,6.7-5.4
		c2.2,0,4.2,0.4,6.5,2.5l-2.8,2.9c-1.2-1.3-2.4-1.8-3.8-1.8c-1.3,0-2.1,0.7-2.1,1.5C350.5,257.8,350.8,258.2,352.1,258.5z"/>
	<g>
		<path fill="#FFFFFF" d="M320.9,217.3c1.8,0,2.6-0.5,2.6-1.9v-2l-3.3,0.5c-1.4,0.2-1.8,0.9-1.8,1.9
			C318.4,216.8,319,217.3,320.9,217.3z"/>
		<path fill="#FFFFFF" d="M349.4,210.6h6.6c-0.1-1.5-1.8-2.9-3.3-2.9C351,207.7,349.7,208.8,349.4,210.6z"/>
		<g>
			<path d="M245.7,198.9v6.1h4.2v3h-4.2v8.2c0,0.2,0,0.4,0,0.5c0,0.2,0,0.3,0,0.4c0.6,0.5,1.2,0.8,2,0.8c0.5,0,1.1-0.1,1.7-0.4
				l0.1,0.2v0.4c0,0.1,0,0.2,0,0.3c0,0.1,0,0.2,0,0.2v0.1c0,0.1,0.1,0.2,0.1,0.3c0,0.1,0,0.2,0,0.3l0.2,1.5
				c-0.6,0.1-1.2,0.3-1.7,0.3s-1,0.1-1.5,0.1c-1.9,0-3.3-0.6-4.1-1.9l-0.1-0.1l-0.1-0.4c-0.1-0.3-0.2-0.5-0.2-0.7v-0.2
				c0-0.2,0-0.4,0-0.6c0-0.2,0-0.3,0-0.5v-9h-2.8v-3h2.8v-5.1l0.2-0.1l0.5-0.1l0.2-0.1l0.3-0.1c0,0,0.1-0.1,0.2-0.1
				c0,0,0.1-0.1,0.2-0.1c0,0,0.1-0.1,0.2-0.1l0.2-0.1l0.5-0.1c0,0,0.1-0.1,0.1-0.1h0c0,0,0.1-0.1,0.1-0.1h0l0.9-0.4
				C245.7,198.7,245.7,198.8,245.7,198.9z"/>
			<path d="M262.1,204.7v3.8c-0.1,0-0.2,0-0.2,0h-0.2c-1.9,0-3.3,0.8-4.2,2.4l-0.2,0.9l-0.1,0.4v8.8h-3.6V205h3.6v0.9
				c0,0.3,0,0.5,0.1,0.7c1.1-1.3,2.5-1.9,4.1-1.9H262.1z"/>
			<path d="M276.9,206.4l0.2,0.4c0.5,0.6,0.8,1.2,0.9,1.8c0,0.3,0.1,0.5,0.1,0.7s0,0.4,0,0.6v7.7c0.4,0.7,0.9,1.1,1.6,1.3l-0.1,0.2
				c0,0.1-0.1,0.1-0.1,0.1l-0.1,0.2l-0.1,0.1c-0.1,0.2-0.2,0.4-0.4,0.5c-0.1,0.4-0.3,0.6-0.5,0.8c-0.1,0.2-0.2,0.4-0.2,0.5
				c-0.1,0.1-0.2,0.3-0.2,0.4c-1.1-0.3-2-0.8-2.7-1.6h-0.2c-1.3,0.9-2.6,1.4-3.9,1.4c-0.7,0-1.4-0.1-2.1-0.4
				c-2.1-0.8-3.4-2.1-3.8-4.1v-0.1c0-3.8,2.2-5.7,6.6-5.7h0c0.1,0,0.2-0.1,0.3-0.1l0.2-0.1h0.4l0.2-0.1h0.2l1.5-0.2
				c0-0.1,0-0.2,0-0.3v-0.3c0-1.6-0.9-2.4-2.6-2.4c-1.2,0-2.8,0.4-4.9,1.2l-0.2-0.5l-0.1-0.4l-0.1-0.1l-0.1-0.1l-0.1-0.4
				c-0.1-0.2-0.2-0.4-0.2-0.5c-0.2-0.3-0.3-0.5-0.4-0.8l0.2-0.1l0.1-0.1l0.2-0.1l0.1-0.1h0.2c0,0,0.1-0.1,0.1-0.1h0
				c0.4-0.2,0.7-0.3,0.9-0.4l0.3-0.1c0.2-0.1,0.4-0.2,0.6-0.2l0.5-0.1c0.3-0.1,0.7-0.2,1-0.2l1.3-0.2c0.2,0,0.4,0,0.6-0.1
				c0.2,0,0.4,0,0.5,0C274.2,204.6,275.7,205.2,276.9,206.4z M273.2,213.9h-0.4c-0.1,0-0.2,0-0.3,0c-0.1,0-0.2,0-0.2,0h-0.1L272,214
				h-0.2c0,0-0.1,0.1-0.2,0.1h-0.2l-0.9,0.2h-0.2c-0.3,0.2-0.5,0.3-0.7,0.3c-0.6,0.6-1,1.2-1,1.8c0,0.5,0.3,1,0.8,1.5
				c0.8,0.5,1.5,0.7,2.2,0.7c0.9,0,1.8-0.4,2.6-1.1c0.1-0.2,0.2-0.4,0.2-0.5l0.1-0.2l-0.1-0.2v-2.8h-1.2
				C273.3,213.8,273.3,213.9,273.2,213.9z"/>
			<path d="M296.6,209l-0.6,0.2c-0.1,0.1-0.3,0.2-0.5,0.3l-0.1,0.1l-0.4,0.1c-0.2,0.1-0.3,0.2-0.5,0.2l-0.9,0.5
				c-0.8-1.7-2.1-2.5-3.6-2.5c-0.3,0-0.6,0-0.9,0.1l-0.2,0.1l-0.2,0.1l-0.6,0.4c-0.2,0.2-0.3,0.4-0.4,0.5s-0.3,0.3-0.4,0.4
				c-0.6,1.3-0.9,2.5-0.9,3.6c0,1.2,0.3,2.4,1,3.6c0.7,0.9,1.6,1.4,2.7,1.4c0,0,0.1,0,0.2,0s0.1,0,0.2,0c1.6-0.3,2.7-1.1,3.3-2.5
				l0.6,0.4l0.2,0.1c0.2,0.1,0.4,0.1,0.5,0.2l0.2,0.1l0.1,0.1l1.3,0.6c-1.6,2.8-3.7,4.1-6.5,4.1c-0.2,0-0.4,0-0.7,0s-0.4,0-0.7-0.1
				c-3.5-0.7-5.5-2.9-6-6.6c-0.1-0.5-0.1-1-0.1-1.5c0-1.7,0.4-3.3,1.2-4.7c1.2-2.2,3.1-3.4,5.6-3.5
				C292.9,204.9,295.3,206.3,296.6,209z"/>
			<path d="M299.8,198.6h3.6v12.5l0.3-0.2l0.2-0.3l0.4-0.4l0.1-0.1c0-0.1,0.1-0.1,0.1-0.1l0.6-0.7l0.2-0.2l0.6-0.5
				c0.1-0.1,0.2-0.3,0.3-0.3s0.2-0.2,0.3-0.2l0.4-0.4c0.1-0.2,0.3-0.3,0.4-0.4l0.4-0.4l0.1-0.2l0.2-0.1l0.1-0.2l0.1-0.1l0.2-0.1
				l0.1-0.1c0.2-0.2,0.4-0.4,0.5-0.6l0.1-0.1c0.1-0.1,0.1-0.2,0.2-0.3c0.1-0.1,0.1-0.1,0.2-0.2h4.7l-0.1,0.1l-0.1,0.1l-0.1,0.1
				l-0.1,0.1l-0.1,0.1c-0.1,0.1-0.1,0.2-0.2,0.3s-0.1,0.1-0.2,0.2l-0.3,0.2l-0.2,0.3l-0.1,0.1c0,0.1-0.1,0.1-0.1,0.1
				c-0.3,0.4-0.6,0.7-0.9,0.9c0,0.1-0.1,0.1-0.1,0.1c-0.1,0.2-0.3,0.3-0.4,0.5s-0.3,0.2-0.4,0.3l-0.2,0.2l-0.4,0.4l-0.2,0.2
				l-0.3,0.3l-0.2,0.2l-0.1,0.2l-0.2,0.1l-0.1,0.1l-0.2,0.1l-0.3,0.3l-0.1,0.1l-0.1,0.1c-0.1,0.1-0.2,0.3-0.3,0.3s-0.2,0.2-0.3,0.2
				l0.2,0.4l0.2,0.4l0.2,0.2l0.1,0.1c0.1,0.2,0.2,0.3,0.3,0.5l0.2,0.2l0.1,0.2c0,0,0.1,0.1,0.1,0.1v0c0.3,0.3,0.5,0.6,0.6,0.9
				c0.3,0.3,0.5,0.6,0.6,0.9l0.2,0.2l0.1,0.3l0.2,0.2c0.2,0.3,0.3,0.5,0.5,0.7l0.2,0.2l0.2,0.3l0.2,0.2l0.1,0.2l0.2,0.2l0.9,1.4
				l0.1,0.2l0.1,0.1l0.1,0.2c0.2,0.3,0.3,0.5,0.5,0.8s0.2,0.4,0.3,0.6h-3.9l-0.2-0.4c0,0,0,0,0-0.1c0,0,0,0,0-0.1v0
				c-0.3-0.4-0.5-0.6-0.6-0.9l-0.2-0.2l-0.2-0.3c-0.1-0.1-0.2-0.3-0.2-0.4s-0.1-0.2-0.2-0.3l-0.2-0.2l-0.2-0.2l-0.1-0.2l-0.2-0.2
				l-0.2-0.3c-0.3-0.3-0.4-0.6-0.5-0.8l-0.2-0.2c-0.2-0.2-0.3-0.3-0.3-0.5l-0.2-0.2l-0.2-0.4l-0.5-0.7c0,0,0,0,0-0.1c0,0,0,0,0-0.1
				v0c-0.1-0.1-0.2-0.2-0.3-0.3s-0.1-0.2-0.2-0.3c0,0.1-0.1,0.1-0.1,0.1l-0.1,0.2l-0.5,0.5c0,0.1-0.1,0.1-0.1,0.1l-0.1,0.1l-0.4,0.3
				c-0.2,0.4-0.5,0.6-0.8,0.8v5.1h-3.6V198.6z"/>
			<path d="M330.7,211.6l0.1,0.9c0,0,0.1,0.1,0.1,0.2v1.8h-10.7c0.2,2,1.2,3.2,3,3.5c0.3,0,0.6,0,0.9,0c1.5,0,2.7-0.5,3.8-1.5
				c0.1,0.2,0.3,0.4,0.5,0.5l0.1,0.2l0.2,0.2c0.1,0.1,0.3,0.2,0.4,0.4c0.1,0.1,0.2,0.2,0.2,0.3c0.1,0,0.1,0.1,0.1,0.1l0.8,0.9
				c-1.9,1.6-3.8,2.3-5.9,2.3c-0.4,0-0.7,0-1.1-0.1s-0.7-0.1-1.1-0.2c-3.4-1.1-5.2-3.5-5.6-7.3c0,0,0-0.1,0-0.3s0-0.2,0-0.3
				c0-5.1,2.3-8,6.9-8.7C327.7,204.8,330.2,207.1,330.7,211.6z M320,211.6h7.1v-0.2c0-0.1-0.1-0.2-0.1-0.4V211
				c-0.1-0.2-0.2-0.4-0.2-0.6c-0.7-1.7-1.9-2.5-3.6-2.5C321.2,208.4,320.1,209.6,320,211.6z"/>
			<path d="M344.7,198.7h3.6V221h-3.6v-0.4c0-0.3,0-0.5-0.1-0.7c-1.2,1-2.6,1.5-3.9,1.5c-0.1,0-0.3,0-0.4,0s-0.3,0-0.4,0
				c-4.2-1.2-6.3-3.9-6.3-8.2c0-0.4,0-0.7,0-1.1s0.1-0.7,0.1-1.1c0.6-2.9,2.1-4.8,4.5-5.8c0.9-0.3,1.8-0.5,2.6-0.5
				c1.4,0,2.6,0.5,3.8,1.4V198.7z M337.2,213.5c0.3,1.8,1.2,3.2,2.6,4c0.3,0,0.5,0.1,0.7,0.1c0.2,0,0.5,0,0.7,0
				c2.2,0,3.3-1.3,3.3-3.8v-0.2c0-0.1,0-0.2,0-0.2c0.1-0.4,0.1-0.9,0.1-1.2c0-2.6-1.3-4-4-4c-2.3,0.7-3.5,2.3-3.5,4.8v0.3
				C337.2,213.3,337.2,213.4,337.2,213.5z"/>
		</g>
	</g>
</g>
</svg>
