<?xml version="1.0" encoding="utf-8"?>
<!-- Generator: Adobe Illustrator 17.1.0, SVG Export Plug-In . SVG Version: 6.00 Build 0)  -->
<!DOCTYPE svg PUBLIC "-//W3C//DTD SVG 1.1//EN" "http://www.w3.org/Graphics/SVG/1.1/DTD/svg11.dtd">
<svg version="1.1" id="Layer_1" xmlns="http://www.w3.org/2000/svg" xmlns:xlink="http://www.w3.org/1999/xlink" x="0px" y="0px"
	 viewBox="155.9 70.9 283.5 283.5" enable-background="new 155.9 70.9 283.5 283.5" xml:space="preserve">
<g id="Layer_1_1_">
	<g>
		<circle fill="#EC1D24" cx="297.6" cy="212.6" r="120.5"/>
		<circle fill="#FFFFFF" cx="297.6" cy="212.6" r="96.5"/>
	</g>
</g>
<g id="Layer_2">
	<g>
		<path fill="#FDE500" d="M333.7,213.7c6.2,0.5,13-4.1,14.8-10.1c7,0.7,13.2-4.4,14-11.4c0.4-3.4-1.7-8.2-4.2-10.6
			c4.8-3.7,5.7-10.4,2-15.2c-2.9-3.9-9.2-5.3-13.6-3.1c2.6-5.3,0.2-11.8-5.3-14.3c-3.8-1.9-9.5-0.5-12.5,2.6
			c1.1-6.7-3.4-13.3-10.3-14.5c-5.8-1.1-12.1,2.6-14.1,8c-1.5-7.7-9-13-16.7-11.5c-7.9,1.4-13,8.9-11.8,16.7c-4.9-6.1-14.1-7-20.3-2
			c-2.6,2.2-4.9,6.7-5.1,10.3c-10.1,0.2-18.1,8.2-17.9,18.1c0,4.9,3.2,11.1,7,14.1c-2.7,9.5,2.6,19.6,12.1,22.5
			c2.7,0.7,7.2,0.7,9.9,0.2L333.7,213.7"/>
		<path fill="#221F1F" d="M254.4,272.7c-2-1.1-3.6-4.1-3.6-6.3v-20.2c0-3.7,2.9-7,6.6-7.3l3.9-23.4c0.9-5.5,6.2-10.1,11.9-10.1h49.1
			c5.7,0,11,4.6,11.9,10.1l3.9,23.4c3.4,0.4,6.6,3.6,6.6,7.3v20.2c0,2.2-1.7,5.1-3.6,6.3v15.9c-3.9,4-10.4,4.7-14.5,0v-14.7
			c-7.9,0.4-20.9,0.9-28.8,1.1c-7.9-0.2-20.9-0.7-28.8-1.1v14.7c-0.4,0.2-0.7,0.7-0.9,0.9c-4,3.5-10.1,3.1-13.6-0.9L254.4,272.7"/>
		<path fill="#FFFFFF" d="M273.7,267.8c6.6,0.4,17.4,0.5,24,0.5c6.6,0,17.4-0.2,24-0.5v-3.3h-48L273.7,267.8"/>
		<polyline fill="#221F1F" points="287.1,200.2 280.4,200.2 278,201.9 279.6,203 286.6,203 288.8,201.7 287.1,200.2 		"/>
		<line fill="none" x1="276.2" y1="150.2" x2="276.2" y2="150.2"/>
		<polyline fill="#221F1F" points="249.6,179.7 247,181.7 238.1,172.7 242.7,168.6 249.6,179.7 		"/>
		<polyline fill="#221F1F" points="265.8,152.4 277.4,175.9 276,176.6 259,152 265.1,155.1 265.8,152.4 		"/>
		<polyline fill="#221F1F" points="269.5,201.5 268.7,203 242.9,200.6 249.1,198.4 248,196.1 269.5,201.5 		"/>
		<polyline fill="#221F1F" points="256.2,182.4 276.2,196.4 275.3,198.4 250.9,184.8 256.2,184.8 256.2,182.4 		"/>
		<polyline fill="#221F1F" points="278,185 276.2,187.4 247.6,167.1 251.6,164.5 278,185 		"/>
		<polyline fill="#221F1F" points="339.2,151.2 342,154.1 315.6,170.5 314.6,169.5 339.2,151.2 		"/>
		<polyline fill="#221F1F" points="317,189.1 317.8,191.6 352.6,182.8 349.5,180.8 351.1,174.1 317,189.1 		"/>
		<polyline fill="#221F1F" points="344.2,199.9 342.9,196.6 317.5,200.6 317.8,202.4 344.2,199.9 		"/>
		<polyline fill="#221F1F" points="313,200.2 311,198.6 308.8,200.4 311.2,202.6 313,200.2 		"/>
		<polyline fill="#221F1F" points="285.6,153.3 288.3,156.8 292.4,156.8 292.4,151.9 285.6,151.9 285.6,153.3 		"/>
		<polyline fill="#221F1F" points="316.3,154.6 313.9,157.2 306.4,155.3 310,150.2 316.3,154.6 		"/>
		<polyline fill="#221F1F" points="337.6,165.4 337.3,171.7 345.7,171.5 345.7,168.6 337.6,165.4 		"/>
		<polyline fill="#221F1F" points="318.3,176.6 313.2,176.2 313.2,179.4 318.2,179.4 318.3,176.6 		"/>
		<path fill="#FFFFFF" d="M264.4,222.4c0.7-4.4,4.9-8.5,9.4-8.9c4.1-0.2,10.8-0.7,15-0.9h17.6c4.2,0.2,10.9,0.7,15,0.9
			c4.4,0.5,8.6,4.6,9.4,8.9l1.1,6.8c0.4,2.6-1.5,5.1-4.1,5.5c-0.4,0-1,0.2-1.1,0c-8-0.2-21-0.6-29.2-1c-8,0.4-21,0.7-29.2,1
			c-2.6,0.4-4.9-1.7-5.1-4.4c0-0.2,0-0.7,0-1.1L264.4,222.4"/>
		<path fill="#FFFFFF" d="M273.6,250.1c6.6-0.4,17.4-0.5,24-0.5c6.6,0,17.4,0.2,24,0.5v3.3h-48V250.1"/>
		<path fill="#FFFFFF" d="M262.8,257c3.6,0,6.6-2.9,6.6-6.6c0-3.6-2.9-6.7-6.6-6.7s-6.8,3.1-6.8,6.7C256,254.1,259.1,257,262.8,257"
			/>
		<path fill="#FFFFFF" d="M332.5,257c3.6,0,6.8-2.9,6.8-6.6c0-3.6-3.2-6.7-6.8-6.7c-3.7,0-6.8,3.1-6.8,6.7
			C325.7,254.1,328.8,257,332.5,257"/>
		<polyline fill="#FFFFFF" points="297.7,257 321.6,257 321.6,260.9 273.6,260.9 273.6,257 297.7,257 		"/>
		<path fill="#221F1F" d="M297.8,158.7c0.4,1.7-0.2,4.2-0.9,5.8c-0.6,0.9-1.3,2.7-1.5,4.1c-0.9-1.1-2.2-3.1-2.7-4.6
			c-1.7,4-1.5,10.4,0.2,14.3c-2-1.6-4.6-5.3-5.3-7.9c-2.4,4.8-1.1,11.6,2.9,15.2c-2.7-1.1-7.3-1.1-10.1,0c2.2,1.5,4.6,4.8,5.3,7.3
			c1.1,3.4,4.9,7.5,8.2,8.8c-0.5-0.7-0.9-2.4-1.1-3.3c0-1.5-0.7-3.3-1.7-4.4c1,0.2,2.2,0.9,2.9,1.5c-0.4-2.9,0.5-7.2,2.4-9.5
			c0,0.9,0.6,2.4,1.1,3.1c0.5-0.4,1.3-0.9,1.9-1.4c0.4,2.2-0.5,5.3-1.9,7.2c0.7-0.2,2-0.5,2.9-1c-0.5,1.7-2.2,3.7-3.4,4.6
			c0.9,0.2,2.4,0,3.1-0.2c-0.4,1.2-1.4,2.7-2.6,3.4c7,0,12.6-5.7,12.6-12.6c-1.4,0.9-3.8,1.7-5.5,1.9c3.1-2.7,5.8-8.6,5.8-13
			c-1.6,1.5-4.9,3.1-7.3,3.3c2.7-2.9,3.3-8.2,1.5-11.9c-1.1,2.6-4.1,5.8-6.5,7.3c3.7-5.5,3.4-14.1-0.7-19.3L297.8,158.7"/>
		<path fill="#221F1F" d="M310.3,189.1"/>
		<path fill="#221F1F" d="M285.7,192.9"/>
		<path fill="#221F1F" d="M285.7,192.9"/>
	</g>
</g>
</svg>
