<?xml version="1.0" encoding="utf-8"?>
<!-- Generator: Adobe Illustrator 17.1.0, SVG Export Plug-In . SVG Version: 6.00 Build 0)  -->
<!DOCTYPE svg PUBLIC "-//W3C//DTD SVG 1.1//EN" "http://www.w3.org/Graphics/SVG/1.1/DTD/svg11.dtd">
<svg version="1.1" id="Layer_1" xmlns="http://www.w3.org/2000/svg" xmlns:xlink="http://www.w3.org/1999/xlink" x="0px" y="0px"
	 viewBox="155.9 70.9 283.5 283.5" enable-background="new 155.9 70.9 283.5 283.5" xml:space="preserve">
<g>
	<g>
		<path fill="#ED1C24" d="M297.6,92.1c66.5,0,120.5,54,120.5,120.5s-54,120.5-120.5,120.5s-120.5-54-120.5-120.5
			S231.2,92.1,297.6,92.1"/>
		<path fill="#FFFFFF" d="M297.6,116.3c53.2,0,96.3,43.1,96.3,96.3s-43.1,96.3-96.3,96.3s-96.3-43.1-96.3-96.3
			C201.3,159.4,244.4,116.3,297.6,116.3"/>
	</g>
	<path fill="#FEFEFE" d="M237.2,154c38.9,0,77.9,0,116.9-0.1c2.8,0,3.3,0.6,3.3,3.3c-0.1,37.9-0.1,75.7,0,113.6
		c0,2.8-0.6,3.3-3.3,3.3c-37.9-0.1-75.7-0.1-113.6,0c-2.8,0-3.3-0.6-3.3-3.3C237.2,231.8,237.2,192.9,237.2,154z"/>
	<path fill="#222222" d="M348.6,181.6c-0.2-8.3-0.7-8.7-8.8-7c-0.5-4.3-1-8.8-2.4-12.9c-1.5-4.2-4.2-6.7-8.8-7.1
		c-20.8-1.8-41.5-1.8-62.2,0c-4.8,0.5-7.6,3.1-9,7.5c-1.4,4.2-1.7,8.4-2.4,12.8c-7.6-2.3-8.8-1.5-8.7,6c0,3.3-0.3,6.6-0.3,10
		c0,8.6,0.5,8.9,9.4,7.3c0,6.5,0,13,0,19.5c0,1.7-0.6,3.5,0.9,5c2.2,1.9,1.9,3.5-0.7,4.8c-1,0.5-1.5,1.5-1.5,2.6
		c0.1,13.1-1.1,26.4,2.5,39.1c0.3,1.1,1.1,2.2,2.2,2.1c0.2,0.1,0.6,0.3,0.9,0.3h6c0,0,0,0,0.1,0c1.9,0,3.7-0.9,4.3-4.6
		c0.2-1.5,2.1-0.9,3.2-0.9c16,0,32.1,0,48,0c1.1,0,3.1-0.5,3.3,0.8c0.5,3.4,1.9,4.5,3.8,4.6c0.1,0,0.2,0.1,0.3,0.1h6.7
		c0.2,0,0.5-0.1,0.7-0.2c1.1-0.1,2.1-0.9,2.1-2.1c0-5.4,3.2-9.9,2.9-15.4c-0.5-5.9,0-12-0.1-17.9c-0.1-3.4,1.5-7.5-3.1-9.7
		c-0.9-0.5-0.8-2.1,0.1-2.7c2.6-2.1,1.7-4.8,1.8-7.3c0.1-6,0-12.1,0-18.3c8.6,1.9,9.4,1.4,9.4-6.5
		C349,188.2,348.7,184.9,348.6,181.6z M268,246.4c-2.4-0.1-5.1,0.5-5-3.4c0.1-2.3,0-4.6,0-6.8l0,0c0-1.7,0.1-3.5,0-5.2
		c-0.1-2.5,0.3-4.3,3.5-4.3c3.1,0,5,0.6,5,4.2c0,4,0.2,8,0.6,12C272.5,246.2,270.7,246.5,268,246.4z M276.5,245.9c0-0.3,0-0.7,0-0.9
		c13.9,0,28,0,41.9,0c0,0.3,0,0.7,0,0.9C304.4,245.9,290.5,245.9,276.5,245.9z M318.7,241c-14.1,0-28.4,0-42.6,0c0-0.3,0-0.7,0-1
		c14.1,0,28.4,0,42.6,0C318.7,240.3,318.7,240.6,318.7,241z M275.7,236.3c0-0.3,0-0.7,0-1c14.5,0,29,0,43.6,0c0,0.3,0,0.7,0,1
		C304.7,236.3,290.2,236.3,275.7,236.3z M275.7,231.5c0-0.3,0-0.7,0-1c14.5,0,29,0,43.5,0c0,0.3,0,0.7,0,1
		C304.7,231.5,290.2,231.5,275.7,231.5z M296.9,200.3c-11.1,0-22.1-0.1-33.2,0.1c-4.2,0.1-6-1.4-5.8-5.7c0.3-7,0.3-14,0.5-21.1
		c0-3.5,1.7-4.9,5.2-4.9c22.7,0.1,45.3,0.1,68,0c3.2,0,5,1,5.1,4.5c0.1,7.8,0.2,15.4,0.5,23.2c0.1,3.8-2.5,4-5.4,4
		C320.1,200.2,308.4,200.3,296.9,200.3z M322.7,241.6c0.2-3.4,0.5-7,0.5-10.5c0-3.2,1.3-4.6,4.7-4.6c3.5,0.1,4.1,1.8,3.9,4.7
		c-0.1,1.9,0,3.9,0,5.7c0,1.6-0.1,3.2,0,4.7c0.6,4.2-1.6,4.8-5.2,4.9C322.6,246.7,322.5,244.5,322.7,241.6z"/>
</g>
</svg>
