<?xml version="1.0" encoding="utf-8"?>
<!-- Generator: Adobe Illustrator 17.1.0, SVG Export Plug-In . SVG Version: 6.00 Build 0)  -->
<!DOCTYPE svg PUBLIC "-//W3C//DTD SVG 1.1//EN" "http://www.w3.org/Graphics/SVG/1.1/DTD/svg11.dtd">
<svg version="1.1" id="Layer_1" xmlns="http://www.w3.org/2000/svg" xmlns:xlink="http://www.w3.org/1999/xlink" x="0px" y="0px"
	 viewBox="155.9 70.9 283.5 283.5" enable-background="new 155.9 70.9 283.5 283.5" xml:space="preserve">
<g>
	<path fill="#4679BB" d="M297.6,93.7c65.6,0,118.9,53.3,118.9,118.9s-53.4,118.9-118.9,118.9s-118.9-53.3-118.9-118.9
		C178.6,147,231.9,93.7,297.6,93.7v-1.6c-66.5,0-120.5,54.1-120.5,120.5s54.1,120.5,120.5,120.5c66.5,0,120.5-54,120.5-120.5
		S364,92.1,297.6,92.1V93.7"/>
	<path fill="#4679BB" d="M297.6,97.3c63.5,0,114.9,51.5,114.9,114.9c0,63.5-51.5,114.9-114.9,114.9c-63.5,0-114.9-51.5-114.9-114.9
		C182.6,148.8,234.1,97.3,297.6,97.3"/>
	<path fill="#FFFFFF" d="M355.8,176.7c-0.3-9.5-0.9-9.9-9.9-7.9c-0.4-5-1.2-9.9-2.7-14.7c-1.6-4.9-4.9-7.7-10-8.1
		c-23.6-2.1-47.2-2.1-70.8,0c-5.5,0.4-8.6,3.5-10.3,8.6c-1.5,4.8-1.9,9.7-2.7,14.6c-8.7-2.6-9.9-1.7-9.9,6.9c0,3.8-0.3,7.6-0.4,11.3
		c-0.1,9.7,0.5,10.1,10.6,8.3c0,7.5,0,14.9,0,22.2c0,1.9-0.6,4.1,1.1,5.7c2.4,2.3,2.2,4-0.9,5.5c-1.2,0.5-1.6,1.7-1.6,3
		c0.1,14.9-1.3,29.9,2.9,44.6c0.4,1.3,1.3,2.5,2.5,2.4c0.3,0.2,0.6,0.4,1,0.4h6.9c0,0,0,0,0.1,0c2.3,0,4.2-1.1,4.9-5.2
		c0.3-1.7,2.4-1,3.7-1c18.2,0,36.4,0,54.6,0c1.3,0,3.6-0.5,3.8,0.9c0.5,4,2.3,5.1,4.3,5.3c0.1,0,0.2,0.1,0.3,0.1h7.7
		c0.3,0,0.5-0.2,0.8-0.3c1.3-0.1,2.4-1,2.4-2.4c0-6,3.7-11.3,3.2-17.6c-0.5-6.8,0-13.6-0.2-20.4c-0.1-3.9,1.7-8.5-3.5-11
		c-1.1-0.5-1-2.4,0.1-3.1c2.9-2.3,1.9-5.4,2.1-8.3c0.1-6.9,0-13.8,0-20.8c9.7,2.2,10.7,1.5,10.6-7.3
		C356.3,184.3,355.9,180.5,355.8,176.7z M264.2,250.5c-2.7-0.1-5.8,0.5-5.6-3.9c0.1-2.6,0-5.2,0-7.8l0,0c0-1.9,0.1-4,0-5.9
		c-0.1-2.9,0.3-5,4.1-5c3.5,0,5.7,0.6,5.6,4.8c0,4.5,0.2,9.2,0.6,13.7C269.2,250.3,267.2,250.7,264.2,250.5z M273.8,249.8
		c0-0.3,0-0.8,0-1.1c15.9,0,31.7,0,47.6,0c0,0.3,0,0.8,0,1.1C305.5,249.8,289.7,249.8,273.8,249.8z M321.8,244.2
		c-16.1,0-32.3,0-48.4,0c0-0.4,0-0.8,0-1.2c16.1,0,32.3,0,48.4,0C321.8,243.5,321.8,243.9,321.8,244.2z M272.8,238.9
		c0-0.4,0-0.8,0-1.2c16.5,0,33,0,49.6,0c0,0.4,0,0.8,0,1.2C305.8,238.9,289.3,238.9,272.8,238.9z M272.9,233.4c0-0.4,0-0.8,0-1.2
		c16.5,0,33,0,49.5,0c0,0.4,0,0.8,0,1.2C305.8,233.4,289.3,233.4,272.9,233.4z M297,198c-12.6,0-25.2-0.1-37.8,0.1
		c-4.9,0.1-6.9-1.5-6.7-6.6c0.4-8,0.4-16,0.5-24c0-4,1.9-5.6,5.9-5.6c25.8,0.1,51.6,0.1,77.3,0c3.6,0,5.7,1.2,5.8,5.1
		c0.1,8.7,0.3,17.6,0.4,26.3c0.1,4.3-2.8,4.6-6,4.6C323.3,198,310.2,198,297,198z M326.4,245c0.3-4,0.5-7.9,0.5-11.9
		c0-3.7,1.4-5.3,5.3-5.2c4,0.1,4.6,2.1,4.4,5.3c-0.1,2.2,0,4.3,0,6.6c0,1.8-0.2,3.6,0,5.4c0.6,4.8-1.8,5.5-5.9,5.5
		C326.3,250.7,326.1,248.3,326.4,245z"/>
</g>
</svg>
