<?xml version="1.0" encoding="utf-8"?>
<!-- Generator: Adobe Illustrator 17.1.0, SVG Export Plug-In . SVG Version: 6.00 Build 0)  -->
<!DOCTYPE svg PUBLIC "-//W3C//DTD SVG 1.1//EN" "http://www.w3.org/Graphics/SVG/1.1/DTD/svg11.dtd">
<svg version="1.1" id="Layer_1" xmlns="http://www.w3.org/2000/svg" xmlns:xlink="http://www.w3.org/1999/xlink" x="0px" y="0px"
	 viewBox="155.9 49.6 283.5 326" enable-background="new 155.9 49.6 283.5 326" xml:space="preserve">
<g>
	<path fill="#FFFFFF" stroke="#272525" stroke-width="0.53" d="M384.5,308.9H210.7c-4.7,0-8.5,3.8-8.5,8.5v39.3
		c0,4.7,3.8,8.5,8.5,8.5h173.8c4.7,0,8.5-3.8,8.5-8.5v-39.3C393,312.7,389.2,308.9,384.5,308.9z"/>
	<polygon fill="#272525" points="248.6,339 259.1,339 259.1,334.2 248.6,334.2 248.6,328.4 260.1,328.4 260.1,323.6 243.4,323.6 
		243.4,349.8 260.9,349.8 260.9,345.1 248.6,345.1 	"/>
	<path fill="#272525" d="M280.4,348.1l-0.4-0.6c-0.1-0.2-0.3-0.4-0.5-0.6c0-0.1-0.1-0.2-0.1-0.2l-0.2-0.3c0-0.1-0.1-0.2-0.2-0.3
		c-0.1-0.2-0.3-0.5-0.5-0.8l-1.2-1.8l-0.3-0.3c-0.1-0.3-0.3-0.6-0.6-1c0-0.1-0.1-0.1-0.1-0.2l-0.2-0.4l-0.1-0.2
		c-0.1-0.2-0.2-0.4-0.3-0.5l-0.2-0.4l-0.2-0.2c0-0.1-0.1-0.2-0.2-0.2l-0.1-0.2c0.2-0.3,0.5-0.6,0.7-1l0.1-0.3
		c0.1-0.1,0.1-0.2,0.2-0.2l0.4-0.6l0.1-0.2c0.2-0.2,0.3-0.4,0.5-0.7l0.4-0.8l0.2-0.2l0.4-0.8l0.6-0.8l0.2-0.4
		c0.3-0.3,0.5-0.7,0.7-1.1l0.5-0.7l0.5-1.2h-5.4l-0.1,0.1c-0.2,0.3-0.4,0.6-0.6,0.9l-1.9,2.9l0,0.1c-0.2,0.2-0.3,0.4-0.4,0.6
		l-1.7-2.4c-0.1-0.2-0.2-0.4-0.4-0.7l-0.9-1.5h-5.5l0.2,0.6c0.1,0.3,0.4,0.7,0.7,1.1c0.1,0.3,0.3,0.6,0.6,1c0,0.1,0.1,0.1,0.1,0.2
		l0.3,0.6l0.2,0.2c0,0.1,0.1,0.1,0.1,0.2l0.7,1.1c0.1,0.2,0.3,0.4,0.5,0.6l0.5,0.8l0.1,0.3l0.5,0.7l0.2,0.2l0.2,0.4l0.6,0.8l0.1,0.2
		c-0.1,0.1-0.2,0.3-0.3,0.5c-0.1,0.1-0.3,0.3-0.4,0.5l-3.3,5l-0.1,0.1l-0.2,0.4l-0.3,0.3l-0.9,1.5l-0.4,0.6l-0.5,1h5.5l0.1-0.2
		c0.1-0.2,0.3-0.5,0.6-0.9l0.4-0.7c0.1-0.1,0.2-0.2,0.2-0.2l0.1-0.1c0.1-0.2,0.3-0.4,0.4-0.6l0.1-0.1l0.2-0.4l0.1-0.3l0.2-0.2
		c0.1-0.2,0.3-0.4,0.4-0.7l0.2-0.1l0.1-0.2l0.2-0.3c0.1-0.2,0.3-0.4,0.4-0.6l0,0l0.7,1.1l0.2,0.3l0.1,0.1c0,0.1,0.1,0.1,0.1,0.2
		c0.1,0.2,0.2,0.4,0.4,0.6l0.7,1.1c0.1,0.1,0.3,0.3,0.5,0.7l0.2,0.2l0.1,0.3l0.2,0.3l0.1,0.3l0.5,0.6h5.4l-0.2-0.6
		C281,348.9,280.8,348.5,280.4,348.1z"/>
	<path fill="#272525" d="M296.7,343.4l-1.3-0.8l-0.2,0.4c-0.6,1.4-1.7,2.3-3.4,2.5c-1.2,0.1-2.2-0.4-3-1.4c-1.5-2.4-1.5-4.9-0.1-7.7
		c0.3-0.2,0.5-0.5,0.9-0.9l0.6-0.3l0.2-0.1l0.2-0.1c2-0.3,3.5,0.5,4.6,2.5l0.2,0.4l1.4-0.8c0.2,0,0.4-0.1,0.6-0.3l0.4-0.1l0.1-0.1
		c0.2-0.1,0.4-0.2,0.6-0.3l1.1-0.4l-0.2-0.4c-1.6-3.2-4.4-4.9-8.4-4.9c-3,0.2-5.3,1.6-6.7,4.2c-1.2,2.1-1.6,4.5-1.3,7.2
		c0.6,4.4,3,7,7.1,7.9c0.5,0.1,1.1,0.1,1.6,0.1c3.3,0,5.9-1.7,7.7-4.9l0.2-0.4l-2.3-1.1C297.1,343.5,296.9,343.4,296.7,343.4z"/>
	<path fill="#272525" d="M318.5,338.6L318.5,338.6c-0.6-5.3-3.6-8-9.1-8.2c-5.6,0.9-8.3,4.5-8.1,11c0.4,4.4,2.6,7.3,6.6,8.6
		c0.9,0.2,1.7,0.3,2.6,0.3c2.5,0,4.8-0.9,7-2.7l0.3-0.3l-1.2-1.3c0-0.1-0.1-0.1-0.2-0.2c-0.2-0.3-0.4-0.5-0.7-0.8l-0.1-0.1l-0.1-0.2
		l-0.1-0.1c-0.2-0.1-0.3-0.3-0.4-0.5l-0.3-0.4l-0.4,0.3c-1.3,1.2-2.9,1.7-4.9,1.5c-1.7-0.3-2.7-1.4-3-3.1h12.1v-2.4
		c0-0.1,0-0.2-0.1-0.3L318.5,338.6z"/>
	<path fill="#FFFFFF" d="M306.4,338.3c0.2-1.8,1.3-2.9,3.2-3.4c1.7,0,2.9,0.9,3.6,2.5c0,0.2,0.1,0.4,0.2,0.6c0,0.1,0,0.2,0,0.2
		L306.4,338.3L306.4,338.3z"/>
	<path fill="#272525" d="M332.8,330.5c-0.4-0.1-1-0.1-1.5-0.1H330c-1.1,0.2-2.2,0.6-3.2,1.3v-1H322v24.7h4.8V349
		c2.1,1.4,4.5,1.6,7.3,0.6c3.3-1.5,5.1-4.2,5.4-8.3C339.9,336,337.7,332.3,332.8,330.5z"/>
	<path fill="#FFFFFF" d="M332.3,344.8c-1.4,0.8-2.9,0.7-4.4-0.3c-0.9-1.1-1.2-2.7-0.9-4.8v-0.1c-0.2-2.3,0.9-3.7,3.3-4.2
		c2.4,0.2,3.8,1.6,4.3,4.3C334.7,341.9,334,343.6,332.3,344.8z"/>
	<path fill="#272525" d="M354.6,347.5c0-0.2-0.1-0.4-0.1-0.7c0-0.2,0-0.5-0.1-0.7v-0.4l-0.2-0.7l-0.4,0.1c-1.6,0.6-2.8,0.5-3.7-0.3
		c0-0.3-0.1-0.7,0-1.2v-8.5h4.8v-4.3H350v-6.5c0-0.2-0.1-0.4-0.2-0.6l-0.2-0.2l-1.2,0.5c-0.1,0-0.1,0-0.2,0.1c-0.1,0-0.1,0-0.2,0.1
		l-0.4,0.1l-0.3,0.1c-0.1,0-0.1,0-0.2,0.1c-0.1,0-0.1,0-0.2,0.1c-0.1,0-0.1,0-0.2,0.1l-1.1,0.4l-0.5,0.2v5.6h-3.2v4.3h3.2v9.5
		c0,0.4,0,1,0.1,1.5l0,0.3c0.1,0.3,0.2,0.6,0.3,0.8l0.2,0.5l0.1,0.2c1,1.5,2.7,2.3,5,2.3c1.1,0,2.3-0.2,3.7-0.5l0.4-0.1L354.6,347.5
		z"/>
	<path fill="#4679BB" d="M217.2,287.6c0,7.4,6,13.4,13.4,13.4h134.1c7.4,0,13.4-6,13.4-13.4V73.4c0-7.4-6-13.4-13.4-13.4H230.6
		c-7.4,0-13.4,6-13.4,13.4V287.6z"/>
	<path fill="#FFFFFF" d="M218.5,73.4c0-6.7,5.4-12.1,12.1-12.1h134.1c6.7,0,12.1,5.4,12.1,12.1v214.2c0,6.7-5.4,12.1-12.1,12.1
		H230.6c-6.7,0-12.1-5.4-12.1-12.1V73.4"/>
	<path fill="#4679BB" d="M224.2,73.4c0-3.5,2.8-6.3,6.3-6.3c0,0,0.1,0,0.1,0h134.1c3.5,0,6.3,2.8,6.3,6.3v214.2
		c0,3.5-2.9,6.3-6.3,6.3H230.6c-3.5,0-6.4-2.8-6.4-6.3V73.4"/>
	<polyline fill="#FFFFFF" points="280.8,281.8 280.8,146.8 247.1,180.5 247.1,130 297.7,79.4 348.1,130 348.1,180.5 314.5,146.8 
		314.5,281.8 280.8,281.8 	"/>
</g>
</svg>
