<?xml version="1.0" encoding="utf-8"?>
<!-- Generator: Adobe Illustrator 17.1.0, SVG Export Plug-In . SVG Version: 6.00 Build 0)  -->
<!DOCTYPE svg PUBLIC "-//W3C//DTD SVG 1.1//EN" "http://www.w3.org/Graphics/SVG/1.1/DTD/svg11.dtd">
<svg version="1.1" id="Layer_1" xmlns="http://www.w3.org/2000/svg" xmlns:xlink="http://www.w3.org/1999/xlink" x="0px" y="0px"
	 viewBox="155.9 70.9 283.5 283.5" enable-background="new 155.9 70.9 283.5 283.5" xml:space="preserve">
<g>
	<path fill="#4679BB" d="M217.2,319.7c0,7.4,6,13.4,13.4,13.4h134.1c7.4,0,13.4-6,13.4-13.4V105.5c0-7.4-6-13.4-13.4-13.4H230.6
		c-7.4,0-13.4,6-13.4,13.4V319.7z"/>
	<path fill="#FFFFFF" d="M218.5,105.5c0-6.7,5.4-12.1,12.1-12.1h134.1c6.7,0,12.1,5.4,12.1,12.1v214.2c0,6.7-5.4,12.1-12.1,12.1
		H230.6c-6.7,0-12.1-5.4-12.1-12.1V105.5"/>
	<path fill="#4679BB" d="M224.2,105.5c0-3.5,2.8-6.3,6.3-6.3c0,0,0.1,0,0.1,0h134.1c3.5,0,6.3,2.8,6.3,6.3v214.2
		c0,3.5-2.9,6.3-6.3,6.3H230.6c-3.5,0-6.4-2.8-6.4-6.3L224.2,105.5"/>
	<polyline fill="#FFFFFF" points="280.8,313.9 280.8,178.9 247.1,212.6 247.1,162.1 297.7,111.4 348.1,162.1 348.1,212.6 
		314.5,178.9 314.5,313.9 280.8,313.9 	"/>
</g>
</svg>
