<?xml version="1.0" encoding="utf-8"?>
<!-- Generator: Adobe Illustrator 17.1.0, SVG Export Plug-In . SVG Version: 6.00 Build 0)  -->
<!DOCTYPE svg PUBLIC "-//W3C//DTD SVG 1.1//EN" "http://www.w3.org/Graphics/SVG/1.1/DTD/svg11.dtd">
<svg version="1.1" id="Layer_1" xmlns="http://www.w3.org/2000/svg" xmlns:xlink="http://www.w3.org/1999/xlink" x="0px" y="0px"
	 viewBox="155.9 70.9 283.5 283.5" enable-background="new 155.9 70.9 283.5 283.5" xml:space="preserve">
<g>
	<path fill="#4679BB" d="M297.6,93.7c65.6,0,118.9,53.3,118.9,118.9s-53.4,118.9-118.9,118.9s-118.9-53.3-118.9-118.9
		C178.6,147,231.9,93.7,297.6,93.7v-1.6c-66.5,0-120.5,54.1-120.5,120.5s54.1,120.5,120.5,120.5c66.5,0,120.5-54,120.5-120.5
		S364,92.1,297.6,92.1V93.7"/>
	<path fill="#4679BB" d="M297.6,97.3c63.5,0,114.9,51.5,114.9,114.9c0,63.5-51.5,114.9-114.9,114.9c-63.5,0-114.9-51.5-114.9-114.9
		C182.6,148.8,234.1,97.3,297.6,97.3"/>
	<g>
		<path fill="#FFFFFF" d="M269.1,250.9c1.5-5.4,3.3-10.7,4.9-16.2c0,0,0,0,0-0.1c0,0,0,0,0-0.1c0-0.3-0.1-0.5-0.4-0.6
			c0,0,0,0-0.1-0.1c-1.8-0.8-3.1-2.6-3.1-4.7c0-2.8,2.2-5.2,5-5.2c0.6,0,1.3,0,1.9,0c2.3,0,4.7,0,7,0c0,1.6,0,3.4,0,5.2
			c-2.1,0-4.2,0-6.4,0c-0.4,0-0.8,0-1.3,0c-0.3,0-0.6,0.3-0.6,0.6c0,0.3,0.1,0.4,0.3,0.6c1.6,1,2.7,2,2.7,3.9c0,0.8-0.1,1.1-0.3,1.8
			c-0.1,0.5-0.9,2.6-0.9,2.6c11.7,0,23.3,0,35,0c0.7-1.6,1.4-3.3,2-5.1c-2.6-0.7-5.3-1.4-7.9-2c-0.6-0.1-1-0.6-1-1.2
			c0-0.7,0.7-1.3,1.4-1.3c6,0,12,0,17.9,0c0,2.8-2.3,5.1-5,5.1c-0.6,1.4-1.2,2.9-1.8,4.4c2.1,4.2,4.3,8.2,6.7,12.3
			c2.2-1,4.8-1.4,7.2-1.4c10.5,0,19.1,8.6,19.1,19.2c0,10.5-8.6,19.1-19.1,19.1c-9.8,0-18-7.4-19.1-17.2c0,0,0,0,0.1,0
			c-0.8,0-1.5,0-2.3,0c-0.5,1.8-1.4,3.3-3.2,4.4c0.6,1.3,1.3,2.5,1.9,3.9c1,0,1.9,0,3,0c0,0.8,0,1.6,0,2.5c-0.7,0-1.4,0-2,0
			c-0.4,0.4-0.9,0.6-1.4,0.6c-0.5,0-1.1-0.2-1.4-0.6c-0.9,0-1.7,0-2.6,0c0-0.8,0-1.6,0-2.5c0.8,0,1.5,0,2.4,0c-0.5-1-1-1.9-1.5-3
			c-1.1,0.4-1.4,0.4-2.5,0.4c-4.2,0-7.6-3.4-7.6-7.6c0-0.8,0.1-1.5,0.3-2.2c0,0,0,0,0-0.1c-7.2-5-14.6-9.9-21.9-15.1
			c-0.2,0.7-0.4,1.4-0.7,2c0,0,0,0,0.1,0.1c4.8,3.7,7.4,9.2,7.4,15.2c0,10.5-8.6,19.1-19.3,19.1c-10.5,0-19.1-8.6-19.1-19.1
			c0-10.6,8.6-19.2,19.1-19.2C265,249.6,266.2,249.8,269.1,250.9C269,250.9,269,250.9,269.1,250.9"/>
		<path fill="#4679BB" d="M298.5,268.9c0,2.8,2.2,5.1,5.1,5.1c2.8,0,5.2-2.2,5.2-5.1c0-2.8-2.3-5.2-5.2-5.2
			C300.7,263.7,298.5,266,298.5,268.9z"/>
		<path fill="#4679BB" d="M272,259.8c-0.3,1.1-0.7,2.2-1.1,3.4c-1.1,3.5-4.8,6.6-8.4,7.5c-0.1,0.1-0.3,0.1-0.6,0.1
			c-1,0-1.8-1-1.8-1.9c0-0.7,0.3-1.3,0.8-1.5c0.1,0,0.2-0.1,0.3-0.2c2.2-1.5,4.1-3.2,4.8-5.4c0.5-1.6,1-3.4,1.5-5.2c0,0,0,0-0.1,0
			c-1.6-0.8-3.5-1.2-5.5-1.2c-7.3,0-13.4,6.1-13.4,13.5s6.1,13.4,13.4,13.4c7.4,0,13.5-6,13.5-13.4
			C275.5,265.3,274.1,262.2,272,259.8z"/>
		<path fill="#FFFFFF" d="M308.8,263.1c2.5-6.3,5.1-12.5,7.6-18.9c1.6,3,3.2,6.1,4.8,9.1c0,0,0,0-0.1,0.1c-4.4,3.2-7.2,8-7.8,13.6
			c0,0,0,0,0.1,0c-0.8,0-1.5,0-2.3,0c-0.4-1.5-1.1-2.6-2.2-3.7C308.8,263.2,308.8,263.2,308.8,263.1z"/>
		<path fill="#4679BB" d="M323.9,258.5c-2.7,2.1-4.2,4.9-4.8,8.4c3,0,6.2,0,9.3,0C326.9,264.1,325.5,261.3,323.9,258.5L323.9,258.5z
			"/>
		<path fill="#4679BB" d="M334.1,268c0.1,0.3,0.2,0.6,0.2,0.9c0,1-0.9,1.9-1.9,1.9c-4.3,0-8.8,0-13.3,0c1,6.7,6.7,11.4,13.3,11.4
			c7.4,0,13.4-6,13.4-13.4s-6-13.5-13.4-13.5c-1.4,0-3.2,0.3-4.5,0.8C330,260.1,332,264,334.1,268z"/>
		<path fill="#4679BB" d="M299.4,262.4c-0.6-1.3-1.3-2.5-1.9-3.9c-1,0-2,0-3.1,0c0-0.8,0-1.6,0-2.5c0.7,0,1.4,0,2,0c0,0,0,0,0.1-0.1
			c0.4-0.4,0.9-0.6,1.4-0.6c0.6,0,1.1,0.3,1.4,0.6c0,0,0,0,0,0.1c0.9,0,1.7,0,2.6,0c0,0.8,0,1.6,0,2.5c-0.8,0-1.5,0-2.3,0
			c0.5,1,1,1.9,1.4,3c0,0,0.1,0,0.2-0.1c0.8-0.2,1.5-0.4,2.3-0.4c0.1,0,0.2,0,0.3,0c0,0,0,0,0.1,0c2.4-6,4.9-12,7.3-17.9
			c-11.6,0-23.1,0-34.6,0c-0.3,1.2-0.7,2.3-1.1,3.6c7.7,5.3,15.4,10.5,23.2,15.9C299,262.7,299.2,262.6,299.4,262.4z"/>
		<path fill="#4679BB" d="M308.8,263.1c2.6-6.4,5.2-12.7,7.6-18.9h-0.1c1.4,2.8,3.1,6,4.8,9.1l0,0l-0.1,0.1
			c-2.2,1.6-4.1,3.6-5.4,5.9c-1.4,2.3-2.2,4.9-2.5,7.6v0.1h0.2v-0.1H311l0,0C310.7,265.3,310,264.3,308.8,263.1L308.8,263.1
			L308.8,263.1L308.8,263.1"/>
	</g>
	<g>
		<path fill="#FFFFFF" d="M258.8,161.8c9.5,0,17.1,7.7,17.1,17.1c0,9.5-7.6,17.1-17.1,17.1c-9.5,0-17.1-7.7-17.1-17.1
			C241.7,169.5,249.3,161.8,258.8,161.8"/>
		<path fill="#4679BB" d="M258.7,168.4c5.8,0,10.6,4.8,10.6,10.6s-4.8,10.6-10.6,10.6c-5.8,0-10.6-4.8-10.6-10.6
			C248.1,173.1,252.9,168.4,258.7,168.4z"/>
		<path fill="#FFFFFF" d="M258.7,172.4c3.6,0,6.5,2.9,6.5,6.5s-2.9,6.5-6.5,6.5c-3.6,0-6.5-2.9-6.5-6.5
			C252.2,175.4,255.1,172.4,258.7,172.4z"/>
		<path fill="#FFFFFF" d="M332.1,161.8c9.5,0,17.1,7.7,17.1,17.1c0,9.5-7.6,17.1-17.1,17.1c-9.5,0-17.1-7.7-17.1-17.1
			C314.9,169.5,322.6,161.8,332.1,161.8"/>
		<path fill="#4679BB" d="M332.1,168.4c5.8,0,10.6,4.8,10.6,10.6s-4.8,10.6-10.6,10.6s-10.6-4.8-10.6-10.6
			C321.5,173.1,326.2,168.4,332.1,168.4z"/>
		<path fill="#FFFFFF" d="M332.1,172.4c3.6,0,6.5,2.9,6.5,6.5s-2.9,6.5-6.5,6.5s-6.5-2.9-6.5-6.5
			C325.6,175.4,328.5,172.4,332.1,172.4z"/>
		<polyline fill="#FFFFFF" points="331.2,167.1 333.6,174.2 328.2,175.7 325.8,168.6 331.2,167.1 		"/>
		<polyline fill="#FFFFFF" points="263.7,176.8 272.1,163 266.6,159.7 258.1,173.6 263.7,176.8 		"/>
		<path fill="#FFFFFF" d="M340.1,159.7c7.5,3.2,12.8,10.7,12.8,19.3h-7l-3.6-9.2l-11.5-5l-11.8,7.9v14.4h-14.9
			c-7.1,0.1-12,0.1-18.1,0.1c-6.1,0-8.1-4.3-8.1-8.3c0-10.6-8.8-19.3-19.3-19.3l-0.3,0.1v-7.1h4.3c3.4,0,8.8-1.8,10.9-5.2l8.8-13.5
			c1.1-1.8,1.9-0.8,1.6,0.2l-3.6,15.1c-0.5,1.9,1.8,3.1,3.6,1.3l4.4-4.1l4.7-7.9v-1c-2.3,0-4.1-1.5-4.1-3.4v-5.3h-1.5
			c0.4-3.7,2.5-6.7,6.9-6.7c4.4,0,6.7,3,6.7,6.7c-0.1,3.4-0.7,3.3-1.3,4.3v2.4c0.6-0.1,1.1,0.1,2.2,0.4c1,0.4,4.6,1.8,5.4,2.3
			c0.8,0.5,1.1,0.6,2.1,1.6l8.4,8.8c1.9,2,2,4.1,2,5.9H337c2.3,0,3.1,1.4,3.1,4.3L340.1,159.7"/>
		<path fill="#4679BB" d="M297,149.7l-13.4,7.7l10.9,4.4l7.4-7.4C299.6,153.2,298.6,152,297,149.7z"/>
		<path fill="#4679BB" d="M315.3,175.3c0.8-4.1,3.2-7.6,6.4-10c0.5-0.5,0.4-1.1-0.5-1.1h-7v11.1
			C314.2,175.9,315.1,176.1,315.3,175.3z"/>
	</g>
</g>
</svg>
