<?xml version="1.0" encoding="utf-8"?>
<!-- Generator: Adobe Illustrator 17.1.0, SVG Export Plug-In . SVG Version: 6.00 Build 0)  -->
<!DOCTYPE svg PUBLIC "-//W3C//DTD SVG 1.1//EN" "http://www.w3.org/Graphics/SVG/1.1/DTD/svg11.dtd">
<svg version="1.1" id="Layer_1" xmlns="http://www.w3.org/2000/svg" xmlns:xlink="http://www.w3.org/1999/xlink" x="0px" y="0px"
	 viewBox="155.9 70.9 283.5 283.5" enable-background="new 155.9 70.9 283.5 283.5" xml:space="preserve">
<g>
	<path fill="#4679BB" d="M297.6,93.7c65.6,0,118.9,53.3,118.9,118.9s-53.4,118.9-118.9,118.9s-118.9-53.3-118.9-118.9
		C178.6,147,231.9,93.7,297.6,93.7v-1.6c-66.5,0-120.5,54.1-120.5,120.5s54.1,120.5,120.5,120.5c66.5,0,120.5-54,120.5-120.5
		S364,92.1,297.6,92.1V93.7"/>
	<path fill="#4679BB" d="M297.6,97.3c63.5,0,114.9,51.5,114.9,114.9c0,63.5-51.5,114.9-114.9,114.9c-63.5,0-114.9-51.5-114.9-114.9
		C182.6,148.8,234.1,97.3,297.6,97.3"/>
	<g>
		<path fill="#FFFFFF" d="M257.4,199.3c2.2-7.7,4.7-15.3,7-23.1c0,0,0,0,0-0.1c0,0,0,0,0-0.1c0-0.4-0.1-0.7-0.6-0.8c0,0,0,0-0.1-0.1
			c-2.6-1.1-4.4-3.7-4.4-6.7c0-4,3.2-7.4,7.2-7.4c0.8,0,1.8,0,2.8,0c3.3,0,6.7,0,10.1,0c0,2.3,0,4.8,0,7.4c-3,0-6.1,0-9.1,0
			c-0.6,0-1.1,0-1.8,0c-0.4,0-0.8,0.4-0.8,0.8c0,0.4,0.1,0.6,0.4,0.8c2.3,1.4,3.9,2.9,3.9,5.5c0,1.1-0.1,1.5-0.4,2.6
			c-0.1,0.7-1.2,3.7-1.2,3.7c16.7,0,33.2,0,50,0c1-2.3,1.9-4.7,2.9-7.3c-3.7-1-7.6-1.9-11.3-2.9c-0.8-0.1-1.4-0.8-1.4-1.7
			c0-1,1-1.8,1.9-1.8c8.5,0,17.1,0,25.5,0c0,4-3.3,7.3-7.2,7.3c-0.8,2.1-1.7,4.1-2.6,6.3c3,5.9,6.2,11.7,9.5,17.5
			c3.2-1.4,6.9-2.1,10.3-2.1c15,0,27.3,12.3,27.3,27.4c0,15-12.3,27.3-27.3,27.3c-14,0-25.7-10.6-27.3-24.5c0,0,0,0,0.1,0
			c-1.1,0-2.2,0-3.3,0c-0.7,2.6-2.1,4.7-4.5,6.3c0.8,1.8,1.8,3.6,2.8,5.5c1.4,0,2.8,0,4.3,0c0,1.1,0,2.3,0,3.6c-1,0-1.9,0-2.9,0
			c-0.6,0.6-1.2,0.8-2.1,0.8s-1.5-0.3-2.1-0.8c-1.2,0-2.5,0-3.7,0c0-1.1,0-2.3,0-3.6c1.1,0,2.2,0,3.4,0c-0.7-1.4-1.4-2.8-2.2-4.3
			c-1.5,0.6-1.9,0.6-3.6,0.6c-5.9,0-10.9-4.8-10.9-10.9c0-1.1,0.1-2.2,0.4-3.2c0,0,0,0,0-0.1c-10.3-7.2-20.8-14.2-31.3-21.5
			c-0.3,1-0.6,1.9-1,2.9c0,0,0,0,0.1,0.1c6.9,5.2,10.6,13.1,10.6,21.8c0,15-12.3,27.3-27.5,27.3c-15,0-27.3-12.3-27.3-27.3
			c0-15.1,12.3-27.4,27.3-27.4C251.6,197.3,253.2,197.6,257.4,199.3C257.2,199.3,257.2,199.3,257.4,199.3"/>
		<path fill="#4679BB" d="M299.4,224.9c0,4,3.2,7.3,7.3,7.3c4,0,7.4-3.2,7.4-7.3c0-4-3.3-7.4-7.4-7.4
			C302.5,217.4,299.4,220.7,299.4,224.9z"/>
		<path fill="#4679BB" d="M261.5,211.9c-0.4,1.5-1,3.2-1.5,4.8c-1.5,5-6.9,9.4-12,10.7c-0.1,0.1-0.4,0.1-0.8,0.1
			c-1.4,0-2.6-1.4-2.6-2.8c0-1,0.4-1.8,1.1-2.2c0.1,0,0.3-0.1,0.4-0.3c3.2-2.2,5.8-4.5,6.9-7.7c0.7-2.3,1.4-4.8,2.2-7.4
			c0,0,0,0-0.1,0c-2.3-1.1-5-1.7-7.8-1.7c-10.5,0-19.1,8.7-19.1,19.3c0,10.6,8.7,19.1,19.1,19.1c10.6,0,19.3-8.5,19.3-19.1
			C266.5,219.8,264.5,215.4,261.5,211.9z"/>
		<path fill="#FFFFFF" d="M314,216.6c3.6-9,7.3-17.9,10.9-27c2.3,4.3,4.5,8.7,6.9,12.9c0,0,0,0-0.1,0.1
			c-6.3,4.5-10.3,11.4-11.2,19.4c0,0,0,0,0.1,0c-1.1,0-2.2,0-3.3,0c-0.6-2.2-1.5-3.7-3.2-5.2C314,216.7,314,216.7,314,216.6z"/>
		<path fill="#4679BB" d="M335.6,210c-3.9,3-6.1,7-6.9,12c4.3,0,8.8,0,13.2,0C339.9,218,337.8,214,335.6,210L335.6,210z"/>
		<path fill="#4679BB" d="M350.2,223.6c0.1,0.4,0.3,0.8,0.3,1.2c0,1.4-1.2,2.8-2.8,2.8c-6.2,0-12.5,0-19,0c1.4,9.5,9.5,16.2,19,16.2
			c10.6,0,19.1-8.5,19.1-19.1c0-10.6-8.5-19.3-19.1-19.3c-2.1,0-4.5,0.4-6.5,1.1C344.3,212.3,347.1,217.8,350.2,223.6z"/>
		<path fill="#4679BB" d="M300.6,215.6c-0.8-1.8-1.8-3.6-2.8-5.5c-1.4,0-2.9,0-4.4,0c0-1.1,0-2.3,0-3.6c1,0,1.9,0,2.9,0
			c0,0,0,0,0.1-0.1c0.6-0.6,1.2-0.8,1.9-0.8c0.8,0,1.5,0.4,2.1,0.8c0,0,0,0,0,0.1c1.2,0,2.5,0,3.7,0c0,1.1,0,2.3,0,3.6
			c-1.1,0-2.2,0-3.3,0c0.7,1.4,1.4,2.8,2.1,4.3c0,0,0.1,0,0.3-0.1c1.1-0.3,2.2-0.6,3.3-0.6c0.1,0,0.3,0,0.4,0c0,0,0,0,0.1,0
			c3.4-8.5,7-17.1,10.5-25.5c-16.5,0-32.9,0-49.3,0c-0.4,1.7-1,3.3-1.5,5.1c11,7.6,22,15,33,22.7
			C300.1,216.1,300.3,215.9,300.6,215.6z"/>
		<path fill="#4679BB" d="M314,216.6c3.7-9.1,7.4-18.2,10.9-27h-0.1c2.1,4,4.4,8.5,6.9,12.9l0,0l-0.1,0.1c-3.2,2.3-5.8,5.1-7.7,8.4
			c-1.9,3.3-3.2,7-3.6,10.9v0.1h0.3v-0.1h-3.3l0,0C316.7,219.8,315.8,218.3,314,216.6L314,216.6L314,216.6L314,216.6"/>
	</g>
</g>
</svg>
