<?xml version="1.0" encoding="utf-8"?>
<!-- Generator: Adobe Illustrator 17.1.0, SVG Export Plug-In . SVG Version: 6.00 Build 0)  -->
<!DOCTYPE svg PUBLIC "-//W3C//DTD SVG 1.1//EN" "http://www.w3.org/Graphics/SVG/1.1/DTD/svg11.dtd">
<svg version="1.1" id="Layer_1" xmlns="http://www.w3.org/2000/svg" xmlns:xlink="http://www.w3.org/1999/xlink" x="0px" y="0px"
	 viewBox="155.9 28.3 283.5 368.5" enable-background="new 155.9 28.3 283.5 368.5" xml:space="preserve">
<g>
	<path fill="#FFFFFF" stroke="#272525" stroke-width="0.53" d="M384.5,387.9H210.7c-4.7,0-8.5-3.8-8.5-8.5v-84.2
		c0-4.7,3.8-8.5,8.5-8.5h173.8c4.7,0,8.5,3.8,8.5,8.5v84.2C393,384.1,389.2,387.9,384.5,387.9z"/>
	<path fill="#272525" d="M269.2,326.4l-0.3-0.6l-0.3-0.4c-0.1-0.4-0.3-0.8-0.6-1.2c-0.1-0.3-0.2-0.5-0.4-0.8l-0.3-0.7
		c-0.1-0.2-0.2-0.5-0.4-0.7c-0.1-0.2-0.2-0.4-0.3-0.6l-0.7-1.5l-0.6-1l-0.2-0.5l-0.7-1.3c1.7-0.6,2.9-1.9,3.7-3.7
		c0.8-1.9,0.9-4,0.2-6.2c-1.7-4.2-5.1-6.1-10-5.7h-8.1v26.3h5.2v-9.9h3.7l0.8,1.7c0.1,0.2,0.2,0.4,0.4,0.8l1.4,2.7l0.1,0.3l0.2,0.3
		c0,0.1,0.1,0.1,0.1,0.2l0.2,0.5c0.1,0.2,0.2,0.5,0.4,0.8l0,0.2l0.4,0.7c0.1,0.4,0.3,0.8,0.6,1.3l0.3,0.6h5.4l0-0.4
		C269.5,327,269.4,326.7,269.2,326.4z"/>
	<path fill="#FFFFFF" d="M262.1,313c-0.3,0-0.7,0.1-1.3,0.1h-5.2v-6.8h4.9c0.2,0,0.5,0,0.8,0.1l0.6,0.1c0.8,0.4,1.4,1,1.8,1.9
		C264.3,310.2,263.7,311.7,262.1,313z"/>
	<rect x="273.6" y="308.8" fill="#272525" width="4.9" height="19"/>
	<path fill="#272525" d="M276,307.2c0.5,0,1.1-0.1,1.9-0.5l0.1-0.1c0.7-0.7,1-1.6,1-2.8l0-0.1c-0.5-1.4-1.6-2.2-3.1-2.2
		c-0.1,0-0.1,0-0.2,0l-0.1,0c-1.8,0.6-2.5,1.9-2,3.9C273.9,306.4,274.7,307.2,276,307.2z"/>
	<path fill="#272525" d="M289.6,315.7c-0.3-0.1-0.6-0.2-1-0.2c-0.1-0.1-0.3-0.1-0.5-0.2c-0.4-0.2-0.6-0.6-0.6-1.1
		c0.4-0.8,0.9-1.2,1.6-1.4c1.2-0.3,2.9,0.2,5.1,1.6l0.3,0.2l1.1-1.2c0.1-0.1,0.2-0.2,0.4-0.4l0.6-0.6l0.2-0.1l0.7-0.8L297,311
		c-2-1.9-4.5-2.8-7.5-2.8c-0.1,0-0.2,0-0.3,0c-4,0.3-6.3,2.4-6.6,6.3c0.4,3.8,3,5.9,7.8,6.2l1.4,0.5c0.3,0.4,0.5,0.9,0.3,1.6
		c-0.2,0.1-0.3,0.3-0.5,0.5c-2.5,0.8-4.7,0.2-6.9-1.9l-0.3-0.3l-1.1,1.3l-0.2,0.1l-0.1,0.1c-0.1,0.1-0.1,0.2-0.2,0.2l-0.1,0.1
		c-0.1,0.1-0.1,0.1-0.1,0.2c-0.2,0.1-0.4,0.3-0.6,0.6l-0.3,0.3l-0.4,0.7l0.3,0.2c2.7,2.3,5.3,3.4,8,3.4c1.4,0,2.9-0.3,4.3-1
		c2.2-1.3,3.2-3.4,3-6.2C296.4,317.8,293.9,316,289.6,315.7z"/>
	<rect x="300.7" y="308.8" fill="#272525" width="4.9" height="19"/>
	<path fill="#272525" d="M303,307.2c0.5,0,1.1-0.1,1.9-0.5l0.1-0.1c0.7-0.7,1-1.6,1-2.8l0-0.1c-0.5-1.4-1.6-2.2-3.1-2.2
		c-0.1,0-0.1,0-0.2,0l-0.1,0c-1.8,0.6-2.5,1.9-2,3.9C301,306.4,301.7,307.2,303,307.2z"/>
	<path fill="#272525" d="M326,312.1c-1.3-2.6-3.5-4-6.7-4c-0.1,0-0.2,0-0.3,0c-1.3,0.2-2.5,0.7-3.6,1.5v-1.1h-4.8v19h4.8l0-11.4
		l0.2-1c0.4-0.9,1.2-1.6,2.1-2c0.9-0.3,1.6-0.3,2.2,0c0.6,0.3,1.1,1,1.4,1.9l0.1,0.3v12.2h4.9v-14.4c0-0.3-0.1-0.6-0.3-0.8
		L326,312.1z"/>
	<path fill="#272525" d="M335,326c2.2,0.7,4.3,0.4,6.3-0.9l0,1.9c-0.1,0.3-0.2,0.6-0.5,1l-0.1,0.2c-2.4,1.4-5.2,1.2-8.3-0.4
		l-0.5-0.2l-0.3,0.9c-0.1,0.2-0.3,0.5-0.4,0.8l-1.1,2.5l0.3,0.2c2.2,1.2,4.5,1.9,7.1,1.9c1.4,0,2.9-0.2,4.5-0.6l1.4-0.7l0.4-0.4
		c0.5-0.4,0.9-0.8,1.2-1.4l0.3-0.4l0.5-1.3l0.2-1.3v-18.9h-4.8v0.8c-1.3-0.8-2.8-1.2-4.6-1.2c-0.1,0-0.2,0-0.2,0
		c-2.5,0.4-4.5,1.8-5.8,4.2c-1.4,2.4-1.6,5.2-0.6,8.2C330.7,323.2,332.4,325,335,326z"/>
	<path fill="#FFFFFF" d="M336,313.7l1.3-0.5h0.2c0.1,0,0.2,0,0.3-0.1c2.3,0.1,3.4,1.4,3.5,4c0.1,2.7-0.8,4.1-3.1,4.4
		c-2.1-0.1-3.3-1.3-3.6-3.5C334.3,316.4,334.8,315,336,313.7z"/>
	<path fill="#272525" d="M244.6,350.7c-3-2.1-6-2.2-8.9-0.2v-8.1h-4.8v26.2h4.8v-0.9c1.2,0.8,2.5,1.3,4,1.3c0.9,0,1.9-0.2,3-0.5
		c2.3-0.8,3.9-2.5,5-5c1.5-4.1,0.9-8-1.8-11.7C245.5,351.3,245.1,350.9,244.6,350.7z"/>
	<path fill="#FFFFFF" d="M239.7,363.9c-1.9,0.2-3.1-0.6-3.9-2.5v-4.8c0.1-0.2,0.1-0.4,0.2-0.7c0.6-1,1.5-1.6,2.8-2
		c3.2,0.1,4.7,2,4.6,5.6C243.1,361.9,241.9,363.4,239.7,363.9z"/>
	<path fill="#272525" d="M267.8,353.3c-2-3.1-5-4.6-9.1-4.4c-5.5,1.2-8.2,5.1-7.9,11.3c0.2,3.1,1.6,5.6,4.2,7.4
		c1.4,0.9,3,1.4,4.8,1.4c0.9,0,1.8-0.1,2.7-0.4c3.2-0.9,5.3-3,6.1-6.5C269.3,359.4,269.1,356.4,267.8,353.3L267.8,353.3z"/>
	<path fill="#FFFFFF" d="M264,360.4c-0.3,2.4-1.6,3.7-4.1,3.9c-2.4-0.2-3.8-1.7-4.1-4.5c-0.3-3.4,0.9-5.4,3.8-6.2
		c1.6,0.1,2.8,0.6,3.6,1.6C264,356.3,264.3,358,264,360.4z"/>
	<path fill="#272525" d="M282,366.5l-0.2-1.6l0-1l-0.5,0.1c-1.5,0.3-2.6,0.2-3.2-0.5c-0.1-0.7-0.1-1.5-0.1-2.5v-18.8h-4.9v22.4
		l0,0.3c0,0.1,0,0.3,0.1,0.5l0,0.1c0.8,2.3,2.6,3.5,5.3,3.5c1,0,2.1-0.1,3.4-0.5l0.4-0.1l-0.3-1.4L282,366.5L282,366.5z"/>
	<path fill="#272525" d="M293.2,366.5L293,365l0-1l-0.5,0.1c-1.5,0.3-2.6,0.2-3.2-0.5c-0.1-0.7-0.1-1.5-0.1-2.5v-18.8h-4.9v22.4
		l0,0.3c0,0.1,0,0.3,0.1,0.5l0,0.1c0.8,2.3,2.6,3.5,5.3,3.5c1,0,2.1-0.1,3.4-0.5l0.4-0.1l-0.3-1.4L293.2,366.5L293.2,366.5z"/>
	<path fill="#272525" d="M309.9,364v-8.7c0-0.4,0-0.9-0.1-1.6c-0.1-0.7-0.5-1.5-1-2.1l-0.2-0.4l-0.1-0.1c-1.7-1.7-4-2.5-6.8-2.1
		l-1.4,0.3c-0.4,0-0.8,0.1-1.2,0.3l-0.5,0.1c-0.2,0-0.5,0.1-0.7,0.2l-0.4,0.1c-0.3,0.1-0.6,0.2-1,0.5c-0.1,0-0.1,0-0.2,0.1H296
		l-0.1,0.1l-0.9,0.4l0.1,0.4c0.1,0.3,0.3,0.7,0.5,1c0.1,0.2,0.2,0.4,0.3,0.5l0.9,2.1l0.4-0.1c4.6-1.8,6.5-1.5,7.2-0.9
		c0.5,0.4,0.8,1.1,0.7,2.2l-1.3,0.2l-0.9,0.1l-0.3,0.1c-0.1,0-0.2,0-0.3,0.1c0,0,0,0,0,0c-2.8,0-4.9,0.7-6.2,2
		c-1.2,1.2-1.7,2.8-1.7,5c0.5,2.4,2.1,4.1,4.6,5c2.4,0.8,4.8,0.5,7-1.1c0.8,0.8,1.8,1.4,3.1,1.7l0.3,0.1l0.2-0.2
		c0.2-0.2,0.3-0.5,0.5-1c0.3-0.2,0.5-0.6,0.6-1c0.1-0.2,0.3-0.4,0.4-0.6l0.1-0.1l0.1-0.2c0.1-0.1,0.1-0.1,0.1-0.2l0.5-0.7l-0.6-0.1
		C310.7,365.1,310.2,364.7,309.9,364z"/>
	<path fill="#FFFFFF" d="M305,363.3c-0.1,0.1-0.2,0.3-0.2,0.5c-1.5,1.3-3.1,1.4-4.8,0.4c-0.5-0.5-0.8-1-0.8-1.4c0-0.5,0.3-1,0.9-1.6
		c0.2-0.1,0.5-0.2,0.7-0.3l1.1-0.3h0.2c0.1,0,0.2,0,0.3-0.1l0.4-0.1c0.2,0,0.5,0,0.6-0.1h0.4c0.1,0,0.2,0,0.3-0.1h0.8l0,2.8
		L305,363.3L305,363.3z"/>
	<path fill="#272525" d="M320.5,350.8C320.5,350.7,320.5,350.7,320.5,350.8v-1.3h-4.9v18.9h4.9v-10.3l0.2-1.4
		c0.9-1.7,2.3-2.5,4.3-2.5c0.2,0,0.4,0,0.5,0l0.4,0v-5.1h-1.3C323.2,349.1,321.7,349.7,320.5,350.8z"/>
	<path fill="#272525" d="M341.3,350.3c-2.1-1.3-4.4-1.5-7.1-0.6c-2.9,1.2-4.7,3.5-5.4,6.9c-0.9,6.5,1.5,10.6,7.3,12.2
		c0.3,0.1,0.7,0.1,1,0.1c1.5,0,2.8-0.4,4.1-1.3c0,0.1,0,0.2,0,0.3v0.6h5v-26.2h-5V350.3z"/>
	<path fill="#FFFFFF" d="M341.2,359.5c0.1,1.7-0.3,2.9-1,3.6c-0.8,0.7-2.1,0.9-3.8,0.6c-1.5-0.8-2.4-2.2-2.7-4.2
		c-0.2-2.9,1-4.7,3.6-5.6c1.5,0.1,2.5,0.5,3.2,1.2C341.2,356.1,341.5,357.5,341.2,359.5z"/>
	<path fill="#272525" d="M357.4,356.5c-0.3-0.1-0.6-0.2-1-0.2c-0.1-0.1-0.3-0.1-0.5-0.2c-0.4-0.2-0.6-0.6-0.6-1.1
		c0.4-0.8,0.9-1.2,1.6-1.4c1.1-0.3,2.9,0.2,5.1,1.6l0.3,0.2l1.1-1.2c0.1-0.1,0.3-0.3,0.4-0.5l0.3-0.3l0.2-0.3l0.2-0.1l0.7-0.8
		l-0.3-0.3c-2-1.9-4.5-2.8-7.5-2.8c-0.1,0-0.2,0-0.3,0c-4,0.3-6.3,2.4-6.6,6.3c0.4,3.8,3,5.9,7.8,6.2l1.4,0.5
		c0.3,0.4,0.5,0.9,0.3,1.6c-0.2,0.1-0.3,0.3-0.5,0.5c-2.4,0.8-4.7,0.2-6.9-1.9l-0.3-0.3l-1.1,1.3l-0.2,0.1l-0.1,0.2
		c-0.1,0.1-0.1,0.1-0.2,0.2l-0.1,0.1c-0.1,0.1-0.1,0.1-0.1,0.2c-0.2,0.1-0.4,0.3-0.6,0.6l-0.3,0.3l-0.4,0.7l0.3,0.2
		c2.7,2.3,5.3,3.4,8,3.4c1.4,0,2.9-0.3,4.3-1c2.2-1.3,3.2-3.4,3-6.2C364.2,358.7,361.7,356.8,357.4,356.5z"/>
	<polyline fill="#FFFFFF" points="319.6,265.1 173.5,265.1 296.7,50.2 420,265.1 319.6,265.1 	"/>
	<path fill="#ED1C24" d="M416.1,278.3c6.4-0.1,12.4-3.5,15.6-9.1c3.2-5.6,3.2-12.5,0-18.1L313.3,46.3c-3.2-5.6-9.2-9.1-15.7-9.1
		c-6.5,0-12.4,3.4-15.6,9L163.7,251.1c-3.3,5.6-3.3,12.5,0,18.1c3.2,5.6,9.2,9,15.6,9L416.1,278.3"/>
	<polygon fill="#FFFFFF" points="189.8,254.1 405.6,254.1 297.6,67.4 	"/>
	<path fill="#1F1D1E" d="M296.9,211.7c8.9,0,16,7.2,16,16c0,8.9-7.2,16-16,16c-8.8,0-16-7.2-16-16
		C280.8,218.9,288,211.7,296.9,211.7"/>
	<path fill="#1F1D1E" d="M294.6,203.7h4.8l18-71.1c0.3-1.4,0.4-2.8,0.4-4.3c0-11.5-9.3-20.8-20.8-20.8c-11.5,0-20.9,9.3-20.9,20.8
		c0,1.4,0.2,2.9,0.4,4.3L294.6,203.7"/>
</g>
</svg>
