<?xml version="1.0" encoding="utf-8"?>
<!-- Generator: Adobe Illustrator 17.1.0, SVG Export Plug-In . SVG Version: 6.00 Build 0)  -->
<!DOCTYPE svg PUBLIC "-//W3C//DTD SVG 1.1//EN" "http://www.w3.org/Graphics/SVG/1.1/DTD/svg11.dtd">
<svg version="1.1" id="Layer_1" xmlns="http://www.w3.org/2000/svg" xmlns:xlink="http://www.w3.org/1999/xlink" x="0px" y="0px"
	 viewBox="155.9 70.9 283.5 283.5" enable-background="new 155.9 70.9 283.5 283.5" xml:space="preserve">
<g>
	<polyline fill="#FFFFFF" points="222.9,318.4 174.7,318.4 297.6,105.3 420,318.4 222.9,318.4 	"/>
	<path fill="#ED1C24" d="M415.9,333c6.4,0,12.4-3.5,15.6-9c3.2-5.6,3.2-12.5,0-18.1L313.3,101.3c-3.2-5.6-9.2-9.1-15.7-9.1
		c-6.5,0-12.5,3.5-15.7,9.1L163.8,305.9c-3.2,5.6-3.2,12.5,0,18.1c3.2,5.7,9.2,9.1,15.7,9.1L415.9,333"/>
	<polygon fill="#FFFFFF" points="189.9,308.9 405.5,308.9 297.7,122.3 	"/>
	<path fill="#1F1D1E" d="M313.7,187.2l-16.1,5.8l-18.9,6.9c-20.2,7.3-35.6,27.1-35.6,50.9V301h26.1v-50.2
		c0.1-12.3,7.8-22.4,18.4-26.5l19-6.8l16.1-5.9l7.8-16.7L313.7,187.2z"/>
</g>
</svg>
