<?xml version="1.0" encoding="utf-8"?>
<!-- Generator: Adobe Illustrator 17.1.0, SVG Export Plug-In . SVG Version: 6.00 Build 0)  -->
<!DOCTYPE svg PUBLIC "-//W3C//DTD SVG 1.1//EN" "http://www.w3.org/Graphics/SVG/1.1/DTD/svg11.dtd">
<svg version="1.1" id="Layer_1" xmlns="http://www.w3.org/2000/svg" xmlns:xlink="http://www.w3.org/1999/xlink" x="0px" y="0px"
	 viewBox="155.9 28.3 283.5 368.5" enable-background="new 155.9 28.3 283.5 368.5" xml:space="preserve">
<g>
	<g>
		<g>
			<path fill="#FFFFFF" stroke="#272525" stroke-width="0.53" d="M384.5,363.9H210.7c-4.7,0-8.5-3.8-8.5-8.5v-36.2
				c0-4.7,3.8-8.5,8.5-8.5h173.8c4.7,0,8.5,3.8,8.5,8.5v36.2C393,360.1,389.2,363.9,384.5,363.9z"/>
			<polyline fill="#FFFFFF" points="319.6,289.1 173.5,289.1 296.7,74.2 420,289.1 319.6,289.1 			"/>
			<path fill="#ED1C24" d="M416.1,302.3c6.4-0.1,12.4-3.5,15.6-9.1c3.2-5.6,3.2-12.5,0-18.1L313.3,70.3c-3.2-5.6-9.2-9.1-15.7-9.1
				c-6.5,0-12.4,3.4-15.6,9L163.7,275.1c-3.3,5.6-3.3,12.5,0,18.1c3.2,5.6,9.2,9,15.6,9L416.1,302.3"/>
			<polygon fill="#FFFFFF" points="189.8,278.1 405.6,278.1 297.6,91.4 			"/>
			<path fill="#1F1D1E" d="M296.9,235.7c8.9,0,16,7.2,16,16c0,8.9-7.2,16-16,16c-8.8,0-16-7.2-16-16
				C280.8,242.9,288,235.7,296.9,235.7"/>
			<path fill="#1F1D1E" d="M294.6,227.7h4.8l18-71.1c0.3-1.4,0.4-2.8,0.4-4.3c0-11.5-9.3-20.8-20.8-20.8c-11.5,0-20.9,9.3-20.9,20.8
				c0,1.4,0.2,2.9,0.4,4.3L294.6,227.7"/>
		</g>
	</g>
	<g>
		<path d="M234.3,326.9l-0.4,0.2c-0.1,0.1-0.2,0.2-0.3,0.3s-0.2,0.2-0.3,0.2l-0.4,0.4l-0.2,0.1c-0.2,0.3-0.5,0.5-0.7,0.6
			c-0.2,0.3-0.5,0.5-0.8,0.7c-0.1,0.2-0.3,0.3-0.4,0.4c-1.7-2.2-3.7-3.3-6.1-3.3c-0.3,0-0.5,0-0.8,0.1c-2.2,0.1-3.5,1-4.1,2.8
			c0,1.2,0.4,2.3,1.1,3.1l0.5,0.3l0.2,0.1l0.8,0.4h0.4l0.3,0.1l0.4,0.1c0.3,0.1,0.5,0.2,0.7,0.2l0.6,0.1h0.2l2.3,0.6h0.2l0.2,0.1
			h0.2l0.2,0.1l1,0.2l0.2,0.1l0.3,0.1l0.6,0.2c0.6,0.2,1.1,0.3,1.5,0.6l0.1,0.1l0.2,0.1l0.1,0.2c0.2,0.1,0.3,0.2,0.4,0.3
			c0.1,0,0.1,0.1,0.1,0.1l0.8,0.8c1,1.5,1.5,2.9,1.5,4.4c0,0.8-0.1,1.6-0.4,2.4c-0.8,2.6-2.3,4.5-4.5,5.5c-0.3,0.2-0.6,0.3-0.8,0.4
			c-0.7,0.1-1.4,0.2-2,0.3s-1.3,0.1-1.9,0.1c-4.4,0-8.1-1.7-10.9-5.1l0.1-0.1l0.1-0.1c0,0,0.1-0.1,0.1-0.1h0
			c0.3-0.3,0.5-0.5,0.8-0.7l0.2-0.2l0.8-0.7l0.1-0.1c0,0,0.1-0.1,0.1-0.1h0c0.2-0.2,0.4-0.4,0.5-0.5s0.3-0.3,0.5-0.4h0.2
			c2,2.6,4.2,3.9,6.8,3.9c1.3,0,2.7-0.3,4.1-1c0.3-0.3,0.5-0.5,0.8-0.7l0.1-0.2c0.3-0.4,0.5-0.8,0.6-1.1c0-0.1,0-0.2,0-0.2
			s0-0.1,0-0.2c0-1.3-0.5-2.4-1.6-3.1l-0.2-0.1c-0.3-0.1-0.5-0.2-0.7-0.2l-0.1-0.1h-0.2l-0.3-0.1L227,339h-0.2l-0.1-0.1
			c-0.5-0.1-0.8-0.2-1.1-0.3h-0.2l-0.6-0.1h-0.2l-0.3-0.1l-0.1-0.1c-0.5-0.1-0.8-0.2-1.1-0.3c-4.7-0.5-7.3-3-7.8-7.2
			c0.1-5.1,2.9-7.9,8.4-8.4c0.3,0,0.5,0,0.8-0.1s0.5,0,0.8,0C229.2,322.4,232.2,323.9,234.3,326.9z"/>
		<path d="M246.6,323.4v7.3h5.1v3.7h-5.1v9.8c0,0.2,0,0.4,0,0.6s0,0.4,0.1,0.5c0.7,0.6,1.5,0.9,2.4,0.9c0.6,0,1.3-0.1,2.1-0.4
			l0.1,0.2v0.4c0,0.1,0,0.2,0.1,0.3s0,0.2,0,0.3v0.2c0,0.1,0.1,0.3,0.1,0.4s0,0.2,0,0.3l0.2,1.8c-0.7,0.2-1.4,0.3-2,0.4
			s-1.2,0.1-1.8,0.1c-2.3,0-3.9-0.7-4.9-2.2l-0.1-0.1l-0.1-0.4c-0.1-0.3-0.2-0.6-0.3-0.8v-0.2c0-0.2,0-0.5-0.1-0.7s0-0.4,0-0.6
			v-10.8H239v-3.7h3.4v-6.1l0.3-0.1l0.6-0.1l0.2-0.1l0.4-0.1c0.1,0,0.1-0.1,0.2-0.1c0.1,0,0.1-0.1,0.2-0.1c0.1,0,0.1-0.1,0.2-0.1
			l0.2-0.1l0.6-0.1c0,0,0.1-0.1,0.1-0.1h0c0,0,0.1-0.1,0.1-0.1h0l1.1-0.4C246.6,323.1,246.6,323.2,246.6,323.4z"/>
		<path d="M266.3,330.3v4.5c-0.1,0-0.2,0-0.3,0h-0.3c-2.3,0-4,1-5,2.9l-0.2,1.1l-0.1,0.5v10.5h-4.3v-19.1h4.3v1.1
			c0,0.3,0,0.6,0.1,0.8c1.4-1.5,3-2.3,4.9-2.3H266.3z"/>
		<path d="M271.2,330.7h4.2v12.2c0,0.1,0.1,0.1,0.1,0.2c0,0,0.1,0.1,0.1,0.1v0c0.1,0.5,0.2,1,0.4,1.4c0.8,1.1,1.8,1.7,3.1,1.7h0.1
			c1.6-0.4,2.7-1.3,3.3-2.6v-0.2l0.3-0.8v-12h4.3v19.2h-4.3v-1.5c-1.7,1.4-3.4,2.1-5,2.1c-1.3,0-2.6-0.4-4-1.2
			c-1.1-0.8-1.8-1.8-2.3-3l-0.1-0.5c-0.1-0.3-0.2-0.7-0.2-1v-0.2c0-0.1,0-0.1,0-0.2V330.7z"/>
		<path d="M308.6,335.5l-0.8,0.3c-0.2,0.1-0.4,0.3-0.6,0.4l-0.1,0.1l-0.4,0.1c-0.2,0.2-0.4,0.2-0.6,0.3l-1.1,0.6c-1-2-2.5-3-4.4-3
			c-0.3,0-0.7,0-1.1,0.1l-0.2,0.1l-0.2,0.1l-0.8,0.4c-0.2,0.2-0.4,0.4-0.5,0.6c-0.2,0.2-0.3,0.3-0.5,0.5c-0.7,1.5-1.1,3-1.1,4.4
			c0,1.5,0.4,2.9,1.2,4.3c0.9,1.1,2,1.7,3.2,1.7c0.1,0,0.1,0,0.2,0s0.1,0,0.2,0c1.9-0.3,3.2-1.3,3.9-3l0.7,0.4l0.3,0.1
			c0.3,0.1,0.4,0.1,0.6,0.2l0.3,0.1l0.1,0.1l1.5,0.7c-1.9,3.3-4.5,5-7.8,5c-0.3,0-0.5,0-0.8,0s-0.5-0.1-0.8-0.1
			c-4.2-0.9-6.6-3.5-7.2-7.9c-0.1-0.6-0.1-1.2-0.1-1.8c0-2.1,0.5-3.9,1.4-5.6c1.5-2.6,3.7-4,6.7-4.2
			C304.2,330.6,307,332.2,308.6,335.5z"/>
		<path d="M318.8,323.4v7.3h5.1v3.7h-5.1v9.8c0,0.2,0,0.4,0,0.6s0,0.4,0.1,0.5c0.7,0.6,1.5,0.9,2.4,0.9c0.6,0,1.3-0.1,2.1-0.4
			l0.1,0.2v0.4c0,0.1,0,0.2,0.1,0.3s0,0.2,0,0.3v0.2c0,0.1,0.1,0.3,0.1,0.4s0,0.2,0,0.3l0.2,1.8c-0.7,0.2-1.4,0.3-2,0.4
			s-1.2,0.1-1.8,0.1c-2.3,0-3.9-0.7-4.9-2.2l-0.1-0.1l-0.1-0.4c-0.1-0.3-0.2-0.6-0.3-0.8v-0.2c0-0.2,0-0.5-0.1-0.7s0-0.4,0-0.6
			v-10.8h-3.4v-3.7h3.4v-6.1l0.3-0.1l0.6-0.1l0.2-0.1l0.4-0.1c0.1,0,0.1-0.1,0.2-0.1c0.1,0,0.1-0.1,0.2-0.1c0.1,0,0.1-0.1,0.2-0.1
			l0.2-0.1l0.6-0.1c0,0,0.1-0.1,0.1-0.1h0c0,0,0.1-0.1,0.1-0.1h0l1.1-0.4C318.8,323.1,318.8,323.2,318.8,323.4z"/>
		<path d="M328.1,330.7h4.2v12.2c0,0.1,0.1,0.1,0.1,0.2c0,0,0.1,0.1,0.1,0.1v0c0.1,0.5,0.2,1,0.4,1.4c0.8,1.1,1.8,1.7,3.1,1.7h0.1
			c1.6-0.4,2.7-1.3,3.3-2.6v-0.2l0.3-0.8v-12h4.3v19.2h-4.3v-1.5c-1.7,1.4-3.4,2.1-5,2.1c-1.3,0-2.6-0.4-4-1.2
			c-1.1-0.8-1.8-1.8-2.3-3l-0.1-0.5c-0.1-0.3-0.2-0.7-0.2-1v-0.2c0-0.1,0-0.1,0-0.2V330.7z"/>
		<path d="M360.5,330.3v4.5c-0.1,0-0.2,0-0.3,0h-0.3c-2.3,0-4,1-5,2.9l-0.2,1.1l-0.1,0.5v10.5h-4.3v-19.1h4.3v1.1
			c0,0.3,0,0.6,0.1,0.8c1.4-1.5,3-2.3,4.9-2.3H360.5z"/>
		<path d="M381.4,338.5l0.1,1.1c0,0.1,0.1,0.1,0.1,0.2v2.1h-12.9c0.3,2.4,1.5,3.8,3.7,4.2c0.4,0,0.7,0.1,1,0.1
			c1.8,0,3.3-0.6,4.5-1.7c0.2,0.3,0.3,0.5,0.6,0.6l0.1,0.2l0.2,0.2c0.2,0.2,0.3,0.3,0.4,0.4s0.2,0.3,0.3,0.4c0.1,0,0.1,0.1,0.1,0.1
			l1,1.1c-2.2,1.9-4.6,2.8-7.1,2.8c-0.4,0-0.9,0-1.3-0.1s-0.9-0.1-1.3-0.2c-4.1-1.3-6.3-4.3-6.7-8.7c0-0.1,0-0.2,0-0.4s0-0.3,0-0.3
			c0-6.1,2.7-9.6,8.2-10.4C377.8,330.4,380.8,333.2,381.4,338.5z M368.6,338.6h8.5v-0.2c0-0.1-0.1-0.3-0.1-0.4v-0.1
			c-0.1-0.3-0.2-0.5-0.2-0.7c-0.9-2-2.3-3-4.3-3C370,334.7,368.7,336.2,368.6,338.6z"/>
	</g>
</g>
</svg>
