<?xml version="1.0" encoding="utf-8"?>
<!-- Generator: Adobe Illustrator 17.1.0, SVG Export Plug-In . SVG Version: 6.00 Build 0)  -->
<!DOCTYPE svg PUBLIC "-//W3C//DTD SVG 1.1//EN" "http://www.w3.org/Graphics/SVG/1.1/DTD/svg11.dtd">
<svg version="1.1" id="Layer_1" xmlns="http://www.w3.org/2000/svg" xmlns:xlink="http://www.w3.org/1999/xlink" x="0px" y="0px"
	 viewBox="155.9 70.9 283.5 283.5" enable-background="new 155.9 70.9 283.5 283.5" xml:space="preserve">
<path fill="#4679BB" d="M297.6,93.7c65.6,0,118.9,53.3,118.9,118.9s-53.4,118.9-118.9,118.9s-118.9-53.3-118.9-118.9
	C178.7,147,232,93.7,297.6,93.7v-1.6c-66.5,0-120.5,54.1-120.5,120.5s54.1,120.5,120.5,120.5c66.5,0,120.5-54,120.5-120.5
	S364,92.1,297.6,92.1V93.7"/>
<path fill="#4679BB" d="M297.6,97.3c63.5,0,114.9,51.5,114.9,114.9c0,63.5-51.5,114.9-114.9,114.9c-63.5,0-114.9-51.5-114.9-114.9
	C182.7,148.8,234.2,97.3,297.6,97.3"/>
<g enable-background="new    ">
	<path fill="#FFFFFF" d="M261.4,200.6v7.6H255v14.4c0,3,0,4.6,0.2,5.2c0.2,0.4,0.4,0.8,0.8,1.2c0.4,0.4,1,0.4,1.6,0.4
		c0.8,0,2.2-0.4,3.8-1l0.8,7.4c-2.2,1-4.6,1.4-7.4,1.4c-1.8,0-3.2-0.2-4.6-0.8s-2.4-1.4-3-2.2c-0.6-1-1-2.2-1.4-3.6
		c-0.2-1.2-0.4-3.4-0.4-6.6v-15.6h-4.4v-7.6h4.4v-7.2l9.6-5.6v12.6L261.4,200.6L261.4,200.6z"/>
	<path fill="#FFFFFF" d="M275,211.6l-8.6-1.6c1-3.4,2.6-6,5-7.6s5.8-2.4,10.6-2.4c4.2,0,7.4,0.6,9.4,1.6s3.6,2.2,4.4,3.8
		c0.8,1.6,1.2,4.4,1.2,8.4l-0.2,11c0,3.2,0.2,5.4,0.4,7c0.4,1.4,0.8,3,1.8,4.8h-9.4c-0.2-0.6-0.6-1.6-1-2.8c-0.2-0.6-0.2-1-0.4-1.2
		c-1.6,1.6-3.4,2.8-5.2,3.6s-3.8,1.2-5.8,1.2c-3.6,0-6.6-1-8.8-3c-2.2-2-3.2-4.6-3.2-7.6c0-2,0.4-3.8,1.4-5.4c1-1.6,2.4-2.8,4-3.6
		c1.8-0.8,4.2-1.6,7.6-2.2c4.4-0.8,7.4-1.6,9.2-2.4v-1c0-1.8-0.4-3.2-1.4-3.8c-1-0.6-2.6-1.2-5-1.2c-1.6,0-3,0.4-4,1
		C276,208.8,275.6,210,275,211.6z M287.8,219.2c-1.2,0.4-3.2,0.8-5.8,1.4c-2.6,0.6-4.4,1.2-5.2,1.6c-1.2,0.8-1.8,2-1.8,3.4
		s0.4,2.4,1.4,3.4c1,1,2.2,1.4,3.8,1.4c1.8,0,3.4-0.6,4.8-1.6c1.2-0.8,1.8-1.8,2.2-3.2c0.2-0.8,0.4-2.4,0.4-4.6L287.8,219.2
		L287.8,219.2z"/>
	<path fill="#FFFFFF" d="M301.8,236.4l13-18.4l-12.4-17.4H314l6.4,9.8l6.6-9.8h11.2l-12.2,17l13.2,18.8h-11.6l-7.2-11l-7.4,11H301.8
		L301.8,236.4z"/>
	<path fill="#FFFFFF" d="M344.8,195.8V187h9.4v8.8H344.8z M344.8,236.4v-35.8h9.4v35.8H344.8z"/>
</g>
</svg>
