<?xml version="1.0" encoding="utf-8"?>
<!-- Generator: Adobe Illustrator 17.1.0, SVG Export Plug-In . SVG Version: 6.00 Build 0)  -->
<!DOCTYPE svg PUBLIC "-//W3C//DTD SVG 1.1//EN" "http://www.w3.org/Graphics/SVG/1.1/DTD/svg11.dtd">
<svg version="1.1" id="Layer_1" xmlns="http://www.w3.org/2000/svg" xmlns:xlink="http://www.w3.org/1999/xlink" x="0px" y="0px"
	 viewBox="155.9 70.9 283.5 283.5" enable-background="new 155.9 70.9 283.5 283.5" xml:space="preserve">
<path fill="#ED1C24" d="M212.4,297.8c47.1,47.1,123.4,47.1,170.5,0c47.1-47,47.1-123.4,0-170.4c-47.1-47.1-123.4-47.1-170.5,0
	C165.4,174.4,165.4,250.8,212.4,297.8"/>
<path fill="#4679BB" d="M229.5,280.8c37.7,37.7,98.8,37.7,136.4,0c37.7-37.7,37.7-98.8,0-136.4c-37.6-37.7-98.7-37.7-136.4,0
	C191.8,182.1,191.8,243.1,229.5,280.8z"/>
<polygon fill="#ED1C24" points="383.7,145.2 365,126.6 297.6,193.9 230.3,126.6 211.6,145.2 278.9,212.6 211.6,280 230.3,298.6 
	297.6,231.3 365,298.6 383.7,280 316.4,212.6 "/>
</svg>
