<?xml version="1.0" encoding="utf-8"?>
<!-- Generator: Adobe Illustrator 17.1.0, SVG Export Plug-In . SVG Version: 6.00 Build 0)  -->
<!DOCTYPE svg PUBLIC "-//W3C//DTD SVG 1.1//EN" "http://www.w3.org/Graphics/SVG/1.1/DTD/svg11.dtd">
<svg version="1.1" id="Layer_1" xmlns="http://www.w3.org/2000/svg" xmlns:xlink="http://www.w3.org/1999/xlink" x="0px" y="0px"
	 viewBox="85 141.7 425.2 141.7" enable-background="new 85 141.7 425.2 141.7" xml:space="preserve">
<g>
	<path fill="#FFFFFF" d="M398.1,246.5c0,9.3-7.6,16.8-16.8,16.8c-126.1,0-41.1,0-167.2,0c-9.3,0-16.9-7.5-16.9-16.8
		c0-22.5,0-45.1,0-67.6c0-9.3,7.6-16.9,16.9-16.9c126.1,0,41.1,0,167.2,0c9.2,0,16.8,7.6,16.8,16.9
		C398.1,201.4,398.1,223.9,398.1,246.5"/>
	<path fill="#4679BB" d="M399,246.5v-67.6c0-9.8-7.9-17.8-17.7-17.8H214.1c-9.8,0-17.8,8-17.8,17.8v67.6c0,9.8,8,17.7,17.8,17.7
		h167.2C391.1,264.2,399,256.2,399,246.5z"/>
	<path fill="#FFFFFF" d="M397.2,246.5c0,8.7-7.1,15.9-15.9,15.9H214.1c-8.8,0-16-7.1-16-15.9v-67.6c0-8.8,7.2-16,16-16h167.2
		c8.8,0,15.9,7.2,15.9,16V246.5"/>
	<path fill="#4679BB" d="M389.6,246.2c0,4.7-3.9,8.6-8.6,8.6c-125.8,0-40.7,0-166.6,0c-4.7,0-8.6-3.9-8.6-8.6c0-22.4,0-44.8,0-67.3
		c0-4.6,3.9-8.4,8.6-8.4c125.8,0,40.7,0,166.6,0c4.7,0,8.6,3.9,8.6,8.4C389.6,201.4,389.6,223.8,389.6,246.2"/>
	<g>
		<polygon fill="#FFFFFF" points="235.4,194.9 249.4,194.9 249.4,237.8 258.6,237.8 258.6,194.9 272.5,194.9 272.5,186.5 
			235.4,186.5 		"/>
		<path fill="#FFFFFF" d="M309,208.4c-3.6-5.7-9.1-8.6-16.3-8.6c-0.4,0-0.8,0-1.2,0c-10.7,2.4-15.9,9.8-15.3,22
			c0.3,6,3.1,10.8,8.2,14.4c2.7,1.8,5.8,2.7,9.2,2.7c1.7,0,3.4-0.2,5.2-0.7c6.2-1.7,10.2-5.9,11.7-12.5
			C312,220.1,311.5,214.3,309,208.4L309,208.4z"/>
		<path fill="#4679BB" d="M302.5,222.3c-0.6,5.1-3.5,7.8-8.8,8.3c-5.2-0.5-8.1-3.6-8.8-9.5c-0.6-7.1,2.1-11.5,8.2-13.1
			c3.5,0.3,6.1,1.4,7.7,3.4c0.4,0.5,0.8,1.2,1.1,1.8c0.1,0.2,0.2,0.5,0.2,0.7C302.8,216.1,303,218.9,302.5,222.3z"/>
		<path fill="#FFFFFF" d="M337.3,234.5l-0.1-0.3v-0.8l-0.3-1.9l-0.1-0.4v-1l-0.3,0.1c-3.3,0.8-5.7,0.3-7.1-1.3
			c-0.3-1.4-0.3-3.2-0.3-5.4v-37h-8.5v20l0,24.6c0.1,0.3,0.1,0.6,0.1,1l0,0.1c1.5,4.3,4.9,6.5,10.1,6.5c1.9,0,4.2-0.3,6.6-0.9
			l0.2-0.1l-0.4-2.4L337.3,234.5z"/>
		<path fill="#FFFFFF" d="M359.7,234.5l-0.1-0.3v-0.8l-0.3-1.9l-0.1-0.4v-1l-0.3,0.1c-3.3,0.8-5.7,0.3-7.1-1.3
			c-0.3-1.4-0.3-3.2-0.3-5.4v-37H343v20l0,24.6c0.1,0.3,0.1,0.6,0.1,1l0,0.1c1.5,4.3,4.9,6.5,10.1,6.5c1.9,0,4.2-0.3,6.6-0.9
			l0.2-0.1l-0.4-2.4V234.5z"/>
	</g>
</g>
</svg>
