<?xml version="1.0" encoding="utf-8"?>
<!-- Generator: Adobe Illustrator 17.1.0, SVG Export Plug-In . SVG Version: 6.00 Build 0)  -->
<!DOCTYPE svg PUBLIC "-//W3C//DTD SVG 1.1//EN" "http://www.w3.org/Graphics/SVG/1.1/DTD/svg11.dtd">
<svg version="1.1" id="Layer_1" xmlns="http://www.w3.org/2000/svg" xmlns:xlink="http://www.w3.org/1999/xlink" x="0px" y="0px"
	 viewBox="85 141.7 425.2 141.7" enable-background="new 85 141.7 425.2 141.7" xml:space="preserve">
<g>
	<path fill="#FFFFFF" d="M503.6,246.5c0,9.3-7.6,16.8-16.8,16.8c-126.1,0-252.1,0-378.2,0c-9.3,0-16.9-7.5-16.9-16.8
		c0-22.5,0-45.1,0-67.6c0-9.3,7.6-16.9,16.9-16.9c126.1,0,252.1,0,378.2,0c9.2,0,16.8,7.6,16.8,16.9
		C503.6,201.4,503.6,223.9,503.6,246.5"/>
	<path fill="#4679BB" d="M504.5,246.5v-67.6c0-9.8-7.9-17.8-17.7-17.8H108.6c-9.8,0-17.8,8-17.8,17.8v67.6c0,9.8,8,17.7,17.8,17.7
		h378.2C496.6,264.2,504.5,256.2,504.5,246.5z"/>
	<path fill="#FFFFFF" d="M502.7,246.5c0,8.7-7.1,15.9-15.9,15.9H108.6c-8.8,0-16-7.1-16-15.9v-67.6c0-8.8,7.2-16,16-16h378.2
		c8.8,0,15.9,7.2,15.9,16V246.5"/>
	<path fill="#4679BB" d="M495.1,246.2c0,4.7-3.9,8.6-8.6,8.6c-125.8,0-251.7,0-377.6,0c-4.7,0-8.6-3.9-8.6-8.6c0-22.4,0-44.8,0-67.3
		c0-4.6,3.9-8.4,8.6-8.4c125.8,0,251.7,0,377.6,0c4.7,0,8.6,3.9,8.6,8.4C495.1,201.4,495.1,223.8,495.1,246.2"/>
	<polygon fill="#FFFFFF" points="147.7,194.7 161.7,194.7 161.7,237.7 170.9,237.7 170.9,194.7 184.8,194.7 184.8,186.3 
		147.7,186.3 	"/>
	<path fill="#FFFFFF" d="M221.3,208.2c-3.6-5.7-9.1-8.6-16.3-8.6c-0.4,0-0.8,0-1.2,0c-10.7,2.4-15.9,9.8-15.3,22
		c0.3,6,3.1,10.8,8.2,14.4c2.7,1.8,5.8,2.7,9.2,2.7c1.7,0,3.4-0.2,5.2-0.7c6.2-1.7,10.2-5.9,11.7-12.5
		C224.3,220,223.8,214.2,221.3,208.2L221.3,208.2z"/>
	<path fill="#4679BB" d="M214.8,222.1c-0.6,5.1-3.5,7.8-8.8,8.3c-5.2-0.5-8.1-3.6-8.8-9.5c-0.6-7.1,2.1-11.5,8.2-13.1
		c3.5,0.3,6.1,1.4,7.7,3.4c0.4,0.5,0.8,1.2,1.1,1.8c0.1,0.2,0.2,0.5,0.2,0.7C215.1,216,215.3,218.8,214.8,222.1z"/>
	<path fill="#FFFFFF" d="M249.7,234.4l-0.1-0.3v-0.8l-0.3-1.9l-0.1-0.4v-1l-0.3,0.1c-3.3,0.8-5.7,0.3-7.1-1.3
		c-0.3-1.4-0.3-3.2-0.3-5.4v-37H233v20l0,24.6c0.1,0.3,0.1,0.6,0.1,1l0,0.1c1.5,4.3,4.9,6.5,10.1,6.5c1.9,0,4.2-0.3,6.6-0.9l0.2-0.1
		l-0.4-2.4L249.7,234.4z"/>
	<path fill="#FFFFFF" d="M272,234.4l-0.1-0.3v-0.8l-0.3-1.9l-0.1-0.4v-1l-0.3,0.1c-3.3,0.8-5.7,0.3-7.1-1.3
		c-0.3-1.4-0.3-3.2-0.3-5.4v-37h-8.5v20l0,24.6c0.1,0.3,0.1,0.6,0.1,1l0,0.1c1.5,4.3,4.9,6.5,10.1,6.5c1.9,0,4.2-0.3,6.6-0.9
		l0.2-0.1l-0.4-2.4V234.4z"/>
	<path fill="#FFFFFF" d="M307.9,204.3c-0.1-0.5-0.1-1-0.1-1.7V201h-8.5v36.6h8.5l0-20.1l0.1-0.9l0.4-2.1c2.1-3.8,5.5-5.7,10.4-5.3
		l0.2,0v-8.9h-1.9C313.5,200.2,310.5,201.6,307.9,204.3z"/>
	<path fill="#FFFFFF" d="M358.6,208.2c-3.6-5.7-9.1-8.6-16.3-8.6c-0.4,0-0.8,0-1.2,0c-10.7,2.4-15.9,9.8-15.3,22
		c0.3,6,3.1,10.8,8.2,14.4c2.7,1.8,5.8,2.7,9.2,2.7c1.7,0,3.4-0.2,5.2-0.7c6.2-1.7,10.2-5.9,11.7-12.5
		C361.6,220,361.1,214.2,358.6,208.2L358.6,208.2z"/>
	<path fill="#4679BB" d="M352.1,222.1c-0.6,5.1-3.5,7.8-8.8,8.3c-5.2-0.5-8.1-3.6-8.9-9.5c-0.6-7.1,2.1-11.5,8.2-13.1
		c3.5,0.3,6.1,1.4,7.7,3.4c0.4,0.5,0.8,1.2,1.1,1.8c0.1,0.2,0.2,0.5,0.3,0.7C352.4,216,352.6,218.8,352.1,222.1z"/>
	<path fill="#FFFFFF" d="M398,229.6v-17.5c0-0.8-0.1-1.8-0.3-3c-0.3-1.4-1-2.7-2-4l-0.4-0.8l0-0.1c-3.3-3.3-7.6-4.7-13.1-4l-2.9,0.5
		c-0.7,0-1.5,0.2-2.3,0.5l-1,0.3c-0.4,0-0.9,0.2-1.3,0.4l-0.7,0.1c-0.6,0.2-1.3,0.5-2.1,0.9c0,0,0,0,0,0c-0.1,0-0.2,0-0.3,0.1h-0.4
		l-0.3,0.3l-0.4,0.1l-0.2,0.1l-0.6,0.2l0.1,0.2c0.2,0.6,0.5,1.3,0.9,1.9c0.1,0.4,0.3,0.8,0.5,1.2l0.3,0.8l0.1,0.3l0.3,0.3l0.3,0.8
		l0.6,1.4l0.2-0.1c7.6-2.9,12.7-3.5,15.1-1.7c1.3,1,1.9,2.8,1.7,5.4l-3.1,0.4h-0.4l-0.4,0.1h-0.9l-0.4,0.1c-0.2,0-0.4,0.1-0.7,0.1
		c0,0-0.1,0-0.1,0c-5.4,0-9.5,1.3-12,3.8c-2.2,2.2-3.3,5.4-3.2,9.5c1,4.6,4,7.8,8.8,9.5c4.8,1.6,9.5,0.9,13.8-2.2h0.2
		c1.5,1.7,3.6,2.9,6.2,3.6l0.1,0l0.1-0.1c0.3-0.5,0.7-1.1,1.1-2c0.5-0.4,0.9-1.1,1.2-1.9c0.3-0.3,0.6-0.7,0.8-1.2l0.2-0.2l0.2-0.4
		c0.1-0.1,0.2-0.2,0.3-0.3l0.4-0.7l-0.3-0.1C399.9,232,398.8,231.1,398,229.6z"/>
	<path fill="#4679BB" d="M389.5,228.2c-0.2,0.2-0.4,0.6-0.5,1c-3.4,2.9-6.8,3.2-10.6,0.9c-1.1-1.1-1.7-2.2-1.7-3.3
		c0-1.2,0.7-2.5,2.1-3.8c0.4-0.1,1-0.3,1.5-0.6l0.4,0l2.1-0.5h0.4c0.2,0,0.3,0,0.5-0.1l0.4,0l0.5-0.1c0.1,0,0.1,0,0.2,0
		c0.3,0,0.7-0.1,1.1-0.1h0.8c0.2,0,0.3,0,0.5-0.1h2.4l0,6.1l0.1,0.5L389.5,228.2z"/>
	<path fill="#FFFFFF" d="M433.3,186.6v16.5c-4.2-3.2-9-3.7-14.5-1.8c-5.5,2.3-9,6.8-10.4,13.3c-1.8,12.7,2.9,20.7,14,23.8
		c0.7,0.1,1.3,0.1,2,0.1c3.1,0,6.1-1.1,8.8-3.3c0.1,0.5,0.1,1.1,0.1,1.7v0.6h8.7v-51.1L433.3,186.6L433.3,186.6L433.3,186.6z"/>
	<path fill="#4679BB" d="M430.9,228c-1.7,1.5-4.5,1.9-8.2,1.3c-3.2-1.8-5.1-4.8-5.8-8.9c-0.4-6.1,2.2-10.1,7.7-11.9
		c3.2,0.1,5.5,1,7,2.7c1.7,1.9,2.2,5,1.7,9.1C433.3,223.9,432.6,226.5,430.9,228z"/>
</g>
</svg>
