<?xml version="1.0" encoding="utf-8"?>
<!-- Generator: Adobe Illustrator 17.1.0, SVG Export Plug-In . SVG Version: 6.00 Build 0)  -->
<!DOCTYPE svg PUBLIC "-//W3C//DTD SVG 1.1//EN" "http://www.w3.org/Graphics/SVG/1.1/DTD/svg11.dtd">
<svg version="1.1" id="Layer_1" xmlns="http://www.w3.org/2000/svg" xmlns:xlink="http://www.w3.org/1999/xlink" x="0px" y="0px"
	 viewBox="155.9 70.9 283.5 283.5" enable-background="new 155.9 70.9 283.5 283.5" xml:space="preserve">
<g>
	<polyline fill="#FFFFFF" points="241.9,317.6 176.9,317.6 297.2,107 419.5,317.6 241.9,317.6 	"/>
	<path fill="#ED1C24" d="M415.7,332.8c6.4,0,12.3-3.4,15.5-9c3.3-5.6,3.3-12.4,0-18l-118-204.3c-3.2-5.6-9.1-9-15.6-9
		c-6.4,0-12.4,3.5-15.6,9L164,305.7c-3.2,5.6-3.2,12.4,0,18c3.2,5.6,9.2,9,15.6,9L415.7,332.8"/>
	<polygon fill="#FFFFFF" points="190,308.7 405.2,308.7 297.6,122.5 	"/>
	<path fill="#1F1D1E" d="M377.4,286.8v12.1H217v-12.1h23c0,0,0.1,0,0.1,0c4.1,0,8-1.6,11-4.3l0.1,0.1c12.6-11.5,29-17.9,46-17.9
		c16.8,0,33,6.2,45.5,17.5l0,0c3,2.9,6.9,4.6,11.1,4.7L377.4,286.8"/>
</g>
</svg>
