<?xml version="1.0" encoding="utf-8"?>
<!-- Generator: Adobe Illustrator 17.1.0, SVG Export Plug-In . SVG Version: 6.00 Build 0)  -->
<!DOCTYPE svg PUBLIC "-//W3C//DTD SVG 1.1//EN" "http://www.w3.org/Graphics/SVG/1.1/DTD/svg11.dtd">
<svg version="1.1" id="Layer_1" xmlns="http://www.w3.org/2000/svg" xmlns:xlink="http://www.w3.org/1999/xlink" x="0px" y="0px"
	 viewBox="155.9 70.9 283.5 283.5" enable-background="new 155.9 70.9 283.5 283.5" xml:space="preserve">
<g>
	<circle fill="#FFFFFF" stroke="#0079C1" cx="297.6" cy="212.6" r="120.5"/>
	<circle fill="#0079C1" cx="297.6" cy="212.6" r="115.9"/>
	<g>
		<path fill="#FFFFFF" d="M333.6,246.1c0,0,0.4,6.5,6.9,6.5s6.9-6.5,6.9-6.5h9.3c0,0,0.4,6.5,6.9,6.5c6.5,0,6.9-6.5,6.9-6.5h9.9
			v-3.3h16.7v-30.1l-5.6-22.4c-1.1-4.4-5.3-4.3-5.3-4.3h-65.5l-1.9-2c-1.6-1.6-3.1-1.3-3.1-1.3h-13.4l16.4-11.7l-16.9-11.8v-3.5
			c0-1.6-1.2-2.8-2.8-2.8h-2.4c-1.6,0-2.8,1.2-2.8,2.8v3.5l-17.1,11.8l16.4,11.7h-13.4c0,0-1.5-0.3-3.1,1.3l-1.9,2h-65.5
			c0,0-4.2-0.1-5.3,4.3l-5.6,22.4v30.1H215v3.3h9.9c0,0,0.4,6.5,6.9,6.5s6.9-6.5,6.9-6.5h9.3c0,0,0.4,6.5,6.9,6.5
			c6.5,0,6.9-6.5,6.9-6.5H333.6z"/>
		<path fill="#0079C1" d="M279.3,212.8c1.6,0,2.8-1.2,2.8-2.8v-12.8c0-1.6-1.2-2.8-2.8-2.8h-17.5c-1.6,0-2.8,1.2-2.8,2.8v12.8
			c0,1.6,1.2,2.8,2.8,2.8H279.3z"/>
		<path fill="#0079C1" d="M216.8,212.8c1.6,0,2.8-1.2,2.8-2.8v-12.8c0-1.6-1.2-2.8-2.8-2.8l-4.9,0.1c-2.6,0-2.9,2.7-2.9,2.7
			l-3.4,12.8c0,1.6,1.2,2.8,2.8,2.8H216.8z"/>
		<path fill="#0079C1" d="M251.9,239.5c1.6,0,2.8-1.2,2.8-2.8v-39.5c0-1.6-1.2-2.8-2.8-2.8h-7.7c-1.6,0-2.8,1.2-2.8,2.8v39.5
			c0,1.6,1.2,2.8,2.8,2.8H251.9z"/>
		<path fill="#0079C1" d="M235.3,239.5c1.6,0,2.8-1.2,2.8-2.8v-39.5c0-1.6-1.2-2.8-2.8-2.8h-7.7c-1.6,0-2.8,1.2-2.8,2.8v39.5
			c0,1.6,1.2,2.8,2.8,2.8H235.3z"/>
		<polygon fill="#0079C1" points="297.6,159.6 314,171.1 297.6,182.7 281.2,171.1 		"/>
		<path fill="#0079C1" d="M315.9,212.8c-1.6,0-2.8-1.2-2.8-2.8v-12.8c0-1.6,1.2-2.8,2.8-2.8h17.5c1.6,0,2.8,1.2,2.8,2.8v12.8
			c0,1.6-1.2,2.8-2.8,2.8H315.9z"/>
		<path fill="#0079C1" d="M378.4,212.8c-1.6,0-2.8-1.2-2.8-2.8v-12.8c0-1.6,1.2-2.8,2.8-2.8l4.9,0.1c2.6,0,2.9,2.7,2.9,2.7l3.4,12.8
			c0,1.6-1.2,2.8-2.8,2.8H378.4z"/>
		<path fill="#0079C1" d="M343.2,239.5c-1.6,0-2.8-1.2-2.8-2.8v-39.5c0-1.6,1.2-2.8,2.8-2.8h7.7c1.6,0,2.8,1.2,2.8,2.8v39.5
			c0,1.6-1.2,2.8-2.8,2.8H343.2z"/>
		<path fill="#0079C1" d="M359.9,239.5c-1.6,0-2.8-1.2-2.8-2.8v-39.5c0-1.6,1.2-2.8,2.8-2.8h7.7c1.6,0,2.8,1.2,2.8,2.8v39.5
			c0,1.6-1.2,2.8-2.8,2.8H359.9z"/>
		<path fill="#0079C1" d="M306.3,212.8c1.6,0,2.8-1.2,2.8-2.8v-12.8c0-1.6-1.2-2.8-2.8-2.8h-17.5c-1.6,0-2.8,1.2-2.8,2.8v12.8
			c0,1.6,1.2,2.8,2.8,2.8H306.3z"/>
	</g>
</g>
</svg>
