<?xml version="1.0" encoding="utf-8"?>
<!-- Generator: Adobe Illustrator 17.1.0, SVG Export Plug-In . SVG Version: 6.00 Build 0)  -->
<!DOCTYPE svg PUBLIC "-//W3C//DTD SVG 1.1//EN" "http://www.w3.org/Graphics/SVG/1.1/DTD/svg11.dtd">
<svg version="1.1" id="Layer_1" xmlns="http://www.w3.org/2000/svg" xmlns:xlink="http://www.w3.org/1999/xlink" x="0px" y="0px"
	 viewBox="155.9 70.9 283.5 283.5" enable-background="new 155.9 70.9 283.5 283.5" xml:space="preserve">
<g>
	<g>
		<polyline fill-rule="evenodd" clip-rule="evenodd" fill="#FFFFFF" points="223.1,316.9 174,316.9 296.2,105 419,316.9 
			223.1,316.9 		"/>
		<path fill-rule="evenodd" clip-rule="evenodd" fill="#EC1C24" d="M415.7,332.8c6.4-0.1,12.4-3.5,15.6-9.1c3.2-5.6,3.2-12.5,0-18
			l-118-204.4c-3.2-5.6-9.2-9-15.6-9c-6.4,0-12.4,3.4-15.6,9L164,305.7c-3.2,5.6-3.2,12.5,0,18c3.3,5.6,9.2,9,15.7,9L415.7,332.8"/>
		<polygon fill-rule="evenodd" clip-rule="evenodd" fill="#FFFFFF" points="190,308.7 405.2,308.7 297.7,122.4 		"/>
	</g>
	<path fill-rule="evenodd" clip-rule="evenodd" fill="#1A1718" d="M257.8,252.7L257.8,252.7C257.8,252.7,257.8,252.7,257.8,252.7
		c0-18.9,13.2-35.2,31.7-39.1l0.3,2c-17.5,3.8-29.9,19.3-29.9,37.2L257.8,252.7"/>
	<path fill-rule="evenodd" clip-rule="evenodd" fill="#1A1718" d="M336,252.7c0-17.9-12.5-33.3-29.9-37.2l0.3-2
		c18.5,4,31.7,20.3,31.7,39.1c0,0,0,0,0,0.1H336"/>
	<path fill-rule="evenodd" clip-rule="evenodd" fill="#1A1718" d="M305.8,217.5c-2.4-0.6-6.3-0.9-7.9-0.9c-1.5,0-5.7,0.3-7.8,0.8
		l-2.2-14.8h20L305.8,217.5z"/>
	<path fill-rule="evenodd" clip-rule="evenodd" fill="#FFFFFF" d="M304.1,215.2c-1.5-0.2-4.4-0.5-6.1-0.5c-1.7,0-4.4,0.1-6.3,0.5
		l-1.5-10.5h15.4L304.1,215.2"/>
	<polyline fill-rule="evenodd" clip-rule="evenodd" fill="#1A1718" points="261.1,206.7 243.9,237.1 241.8,236.7 259.9,204.6 
		261.1,206.7 	"/>
	<polyline fill-rule="evenodd" clip-rule="evenodd" fill="#1A1718" points="334.8,206.7 352,237.1 354.1,236.7 336.1,204.6 
		334.8,206.7 	"/>
	<rect x="259.9" y="204.6" fill="#1A1718" width="30" height="2"/>
	<rect x="306" y="204.6" fill="#1A1718" width="30.1" height="2"/>
	<rect x="241.8" y="236.7" fill="#1A1718" width="2.1" height="64.1"/>
	<rect x="352" y="236.7" fill="#1A1718" width="2.1" height="64.1"/>
	<rect x="241.8" y="298.8" fill="#1A1718" width="112.3" height="2"/>
	<rect x="336.1" y="252.7" fill="#1A1718" width="2" height="46.1"/>
	<rect x="257.8" y="252.7" fill="#1A1718" width="2.1" height="46.1"/>
	<rect x="243.9" y="252.7" fill="#1A1718" width="14" height="2"/>
	<rect x="243.9" y="264.2" fill="#1A1718" width="14" height="2"/>
	<rect x="243.9" y="275.7" fill="#1A1718" width="14" height="2.1"/>
	<rect x="243.9" y="287.2" fill="#1A1718" width="14" height="2"/>
	<rect x="338" y="252.7" fill="#1A1718" width="14" height="2"/>
	<rect x="338" y="264.2" fill="#1A1718" width="14" height="2"/>
	<rect x="338" y="275.7" fill="#1A1718" width="14" height="2.1"/>
	<rect x="338" y="287.2" fill="#1A1718" width="14" height="2"/>
	<polyline fill-rule="evenodd" clip-rule="evenodd" fill="#1A1718" points="259.2,207.1 272.1,223.3 273.7,222.1 260.5,205.5 
		259.2,207.1 	"/>
	<polyline fill-rule="evenodd" clip-rule="evenodd" fill="#1A1718" points="336.7,207.1 323.8,223.3 322.2,222.1 335.4,205.5 
		336.7,207.1 	"/>
	<polyline fill-rule="evenodd" clip-rule="evenodd" fill="#1A1718" points="275.6,205.8 281.7,217.3 279.9,218.2 273.4,205.8 
		275.6,205.8 	"/>
	<polyline fill-rule="evenodd" clip-rule="evenodd" fill="#1A1718" points="320.3,205.8 314.3,217.2 316,218.1 322.5,205.8 
		320.3,205.8 	"/>
	<polyline fill-rule="evenodd" clip-rule="evenodd" fill="#1A1718" points="242.9,239.1 259.9,243.9 260.4,242.1 242.9,237 
		242.9,239.1 	"/>
	<polyline fill-rule="evenodd" clip-rule="evenodd" fill="#1A1718" points="353.2,239 336.1,243.9 335.6,242 353.1,237 353.2,239 	
		"/>
	<polyline fill-rule="evenodd" clip-rule="evenodd" fill="#1A1718" points="264.5,232.9 250,224.3 251,222.7 265.5,231.2 
		264.5,232.9 	"/>
	<polyline fill-rule="evenodd" clip-rule="evenodd" fill="#1A1718" points="331.6,232.8 346.1,224.2 345.1,222.5 330.6,231.1 
		331.6,232.8 	"/>
	<path fill-rule="evenodd" clip-rule="evenodd" fill="#1A1718" d="M265.9,252.7L265.9,252.7C265.9,252.7,265.9,252.7,265.9,252.7
		c0-17.7,14.4-32,32.1-32c17.7,0,32.1,14.4,32.1,32c0,0,0,0,0,0v46.1h-64.2V252.7"/>
</g>
</svg>
