<?xml version="1.0" encoding="utf-8"?>
<!-- Generator: Adobe Illustrator 17.1.0, SVG Export Plug-In . SVG Version: 6.00 Build 0)  -->
<!DOCTYPE svg PUBLIC "-//W3C//DTD SVG 1.1//EN" "http://www.w3.org/Graphics/SVG/1.1/DTD/svg11.dtd">
<svg version="1.1" id="Layer_1" xmlns="http://www.w3.org/2000/svg" xmlns:xlink="http://www.w3.org/1999/xlink" x="0px" y="0px"
	 viewBox="85 70.9 425.2 283.5" enable-background="new 85 70.9 425.2 283.5" xml:space="preserve">
<g>
	<path fill="#FFFFFF" stroke="#0079C1" d="M478.7,301.3c0,12.5-10.1,22.6-22.6,22.6h-317c-12.5,0-22.6-10.1-22.6-22.6V123.9
		c0-12.5,10.1-22.6,22.6-22.6h317c12.5,0,22.6,10.1,22.6,22.6V301.3z"/>
	<path fill="#0079C1" d="M468,301.3c0,6.5-5.3,11.9-11.9,11.9h-317c-6.5,0-11.9-5.3-11.9-11.9V123.9c0-6.5,5.3-11.9,11.9-11.9h317
		c6.5,0,11.9,5.3,11.9,11.9V301.3z"/>
	<g>
		<path fill="#FFFFFF" d="M175,167.1c6.3,0,8.7-6.1,8.7-10.3v-24.2h6.5V158c0,8.1-5.9,15.2-15.2,15.2c-9.1,0-15.8-6.3-15.8-15.2
			v-25.3h6.7v24.2C166.1,162.5,170,167.1,175,167.1z"/>
		<path fill="#FFFFFF" d="M223.9,152.8v19.6h-6.3v-18.2c0-1-1.6-4.8-4.9-4.8c-3.2,0-5.9,3-5.9,5.9v17h-6.3v-28.3h6.3v2.6
			c2.2-3.2,7.7-3.2,7.7-3.2C219.1,143.3,223.9,147.5,223.9,152.8z"/>
		<path fill="#FFFFFF" d="M236.6,151.8c0,1.4,1.6,2.6,4.2,3c4.9,1,4.4,1,5.9,1.6c3.2,1.2,4.9,3.6,4.9,7.5c0,4.8-4,9.1-10.1,9.1
			c-4.4,0-7.1-0.8-12.5-5.1l4-4c2.8,2.6,4.9,3.4,7.7,3.4c3,0,4.6-1,4.6-3c0-2.2-1.2-2.2-7.1-3.8c-7.1-2-7.7-5.7-7.7-8.5
			c0-4,3-8.9,11.1-8.9c0,0,5.9,0,9.9,4.2l-3.4,4.4c-3-3-6.5-3-6.5-3C238.5,148.6,236.6,150,236.6,151.8z"/>
		<path fill="#FFFFFF" d="M259.1,163.7v-19.4h6.1v18.2c0,1.8,0.8,4.9,4.9,4.9c3,0,5.7-3.4,5.7-6.1v-17h6.3v28.1H276v-2.6
			c-2,3.4-7.5,3.4-7.5,3.4C262.7,173.2,259.1,169.4,259.1,163.7z"/>
		<rect x="291.6" y="144.1" fill="#FFFFFF" width="6.3" height="28.3"/>
		<path fill="#FFFFFF" d="M290.8,136.4c0-2,1.8-3.8,3.8-3.8c2.2,0,4,1.8,4,3.8c0,2.2-1.8,4-3.8,4
			C292.6,140.3,290.8,138.5,290.8,136.4z"/>
		<path fill="#FFFFFF" d="M309.8,144.1V135l6.1-2.6v11.5h7.3v5.1H316v14.7c0,2.2,1,3.2,2.8,3.2c0,0,2.6,0,4.2-0.6l0.6,5.5
			c-3,0.8-6.5,0.8-6.5,0.8c-5.1,0-7.1-2.6-7.1-8.7V149h-4.9v-5.1h4.9V144.1z"/>
		<path fill="#FFFFFF" d="M338.5,172.8c-5.5,0-10.5-4-10.5-9.3c0-3.4,3-7.9,9.1-8.7l7.7-0.8v-1.2c0-2.6-1.2-4.2-4.4-4.2
			c0,0-4.6,0-8.9,2.2l-2.4-4.8c3.4-2,8.1-3,11.5-3c9.1,0,10.3,7.7,10.3,9.3v12.9c0,1.4,0.6,2.2,2.4,3l-2.8,4.9
			c-2.8-1-3.6-1.4-4.8-2.8C342.7,172.8,338.5,172.8,338.5,172.8z"/>
		<path fill="#0079C1" d="M334.4,163.9c0,2.2,2.4,4,4.9,4c3.2,0,5.5-1.8,5.5-4v-4.8l-6.3,0.6C335.8,160.1,334.4,161.9,334.4,163.9z"
			/>
		<path fill="#FFFFFF" d="M361.5,132.6h6.3v13.9c1.8-2.2,4.2-3,7.5-3c7.5,0,12.3,6.1,12.3,14.7c0,11.7-9.1,14.7-12.1,14.7
			c0,0-4.6,0-7.7-2.8v2.4h-6.3V132.6z"/>
		<path fill="#FFFFFF" d="M403.5,166.9c0,0,1.2,0,3.4-0.4l0.8,5.5c-2.6,0.4-5.5,0.4-5.5,0.4c-5.9,0.6-7.3-2.4-7.3-9.3v-30.5h6.3
			v30.1C400.9,165.9,401.5,166.9,403.5,166.9z"/>
		<path fill="#FFFFFF" d="M410.6,158.2c0-8.9,5.3-14.7,13.3-14.7c7.5,0,12.3,5.5,12.3,16c0,0.6,0,1,0,1h-19c0.6,4.4,3,6.5,7.1,6.5
			c0,0,4.2,0,6.7-2.8l3.8,4.8c-4,4.2-10.3,4.2-10.3,4.2C415.9,173.2,410.6,167.5,410.6,158.2z"/>
		<path fill="#0079C1" d="M417.3,155.6H430c-0.2-4.2-2.4-6.9-5.9-6.9C420.5,148.8,417.7,150.8,417.3,155.6z"/>
		<path fill="#0079C1" d="M374,149.2c-3,0-6.3,3-6.3,6.1v5.1c0,3.4,3.6,5.9,6.5,5.9c3.6,0,6.9-3.8,6.9-8.5
			C381.1,153.4,377.9,149.2,374,149.2z"/>
	</g>
	<g>
		<path fill="#FFFFFF" d="M155.3,198.3v2.6h5.1v5.3h-5.1v23H149v-23h-4.6v-5.5h4.6v-5.1c0-4.2,4.2-6.3,8.3-6.3
			c1.6,0,3.2,0.2,4.8,0.6l-0.6,5.1c-2,0-3,0-3,0C156.3,195,155.3,196.2,155.3,198.3z"/>
		<path fill="#FFFFFF" d="M166.4,215c0-8.9,5.1-15,13.7-15c8.3,0,13.5,6.1,13.5,15c0,10.1-6.5,14.8-13.5,14.8
			C172.2,229.8,166.4,223.3,166.4,215z"/>
		<path fill="#0079C1" d="M187.4,215c0-5.5-2.8-9.1-7.3-9.1c-4.6,0-7.1,3.8-7.1,9.1s2.6,9.1,7.1,9.1
			C184.4,223.9,187.4,220.1,187.4,215z"/>
		<path fill="#FFFFFF" d="M216.5,206.9c-8.5-1.6-8.5,7.9-8.5,7.9V229h-6.1v-28.3h6.1v3c1.2-1.8,4.9-4,8.5-3.4V206.9z"/>
		<g>
			<path fill="#FFFFFF" d="M255.3,187.8V199h7.7v5.6h-7.7v15c0,0.3,0,0.6,0,0.9c0,0.3,0,0.5,0.1,0.8c1,0.9,2.3,1.4,3.7,1.4
				c1,0,2-0.2,3.2-0.6l0.1,0.3v0.6c0,0.2,0.1,0.3,0.1,0.5c0,0.2,0,0.3,0,0.4v0.3c0.1,0.2,0.1,0.4,0.1,0.6c0,0.2,0,0.4,0.1,0.5
				l0.3,2.7c-1.1,0.3-2.2,0.5-3.1,0.6c-1,0.1-1.9,0.2-2.8,0.2c-3.5,0-6-1.1-7.5-3.4l-0.1-0.2l-0.2-0.6c-0.2-0.5-0.3-0.9-0.4-1.3V223
				c0-0.4-0.1-0.7-0.1-1c0-0.3,0-0.6,0-0.9v-16.5h-5.2V199h5.2v-9.3l0.4-0.2l0.9-0.2l0.3-0.2l0.5-0.1c0.1-0.1,0.2-0.1,0.3-0.1
				c0.1-0.1,0.2-0.1,0.3-0.1c0.1-0.1,0.2-0.1,0.3-0.1l0.3-0.2l0.9-0.2c0.1-0.1,0.1-0.1,0.2-0.1h0c0.1-0.1,0.1-0.1,0.2-0.1h0l1.6-0.6
				C255.2,187.5,255.3,187.7,255.3,187.8z"/>
			<path fill="#FFFFFF" d="M269.7,187.5h6.6v14c2.3-2.1,4.9-3.2,7.6-3.2c0.4,0,0.8,0,1.2,0.1c0.4,0,0.8,0.1,1.2,0.2
				c3.7,0.9,6.2,3.1,7.3,6.4l0.1,0.8c0.1,0.2,0.1,0.4,0.1,0.6v22h-6.6v-19.1l-0.2-0.9v-0.3l-0.3-0.8c-0.3-0.4-0.5-0.8-0.5-1.1
				c-0.9-0.8-1.9-1.4-2.9-1.7c-3.1,0.1-5.2,1.4-6.6,4v0.3c-0.1,0.3-0.2,0.5-0.3,0.7c-0.1,0.2-0.1,0.4-0.2,0.6v18.3h-6.6V187.5z"/>
			<path fill="#FFFFFF" d="M318.1,198.4v6.9c-0.1,0-0.3,0-0.5,0h-0.5c-3.6,0-6.1,1.5-7.7,4.4l-0.3,1.7l-0.1,0.8v16.1h-6.6V199h6.6
				v1.6c0,0.5,0,0.9,0.1,1.3c2.1-2.4,4.6-3.5,7.5-3.5H318.1z"/>
			<path fill="#FFFFFF" d="M350.1,204.8c1.2,3,1.9,5.9,1.9,8.7c0,1.8-0.2,3.5-0.7,5.1c-1.2,5.3-4.4,8.7-9.3,10
				c-0.7,0.2-1.5,0.3-2.1,0.4c-0.7,0.1-1.4,0.1-2.1,0.1c-2.6,0-5.1-0.7-7.3-2.2c-4.1-2.9-6.3-6.7-6.6-11.5c0-0.3,0-0.5,0-0.7
				c0-0.2,0-0.5,0-0.7c0-9,4.1-14.3,12.3-16.2c0.2,0,0.3,0,0.5,0s0.3,0,0.5,0C342.9,197.9,347.2,200.2,350.1,204.8z M330.5,215
				c0.6,4.8,3,7.4,7.3,7.8c4.4-0.4,6.8-2.7,7.3-6.9c0.1-0.5,0.1-1.1,0.2-1.6c0.1-0.5,0.1-1,0.1-1.5c0-5.4-2.7-8.3-8.1-8.7
				c-4.6,1.1-6.8,4.2-6.8,9.1C330.4,213.9,330.5,214.5,330.5,215z"/>
			<path fill="#FFFFFF" d="M359.9,199h6.4v18.6c0.1,0.1,0.1,0.2,0.1,0.3c0.1,0.1,0.1,0.1,0.1,0.2v0.1c0.1,0.8,0.3,1.5,0.5,2.1
				c1.2,1.7,2.8,2.6,4.8,2.6h0.1c2.4-0.6,4.1-2,5-4v-0.3l0.4-1.3V199h6.6v29.3h-6.6V226c-2.6,2.1-5.1,3.2-7.7,3.2c-2,0-4-0.6-6-1.9
				c-1.7-1.3-2.8-2.8-3.4-4.5l-0.1-0.8c-0.2-0.5-0.2-1-0.2-1.5v-0.2c0-0.1,0-0.2,0-0.3V199z"/>
			<path fill="#FFFFFF" d="M410.8,201.2v-2h6.4V229l-0.1,1.2l-0.1,0.2l-0.1,0.6l-0.4,1.3l-0.3,0.6l-0.4,0.6
				c-0.5,0.9-1.1,1.6-1.8,2.1l-0.4,0.5l-2.3,1.1c-2.4,0.6-4.7,0.9-6.9,0.9c-4,0-7.7-1-11.1-2.9l0.2-0.4l0.5-1.2l0.4-1.1l0.1-0.3
				l0.2-0.4c0.2-0.5,0.4-1,0.6-1.3l0.2-0.8c2.9,1.5,5.6,2.2,8,2.2c2.2,0,4.3-0.6,6.3-1.8l0.1-0.3c0.4-0.6,0.7-1.2,0.9-1.8v-4.5
				c-2.3,1.7-4.7,2.6-7.2,2.6c-1.1,0-2.3-0.2-3.4-0.5c-4-1.6-6.5-4.2-7.5-7.9c-0.3-1-0.5-1.9-0.7-2.8c-0.2-0.9-0.2-1.8-0.2-2.7
				c0-2.5,0.6-4.9,1.9-7.2c2-3.7,5-5.9,8.8-6.4h0.4C405.9,198.5,408.6,199.4,410.8,201.2z M403.9,204.9h-0.5l-2.4,0.9
				c-1.8,2-2.7,4.2-2.7,6.5c0,0.4,0,0.8,0.1,1.2c0.5,4.1,2.6,6.2,6.4,6.3c3.8-0.5,5.7-2.8,5.7-7v-0.4c0-0.1,0-0.3,0-0.4
				c-0.1-4.7-2.3-7.1-6.6-7.2C404,204.9,404,204.9,403.9,204.9z"/>
			<path fill="#FFFFFF" d="M426.8,187.5h6.6v14c2.3-2.1,4.9-3.2,7.6-3.2c0.4,0,0.8,0,1.2,0.1c0.4,0,0.8,0.1,1.2,0.2
				c3.7,0.9,6.2,3.1,7.3,6.4l0.1,0.8c0.1,0.2,0.1,0.4,0.1,0.6v22h-6.6v-19.1l-0.2-0.9v-0.3l-0.3-0.8c-0.3-0.4-0.5-0.8-0.5-1.1
				c-0.9-0.8-1.9-1.4-2.9-1.7c-3.1,0.1-5.2,1.4-6.6,4v0.3c-0.1,0.3-0.2,0.5-0.3,0.7c-0.1,0.2-0.1,0.4-0.2,0.6v18.3h-6.6V187.5z"/>
		</g>
	</g>
	<g>
		<path fill="#FFFFFF" d="M227.2,248.8V260h7.7v5.6h-7.7v15c0,0.3,0,0.6,0,0.9c0,0.3,0,0.5,0.1,0.8c1,0.9,2.3,1.4,3.7,1.4
			c1,0,2-0.2,3.2-0.6l0.1,0.3v0.6c0,0.2,0.1,0.3,0.1,0.5c0,0.2,0,0.3,0,0.4v0.3c0.1,0.2,0.1,0.4,0.1,0.6c0,0.2,0,0.4,0.1,0.5
			l0.3,2.7c-1.1,0.3-2.2,0.5-3.1,0.6c-1,0.1-1.9,0.2-2.8,0.2c-3.5,0-6-1.1-7.5-3.4l-0.1-0.2l-0.2-0.6c-0.2-0.5-0.3-0.9-0.4-1.3V284
			c0-0.4-0.1-0.7-0.1-1c0-0.3,0-0.6,0-0.9v-16.5h-5.2V260h5.2v-9.3l0.4-0.2l0.9-0.2l0.3-0.2l0.5-0.1c0.1-0.1,0.2-0.1,0.3-0.1
			c0.1-0.1,0.2-0.1,0.3-0.1c0.1-0.1,0.2-0.1,0.3-0.1l0.3-0.2l0.9-0.2c0.1-0.1,0.1-0.1,0.2-0.1h0c0.1-0.1,0.1-0.1,0.2-0.1h0l1.6-0.6
			C227.2,248.5,227.2,248.7,227.2,248.8z"/>
		<path fill="#FFFFFF" d="M257.3,259.4v6.9c-0.1,0-0.3,0-0.5,0h-0.5c-3.6,0-6.1,1.5-7.7,4.4l-0.3,1.7l-0.1,0.8v16.1h-6.6V260h6.6
			v1.6c0,0.5,0,0.9,0.1,1.3c2.1-2.4,4.6-3.5,7.5-3.5H257.3z"/>
		<path fill="#FFFFFF" d="M284.5,262.6l0.3,0.6c0.8,1,1.4,2.1,1.6,3.2c0.1,0.5,0.1,0.9,0.2,1.3c0,0.4,0.1,0.8,0.1,1.1V283
			c0.7,1.3,1.6,2.1,2.9,2.4l-0.2,0.3c-0.1,0.1-0.1,0.2-0.2,0.2l-0.1,0.3l-0.2,0.2c-0.2,0.4-0.4,0.7-0.6,1c-0.3,0.7-0.6,1.2-1,1.5
			c-0.2,0.4-0.3,0.7-0.5,0.9c-0.1,0.3-0.3,0.5-0.4,0.7c-2.1-0.5-3.7-1.5-4.9-2.9H281c-2.3,1.7-4.7,2.5-7.1,2.5
			c-1.3,0-2.6-0.2-3.9-0.7c-3.8-1.4-6.2-3.9-7-7.5v-0.1c0-6.9,4.1-10.4,12.2-10.4h0.1c0.2-0.1,0.3-0.1,0.5-0.1l0.3-0.1h0.8l0.3-0.1
			h0.3l2.7-0.3c0-0.2,0.1-0.4,0.1-0.5v-0.5c0-3-1.6-4.5-4.8-4.5c-2.2,0-5.2,0.7-9.1,2.2l-0.4-1l-0.2-0.6l-0.2-0.2l-0.1-0.2l-0.2-0.6
			c-0.2-0.3-0.3-0.6-0.4-1c-0.4-0.5-0.6-1-0.8-1.5l0.3-0.1l0.2-0.1l0.3-0.1l0.2-0.2h0.3c0.1-0.1,0.1-0.1,0.2-0.1h0
			c0.6-0.3,1.2-0.6,1.7-0.8l0.5-0.1c0.4-0.2,0.8-0.3,1.1-0.3l0.9-0.2c0.6-0.3,1.2-0.4,1.8-0.4l2.4-0.4c0.4,0,0.7-0.1,1-0.1
			c0.3,0,0.7,0,1,0C279.5,259.2,282.3,260.4,284.5,262.6z M277.6,276.2H277c-0.2,0-0.3,0.1-0.5,0.1c-0.2,0-0.3,0-0.4,0h-0.2
			l-0.4,0.1h-0.3c-0.1,0.1-0.2,0.1-0.3,0.1h-0.3l-1.7,0.4h-0.3c-0.5,0.3-0.9,0.5-1.3,0.5c-1.2,1.1-1.7,2.2-1.7,3.2
			c0,0.9,0.5,1.9,1.4,2.8c1.4,0.8,2.7,1.3,4,1.3c1.7,0,3.3-0.7,4.8-2c0.1-0.4,0.3-0.7,0.4-0.9l0.1-0.3l-0.1-0.4v-5h-2.1
			C277.8,276.2,277.7,276.2,277.6,276.2z"/>
		<path fill="#FFFFFF" d="M307.6,248.1h1.5c1.7,0,3.1,0.2,4.2,0.5l-0.2,1.2v0.5l-0.1,1.3c0,0.2,0,0.4,0,0.6c0,0.2,0,0.4-0.1,0.5
			l-0.1,1.7c-0.9-0.3-1.7-0.4-2.5-0.4c-2.1,0-3.5,1-4.4,3.1v3h5.4v5.5h-5.4v23.8h-6.6v-23.8h-4.7v-5.5h4.7v-3.3c0-0.1,0-0.3,0-0.4
			c0-0.1,0-0.3,0-0.4c0-1.3,0.2-2.5,0.6-3.5C301.8,249.8,304.4,248.3,307.6,248.1z"/>
		<path fill="#FFFFFF" d="M329.4,248.1h1.5c1.7,0,3.1,0.2,4.2,0.5l-0.2,1.2v0.5l-0.1,1.3c0,0.2,0,0.4,0,0.6c0,0.2,0,0.4-0.1,0.5
			l-0.1,1.7c-0.9-0.3-1.7-0.4-2.5-0.4c-2.1,0-3.5,1-4.4,3.1v3h5.4v5.5h-5.4v23.8h-6.6v-23.8h-4.7v-5.5h4.7v-3.3c0-0.1,0-0.3,0-0.4
			c0-0.1,0-0.3,0-0.4c0-1.3,0.2-2.5,0.6-3.5C323.6,249.8,326.2,248.3,329.4,248.1z"/>
		<path fill="#FFFFFF" d="M347.5,251.5v0.3c0,1.5-0.5,2.7-1.4,3.6c-1,0.5-1.9,0.7-2.7,0.7c-1.4,0-2.6-0.8-3.4-2.3
			c-0.2-0.6-0.2-1.2-0.2-1.7c0-1.8,1-3.1,3-3.7h0.3C345.4,248.5,346.8,249.5,347.5,251.5z M340.3,260.1h6.6v29.3h-6.6V260.1z"/>
		<path fill="#FFFFFF" d="M379.8,267.3l-1.2,0.4c-0.3,0.2-0.6,0.4-0.9,0.5l-0.2,0.1l-0.6,0.2c-0.3,0.2-0.6,0.4-0.9,0.4l-1.7,1
			c-1.6-3-3.8-4.6-6.7-4.6c-0.5,0-1,0.1-1.6,0.2l-0.3,0.2l-0.3,0.1l-1.2,0.6c-0.3,0.3-0.6,0.6-0.8,0.9s-0.5,0.5-0.7,0.7
			c-1.1,2.3-1.7,4.5-1.7,6.7c0,2.3,0.6,4.4,1.9,6.6c1.3,1.7,3,2.6,4.9,2.6c0.1,0,0.2,0,0.3,0s0.2,0,0.3,0c2.9-0.5,4.9-2,6-4.5
			l1.1,0.6l0.4,0.2c0.4,0.1,0.7,0.2,0.9,0.3l0.4,0.2l0.2,0.2l2.4,1.1c-2.9,5.1-6.8,7.6-11.8,7.6c-0.4,0-0.8,0-1.2-0.1
			c-0.4,0-0.8-0.1-1.2-0.1c-6.4-1.3-10.1-5.4-11-12.1c-0.1-0.9-0.2-1.8-0.2-2.7c0-3.2,0.7-6,2.2-8.6c2.2-4,5.7-6.2,10.3-6.4
			C373,259.8,377.3,262.4,379.8,267.3z"/>
	</g>
</g>
</svg>
