<?xml version="1.0" encoding="utf-8"?>
<!-- Generator: Adobe Illustrator 17.1.0, SVG Export Plug-In . SVG Version: 6.00 Build 0)  -->
<!DOCTYPE svg PUBLIC "-//W3C//DTD SVG 1.1//EN" "http://www.w3.org/Graphics/SVG/1.1/DTD/svg11.dtd">
<svg version="1.1" id="Layer_1" xmlns="http://www.w3.org/2000/svg" xmlns:xlink="http://www.w3.org/1999/xlink" x="0px" y="0px"
	 viewBox="85 70.9 425.2 283.5" enable-background="new 85 70.9 425.2 283.5" xml:space="preserve">
<g>
	<path fill="#FFFFFF" stroke="#0079C1" d="M467.7,298.7c0,12.3-10,22.2-22.2,22.2H149.8c-12.3,0-22.2-10-22.2-22.2V126.5
		c0-12.3,10-22.2,22.2-22.2h295.7c12.3,0,22.2,10,22.2,22.2V298.7z"/>
	<path fill="#0079C1" d="M457.2,298.7c0,6.5-5.3,11.7-11.7,11.7H149.8c-6.5,0-11.7-5.3-11.7-11.7V126.5c0-6.5,5.3-11.7,11.7-11.7
		h295.7c6.5,0,11.7,5.3,11.7,11.7V298.7z"/>
	<g>
		<path fill="#FFFFFF" d="M177.8,168.8c6.3,0,8.5-6,8.5-10.2v-24h6.5v25.1c0,8-5.9,15.1-15.1,15.1c-9,0-15.6-6.3-15.6-15.1v-25.1
			h6.7v24C168.8,164.2,172.7,168.8,177.8,168.8z"/>
		<path fill="#FFFFFF" d="M226.2,154.6V174H220v-18.1c0-1-1.5-4.7-4.9-4.7c-3.1,0-5.8,2.9-5.8,5.9v16.8H203v-28h6.4v2.5
			c2.1-3.2,7.7-3.2,7.7-3.2C221.4,145.3,226.2,149.4,226.2,154.6z"/>
		<path fill="#FFFFFF" d="M238.6,153.8c0,1.4,1.7,2.4,4.1,2.9c5,1,4.3,1,5.9,1.6c3.1,1.1,4.9,3.5,4.9,7.3c0,4.7-3.9,9.1-10.1,9.1
			c-4.3,0-7-0.9-12.4-5.1l4-4c2.7,2.5,4.9,3.3,7.6,3.3c2.9,0,4.6-0.9,4.6-2.9s-1.1-2.1-7-3.7c-7-2.1-7.6-5.7-7.6-8.4
			c0-3.9,2.8-8.7,11-8.7c0,0,5.9,0,9.7,4l-3.3,4.3c-2.8-2.8-6.5-2.8-6.5-2.8C240.6,150.5,238.6,151.9,238.6,153.8z"/>
		<path fill="#FFFFFF" d="M260.9,165.5v-19.3h6.1v17.9c0,1.7,0.9,4.9,4.9,4.9c3,0,5.7-3.2,5.7-6.1v-16.7h6.3V174h-6.3v-2.5
			c-2,3.3-7.5,3.3-7.5,3.3C264.5,174.9,260.9,171.2,260.9,165.5z"/>
		<rect x="292.9" y="146" fill="#FFFFFF" width="6.2" height="28.1"/>
		<path fill="#FFFFFF" d="M292.2,138.4c0-2,1.8-3.7,3.7-3.7c2.2,0,3.9,1.8,3.9,3.7c0,2.2-1.7,3.9-3.8,3.9
			C293.9,142.3,292.2,140.6,292.2,138.4z"/>
		<path fill="#FFFFFF" d="M311,146v-8.9l6.1-2.4V146h7.2v5.1H317v14.4c0,2.3,1,3.2,2.7,3.2c0,0,2.5,0,4-0.6l0.5,5.5
			c-2.9,0.7-6.4,0.7-6.4,0.7c-5.1,0-7-2.4-7-8.5v-14.7H306V146H311z"/>
		<path fill="#FFFFFF" d="M339.4,174.5c-5.6,0-10.5-4-10.5-9.1c0-3.3,2.9-7.8,9.1-8.5l7.6-0.9v-1.2c0-2.6-1.1-4.2-4.3-4.2
			c0,0-4.4,0-8.7,2.3l-2.4-4.8c3.4-2,8.1-2.9,11.5-2.9c9.1,0,10.3,7.5,10.3,9.3v12.7c0,1.5,0.5,2.1,2.3,2.8l-2.7,4.9
			c-2.7-1-3.6-1.4-4.7-2.8C343.5,174.5,339.4,174.5,339.4,174.5z"/>
		<path fill="#0079C1" d="M335.3,165.6c0,2.3,2.3,3.9,4.9,3.9c3.1,0,5.5-1.8,5.5-4v-4.6l-6.4,0.6
			C336.7,161.9,335.3,163.6,335.3,165.6z"/>
		<path fill="#FFFFFF" d="M362.2,134.7h6.2v13.7c1.9-2.2,4.1-3,7.5-3c7.4,0,12.1,6.1,12.1,14.6c0,11.5-9,14.5-12,14.5
			c0,0-4.5,0-7.7-2.7v2.3h-6.2L362.2,134.7L362.2,134.7z"/>
		<path fill="#FFFFFF" d="M403.6,168.5c0,0,1.1,0,3.3-0.4l0.7,5.5c-2.5,0.5-5.6,0.5-5.6,0.5c-5.9,0.5-7.2-2.4-7.2-9.1v-30.2h6.2
			v29.9C401,167.6,401.7,168.5,403.6,168.5z"/>
		<path fill="#FFFFFF" d="M410.7,159.9c0-8.8,5.3-14.6,13.2-14.6c7.5,0,12.1,5.5,12.1,15.9c0,0.7,0,1,0,1h-18.8
			c0.7,4.3,2.9,6.5,7,6.5c0,0,4,0,6.7-2.7l3.7,4.7c-4,4.2-10.2,4.2-10.2,4.2C415.9,174.8,410.7,169.1,410.7,159.9z"/>
		<path fill="#0079C1" d="M417.3,157.5h12.5c-0.2-4.2-2.3-6.8-5.9-6.8C420.5,150.7,417.8,152.8,417.3,157.5z"/>
		<path fill="#FFFFFF" d="M184.4,199.7v2.4h5.1v5.2h-5.1v22.8h-6.2v-22.8h-4.6v-5.2h4.6v-5.2c0-4.1,4.1-6.3,8.3-6.3
			c1.7,0,3.1,0.3,4.7,0.6l-0.6,5.1c-1.9,0-2.9,0-2.9,0C185.2,196.4,184.4,197.6,184.4,199.7z"/>
		<path fill="#FFFFFF" d="M195.3,216.1c0-8.8,5.1-15,13.5-15c8.3,0,13.2,6.1,13.2,15c0,9.9-6.5,14.8-13.2,14.8
			C201,230.9,195.3,224.4,195.3,216.1z"/>
		<path fill="#0079C1" d="M216.1,216.1c0-5.4-2.8-9-7.2-9s-7,3.6-7,9c0,5.2,2.6,8.9,7.1,8.9C213.1,225,216.1,221.3,216.1,216.1z"/>
		<path fill="#FFFFFF" d="M245,208.2c-8.5-1.7-8.5,7.7-8.5,7.7v14.2h-6.1v-28h6.1v2.8c1.2-1.8,4.9-3.9,8.5-3.2V208.2z"/>
		<path fill="#FFFFFF" d="M295.5,207.6c-2.9,0-4.9,2.4-4.9,5.8v16.7h-6.1v-18c0-1.1-1.2-4.4-4.4-4.4c-3.1,0-5.1,2.2-5.1,5.6v16.8
			h-6.3v-28h6.3v2.5c2.3-2.8,6.7-2.8,6.7-2.8s4.6,0,7.3,3.5c2.8-3.5,7.5-3.5,7.5-3.5c5.2,0,9.8,3.7,9.8,8.9v19.5h-6.2v-18.1
			C300.3,209.2,298,207.6,295.5,207.6z"/>
		<path fill="#FFFFFF" d="M314,216.1c0-8.8,5.1-15,13.5-15c8.3,0,13.2,6.1,13.2,15c0,9.9-6.5,14.8-13.2,14.8
			C319.6,230.9,314,224.4,314,216.1z"/>
		<path fill="#0079C1" d="M334.7,216.1c0-5.4-2.8-9-7.2-9s-7,3.6-7,9c0,5.2,2.6,8.9,7.1,8.9C331.8,225,334.7,221.3,334.7,216.1z"/>
		<path fill="#FFFFFF" d="M351.3,202.1v-8.9l6.1-2.4v11.4h7.2v5.1h-7.2v14.4c0,2.3,1,3.2,2.7,3.2c0,0,2.5,0,4-0.6l0.5,5.5
			c-2.9,0.7-6.4,0.7-6.4,0.7c-5.1,0-7-2.4-7-8.5v-14.7h-4.9v-5.1H351.3z"/>
		<path fill="#FFFFFF" d="M369.7,216.1c0-8.8,5.1-15,13.5-15c8.3,0,13.2,6.1,13.2,15c0,9.9-6.5,14.8-13.2,14.8
			C375.3,230.9,369.7,224.4,369.7,216.1z"/>
		<path fill="#0079C1" d="M390.4,216.1c0-5.4-2.8-9-7.2-9c-4.4,0-7,3.6-7,9c0,5.2,2.6,8.9,7.1,8.9
			C387.5,225,390.4,221.3,390.4,216.1z"/>
		<path fill="#FFFFFF" d="M419.3,208.2c-8.5-1.7-8.5,7.7-8.5,7.7v14.2h-6.1v-28h6.1v2.8c1.2-1.8,4.9-3.9,8.5-3.2V208.2z"/>
		<polygon fill="#FFFFFF" points="210.3,286.2 203.1,286.2 193.9,258.4 200.6,258.4 206.7,277.6 212.8,258.4 219.4,258.4 		"/>
		<path fill="#FFFFFF" d="M222.8,272.1c0-8.8,5.3-14.6,13.2-14.6c7.5,0,12.1,5.5,12.1,15.9c0,0.7,0,1,0,1h-18.8
			c0.7,4.3,2.9,6.5,7,6.5c0,0,4,0,6.7-2.7l3.7,4.7c-4,4.2-10.2,4.2-10.2,4.2C228,287,222.8,281.3,222.8,272.1z"/>
		<path fill="#0079C1" d="M229.4,269.7h12.5c-0.2-4.2-2.3-6.8-5.9-6.8C232.6,262.9,229.9,265,229.4,269.7z"/>
		<path fill="#FFFFFF" d="M278.1,266.1v20.2h-5.7v-16.9c0-2.9-1.9-5.8-4.9-5.8c-4.3,0-6,3.6-6,5.8v16.9h-6.1v-39.4h6.1v13.9
			c1.9-3.3,7-3.3,7-3.3C275.1,257.4,278.1,262.7,278.1,266.1z"/>
		<rect x="286" y="258.2" fill="#FFFFFF" width="6.2" height="28.1"/>
		<path fill="#FFFFFF" d="M285.3,250.6c0-2,1.8-3.7,3.7-3.7c2.2,0,3.9,1.8,3.9,3.7c0,2.2-1.7,3.9-3.8,3.9S285.3,252.8,285.3,250.6z"
			/>
		<path fill="#FFFFFF" d="M324.1,264.8l-5.2,2.6c-2.1-4.2-6.1-4.2-6.1-4.2c-4,0-7,4.1-7,9.4c0,5.1,3.2,8.6,7,8.6c0,0,2.8,0,6.5-4.2
			l5,2.2c-3.4,7.3-12,7.3-12,7.3c-7.4,0-12.5-6.8-12.5-13.9c0-8.6,5.1-14.9,13-14.9C312.5,257.8,319.8,257.8,324.1,264.8z"/>
		<path fill="#FFFFFF" d="M339.1,280.8c0,0,1.1,0,3.3-0.4l0.7,5.5c-2.5,0.5-5.6,0.5-5.6,0.5c-5.9,0.5-7.2-2.4-7.2-9.1v-30.2h6.2V277
			C336.4,279.8,337.1,280.8,339.1,280.8z"/>
		<path fill="#FFFFFF" d="M346.2,272.1c0-8.8,5.3-14.6,13.2-14.6c7.5,0,12.1,5.5,12.1,15.9c0,0.7,0,1,0,1h-18.8
			c0.7,4.3,2.9,6.5,7,6.5c0,0,4,0,6.7-2.7l3.7,4.7c-4,4.2-10.2,4.2-10.2,4.2C351.3,287,346.2,281.3,346.2,272.1z"/>
		<path fill="#0079C1" d="M352.8,269.7h12.5c-0.2-4.2-2.3-6.8-5.9-6.8C355.9,262.9,353.2,265,352.8,269.7z"/>
		<path fill="#FFFFFF" d="M382.9,266c0,1.4,1.7,2.4,4.1,2.9c5,1,4.3,1,5.9,1.6c3.1,1.1,4.9,3.5,4.9,7.3c0,4.7-3.9,9.1-10.1,9.1
			c-4.3,0-7-0.9-12.4-5.1l4-4c2.7,2.5,4.9,3.3,7.6,3.3c2.9,0,4.6-0.9,4.6-2.9s-1.1-2.1-7-3.7c-7-2.1-7.6-5.7-7.6-8.4
			c0-3.9,2.8-8.7,11-8.7c0,0,5.9,0,9.7,4l-3.3,4.3c-2.8-2.8-6.5-2.8-6.5-2.8C385,262.7,382.9,264.1,382.9,266z"/>
		<path fill="#0079C1" d="M374.6,151.1c-3,0-6.3,2.8-6.3,6.1v5.1c0,3.3,3.6,6,6.5,6c3.5,0,6.9-3.7,6.9-8.4
			C381.6,155.3,378.4,151.1,374.6,151.1z"/>
	</g>
</g>
</svg>
