<?xml version="1.0" encoding="utf-8"?>
<!-- Generator: Adobe Illustrator 17.1.0, SVG Export Plug-In . SVG Version: 6.00 Build 0)  -->
<!DOCTYPE svg PUBLIC "-//W3C//DTD SVG 1.1//EN" "http://www.w3.org/Graphics/SVG/1.1/DTD/svg11.dtd">
<svg version="1.1" id="Layer_1" xmlns="http://www.w3.org/2000/svg" xmlns:xlink="http://www.w3.org/1999/xlink" x="0px" y="0px"
	 viewBox="85 70.9 425.2 283.5" enable-background="new 85 70.9 425.2 283.5" xml:space="preserve">
<g>
	<path fill="#FFFFFF" stroke="#0079C1" d="M467.7,270.8c0,11.7-9.5,21.2-21.2,21.2H148.8c-11.7,0-21.2-9.5-21.2-21.2V154.4
		c0-11.7,9.5-21.2,21.2-21.2h297.7c11.7,0,21.2,9.5,21.2,21.2V270.8z"/>
	<path fill="#0079C1" d="M457.7,270.8c0,6.1-5,11.2-11.2,11.2H148.8c-6.1,0-11.2-5-11.2-11.2V154.4c0-6.1,5-11.2,11.2-11.2h297.7
		c6.1,0,11.2,5,11.2,11.2V270.8z"/>
	<path fill="#FFFFFF" d="M184.5,194.9c6,0,8.2-5.8,8.2-9.7v-22.7h6.1v23.8c0,7.6-5.6,14.3-14.3,14.3c-8.6,0-14.9-6-14.9-14.3v-23.8
		h6.3v22.7C176.1,190.6,179.9,194.9,184.5,194.9z"/>
	<path fill="#FFFFFF" d="M230.5,181.5v18.4h-6v-17.1c0-0.9-1.5-4.5-4.7-4.5c-3,0-5.6,2.8-5.6,5.6v16h-6v-26.6h6v2.4c2-3,7.3-3,7.3-3
		C226,172.6,230.5,176.5,230.5,181.5z"/>
	<path fill="#FFFFFF" d="M242.4,180.6c0,1.3,1.5,2.4,3.9,2.8c4.7,0.9,4.1,0.9,5.6,1.5c3,1.1,4.7,3.3,4.7,7.1c0,4.5-3.7,8.6-9.5,8.6
		c-4.1,0-6.7-0.7-11.7-4.8l3.7-3.7c2.6,2.4,4.7,3.2,7.3,3.2c2.8,0,4.3-0.9,4.3-2.8c0-2-1.1-2-6.7-3.5c-6.7-1.9-7.3-5.4-7.3-8
		c0-3.7,2.8-8.4,10.4-8.4c0,0,5.6,0,9.3,3.9l-3.2,4.1c-2.8-2.8-6.1-2.8-6.1-2.8C244.2,177.6,242.4,178.9,242.4,180.6z"/>
	<path fill="#FFFFFF" d="M263.6,191.8v-18.2h5.8v17.1c0,1.7,0.7,4.7,4.7,4.7c2.8,0,5.4-3.2,5.4-5.8v-16h6v26.4h-6v-2.4
		c-1.9,3.2-7.1,3.2-7.1,3.2C266.9,200.7,263.6,197.2,263.6,191.8z"/>
	<rect x="294.1" y="173.3" fill="#FFFFFF" width="6" height="26.6"/>
	<path fill="#FFFFFF" d="M293.4,166.1c0-1.9,1.7-3.5,3.5-3.5c2,0,3.7,1.7,3.7,3.5c0,2-1.7,3.7-3.5,3.7
		C295,169.8,293.4,168.1,293.4,166.1z"/>
	<path fill="#FFFFFF" d="M311.2,173.3v-8.6l5.8-2.4v10.8h6.9v4.8H317v13.8c0,2,0.9,3,2.6,3c0,0,2.4,0,3.9-0.6l0.6,5.2
		c-2.8,0.7-6.1,0.7-6.1,0.7c-4.8,0-6.7-2.4-6.7-8.2v-14h-4.7v-4.8h4.7V173.3z"/>
	<path fill="#FFFFFF" d="M338.2,200.3c-5.2,0-9.9-3.7-9.9-8.7c0-3.2,2.8-7.4,8.6-8.2l7.3-0.7v-1.1c0-2.4-1.1-3.9-4.1-3.9
		c0,0-4.3,0-8.4,2l-2.2-4.5c3.2-1.9,7.6-2.8,10.8-2.8c8.6,0,9.7,7.3,9.7,8.7v12.1c0,1.3,0.6,2,2.2,2.8l-2.6,4.7
		c-2.6-0.9-3.3-1.3-4.5-2.6C342.1,200.3,338.2,200.3,338.2,200.3z"/>
	<path fill="#0079C1" d="M334.3,191.9c0,2,2.2,3.7,4.7,3.7c3,0,5.2-1.7,5.2-3.7v-4.5l-6,0.6C335.6,188.4,334.3,190.1,334.3,191.9z"
		/>
	<path fill="#FFFFFF" d="M359.8,162.5h6v13c1.7-2,3.9-2.8,7.1-2.8c7.1,0,11.5,5.8,11.5,13.8c0,11-8.6,13.8-11.4,13.8
		c0,0-4.3,0-7.3-2.6v2.2h-6V162.5z"/>
	<path fill="#FFFFFF" d="M399.2,194.7c0,0,1.1,0,3.2-0.4l0.7,5.2c-2.4,0.4-5.2,0.4-5.2,0.4c-5.6,0.6-6.9-2.2-6.9-8.7v-28.7h6v28.3
		C396.8,193.8,397.4,194.7,399.2,194.7z"/>
	<path fill="#FFFFFF" d="M405.9,186.5c0-8.4,5-13.8,12.5-13.8c7.1,0,11.5,5.2,11.5,15.1c0,0.6,0,0.9,0,0.9h-17.9
		c0.6,4.1,2.8,6.1,6.7,6.1c0,0,3.9,0,6.3-2.6l3.5,4.5c-3.7,3.9-9.7,3.9-9.7,3.9C411,200.7,405.9,195.3,405.9,186.5z"/>
	<path fill="#0079C1" d="M412.3,184.1h11.9c-0.2-3.9-2.2-6.5-5.6-6.5C415.2,177.8,412.6,179.7,412.3,184.1z"/>
	<path fill="#FFFFFF" d="M160.5,224.3v2.4h4.8v5h-4.8v21.6h-6v-21.6h-4.3v-5.2h4.3v-4.8c0-3.9,3.9-6,7.8-6c1.5,0,3,0.2,4.5,0.6
		l-0.6,4.8c-1.9,0-2.8,0-2.8,0C161.4,221.2,160.5,222.3,160.5,224.3z"/>
	<path fill="#FFFFFF" d="M170.9,240c0-8.4,4.8-14.1,12.8-14.1c7.8,0,12.7,5.8,12.7,14.1c0,9.5-6.1,14-12.7,14
		C176.3,253.9,170.9,247.8,170.9,240z"/>
	<path fill="#0079C1" d="M190.6,240c0-5.2-2.6-8.6-6.9-8.6s-6.7,3.5-6.7,8.6s2.4,8.6,6.7,8.6C187.9,248.3,190.6,244.8,190.6,240z"/>
	<path fill="#FFFFFF" d="M218,232.3c-8-1.5-8,7.4-8,7.4v13.4h-5.8v-26.6h5.8v2.8c1.1-1.7,4.7-3.7,8-3.2V232.3z"/>
	<path fill="#0079C1" d="M371.5,178.2c-2.8,0-6,2.8-6,5.8v4.8c0,3.2,3.3,5.6,6.1,5.6c3.3,0,6.5-3.5,6.5-8
		C378.2,182.1,375.2,178.2,371.5,178.2z"/>
	<g enable-background="new    ">
		<path fill="#FFFFFF" d="M270.4,232.1l-1.1,0.4c-0.2,0.2-0.5,0.4-0.8,0.5l-0.2,0.1l-0.6,0.2c-0.3,0.2-0.5,0.3-0.8,0.4l-1.6,0.9
			c-1.4-2.8-3.5-4.2-6.1-4.2c-0.5,0-0.9,0-1.5,0.1l-0.3,0.2l-0.3,0.1l-1.1,0.6c-0.3,0.3-0.5,0.6-0.7,0.8s-0.4,0.5-0.6,0.6
			c-1,2.1-1.5,4.1-1.5,6.1c0,2.1,0.6,4.1,1.7,6c1.2,1.6,2.7,2.4,4.5,2.4c0.1,0,0.2,0,0.3,0c0.1,0,0.2,0,0.3,0
			c2.7-0.4,4.5-1.8,5.5-4.1l1,0.6l0.4,0.2c0.4,0.1,0.6,0.2,0.8,0.3l0.4,0.2l0.2,0.2l2.2,1c-2.6,4.6-6.2,6.9-10.8,6.9
			c-0.4,0-0.7,0-1.1,0c-0.4,0-0.8-0.1-1.1-0.1c-5.9-1.2-9.2-4.9-10-11.1c-0.1-0.8-0.1-1.7-0.1-2.5c0-2.9,0.7-5.5,2-7.9
			c2-3.7,5.2-5.6,9.4-5.9C264.3,225.3,268.2,227.6,270.4,232.1z"/>
		<path fill="#FFFFFF" d="M298.7,230.7c1.1,2.7,1.7,5.4,1.7,8c0,1.6-0.2,3.2-0.6,4.7c-1.1,4.9-4,7.9-8.5,9.1c-0.7,0.2-1.3,0.3-2,0.4
			c-0.6,0.1-1.3,0.1-1.9,0.1c-2.4,0-4.6-0.7-6.6-2c-3.8-2.6-5.8-6.1-6-10.5c0-0.2,0-0.5,0-0.7s0-0.4,0-0.7c0-8.2,3.7-13.1,11.2-14.8
			c0.1,0,0.3,0,0.4,0c0.1,0,0.3,0,0.4,0C292.1,224.4,296.1,226.5,298.7,230.7z M280.8,240.1c0.5,4.4,2.8,6.8,6.7,7.2
			c4-0.4,6.2-2.5,6.7-6.3c0.1-0.5,0.1-1,0.2-1.4c0-0.5,0.1-0.9,0-1.3c0-5-2.5-7.6-7.4-7.9c-4.2,1-6.3,3.8-6.3,8.3
			C280.8,239,280.8,239.5,280.8,240.1z"/>
		<path fill="#FFFFFF" d="M325.8,227.8l0.3,0.6c0.8,0.9,1.3,1.9,1.5,2.9c0.1,0.4,0.1,0.8,0.1,1.2c0,0.4,0,0.7,0,1v13
			c0.6,1.2,1.5,1.9,2.6,2.2l-0.2,0.3c-0.1,0.1-0.1,0.2-0.2,0.2l-0.1,0.3l-0.2,0.2c-0.2,0.4-0.4,0.7-0.6,0.9
			c-0.2,0.6-0.5,1.1-0.9,1.4c-0.1,0.3-0.3,0.6-0.4,0.8c-0.1,0.2-0.3,0.4-0.4,0.6c-1.9-0.5-3.4-1.4-4.5-2.6h-0.3
			c-2.1,1.5-4.3,2.3-6.5,2.3c-1.2,0-2.4-0.2-3.6-0.6c-3.5-1.3-5.6-3.5-6.4-6.9v-0.1c0-6.3,3.7-9.5,11.1-9.5h0.1
			c0.1-0.1,0.3-0.1,0.5-0.1l0.3-0.1h0.7l0.3-0.1h0.3l2.5-0.3c0-0.2,0-0.3,0-0.5v-0.5c0-2.7-1.4-4.1-4.3-4.1c-2,0-4.8,0.7-8.3,2
			l-0.4-0.9l-0.2-0.6l-0.2-0.2l-0.1-0.2l-0.2-0.6c-0.2-0.3-0.3-0.6-0.4-0.9c-0.3-0.5-0.6-0.9-0.7-1.4l0.3-0.1l0.2-0.1l0.3-0.1
			l0.2-0.2h0.3c0.1-0.1,0.1-0.1,0.2-0.1h0c0.6-0.3,1.1-0.5,1.6-0.7l0.5-0.1c0.4-0.2,0.7-0.3,1-0.3l0.8-0.2c0.6-0.2,1.1-0.4,1.7-0.4
			l2.2-0.4c0.3,0,0.6-0.1,0.9-0.1s0.6,0,0.9,0C321.2,224.7,323.8,225.7,325.8,227.8z M319.5,240.3h-0.6c-0.1,0-0.3,0.1-0.4,0.1
			c-0.1,0-0.3,0-0.4,0h-0.1l-0.4,0.1h-0.3c-0.1,0.1-0.2,0.1-0.3,0.1h-0.3l-1.6,0.4h-0.3c-0.5,0.3-0.9,0.4-1.2,0.5
			c-1.1,1-1.6,2-1.6,2.9c0,0.9,0.4,1.7,1.3,2.6c1.3,0.8,2.5,1.2,3.7,1.2c1.5,0,3-0.6,4.4-1.8c0.1-0.4,0.3-0.6,0.4-0.8l0.1-0.3
			l-0.1-0.4v-4.6h-2C319.7,240.2,319.6,240.3,319.5,240.3z"/>
		<path fill="#FFFFFF" d="M358.8,232.1l-1.1,0.4c-0.2,0.2-0.5,0.4-0.8,0.5l-0.2,0.1l-0.6,0.2c-0.3,0.2-0.5,0.3-0.8,0.4l-1.6,0.9
			c-1.4-2.8-3.5-4.2-6.1-4.2c-0.5,0-0.9,0-1.5,0.1l-0.3,0.2l-0.3,0.1l-1.1,0.6c-0.3,0.3-0.5,0.6-0.7,0.8c-0.2,0.2-0.4,0.5-0.6,0.6
			c-1,2.1-1.5,4.1-1.5,6.1c0,2.1,0.6,4.1,1.7,6c1.2,1.6,2.7,2.4,4.5,2.4c0.1,0,0.2,0,0.3,0s0.2,0,0.3,0c2.7-0.4,4.5-1.8,5.5-4.1
			l1,0.6l0.4,0.2c0.4,0.1,0.6,0.2,0.8,0.3l0.4,0.2l0.2,0.2l2.2,1c-2.6,4.6-6.2,6.9-10.8,6.9c-0.4,0-0.7,0-1.1,0
			c-0.4,0-0.8-0.1-1.1-0.1c-5.9-1.2-9.2-4.9-10-11.1c-0.1-0.8-0.1-1.7-0.1-2.5c0-2.9,0.7-5.5,2-7.9c2-3.7,5.2-5.6,9.4-5.9
			C352.6,225.3,356.5,227.6,358.8,232.1z"/>
		<path fill="#FFFFFF" d="M364.7,214.9h6v12.8c2.1-1.9,4.5-2.9,6.9-2.9c0.4,0,0.7,0,1.1,0.1c0.4,0,0.7,0.1,1.1,0.2
			c3.4,0.9,5.6,2.8,6.7,5.9l0.1,0.7c0.1,0.2,0.1,0.4,0.1,0.6v20.1h-6v-17.5l-0.2-0.8v-0.3l-0.3-0.7c-0.3-0.4-0.4-0.7-0.5-1
			c-0.9-0.8-1.8-1.3-2.6-1.6c-2.8,0-4.8,1.3-6,3.6v0.3c-0.1,0.2-0.2,0.4-0.2,0.6c-0.1,0.2-0.1,0.4-0.2,0.6v16.7h-6V214.9z"/>
		<path fill="#FFFFFF" d="M416.9,236.4l0.1,1.5c0.1,0.1,0.1,0.2,0.1,0.3v2.9h-18c0.4,3.3,2.1,5.3,5.1,5.9c0.5,0,1,0.1,1.4,0.1
			c2.5,0,4.6-0.8,6.3-2.4c0.2,0.4,0.5,0.7,0.8,0.9l0.1,0.3l0.3,0.3c0.2,0.2,0.4,0.4,0.6,0.6c0.2,0.2,0.3,0.4,0.4,0.6
			c0.1,0.1,0.2,0.1,0.2,0.2l1.4,1.6c-3.1,2.6-6.4,3.9-9.9,3.9c-0.6,0-1.2,0-1.8-0.1c-0.6-0.1-1.2-0.2-1.9-0.3
			c-5.7-1.9-8.8-5.9-9.3-12.2c0-0.1,0-0.2,0-0.5c0-0.2,0-0.4,0-0.5c0-8.5,3.8-13.4,11.5-14.5C411.8,225.1,416,229,416.9,236.4z
			 M399,236.5h11.9v-0.3c-0.1-0.2-0.1-0.4-0.1-0.6v-0.2c-0.2-0.4-0.3-0.7-0.3-1c-1.2-2.8-3.2-4.2-6-4.2
			C401,231.1,399.2,233.2,399,236.5z"/>
		<path fill="#FFFFFF" d="M442.4,228.7l-0.3,0.4l-0.3,0.3l-0.3,0.2l-0.4,0.6l-0.2,0.2l-0.2,0.1c-0.2,0.3-0.4,0.5-0.6,0.7l-1.3,1.5
			c-2.7-1.8-5-2.6-6.7-2.6c-1.8,0-3.2,0.9-4,2.7c0,1.1,0.5,1.8,1.3,2.4c0.4,0.1,0.6,0.2,0.8,0.3c0.6,0.1,1.2,0.2,1.6,0.4
			c6.2,0.5,9.7,2.9,10.4,7.5c0,0.2,0,0.4,0,0.6c0,0.2,0,0.4,0,0.6c0,3.3-1.4,5.8-4.2,7.4c-2,0.9-4,1.3-6,1.3
			c-3.8,0-7.6-1.6-11.5-4.9l0.2-0.4l0.5-0.5c0.3-0.4,0.6-0.7,0.9-0.9c0.1-0.1,0.1-0.2,0.2-0.2l0.2-0.3c0.1-0.1,0.1-0.2,0.2-0.2
			l0.1-0.2l0.2-0.1l1.3-1.5c2.4,2.3,5,3.4,7.6,3.4c1.1,0,2.2-0.2,3.4-0.6c0.3-0.4,0.6-0.7,0.9-0.9c0.1-0.4,0.1-0.8,0.1-1.1
			c0-0.8-0.3-1.6-0.8-2.1l-2.3-0.8c-6.7-0.4-10.4-3.3-11-8.6c0.4-5.4,3.5-8.3,9.1-8.6h0.3C436,224.6,439.5,226,442.4,228.7z"/>
	</g>
</g>
</svg>
