<?xml version="1.0" encoding="utf-8"?>
<!-- Generator: Adobe Illustrator 17.1.0, SVG Export Plug-In . SVG Version: 6.00 Build 0)  -->
<!DOCTYPE svg PUBLIC "-//W3C//DTD SVG 1.1//EN" "http://www.w3.org/Graphics/SVG/1.1/DTD/svg11.dtd">
<svg version="1.1" id="Layer_1" xmlns="http://www.w3.org/2000/svg" xmlns:xlink="http://www.w3.org/1999/xlink" x="0px" y="0px"
	 viewBox="85 70.9 425.2 283.5" enable-background="new 85 70.9 425.2 283.5" xml:space="preserve">
<g>
	<path fill="#FFFFFF" stroke="#0079C1" d="M467.7,298.6c0,12.3-10,22.3-22.3,22.3H149.9c-12.3,0-22.3-10-22.3-22.3v-172
		c0-12.3,10-22.3,22.3-22.3h295.5c12.3,0,22.3,10,22.3,22.3V298.6z"/>
	<path fill="#0079C1" d="M457.1,298.6c0,6.5-5.3,11.7-11.7,11.7H149.9c-6.5,0-11.7-5.3-11.7-11.7v-172c0-6.5,5.3-11.7,11.7-11.7
		h295.5c6.5,0,11.7,5.3,11.7,11.7V298.6z"/>
	<g>
		<path fill="#FFFFFF" d="M175.5,170c6.3,0,8.6-6.1,8.6-10.2V136h6.5v24.9c0,8-5.9,15.1-15.1,15.1c-9,0-15.7-6.3-15.7-15.1v-25.1
			h6.7v23.9C166.5,165.3,170.4,170,175.5,170z"/>
		<path fill="#FFFFFF" d="M223.9,155.7v19.4h-6.3v-18c0-1-1.6-4.7-4.9-4.7c-3.1,0-5.9,2.9-5.9,5.9v16.8h-6.3v-28h6.3v2.5
			c2.2-3.1,7.6-3.1,7.6-3.1C219,146.5,223.9,150.7,223.9,155.7z"/>
		<path fill="#FFFFFF" d="M236.2,154.8c0,1.4,1.6,2.5,4.1,2.9c4.9,1,4.3,1,5.9,1.6c3.1,1.2,4.9,3.5,4.9,7.4c0,4.7-3.9,9-10,9
			c-4.3,0-7-0.8-12.3-5.1l3.9-3.9c2.7,2.5,4.9,3.3,7.6,3.3c2.9,0,4.5-1,4.5-2.9c0-2.2-1.2-2.2-7-3.7c-7-2-7.6-5.7-7.6-8.4
			c0-3.9,2.9-8.8,11-8.8c0,0,5.9,0,9.8,4.1l-3.3,4.3c-2.9-2.9-6.5-2.9-6.5-2.9C238.1,151.6,236.2,153,236.2,154.8z"/>
		<path fill="#FFFFFF" d="M258.5,166.7v-19.2h6.1v18c0,1.8,0.8,4.9,4.9,4.9c2.9,0,5.7-3.3,5.7-6.1v-16.8h6.3v27.8h-6.3v-2.7
			c-2,3.3-7.4,3.3-7.4,3.3C262.2,175.9,258.5,172.4,258.5,166.7z"/>
		<rect x="290.6" y="147.1" fill="#FFFFFF" width="6.3" height="28"/>
		<path fill="#FFFFFF" d="M289.8,139.5c0-2,1.8-3.7,3.7-3.7c2.2,0,3.9,1.8,3.9,3.7c0,2.2-1.8,3.9-3.7,3.9
			C291.6,143.4,289.8,141.7,289.8,139.5z"/>
		<path fill="#FFFFFF" d="M308.6,147.1v-9l6.1-2.5v11.4h7.2v5.1h-7.2v14.5c0,2.2,1,3.1,2.7,3.1c0,0,2.5,0,4.1-0.6l0.6,5.5
			c-2.9,0.8-6.5,0.8-6.5,0.8c-5.1,0-7-2.5-7-8.6V152h-4.9v-4.9H308.6z"/>
		<path fill="#FFFFFF" d="M337,175.5c-5.5,0-10.4-3.9-10.4-9.2c0-3.3,2.9-7.8,9-8.6l7.6-0.8v-1.2c0-2.5-1.2-4.1-4.3-4.1
			c0,0-4.5,0-8.8,2.2l-2.3-4.7c3.3-2,8-2.9,11.4-2.9c9,0,10.2,7.6,10.2,9.2v12.7c0,1.4,0.6,2.2,2.3,2.9l-2.7,4.9
			c-2.7-1-3.5-1.4-4.7-2.7C341.1,175.5,337,175.5,337,175.5z"/>
		<path fill="#0079C1" d="M332.9,166.7c0,2.2,2.3,3.9,4.9,3.9c3.1,0,5.5-1.8,5.5-3.9v-4.5l-6.3,0.6
			C334.2,163,332.9,164.7,332.9,166.7z"/>
		<path fill="#FFFFFF" d="M359.7,135.8h6.3v13.7c1.8-2.2,4.1-2.9,7.4-2.9c7.4,0,12.1,6.1,12.1,14.5c0,11.5-9,14.5-11.9,14.5
			c0,0-4.5,0-7.6-2.7v2.3h-6.3V135.8z"/>
		<path fill="#FFFFFF" d="M401.2,169.6c0,0,1.2,0,3.3-0.4l0.8,5.5c-2.5,0.4-5.5,0.4-5.5,0.4c-5.9,0.6-7.2-2.3-7.2-9.2v-30.1h6.3
			v29.7C398.6,168.7,399.2,169.6,401.2,169.6z"/>
		<path fill="#FFFFFF" d="M408.4,161c0-8.8,5.3-14.5,13.1-14.5c7.4,0,12.1,5.5,12.1,15.9c0,0.6,0,1,0,1h-18.8c0.6,4.3,2.9,6.5,7,6.5
			c0,0,4.1,0,6.7-2.7l3.7,4.7c-3.9,4.1-10.2,4.1-10.2,4.1C413.5,175.9,408.4,170.2,408.4,161z"/>
		<path fill="#0079C1" d="M414.9,158.7h12.5c-0.2-4.1-2.3-6.9-5.9-6.9C418,151.8,415.3,154,414.9,158.7z"/>
		<path fill="#FFFFFF" d="M200.8,200.8v2.5h5.1v5.3h-5.1v22.7h-6.3v-22.7H190v-5.3h4.5V198c0-4.1,4.1-6.3,8.2-6.3
			c1.6,0,3.1,0.2,4.7,0.6l-0.6,5.1c-2,0-2.9,0-2.9,0C201.5,197.6,200.8,198.8,200.8,200.8z"/>
		<path fill="#FFFFFF" d="M211.7,217.2c0-8.8,5.1-14.9,13.5-14.9c8.2,0,13.3,6.1,13.3,14.9c0,10-6.5,14.7-13.3,14.7
			C217.2,231.9,211.7,225.6,211.7,217.2z"/>
		<path fill="#0079C1" d="M232.3,217.2c0-5.5-2.7-9-7.2-9c-4.5,0-7,3.7-7,9s2.5,9,7,9S232.3,222.3,232.3,217.2z"/>
		<path fill="#FFFFFF" d="M261.2,209.4c-8.4-1.6-8.4,7.8-8.4,7.8v14.1h-6.1v-28h6.1v2.9c1.2-1.8,4.9-3.9,8.4-3.3V209.4z"/>
		<polygon fill="#FFFFFF" points="293.7,222.1 298.2,203.5 304.3,203.5 309.4,222.1 313.9,203.5 320,203.5 312.5,231.3 305.7,231.3 
			301.4,212.7 297.4,231.3 290.8,231.3 282.8,203.5 289,203.5 		"/>
		<rect x="326.2" y="203.1" fill="#FFFFFF" width="6.3" height="28"/>
		<path fill="#FFFFFF" d="M325.6,195.7c0-2,1.8-3.7,3.7-3.7c2.2,0,3.9,1.8,3.9,3.7c0,2.2-1.8,3.9-3.7,3.9
			C327.4,199.6,325.6,197.8,325.6,195.7z"/>
		<path fill="#FFFFFF" d="M359.5,228.9c-3.1,2.7-7.6,2.7-7.6,2.7c-2.9,0-11.9-2.9-11.9-14.5c0-8.4,4.7-14.5,12.1-14.5
			c3.3,0,5.7,1,7.4,2.9V192h6.3v39.3h-6.3V228.9z"/>
		<path fill="#0079C1" d="M359.5,219.5v-5.1c0-3.3-3.1-6.1-6.3-6.1c-3.9,0-7,4.3-7,8.6c0,4.7,3.3,8.4,6.9,8.4
			C356,225.4,359.5,222.7,359.5,219.5z"/>
		<path fill="#FFFFFF" d="M373.4,217.2c0-8.8,5.3-14.5,13.1-14.5c7.4,0,12.1,5.5,12.1,15.9c0,0.6,0,1,0,1h-18.8
			c0.6,4.3,2.9,6.5,7,6.5c0,0,4.1,0,6.7-2.7l3.7,4.7c-3.9,4.1-10.2,4.1-10.2,4.1C378.7,232.1,373.4,226.4,373.4,217.2z"/>
		<path fill="#0079C1" d="M380,214.7h12.5c-0.2-4.1-2.3-6.9-5.9-6.9C383.2,208,380.4,210,380,214.7z"/>
		<polygon fill="#FFFFFF" points="208,287.3 200.8,287.3 191.6,259.5 198.2,259.5 204.3,278.7 210.5,259.5 217,259.5 		"/>
		<path fill="#FFFFFF" d="M220.5,273.2c0-8.8,5.3-14.5,13.1-14.5c7.4,0,12.1,5.5,12.1,15.9c0,0.6,0,1,0,1H227c0.6,4.3,2.9,6.5,7,6.5
			c0,0,4.1,0,6.7-2.7l3.7,4.7c-3.9,4.1-10.2,4.1-10.2,4.1C225.6,288,220.5,282.4,220.5,273.2z"/>
		<path fill="#0079C1" d="M227,270.8h12.5c-0.2-4.1-2.3-6.9-5.9-6.9C230.3,264,227.6,266.1,227,270.8z"/>
		<path fill="#FFFFFF" d="M275.7,267.1v20.2H270v-16.8c0-2.9-1.8-5.9-4.9-5.9c-4.3,0-5.9,3.5-5.9,5.9v17h-6.1v-39.3h6.1V262
			c1.8-3.3,7-3.3,7-3.3C272.8,258.5,275.7,263.8,275.7,267.1z"/>
		<rect x="283.5" y="259.3" fill="#FFFFFF" width="6.3" height="28"/>
		<path fill="#FFFFFF" d="M283,251.6c0-2,1.8-3.7,3.7-3.7c2.2,0,3.9,1.8,3.9,3.7c0,2.2-1.8,3.9-3.7,3.9
			C284.7,255.6,283,253.8,283,251.6z"/>
		<path fill="#FFFFFF" d="M321.7,265.9l-5.1,2.5c-2-4.1-6.1-4.1-6.1-4.1c-4.1,0-7,4.1-7,9.4c0,5.1,3.3,8.6,7,8.6c0,0,2.9,0,6.5-4.1
			l4.9,2.2c-3.3,7.4-12.1,7.4-12.1,7.4c-7.4,0-12.5-6.7-12.5-13.9c0-8.6,5.1-14.9,12.9-14.9C310.2,258.9,317.4,258.9,321.7,265.9z"
			/>
		<path fill="#FFFFFF" d="M336.6,281.8c0,0,1.2,0,3.3-0.4l0.8,5.5c-2.5,0.4-5.5,0.4-5.5,0.4c-5.9,0.6-7.2-2.3-7.2-9.2v-30.1h6.3
			v29.7C334,280.8,334.6,281.8,336.6,281.8z"/>
		<path fill="#FFFFFF" d="M343.8,273.2c0-8.8,5.3-14.5,13.1-14.5c7.4,0,12.1,5.5,12.1,15.9c0,0.6,0,1,0,1h-18.8
			c0.6,4.3,2.9,6.5,7,6.5c0,0,4.1,0,6.7-2.7l3.7,4.7c-3.9,4.1-10.2,4.1-10.2,4.1C348.9,288,343.8,282.4,343.8,273.2z"/>
		<path fill="#0079C1" d="M350.3,270.8h12.5c-0.2-4.1-2.3-6.9-5.9-6.9C353.6,264,350.9,266.1,350.3,270.8z"/>
		<path fill="#FFFFFF" d="M380.6,267.1c0,1.4,1.6,2.5,4.1,2.9c4.9,1,4.3,1,5.9,1.6c3.1,1.2,4.9,3.5,4.9,7.4c0,4.7-3.9,9-10,9
			c-4.3,0-7-0.8-12.3-5.1l3.9-3.9c2.7,2.5,4.9,3.3,7.6,3.3c2.9,0,4.5-1,4.5-2.9c0-2.2-1.2-2.2-7-3.7c-7-2-7.6-5.7-7.6-8.4
			c0-3.9,2.9-8.8,11-8.8c0,0,5.9,0,9.8,4.1l-3.3,4.3c-2.9-2.9-6.5-2.9-6.5-2.9C382.6,263.8,380.6,265.2,380.6,267.1z"/>
		<path fill="#0079C1" d="M372.2,152.2c-2.9,0-6.3,2.9-6.3,6.1v5.1c0,3.3,3.5,5.9,6.5,5.9c3.5,0,6.9-3.7,6.9-8.4
			C379.3,156.5,375.9,152.2,372.2,152.2z"/>
	</g>
</g>
</svg>
