<?xml version="1.0" encoding="utf-8"?>
<!-- Generator: Adobe Illustrator 17.1.0, SVG Export Plug-In . SVG Version: 6.00 Build 0)  -->
<!DOCTYPE svg PUBLIC "-//W3C//DTD SVG 1.1//EN" "http://www.w3.org/Graphics/SVG/1.1/DTD/svg11.dtd">
<svg version="1.1" id="Layer_1" xmlns="http://www.w3.org/2000/svg" xmlns:xlink="http://www.w3.org/1999/xlink" x="0px" y="0px"
	 viewBox="85 70.9 425.2 283.5" enable-background="new 85 70.9 425.2 283.5" xml:space="preserve">
<g>
	<path fill="#FFFFFF" stroke="#0079C1" d="M467.7,326.5c0,12.3-10,22.3-22.3,22.3H149.9c-12.3,0-22.3-10-22.3-22.3V98.7
		c0-12.3,10-22.3,22.3-22.3h295.5c12.3,0,22.3,10,22.3,22.3V326.5z"/>
	<path fill="#0079C1" d="M457.1,326.5c0,6.5-5.3,11.7-11.7,11.7H149.9c-6.5,0-11.7-5.3-11.7-11.7V98.7c0-6.5,5.3-11.7,11.7-11.7
		h295.5c6.5,0,11.7,5.3,11.7,11.7V326.5z"/>
	<g>
		<path fill="#FFFFFF" d="M178.8,141.4c6.3,0,8.6-6.1,8.6-10.2v-23.9h6.5v25.1c0,8-5.9,15.1-15.1,15.1c-9,0-15.7-6.3-15.7-15.1
			v-25.1h6.7v24.1C169.8,136.9,173.8,141.4,178.8,141.4z"/>
		<path fill="#FFFFFF" d="M227.2,127.3v19.4h-6.3v-18c0-1-1.6-4.7-4.9-4.7c-3.1,0-5.9,2.9-5.9,5.9v16.8h-6.3v-28h6.3v2.5
			c2.2-3.1,7.6-3.1,7.6-3.1C222.3,118.1,227.2,122.2,227.2,127.3z"/>
		<path fill="#FFFFFF" d="M239.5,126.3c0,1.4,1.6,2.5,4.1,2.9c4.9,1,4.3,1,5.9,1.6c3.1,1.2,4.9,3.5,4.9,7.4c0,4.7-3.9,9-10,9
			c-4.3,0-7-0.8-12.3-5.1l3.9-3.9c2.7,2.5,4.9,3.3,7.6,3.3c2.9,0,4.5-1,4.5-2.9c0-2.2-1.2-2.2-7-3.7c-7-2-7.6-5.7-7.6-8.4
			c0-3.9,2.9-8.8,11-8.8c0,0,5.9,0,9.8,4.1l-3.3,4.3c-2.9-2.9-6.5-2.9-6.5-2.9C241.7,123.2,239.5,124.5,239.5,126.3z"/>
		<path fill="#FFFFFF" d="M261.8,138v-19.2h6.1v18c0,1.8,0.8,4.9,4.9,4.9c2.9,0,5.7-3.3,5.7-6.1v-16.8h6.3v27.8h-6.3v-2.5
			c-2,3.3-7.4,3.3-7.4,3.3C265.5,147.4,261.8,143.9,261.8,138z"/>
		<rect x="293.9" y="118.7" fill="#FFFFFF" width="6.3" height="28"/>
		<path fill="#FFFFFF" d="M293.1,111c0-2,1.8-3.7,3.7-3.7c2.2,0,3.9,1.8,3.9,3.7c0,2.2-1.8,3.9-3.7,3.9
			C294.9,114.9,293.1,113.2,293.1,111z"/>
		<path fill="#FFFFFF" d="M311.9,118.7v-9l6.1-2.5v11.4h7.2v5.1H318V138c0,2.2,1,3.1,2.7,3.1c0,0,2.5,0,4.1-0.6l0.6,5.5
			c-2.9,0.8-6.5,0.8-6.5,0.8c-5.1,0-7-2.5-7-8.6v-14.7H307v-5.1h4.9V118.7z"/>
		<path fill="#FFFFFF" d="M340.5,147c-5.5,0-10.4-3.9-10.4-9.2c0-3.3,2.9-7.8,9-8.6l7.6-0.8v-1c0-2.5-1.2-4.1-4.3-4.1
			c0,0-4.5,0-8.8,2.2l-2.3-4.7c3.3-2,8-2.9,11.4-2.9c9,0,10.2,7.6,10.2,9.2v12.7c0,1.4,0.6,2.2,2.3,2.9l-2.7,4.9
			c-2.7-1-3.5-1.4-4.7-2.7C344.4,147,340.5,147,340.5,147z"/>
		<path fill="#0079C1" d="M336.2,138.2c0,2.2,2.3,3.9,4.9,3.9c3.1,0,5.5-1.8,5.5-3.9v-4.5l-6.3,0.6
			C337.6,134.5,336.2,136.3,336.2,138.2z"/>
		<path fill="#FFFFFF" d="M363,107.3h6.3V121c1.8-2.2,4.1-2.9,7.4-2.9c7.4,0,12.1,6.1,12.1,14.5c0,11.5-9,14.5-11.9,14.5
			c0,0-4.5,0-7.6-2.7v2.3H363V107.3z"/>
		<path fill="#FFFFFF" d="M404.5,141.2c0,0,1.2,0,3.3-0.4l0.8,5.5c-2.5,0.4-5.5,0.4-5.5,0.4c-5.9,0.6-7.2-2.3-7.2-9.2v-30.1h6.3
			v29.9C402,140.2,402.5,141.2,404.5,141.2z"/>
		<path fill="#FFFFFF" d="M411.7,132.6c0-8.8,5.3-14.5,13.1-14.5c7.4,0,12.1,5.5,12.1,15.9c0,0.6,0,1,0,1h-18.8
			c0.6,4.3,2.9,6.5,7,6.5c0,0,4.1,0,6.7-2.7l3.7,4.7c-3.9,4.1-10.2,4.1-10.2,4.1C416.8,147.4,411.7,141.8,411.7,132.6z"/>
		<path fill="#0079C1" d="M418.2,130.2h12.5c-0.2-4.1-2.3-6.9-5.9-6.9C421.5,123.4,418.6,125.3,418.2,130.2z"/>
		<path fill="#FFFFFF" d="M272.6,172.3v2.5h5.1v5.3h-5.1v22.7h-6.3v-22.7h-4.5v-5.3h4.5v-5.1c0-4.1,4.1-6.3,8.2-6.3
			c1.6,0,3.1,0.2,4.7,0.6l-0.6,5.1c-2,0-2.9,0-2.9,0C273.4,169.2,272.6,170.1,272.6,172.3z"/>
		<path fill="#FFFFFF" d="M283.5,188.7c0-8.8,5.1-14.9,13.5-14.9c8.2,0,13.3,6.1,13.3,14.9c0,10-6.5,14.7-13.3,14.7
			C289,203.4,283.5,197.1,283.5,188.7z"/>
		<path fill="#0079C1" d="M304.1,188.7c0-5.5-2.7-9-7.2-9c-4.5,0-7,3.7-7,9s2.5,9,7,9C301.4,197.5,304.1,193.8,304.1,188.7z"/>
		<path fill="#FFFFFF" d="M333.1,180.9c-8.4-1.6-8.4,7.8-8.4,7.8v14.1h-6.1v-28h6.1v2.9c1.2-1.8,4.9-3.9,8.4-3.3V180.9z"/>
		<path fill="#FFFFFF" d="M167.1,259.2c-5.5,0-10.4-3.9-10.4-9.2c0-3.3,2.9-7.8,9-8.6l7.6-0.8v-1.2c0-2.5-1.2-4.1-4.3-4.1
			c0,0-4.5,0-8.8,2.2l-2.3-4.7c3.3-2,8-2.9,11.4-2.9c9,0,10.2,7.6,10.2,9.2v12.7c0,1.4,0.6,2.2,2.3,2.9l-2.7,4.9
			c-2.7-1-3.5-1.4-4.7-2.7C171,259.2,167.1,259.2,167.1,259.2z"/>
		<path fill="#0079C1" d="M162.8,250.4c0,2.2,2.3,3.9,4.9,3.9c3.1,0,5.5-1.8,5.5-3.9v-4.5l-6.3,0.6
			C164.2,246.7,162.8,248.4,162.8,250.4z"/>
		<path fill="#FFFFFF" d="M204.3,236.9c-8.4-1.6-8.4,7.8-8.4,7.8v14.1h-6.1v-28h6.1v2.9c1.2-1.8,4.9-3.9,8.4-3.3V236.9z"/>
		<path fill="#FFFFFF" d="M214.5,230.8v-9l6.1-2.5v11.4h7.2v5.1h-7.2v14.5c0,2.2,1,3.1,2.7,3.1c0,0,2.5,0,4.1-0.6l0.6,5.5
			c-2.9,0.8-6.5,0.8-6.5,0.8c-5.1,0-7-2.5-7-8.6v-14.7h-4.9v-5.1h4.9V230.8z"/>
		<rect x="234.2" y="230.8" fill="#FFFFFF" width="6.3" height="28"/>
		<path fill="#FFFFFF" d="M233.6,223.2c0-2,1.8-3.7,3.7-3.7c2.2,0,3.9,1.8,3.9,3.7c0,2.2-1.8,3.9-3.7,3.9
			C235.2,227.1,233.6,225.3,233.6,223.2z"/>
		<path fill="#FFFFFF" d="M272.4,237.5l-5.1,2.5c-2-4.1-6.1-4.1-6.1-4.1c-4.1,0-7,4.1-7,9.4c0,5.1,3.3,8.6,7,8.6c0,0,2.9,0,6.5-4.1
			l4.9,2.2c-3.3,7.4-12.1,7.4-12.1,7.4c-7.4,0-12.5-6.7-12.5-13.9c0-8.6,5.1-14.9,12.9-14.9C260.8,230.4,268.1,230.4,272.4,237.5z"
			/>
		<path fill="#FFFFFF" d="M278.7,250.4v-19.2h6.1v18c0,1.8,0.8,4.9,4.9,4.9c2.9,0,5.7-3.3,5.7-6.1v-16.8h6.3V259h-6.3v-2.5
			c-2,3.3-7.4,3.3-7.4,3.3C282.2,259.6,278.7,256,278.7,250.4z"/>
		<path fill="#FFFFFF" d="M319.4,253.3c0,0,1.2,0,3.3-0.4l0.8,5.5c-2.5,0.4-5.5,0.4-5.5,0.4c-5.9,0.6-7.2-2.3-7.2-9.2v-30.1h6.3
			v29.7C316.8,252.3,317.6,253.3,319.4,253.3z"/>
		<path fill="#FFFFFF" d="M337,259.2c-5.5,0-10.4-3.9-10.4-9.2c0-3.3,2.9-7.8,9-8.6l7.6-0.8v-1.2c0-2.5-1.2-4.1-4.3-4.1
			c0,0-4.5,0-8.8,2.2l-2.3-4.7c3.3-2,8-2.9,11.4-2.9c9,0,10.2,7.6,10.2,9.2v12.7c0,1.4,0.6,2.2,2.3,2.9l-2.7,4.9
			c-2.7-1-3.5-1.4-4.7-2.7C341.1,259.2,337,259.2,337,259.2z"/>
		<path fill="#0079C1" d="M332.9,250.4c0,2.2,2.3,3.9,4.9,3.9c3.1,0,5.5-1.8,5.5-3.9v-4.5l-6.3,0.6
			C334.2,246.7,332.9,248.4,332.9,250.4z"/>
		<path fill="#FFFFFF" d="M362,230.8v-9l6.1-2.5v11.4h7.2v5.1h-7.2v14.5c0,2.2,1,3.1,2.7,3.1c0,0,2.5,0,4.1-0.6l0.6,5.5
			c-2.9,0.8-6.5,0.8-6.5,0.8c-5.1,0-7-2.5-7-8.6v-14.7h-4.9v-5.1h4.9V230.8z"/>
		<path fill="#FFFFFF" d="M380.2,244.7c0-8.8,5.3-14.5,13.1-14.5c7.4,0,12.1,5.5,12.1,15.9c0,0.6,0,1,0,1h-18.8
			c0.6,4.3,2.9,6.5,7,6.5c0,0,4.1,0,6.7-2.7l3.7,4.7c-3.9,4.1-10.2,4.1-10.2,4.1C385.3,259.6,380.2,253.9,380.2,244.7z"/>
		<path fill="#0079C1" d="M386.7,242.3h12.5c-0.2-4.1-2.3-6.9-5.9-6.9C390,235.5,387.3,237.5,386.7,242.3z"/>
		<path fill="#FFFFFF" d="M430.3,256.4c-3.1,2.7-7.6,2.7-7.6,2.7c-2.9,0-11.9-2.9-11.9-14.5c0-8.4,4.7-14.5,12.1-14.5
			c3.3,0,5.7,1,7.4,2.9v-13.7h6.3v39.3h-6.3V256.4z"/>
		<path fill="#0079C1" d="M430.3,247V242c0-3.3-3.1-6.1-6.3-6.1c-3.9,0-7,4.3-7,8.6c0,4.7,3.3,8.4,6.9,8.4
			C426.8,252.9,430.3,250.4,430.3,247z"/>
		<polygon fill="#FFFFFF" points="211.3,315 204.1,315 194.9,287.2 201.7,287.2 207.6,306.3 213.9,287.2 220.5,287.2 		"/>
		<path fill="#FFFFFF" d="M223.9,300.9c0-8.8,5.3-14.5,13.1-14.5c7.4,0,12.1,5.5,12.1,15.9c0,0.6,0,1,0,1h-18.8
			c0.6,4.3,2.9,6.5,7,6.5c0,0,4.1,0,6.7-2.7l3.7,4.7c-3.9,4.1-10.2,4.1-10.2,4.1C228.9,315.7,223.9,310.1,223.9,300.9z"/>
		<path fill="#0079C1" d="M230.3,298.3h12.5c-0.2-4.1-2.3-6.9-5.9-6.9C233.6,291.5,230.9,293.6,230.3,298.3z"/>
		<path fill="#FFFFFF" d="M279,294.6v20.2h-5.7v-17c0-2.9-1.8-5.9-4.9-5.9c-4.3,0-5.9,3.5-5.9,5.9v17h-6.1v-39.3h6.1v13.9
			c1.8-3.3,7-3.3,7-3.3C276.1,286.2,279,291.5,279,294.6z"/>
		<rect x="286.9" y="286.8" fill="#FFFFFF" width="6.3" height="28"/>
		<path fill="#FFFFFF" d="M286.3,279.3c0-2,1.8-3.7,3.7-3.7c2.2,0,3.9,1.8,3.9,3.7c0,2.2-1.8,3.9-3.7,3.9
			C288,283.1,286.3,281.5,286.3,279.3z"/>
		<path fill="#FFFFFF" d="M325,293.4L320,296c-2-4.1-6.1-4.1-6.1-4.1c-4.1,0-7,4.1-7,9.4c0,5.1,3.3,8.6,7,8.6c0,0,2.9,0,6.5-4.1
			l4.9,2.2c-3.3,7.4-12.1,7.4-12.1,7.4c-7.4,0-12.5-6.7-12.5-13.9c0-8.6,5.1-14.9,12.9-14.9C313.5,286.4,320.7,286.4,325,293.4z"/>
		<path fill="#FFFFFF" d="M339.9,309.5c0,0,1.2,0,3.3-0.4l0.8,5.5c-2.5,0.4-5.5,0.4-5.5,0.4c-5.9,0.6-7.2-2.3-7.2-9.2v-30.1h6.3
			v29.9C337.4,308.5,338.2,309.5,339.9,309.5z"/>
		<path fill="#FFFFFF" d="M347.2,300.9c0-8.8,5.3-14.5,13.1-14.5c7.4,0,12.1,5.5,12.1,15.9c0,0.6,0,1,0,1h-18.8
			c0.6,4.3,2.9,6.5,7,6.5c0,0,4.1,0,6.7-2.7l3.7,4.7c-3.9,4.1-10.2,4.1-10.2,4.1C352.2,315.7,347.2,310.1,347.2,300.9z"/>
		<path fill="#0079C1" d="M353.6,298.3h12.5c-0.2-4.1-2.3-6.9-5.9-6.9C356.9,291.5,354.2,293.6,353.6,298.3z"/>
		<path fill="#FFFFFF" d="M384,294.6c0,1.4,1.6,2.5,4.1,2.9c4.9,1,4.3,1,5.9,1.6c3.1,1.2,4.9,3.5,4.9,7.4c0,4.7-3.9,9-10,9
			c-4.3,0-7-0.8-12.3-5.1l3.9-3.9c2.7,2.5,4.9,3.3,7.6,3.3c2.9,0,4.5-1,4.5-2.9c0-2.2-1.2-2.2-7-3.7c-7-2-7.6-5.7-7.6-8.4
			c0-3.9,2.9-8.8,11-8.8c0,0,5.9,0,9.8,4.1l-3.3,4.3c-2.9-2.9-6.5-2.9-6.5-2.9C385.9,291.5,384,292.6,384,294.6z"/>
		<path fill="#0079C1" d="M375.5,123.7c-2.9,0-6.3,2.9-6.3,6.1v5.1c0,3.3,3.5,5.9,6.5,5.9c3.5,0,6.9-3.7,6.9-8.4
			C382.6,128,379.5,123.7,375.5,123.7z"/>
	</g>
</g>
</svg>
