<?xml version="1.0" encoding="utf-8"?>
<!-- Generator: Adobe Illustrator 17.1.0, SVG Export Plug-In . SVG Version: 6.00 Build 0)  -->
<!DOCTYPE svg PUBLIC "-//W3C//DTD SVG 1.1//EN" "http://www.w3.org/Graphics/SVG/1.1/DTD/svg11.dtd">
<svg version="1.1" id="Layer_1" xmlns="http://www.w3.org/2000/svg" xmlns:xlink="http://www.w3.org/1999/xlink" x="0px" y="0px"
	 viewBox="85 70.9 425.2 283.5" enable-background="new 85 70.9 425.2 283.5" xml:space="preserve">
<g>
	<path fill="#FFFFFF" stroke="#0079C1" d="M467.7,298.6c0,12.3-10,22.3-22.3,22.3H149.9c-12.3,0-22.3-10-22.3-22.3v-172
		c0-12.3,10-22.3,22.3-22.3h295.5c12.3,0,22.3,10,22.3,22.3V298.6z"/>
	<path fill="#0079C1" d="M457.1,298.6c0,6.5-5.3,11.7-11.7,11.7H149.9c-6.5,0-11.7-5.3-11.7-11.7v-172c0-6.5,5.3-11.7,11.7-11.7
		h295.5c6.5,0,11.7,5.3,11.7,11.7V298.6z"/>
	<g>
		<path fill="#FFFFFF" d="M176.5,169.4c6.3,0,8.6-6.1,8.6-10.2v-23.9h6.5v25.1c0,8-5.9,15.1-15.1,15.1c-9,0-15.7-6.3-15.7-15.1
			v-25.1h6.7v23.9C167.5,164.9,171.4,169.4,176.5,169.4z"/>
		<path fill="#FFFFFF" d="M224.8,155.4v19.4h-6.3v-18c0-1-1.6-4.7-4.9-4.7c-3.1,0-5.9,2.9-5.9,5.9v16.8h-6.3v-28h6.3v2.5
			c2.2-3.1,7.6-3.1,7.6-3.1C220.1,146,224.8,150.1,224.8,155.4z"/>
		<path fill="#FFFFFF" d="M237.4,154.4c0,1.4,1.6,2.5,4.1,2.9c4.9,1,4.3,1,5.9,1.6c3.1,1.2,4.9,3.5,4.9,7.4c0,4.7-3.9,9-10,9
			c-4.3,0-7-0.8-12.3-5.1l3.9-3.9c2.7,2.5,4.9,3.3,7.6,3.3c2.9,0,4.5-1,4.5-2.9c0-2.2-1.2-2.2-7-3.7c-7-2-7.6-5.7-7.6-8.4
			c0-3.9,2.9-8.8,11-8.8c0,0,5.9,0,9.8,4.1l-3.3,4.3c-2.9-2.9-6.5-2.9-6.5-2.9C239.3,151.2,237.4,152.6,237.4,154.4z"/>
		<path fill="#FFFFFF" d="M259.7,166.1v-19.2h6.1v18c0,1.8,0.8,4.9,4.9,4.9c2.9,0,5.7-3.3,5.7-6.1v-16.8h6.3v27.8h-6.3v-2.5
			c-2,3.3-7.4,3.3-7.4,3.3C263.2,175.5,259.7,171.8,259.7,166.1z"/>
		<rect x="291.6" y="146.5" fill="#FFFFFF" width="6.3" height="28"/>
		<path fill="#FFFFFF" d="M291,139.1c0-2,1.8-3.7,3.7-3.7c2.2,0,3.9,1.8,3.9,3.7c0,2.2-1.8,3.9-3.7,3.9
			C292.6,143,291,141.3,291,139.1z"/>
		<path fill="#FFFFFF" d="M309.6,146.5v-9l6.1-2.5v11.4h7.2v5.1h-7.2v14.5c0,2.2,1,3.1,2.7,3.1c0,0,2.5,0,4.1-0.6l0.6,5.5
			c-2.9,0.8-6.5,0.8-6.5,0.8c-5.1,0-7-2.5-7-8.6v-14.7h-4.9v-5.1h4.9V146.5z"/>
		<path fill="#FFFFFF" d="M338.2,175.1c-5.5,0-10.4-3.9-10.4-9.2c0-3.3,2.9-7.8,9-8.6l7.6-0.8v-1.2c0-2.5-1.2-4.1-4.3-4.1
			c0,0-4.5,0-8.8,2.2l-2.3-4.7c3.3-2,8-2.9,11.4-2.9c9,0,10.2,7.6,10.2,9.2v12.7c0,1.4,0.6,2.2,2.3,2.9l-2.7,4.9
			c-2.7-1-3.5-1.4-4.7-2.7C342.1,175.1,338.2,175.1,338.2,175.1z"/>
		<path fill="#0079C1" d="M334,166.3c0,2.2,2.3,3.9,4.9,3.9c3.1,0,5.5-1.8,5.5-3.9v-4.5l-6.3,0.6C335.4,162.6,334,164.4,334,166.3z"
			/>
		<path fill="#FFFFFF" d="M360.9,135.4h6.3v13.7c1.8-2.2,4.1-2.9,7.4-2.9c7.4,0,12.1,6.1,12.1,14.5c0,11.5-9,14.5-11.9,14.5
			c0,0-4.5,0-7.6-2.7v2.3h-6.3V135.4z"/>
		<path fill="#FFFFFF" d="M402.2,169.2c0,0,1.2,0,3.3-0.4l0.8,5.5c-2.5,0.4-5.5,0.4-5.5,0.4c-5.9,0.6-7.2-2.3-7.2-9.2v-30.1h6.3
			v29.7C399.6,168.3,400.4,169.2,402.2,169.2z"/>
		<path fill="#FFFFFF" d="M409.4,160.6c0-8.8,5.3-14.5,13.1-14.5c7.4,0,12.1,5.5,12.1,15.9c0,0.6,0,1,0,1h-18.8
			c0.6,4.3,2.9,6.5,7,6.5c0,0,4.1,0,6.7-2.7l3.7,4.7c-3.9,4.1-10.2,4.1-10.2,4.1C414.5,175.5,409.4,169.8,409.4,160.6z"/>
		<path fill="#0079C1" d="M416,158.1h12.5c-0.2-4.1-2.3-6.9-5.9-6.9C419.2,151.4,416.4,153.4,416,158.1z"/>
		<path fill="#FFFFFF" d="M205.1,200.4v2.5h5.1v5.3h-5.1v22.7h-6.3v-22.7h-4.5v-5.3h4.5v-5.1c0-4.1,4.1-6.3,8.2-6.3
			c1.6,0,3.1,0.2,4.7,0.6l-0.6,5.1c-2,0-2.9,0-2.9,0C206,197,205.1,198.2,205.1,200.4z"/>
		<path fill="#FFFFFF" d="M216,216.8c0-8.8,5.1-14.9,13.5-14.9c8.2,0,13.3,6.1,13.3,14.9c0,10-6.5,14.7-13.3,14.7
			C221.7,231.5,216,225,216,216.8z"/>
		<path fill="#0079C1" d="M236.8,216.8c0-5.5-2.7-9-7.2-9c-4.5,0-7,3.7-7,9s2.5,9,7,9C234,225.6,236.8,221.9,236.8,216.8z"/>
		<path fill="#FFFFFF" d="M265.7,208.8c-8.4-1.6-8.4,7.8-8.4,7.8v14.1h-6.1v-28h6.1v2.9c1.2-1.8,4.9-3.9,8.4-3.3V208.8z"/>
		<path fill="#FFFFFF" d="M298.6,225.2c0,0,1.2,0,3.3-0.4l0.8,5.5c-2.5,0.4-5.5,0.4-5.5,0.4c-5.9,0.6-7.2-2.3-7.2-9.2v-30.1h6.3
			v29.7C295.9,224.2,296.7,225.2,298.6,225.2z"/>
		<path fill="#FFFFFF" d="M305.9,216.8c0-8.8,5.1-14.9,13.5-14.9c8.2,0,13.3,6.1,13.3,14.9c0,10-6.5,14.7-13.3,14.7
			C311.5,231.5,305.9,225,305.9,216.8z"/>
		<path fill="#0079C1" d="M326.6,216.8c0-5.5-2.7-9-7.2-9c-4.5,0-7,3.7-7,9s2.5,9,7,9C323.7,225.6,326.6,221.9,326.6,216.8z"/>
		<path fill="#FFFFFF" d="M363.8,211.3v19.4h-6.3v-18c0-1-1.6-4.7-4.9-4.7c-3.1,0-5.9,2.9-5.9,5.9v16.8h-6.3v-28h6.3v2.5
			c2.2-3.1,7.6-3.1,7.6-3.1C359.1,202.1,363.8,206.2,363.8,211.3z"/>
		<path fill="#FFFFFF" d="M381.8,240.3c0,0-5.7,0-10-2.5l2.2-5.3c3.1,1.6,5.7,2.2,8.4,2.2c2.3,0,6.1-0.4,6.1-4.5v-3.7
			c-2.9,2.3-6.3,2.3-6.3,2.3c-10.2,0-11.9-9.8-11.9-13.3c0-4.1,2.2-12.9,11.5-12.9c0,0,4.7,0,6.7,2.5v-2.2h6.3v27.2
			C394.5,233.8,394.1,240.3,381.8,240.3z"/>
		<path fill="#0079C1" d="M382.4,222.9c4.3,0,6.1-3.3,6.1-7.4c0.6-7-6.1-7-6.1-7c-4.1,0-5.9,2.5-5.9,7
			C376.5,219.5,378.3,222.9,382.4,222.9z"/>
		<polygon fill="#FFFFFF" points="209,286.9 201.7,286.9 192.7,259.1 199.4,259.1 205.5,278.3 211.5,259.1 218.2,259.1 		"/>
		<path fill="#FFFFFF" d="M221.5,272.8c0-8.8,5.3-14.5,13.1-14.5c7.4,0,12.1,5.5,12.1,15.9c0,0.6,0,1,0,1H228c0.6,4.3,2.9,6.5,7,6.5
			c0,0,4.1,0,6.7-2.7l3.7,4.7c-3.9,4.1-10.2,4.1-10.2,4.1C226.8,287.7,221.5,282,221.5,272.8z"/>
		<path fill="#0079C1" d="M228.2,270.2h12.5c-0.2-4.1-2.3-6.9-5.9-6.9C231.3,263.6,228.6,265.5,228.2,270.2z"/>
		<path fill="#FFFFFF" d="M276.7,266.7v20.2H271v-17c0-2.9-1.8-5.9-4.9-5.9c-4.3,0-5.9,3.5-5.9,5.9v17h-6.1v-39.3h6.1v13.9
			c1.8-3.3,7-3.3,7-3.3C273.8,258.1,276.7,263.4,276.7,266.7z"/>
		<rect x="284.7" y="258.7" fill="#FFFFFF" width="6.3" height="28"/>
		<path fill="#FFFFFF" d="M283.9,251.3c0-2,1.8-3.7,3.7-3.7c2.2,0,3.9,1.8,3.9,3.7c0,2.2-1.8,3.9-3.7,3.9
			C285.7,255.2,283.9,253.4,283.9,251.3z"/>
		<path fill="#FFFFFF" d="M322.7,265.3l-5.1,2.5c-2-4.1-6.1-4.1-6.1-4.1c-4.1,0-7,4.1-7,9.4c0,5.1,3.3,8.6,7,8.6c0,0,2.9,0,6.5-4.1
			l4.9,2.2c-3.3,7.4-12.1,7.4-12.1,7.4c-7.4,0-12.5-6.7-12.5-13.9c0-8.6,5.1-14.9,12.9-14.9C311.1,258.3,318.4,258.3,322.7,265.3z"
			/>
		<path fill="#FFFFFF" d="M337.8,281.4c0,0,1.2,0,3.3-0.4l0.8,5.5c-2.5,0.4-5.5,0.4-5.5,0.4c-5.9,0.6-7.2-2.3-7.2-9.2v-30.1h6.3
			v29.7C335,280.4,335.8,281.4,337.8,281.4z"/>
		<path fill="#FFFFFF" d="M344.8,272.8c0-8.8,5.3-14.5,13.1-14.5c7.4,0,12.1,5.5,12.1,15.9c0,0.6,0,1,0,1h-18.8
			c0.6,4.3,2.9,6.5,7,6.5c0,0,4.1,0,6.7-2.7l3.7,4.7c-3.9,4.1-10.2,4.1-10.2,4.1C350.1,287.7,344.8,282,344.8,272.8z"/>
		<path fill="#0079C1" d="M351.5,270.2H364c-0.2-4.1-2.3-6.9-5.9-6.9C354.6,263.6,351.9,265.5,351.5,270.2z"/>
		<path fill="#FFFFFF" d="M381.6,266.5c0,1.4,1.6,2.5,4.1,2.9c4.9,1,4.3,1,5.9,1.6c3.1,1.2,4.9,3.5,4.9,7.4c0,4.7-3.9,9-10,9
			c-4.3,0-7-0.8-12.3-5.1l3.9-3.9c2.7,2.5,4.9,3.3,7.6,3.3c2.9,0,4.5-1,4.5-2.9c0-2.2-1.2-2.2-7-3.7c-7-2-7.6-5.7-7.6-8.4
			c0-3.9,2.9-8.8,11-8.8c0,0,5.9,0,9.8,4.1l-3.3,4.3c-2.9-2.9-6.5-2.9-6.5-2.9C383.6,263.4,381.6,264.8,381.6,266.5z"/>
		<path fill="#0079C1" d="M373.2,151.8c-2.9,0-6.3,2.9-6.3,6.1v5.1c0,3.3,3.5,5.9,6.5,5.9c3.5,0,6.9-3.7,6.9-8.4
			C380.2,155.9,377.1,151.8,373.2,151.8z"/>
	</g>
</g>
</svg>
