<?xml version="1.0" encoding="utf-8"?>
<!-- Generator: Adobe Illustrator 17.1.0, SVG Export Plug-In . SVG Version: 6.00 Build 0)  -->
<!DOCTYPE svg PUBLIC "-//W3C//DTD SVG 1.1//EN" "http://www.w3.org/Graphics/SVG/1.1/DTD/svg11.dtd">
<svg version="1.1" id="Layer_1" xmlns="http://www.w3.org/2000/svg" xmlns:xlink="http://www.w3.org/1999/xlink" x="0px" y="0px"
	 viewBox="85 70.9 425.2 283.5" enable-background="new 85 70.9 425.2 283.5" xml:space="preserve">
<g>
	<path fill="#FFFFFF" stroke="#0079C1" d="M467.7,265.8c0,11.2-9.1,20.1-20.1,20.1H147.7c-11.2,0-20.1-9.1-20.1-20.1V159.4
		c0-11.2,9.1-20.1,20.1-20.1h299.9c11.2,0,20.1,9.1,20.1,20.1V265.8z"/>
	<path fill="#0079C1" d="M458.2,265.8c0,5.9-4.8,10.6-10.6,10.6H147.7c-5.9,0-10.6-4.8-10.6-10.6V159.4c0-5.9,4.8-10.6,10.6-10.6
		h299.9c5.9,0,10.6,4.8,10.6,10.6V265.8z"/>
	<g>
		<g>
			<path fill="#FFFFFF" d="M189,197.9c5.7,0,7.7-5.4,7.7-9.2v-21.7h5.9v22.7c0,7.3-5.3,13.7-13.7,13.7c-8.2,0-14.1-5.7-14.1-13.7
				v-22.7h6v21.7C180.8,193.7,184.4,197.9,189,197.9z"/>
			<path fill="#FFFFFF" d="M232.8,185v17.6h-5.6v-16.3c0-0.9-1.3-4.3-4.4-4.3c-2.8,0-5.2,2.7-5.2,5.3v15.3h-5.8v-25.4h5.8v2.3
				c1.9-2.9,6.9-2.9,6.9-2.9C228.5,176.7,232.8,180.4,232.8,185z"/>
			<path fill="#FFFFFF" d="M244.1,184.2c0,1.2,1.5,2.2,3.7,2.7c4.5,0.9,3.9,0.9,5.3,1.4c2.8,1,4.4,3.2,4.4,6.7
				c0,4.3-3.5,8.3-9.1,8.3c-3.9,0-6.4-0.8-11.3-4.6l3.6-3.6c2.5,2.3,4.4,3,6.9,3c2.7,0,4.2-0.8,4.2-2.7c0-1.9-1-1.9-6.3-3.4
				c-6.4-1.9-6.9-5.1-6.9-7.6c0-3.5,2.6-7.9,9.9-7.9c0,0,5.3,0,8.8,3.6l-3,3.9c-2.6-2.6-5.9-2.6-5.9-2.6
				C245.9,181.3,244.1,182.5,244.1,184.2z"/>
			<path fill="#FFFFFF" d="M264.3,194.9v-17.5h5.5v16.2c0,1.5,0.8,4.4,4.4,4.4c2.8,0,5.1-2.9,5.1-5.5v-15.2h5.7v25.2h-5.7v-2.3
				c-1.8,3-6.8,3-6.8,3C267.6,203.4,264.3,200.1,264.3,194.9z"/>
			<rect x="293.3" y="177.2" fill="#FFFFFF" width="5.6" height="25.4"/>
			<path fill="#FFFFFF" d="M292.7,170.4c0-1.8,1.6-3.4,3.4-3.4c2,0,3.5,1.6,3.5,3.4c0,2-1.5,3.5-3.5,3.5
				C294.3,173.8,292.7,172.3,292.7,170.4z"/>
			<path fill="#FFFFFF" d="M309.7,177.2v-8.1l5.5-2.2v10.3h6.6v4.6h-6.6v13c0,2,0.9,2.9,2.5,2.9c0,0,2.3,0,3.6-0.5l0.4,5
				c-2.7,0.6-5.8,0.6-5.8,0.6c-4.6,0-6.4-2.2-6.4-7.7v-13.3h-4.4v-4.6H309.7z"/>
			<path fill="#FFFFFF" d="M335.6,203c-5.1,0-9.5-3.6-9.5-8.3c0-3,2.7-7.1,8.3-7.7l6.9-0.8v-1.1c0-2.4-1-3.8-3.9-3.8c0,0-4,0-7.9,2
				l-2.2-4.3c3.1-1.8,7.4-2.7,10.4-2.7c8.3,0,9.3,6.8,9.3,8.4v11.5c0,1.3,0.4,1.9,2.1,2.6l-2.5,4.4c-2.5-0.9-3.3-1.2-4.3-2.6
				C339.2,203,335.6,203,335.6,203z"/>
			<path fill="#0079C1" d="M331.8,195c0,2,2.1,3.5,4.4,3.5c2.8,0,5-1.6,5-3.6v-4.2l-5.8,0.5C333,191.6,331.8,193.2,331.8,195z"/>
			<path fill="#FFFFFF" d="M356.1,167h5.6v12.4c1.7-2,3.7-2.8,6.8-2.8c6.7,0,11,5.5,11,13.2c0,10.4-8.2,13.1-10.9,13.1
				c0,0-4.1,0-6.9-2.5v2h-5.6L356.1,167L356.1,167z"/>
			<path fill="#FFFFFF" d="M393.7,197.7c0,0,1,0,3-0.4l0.6,5c-2.3,0.4-5.1,0.4-5.1,0.4c-5.3,0.4-6.6-2.2-6.6-8.3v-27.3h5.6v27.1
				C391.3,196.8,391.9,197.7,393.7,197.7z"/>
			<path fill="#FFFFFF" d="M400.2,189.9c0-8,4.8-13.2,12-13.2c6.8,0,11,5,11,14.4c0,0.6,0,0.9,0,0.9h-17c0.6,3.9,2.7,5.9,6.4,5.9
				c0,0,3.6,0,6-2.5l3.4,4.3c-3.6,3.8-9.2,3.8-9.2,3.8C404.9,203.4,400.2,198.2,400.2,189.9z"/>
			<path fill="#0079C1" d="M406.1,187.6h11.4c-0.2-3.8-2-6.1-5.3-6.1C409,181.5,406.5,183.3,406.1,187.6z"/>
			<path fill="#FFFFFF" d="M162.2,225.8v2.2h4.6v4.7h-4.6v20.7h-5.6v-20.7h-4.2v-4.6h4.2v-4.7c0-3.7,3.7-5.7,7.5-5.7
				c1.5,0,2.8,0.3,4.3,0.5l-0.5,4.6c-1.7,0-2.7,0-2.7,0C163,223,162.2,224,162.2,225.8z"/>
			<path fill="#FFFFFF" d="M172.1,240.7c0-8,4.6-13.6,12.2-13.6c7.5,0,12,5.5,12,13.6c0,9-5.9,13.4-12,13.4
				C177.2,254.1,172.1,248.4,172.1,240.7z"/>
			<path fill="#0079C1" d="M190.9,240.7c0-4.9-2.6-8.2-6.6-8.2s-6.4,3.3-6.4,8.2c0,4.7,2.4,8.1,6.5,8.1
				C188.3,248.8,190.9,245.4,190.9,240.7z"/>
			<path fill="#FFFFFF" d="M217,233.6c-7.7-1.5-7.7,7-7.7,7v12.9h-5.5v-25.4h5.5v2.6c1.1-1.6,4.4-3.5,7.7-2.9V233.6z"/>
			<path fill="#FFFFFF" d="M259.5,234.1l-4.7,2.4c-1.9-3.8-5.5-3.8-5.5-3.8c-3.6,0-6.4,3.7-6.4,8.5c0,4.6,2.9,7.8,6.3,7.8
				c0,0,2.6,0,5.9-3.8l4.5,2c-3.1,6.7-10.9,6.7-10.9,6.7c-6.7,0-11.4-6.1-11.4-12.6c0-7.8,4.6-13.5,11.8-13.5
				C249.1,227.7,255.7,227.7,259.5,234.1z"/>
			<path fill="#FFFFFF" d="M273.1,253.9c-5.1,0-9.5-3.6-9.5-8.3c0-3,2.7-7.1,8.3-7.7l6.9-0.8V236c0-2.4-1-3.8-3.9-3.8c0,0-4,0-7.9,2
				l-2.2-4.3c3.1-1.8,7.4-2.7,10.4-2.7c8.3,0,9.3,6.8,9.3,8.4v11.5c0,1.3,0.4,1.9,2.1,2.6l-2.5,4.4c-2.5-0.9-3.3-1.2-4.3-2.6
				C276.7,253.9,273.1,253.9,273.1,253.9z"/>
			<path fill="#0079C1" d="M269.4,245.9c0,2,2.1,3.5,4.4,3.5c2.8,0,5-1.6,5-3.6v-4.2l-5.8,0.5C270.5,242.4,269.4,244.1,269.4,245.9z
				"/>
			<path fill="#FFFFFF" d="M306.9,233.6c-7.7-1.5-7.7,7-7.7,7v12.9h-5.5v-25.4h5.5v2.6c1.1-1.6,4.4-3.5,7.7-2.9V233.6z"/>
			<path fill="#FFFFFF" d="M321.6,253.9c-5.1,0-9.5-3.6-9.5-8.3c0-3,2.7-7.1,8.3-7.7l6.9-0.8V236c0-2.4-1-3.8-3.9-3.8c0,0-4,0-7.9,2
				l-2.2-4.3c3.1-1.8,7.4-2.7,10.4-2.7c8.3,0,9.3,6.8,9.3,8.4v11.5c0,1.3,0.4,1.9,2.1,2.6l-2.5,4.4c-2.5-0.9-3.3-1.2-4.3-2.6
				C325.3,253.9,321.6,253.9,321.6,253.9z"/>
			<path fill="#0079C1" d="M317.8,245.9c0,2,2.1,3.5,4.4,3.5c2.8,0,5-1.6,5-3.6v-4.2l-5.8,0.5C319.1,242.4,317.8,244.1,317.8,245.9z
				"/>
			<polygon fill="#FFFFFF" points="353.8,253.5 347.2,253.5 339,228.3 345,228.3 350.5,245.7 356.1,228.3 362,228.3 			"/>
			<path fill="#FFFFFF" d="M374.5,253.9c-5.1,0-9.5-3.6-9.5-8.3c0-3,2.7-7.1,8.3-7.7l6.9-0.8V236c0-2.4-1-3.8-3.9-3.8c0,0-4,0-7.9,2
				l-2.2-4.3c3.1-1.8,7.4-2.7,10.4-2.7c8.3,0,9.3,6.8,9.3,8.4v11.5c0,1.3,0.4,1.9,2.1,2.6l-2.5,4.4c-2.5-0.9-3.3-1.2-4.3-2.6
				C378.2,253.9,374.5,253.9,374.5,253.9z"/>
			<path fill="#0079C1" d="M370.8,245.9c0,2,2.1,3.5,4.4,3.5c2.8,0,5-1.6,5-3.6v-4.2l-5.8,0.5C372,242.4,370.8,244.1,370.8,245.9z"
				/>
			<path fill="#FFFFFF" d="M416,235.9v17.6h-5.6v-16.3c0-0.9-1.3-4.3-4.4-4.3c-2.8,0-5.2,2.7-5.2,5.3v15.3h-5.8v-25.3h5.8v2.3
				c1.9-2.9,6.9-2.9,6.9-2.9C411.6,227.5,416,231.2,416,235.9z"/>
			<path fill="#FFFFFF" d="M427.3,235.1c0,1.2,1.5,2.2,3.7,2.7c4.5,0.9,3.9,0.9,5.3,1.4c2.8,1,4.4,3.2,4.4,6.7
				c0,4.3-3.5,8.3-9.1,8.3c-3.9,0-6.4-0.8-11.3-4.6l3.6-3.6c2.5,2.3,4.4,3,6.9,3c2.7,0,4.2-0.8,4.2-2.7c0-1.9-1-1.9-6.3-3.4
				c-6.4-1.9-6.9-5.1-6.9-7.6c0-3.5,2.6-7.9,9.9-7.9c0,0,5.3,0,8.8,3.6l-3,3.9c-2.6-2.6-5.9-2.6-5.9-2.6
				C429,232.1,427.3,233.4,427.3,235.1z"/>
			<path fill="#0079C1" d="M367.3,181.8c-2.8,0-5.7,2.6-5.7,5.5v4.6c0,3,3.3,5.4,5.9,5.4c3.2,0,6.2-3.4,6.2-7.6
				C373.7,185.7,370.9,181.8,367.3,181.8z"/>
		</g>
	</g>
</g>
</svg>
