<?xml version="1.0" encoding="utf-8"?>
<!-- Generator: Adobe Illustrator 17.1.0, SVG Export Plug-In . SVG Version: 6.00 Build 0)  -->
<!DOCTYPE svg PUBLIC "-//W3C//DTD SVG 1.1//EN" "http://www.w3.org/Graphics/SVG/1.1/DTD/svg11.dtd">
<svg version="1.1" id="Layer_1" xmlns="http://www.w3.org/2000/svg" xmlns:xlink="http://www.w3.org/1999/xlink" x="0px" y="0px"
	 viewBox="85 70.9 425.2 283.5" enable-background="new 85 70.9 425.2 283.5" xml:space="preserve">
<g>
	<path fill="#FFFFFF" stroke="#0079C1" d="M467.7,301.3c0,12.5-10.1,22.6-22.6,22.6h-295c-12.5,0-22.6-10.1-22.6-22.6V123.9
		c0-12.5,10.1-22.6,22.6-22.6h295c12.5,0,22.6,10.1,22.6,22.6V301.3z"/>
	<path fill="#0079C1" d="M457,301.3c0,6.5-5.3,11.9-11.9,11.9h-295c-6.5,0-11.9-5.3-11.9-11.9V123.9c0-6.5,5.3-11.9,11.9-11.9h295
		c6.5,0,11.9,5.3,11.9,11.9V301.3z"/>
	<path fill="#FFFFFF" d="M176.3,167.1c6.3,0,8.7-6.1,8.7-10.3v-24.2h6.5V158c0,8.1-5.9,15.2-15.2,15.2c-9.1,0-15.8-6.3-15.8-15.2
		v-25.3h6.7v24.2C167.4,162.5,171.3,167.1,176.3,167.1z"/>
	<path fill="#FFFFFF" d="M225.2,152.8v19.6h-6.3v-18.2c0-1-1.6-4.8-4.9-4.8c-3.2,0-5.9,3-5.9,5.9v17h-6.3v-28.3h6.3v2.6
		c2.2-3.2,7.7-3.2,7.7-3.2C220.4,143.3,225.2,147.5,225.2,152.8z"/>
	<path fill="#FFFFFF" d="M237.8,151.8c0,1.4,1.6,2.6,4.2,3c4.9,1,4.4,1,5.9,1.6c3.2,1.2,4.9,3.6,4.9,7.5c0,4.8-4,9.1-10.1,9.1
		c-4.4,0-7.1-0.8-12.5-5.1l4-4c2.8,2.6,4.9,3.4,7.7,3.4c3,0,4.6-1,4.6-3c0-2.2-1.2-2.2-7.1-3.8c-7.1-2-7.7-5.7-7.7-8.5
		c0-4,3-8.9,11.1-8.9c0,0,5.9,0,9.9,4.2l-3.4,4.4c-3-3-6.5-3-6.5-3C239.8,148.6,237.8,150,237.8,151.8z"/>
	<path fill="#FFFFFF" d="M260.4,163.7v-19.4h6.1v18.2c0,1.8,0.8,4.9,4.9,4.9c3,0,5.7-3.4,5.7-6.1v-17h6.3v28.1h-6.3v-2.6
		c-2,3.4-7.5,3.4-7.5,3.4C264,173.2,260.4,169.4,260.4,163.7z"/>
	<rect x="292.9" y="144.1" fill="#FFFFFF" width="6.3" height="28.3"/>
	<path fill="#FFFFFF" d="M292.1,136.4c0-2,1.8-3.8,3.8-3.8c2.2,0,4,1.8,4,3.8c0,2.2-1.8,4-3.8,4
		C293.9,140.3,292.1,138.5,292.1,136.4z"/>
	<path fill="#FFFFFF" d="M311.1,144.1V135l6.1-2.6v11.5h7.3v5.1h-7.3v14.7c0,2.2,1,3.2,2.8,3.2c0,0,2.6,0,4.2-0.6l0.6,5.5
		c-3,0.8-6.5,0.8-6.5,0.8c-5.1,0-7.1-2.6-7.1-8.7V149h-4.9v-5.1h4.9V144.1z"/>
	<path fill="#FFFFFF" d="M339.8,172.8c-5.5,0-10.5-4-10.5-9.3c0-3.4,3-7.9,9.1-8.7l7.7-0.8v-1.2c0-2.6-1.2-4.2-4.4-4.2
		c0,0-4.6,0-8.9,2.2l-2.4-4.8c3.4-2,8.1-3,11.5-3c9.1,0,10.3,7.7,10.3,9.3v12.9c0,1.4,0.6,2.2,2.4,3l-2.8,4.9
		c-2.8-1-3.6-1.4-4.8-2.8C344,172.8,339.8,172.8,339.8,172.8z"/>
	<path fill="#0079C1" d="M335.7,163.9c0,2.2,2.4,4,4.9,4c3.2,0,5.5-1.8,5.5-4v-4.8l-6.3,0.6C337,160.1,335.7,161.9,335.7,163.9z"/>
	<path fill="#FFFFFF" d="M362.8,132.6h6.3v13.9c1.8-2.2,4.2-3,7.5-3c7.5,0,12.3,6.1,12.3,14.7c0,11.7-9.1,14.7-12.1,14.7
		c0,0-4.6,0-7.7-2.8v2.4h-6.3V132.6z"/>
	<path fill="#FFFFFF" d="M404.8,166.9c0,0,1.2,0,3.4-0.4l0.8,5.5c-2.6,0.4-5.5,0.4-5.5,0.4c-5.9,0.6-7.3-2.4-7.3-9.3v-30.5h6.3v30.1
		C402.2,165.9,402.8,166.9,404.8,166.9z"/>
	<path fill="#FFFFFF" d="M411.9,158.2c0-8.9,5.3-14.7,13.3-14.7c7.5,0,12.3,5.5,12.3,16c0,0.6,0,1,0,1h-19c0.6,4.4,3,6.5,7.1,6.5
		c0,0,4.2,0,6.7-2.8l3.8,4.8c-4,4.2-10.3,4.2-10.3,4.2C417.2,173.2,411.9,167.5,411.9,158.2z"/>
	<path fill="#0079C1" d="M418.6,155.6h12.7c-0.2-4.2-2.4-6.9-5.9-6.9C421.8,148.8,419,150.8,418.6,155.6z"/>
	<path fill="#FFFFFF" d="M188.3,198.3v2.6h5.1v5.3h-5.1v23H182v-23h-4.6v-5.5h4.6v-5.1c0-4.2,4.2-6.3,8.3-6.3c1.6,0,3.2,0.2,4.8,0.6
		l-0.6,5.1c-2,0-3,0-3,0C189.3,195,188.3,196.2,188.3,198.3z"/>
	<path fill="#FFFFFF" d="M199.4,215c0-8.9,5.1-15,13.7-15c8.3,0,13.5,6.1,13.5,15c0,10.1-6.5,14.8-13.5,14.8
		C205.2,229.8,199.4,223.3,199.4,215z"/>
	<path fill="#0079C1" d="M220.4,215c0-5.5-2.8-9.1-7.3-9.1c-4.6,0-7.1,3.8-7.1,9.1s2.6,9.1,7.1,9.1
		C217.5,223.9,220.4,220.1,220.4,215z"/>
	<path fill="#FFFFFF" d="M249.5,206.9c-8.5-1.6-8.5,7.9-8.5,7.9V229h-6.1v-28.3h6.1v3c1.2-1.8,4.9-4,8.5-3.4V206.9z"/>
	<polygon fill="#FFFFFF" points="209.3,289 202,289 192.7,261.1 199.4,261.1 205.6,280.3 211.9,261.1 218.4,261.1 	"/>
	<path fill="#FFFFFF" d="M222,274.8c0-8.9,5.3-14.7,13.3-14.7c7.5,0,12.3,5.5,12.3,16c0,0.6,0,1,0,1h-19c0.6,4.4,3,6.5,7.1,6.5
		c0,0,4.2,0,6.7-2.8l3.8,4.8c-4,4.2-10.3,4.2-10.3,4.2C227.2,289.8,222,284.1,222,274.8z"/>
	<path fill="#0079C1" d="M228.5,272.4h12.7c-0.2-4.2-2.4-6.9-5.9-6.9C231.7,265.5,228.9,267.6,228.5,272.4z"/>
	<path fill="#FFFFFF" d="M277.6,268.6V289h-5.7v-17c0-3-1.8-5.9-4.9-5.9c-4.4,0-5.9,3.6-5.9,5.9v17.2h-6.1v-39.8h6.1v14.1
		c1.8-3.4,7.1-3.4,7.1-3.4C274.9,259.9,277.6,265.3,277.6,268.6z"/>
	<rect x="285.8" y="260.7" fill="#FFFFFF" width="6.3" height="28.3"/>
	<path fill="#FFFFFF" d="M285,253c0-2,1.8-3.8,3.8-3.8c2.2,0,4,1.8,4,3.8c0,2.2-1.8,4-3.8,4C286.8,257,285,255.4,285,253z"/>
	<path fill="#FFFFFF" d="M324.2,267.4L319,270c-2-4.2-6.1-4.2-6.1-4.2c-4.2,0-7.1,4.2-7.1,9.5c0,5.1,3.4,8.7,7.1,8.7
		c0,0,3,0,6.5-4.2l4.9,2.2c-3.4,7.5-12.3,7.5-12.3,7.5c-7.5,0-12.7-6.7-12.7-14.1c0-8.7,5.1-15,13.1-15
		C312.7,260.3,320,260.3,324.2,267.4z"/>
	<path fill="#FFFFFF" d="M339.4,283.7c0,0,1.2,0,3.4-0.4l0.8,5.5c-2.6,0.4-5.5,0.4-5.5,0.4c-5.9,0.6-7.3-2.4-7.3-9.3v-30.5h6.3v30.1
		C336.8,282.5,337.4,283.7,339.4,283.7z"/>
	<path fill="#FFFFFF" d="M346.7,274.8c0-8.9,5.3-14.7,13.3-14.7c7.5,0,12.3,5.5,12.3,16c0,0.6,0,1,0,1h-19c0.6,4.4,3,6.5,7.1,6.5
		c0,0,4.2,0,6.7-2.8l3.8,4.8c-4,4.2-10.3,4.2-10.3,4.2C351.9,289.8,346.7,284.1,346.7,274.8z"/>
	<path fill="#0079C1" d="M353.3,272.4h12.7c-0.2-4.2-2.4-6.9-5.9-6.9S353.7,267.6,353.3,272.4z"/>
	<path fill="#FFFFFF" d="M383.8,268.6c0,1.4,1.6,2.6,4.2,3c4.9,1,4.4,1,5.9,1.6c3.2,1.2,4.9,3.6,4.9,7.5c0,4.8-4,9.1-10.1,9.1
		c-4.4,0-7.1-0.8-12.5-5.1l4-4c2.8,2.6,4.9,3.4,7.7,3.4c3,0,4.6-1,4.6-3c0-2.2-1.2-2.2-7.1-3.8c-7.1-2-7.7-5.7-7.7-8.5
		c0-4,3-8.9,11.1-8.9c0,0,5.9,0,9.9,4.2l-3.4,4.4c-3-3-6.5-3-6.5-3C385.7,265.3,383.8,266.7,383.8,268.6z"/>
	<path fill="#0079C1" d="M375.3,149.2c-3,0-6.3,3-6.3,6.1v5.1c0,3.4,3.6,5.9,6.5,5.9c3.6,0,6.9-3.8,6.9-8.5
		C382.4,153.4,379.2,149.2,375.3,149.2z"/>
	<g enable-background="new    ">
		<path fill="#FFFFFF" d="M282.3,188h6.4V217c0,0.2,0,0.4,0,0.7v0.6c0,1.2,0.1,2.2,0.2,3c0.7,1,1.9,1.4,3.4,1.4
			c0.7,0,1.4-0.1,2.3-0.3v0.6l0.1,0.3l0.2,1.5v0.6l0.1,0.2v0.6l0.3,1.8c-1.9,0.5-3.7,0.7-5.2,0.7c-4,0-6.6-1.7-7.8-5
			c0-0.2,0-0.3,0-0.5c0-0.1,0-0.3-0.1-0.4V188z"/>
		<path fill="#FFFFFF" d="M319.1,202l0.3,0.6c0.8,1,1.3,2.1,1.6,3.1c0.1,0.5,0.1,0.9,0.2,1.3c0,0.4,0.1,0.7,0.1,1v13.8
			c0.6,1.3,1.6,2,2.8,2.3l-0.2,0.3c-0.1,0.1-0.1,0.2-0.2,0.2l-0.1,0.3l-0.2,0.2c-0.2,0.4-0.4,0.7-0.6,0.9c-0.2,0.6-0.6,1.1-0.9,1.5
			c-0.2,0.3-0.3,0.6-0.4,0.9c-0.1,0.3-0.3,0.5-0.4,0.7c-2-0.5-3.6-1.5-4.8-2.8h-0.3c-2.2,1.6-4.6,2.4-6.9,2.4
			c-1.3,0-2.6-0.2-3.8-0.7c-3.7-1.3-6-3.8-6.8-7.3v-0.1c0-6.7,3.9-10.1,11.8-10.1h0.1c0.2-0.1,0.3-0.1,0.5-0.1l0.3-0.1h0.7l0.3-0.1
			h0.3l2.6-0.3c0-0.2,0.1-0.4,0.1-0.5v-0.5c0-2.9-1.5-4.4-4.6-4.4c-2.1,0-5.1,0.7-8.8,2.2l-0.4-0.9l-0.2-0.6l-0.2-0.2l-0.1-0.2
			l-0.2-0.6c-0.2-0.3-0.3-0.6-0.4-0.9c-0.4-0.5-0.6-1-0.7-1.5l0.3-0.1l0.2-0.1l0.3-0.1l0.2-0.2h0.3c0.1-0.1,0.1-0.1,0.2-0.1h0
			c0.6-0.3,1.2-0.6,1.7-0.7l0.5-0.1c0.4-0.2,0.7-0.3,1-0.3l0.8-0.2c0.6-0.2,1.2-0.4,1.8-0.4l2.3-0.4c0.3,0,0.7-0.1,1-0.1
			c0.3,0,0.6,0,1,0C314.3,198.8,317,199.9,319.1,202z M312.4,215.3h-0.6c-0.2,0-0.3,0.1-0.5,0.1c-0.1,0-0.3,0-0.4,0h-0.2l-0.4,0.1
			H310c-0.1,0.1-0.2,0.1-0.3,0.1h-0.3l-1.7,0.4h-0.3c-0.5,0.3-0.9,0.5-1.3,0.5c-1.1,1.1-1.7,2.1-1.7,3.1c0,0.9,0.5,1.8,1.4,2.7
			c1.3,0.8,2.6,1.2,3.9,1.2c1.6,0,3.2-0.7,4.6-2c0.1-0.4,0.3-0.7,0.4-0.8l0.1-0.3l-0.1-0.4v-4.9h-2.1
			C312.7,215.3,312.6,215.3,312.4,215.3z"/>
		<path fill="#FFFFFF" d="M346.7,198.9v6.7c-0.1,0-0.3,0-0.4,0h-0.4c-3.5,0-6,1.4-7.5,4.3l-0.3,1.7l-0.1,0.7v15.7h-6.4v-28.4h6.4
			v1.6c0,0.5,0,0.9,0.1,1.2c2-2.3,4.5-3.4,7.3-3.4H346.7z"/>
		<path fill="#FFFFFF" d="M370.7,201.6v-2h6.3v29l-0.1,1.1l-0.1,0.2l-0.1,0.6l-0.4,1.3l-0.3,0.6l-0.4,0.6c-0.5,0.9-1.1,1.6-1.8,2.1
			l-0.4,0.5l-2.2,1c-2.3,0.6-4.6,0.9-6.7,0.9c-3.9,0-7.5-0.9-10.8-2.8l0.2-0.4l0.5-1.1l0.4-1l0.1-0.3l0.2-0.4
			c0.2-0.5,0.4-0.9,0.6-1.3l0.2-0.7c2.8,1.4,5.4,2.1,7.8,2.1c2.2,0,4.2-0.6,6.1-1.7l0.1-0.3c0.4-0.6,0.7-1.2,0.8-1.8v-4.4
			c-2.2,1.7-4.6,2.5-7,2.5c-1.1,0-2.2-0.2-3.3-0.5c-3.8-1.5-6.3-4.1-7.3-7.7c-0.3-0.9-0.5-1.9-0.7-2.8c-0.1-0.9-0.2-1.8-0.2-2.7
			c0-2.5,0.6-4.8,1.8-7c2-3.6,4.8-5.7,8.6-6.3h0.4C366,199,368.6,199.9,370.7,201.6z M364.1,205.3h-0.5l-2.3,0.8
			c-1.7,1.9-2.6,4-2.6,6.3c0,0.4,0,0.8,0.1,1.2c0.5,4,2.5,6,6.3,6.2c3.7-0.5,5.6-2.7,5.6-6.8v-0.4c0-0.1,0-0.3,0-0.4
			c-0.1-4.6-2.2-6.9-6.4-7C364.2,205.2,364.1,205.3,364.1,205.3z"/>
		<path fill="#FFFFFF" d="M410,211.2l0.1,1.6c0.1,0.1,0.1,0.2,0.1,0.3v3.1h-19.1c0.4,3.6,2.2,5.6,5.4,6.3c0.5,0.1,1,0.1,1.5,0.1
			c2.6,0,4.9-0.9,6.7-2.6c0.2,0.4,0.5,0.7,0.8,0.9l0.1,0.3l0.3,0.3c0.2,0.2,0.5,0.4,0.6,0.6c0.2,0.2,0.3,0.4,0.4,0.6
			c0.1,0.1,0.2,0.1,0.2,0.2l1.5,1.7c-3.3,2.8-6.8,4.2-10.6,4.2c-0.6,0-1.3,0-2-0.1s-1.3-0.2-2-0.4c-6-2-9.3-6.3-9.9-12.9
			c0-0.1,0-0.3,0-0.5c0-0.3,0-0.4,0-0.5c0-9.1,4.1-14.2,12.2-15.5C404.6,199.2,409.1,203.3,410,211.2z M391,211.3h12.6V211
			c-0.1-0.2-0.1-0.4-0.1-0.6v-0.2c-0.2-0.4-0.3-0.7-0.3-1c-1.3-3-3.4-4.5-6.4-4.5C393.1,205.5,391.1,207.8,391,211.3z"/>
	</g>
</g>
</svg>
