<?xml version="1.0" encoding="utf-8"?>
<!-- Generator: Adobe Illustrator 17.1.0, SVG Export Plug-In . SVG Version: 6.00 Build 0)  -->
<!DOCTYPE svg PUBLIC "-//W3C//DTD SVG 1.1//EN" "http://www.w3.org/Graphics/SVG/1.1/DTD/svg11.dtd">
<svg version="1.1" id="Layer_1" xmlns="http://www.w3.org/2000/svg" xmlns:xlink="http://www.w3.org/1999/xlink" x="0px" y="0px"
	 viewBox="85 70.9 425.2 283.5" enable-background="new 85 70.9 425.2 283.5" xml:space="preserve">
<g>
	<path fill="#FFFFFF" stroke="#0079C1" d="M467.7,274.6c0,12.5-10.1,22.6-22.6,22.6h-295c-12.5,0-22.6-10.1-22.6-22.6V150.6
		c0-12.5,10.1-22.6,22.6-22.6h295c12.5,0,22.6,10.1,22.6,22.6V274.6z"/>
	<path fill="#0079C1" d="M457,274.6c0,6.5-5.3,11.9-11.9,11.9h-295c-6.5,0-11.9-5.3-11.9-11.9V150.6c0-6.5,5.3-11.9,11.9-11.9h295
		c6.5,0,11.9,5.3,11.9,11.9V274.6z"/>
	<path fill="#FFFFFF" d="M176.3,193.8c6.3,0,8.7-6.1,8.7-10.3v-24.2h6.5v25.3c0,8.1-5.9,15.2-15.2,15.2c-9.1,0-15.8-6.3-15.8-15.2
		v-25.3h6.7v24.2C167.4,189.2,171.3,193.8,176.3,193.8z"/>
	<path fill="#FFFFFF" d="M225.2,179.5v19.6h-6.3v-18.2c0-1-1.6-4.8-4.9-4.8c-3.2,0-5.9,3-5.9,5.9v17h-6.3v-28.3h6.3v2.6
		c2.2-3.2,7.7-3.2,7.7-3.2C220.4,170,225.2,174.2,225.2,179.5z"/>
	<path fill="#FFFFFF" d="M237.8,178.5c0,1.4,1.6,2.6,4.2,3c4.9,1,4.4,1,5.9,1.6c3.2,1.2,4.9,3.6,4.9,7.5c0,4.8-4,9.1-10.1,9.1
		c-4.4,0-7.1-0.8-12.5-5.1l4-4c2.8,2.6,4.9,3.4,7.7,3.4c3,0,4.6-1,4.6-3c0-2.2-1.2-2.2-7.1-3.8c-7.1-2-7.7-5.7-7.7-8.5
		c0-4,3-8.9,11.1-8.9c0,0,5.9,0,9.9,4.2l-3.4,4.4c-3-3-6.5-3-6.5-3C239.8,175.4,237.8,176.8,237.8,178.5z"/>
	<path fill="#FFFFFF" d="M260.4,190.4V171h6.1v18.2c0,1.8,0.8,4.9,4.9,4.9c3,0,5.7-3.4,5.7-6.1v-17h6.3v28.1h-6.3v-2.6
		c-2,3.4-7.5,3.4-7.5,3.4C264,199.9,260.4,196.2,260.4,190.4z"/>
	<rect x="292.9" y="170.8" fill="#FFFFFF" width="6.3" height="28.3"/>
	<path fill="#FFFFFF" d="M292.1,163.1c0-2,1.8-3.8,3.8-3.8c2.2,0,4,1.8,4,3.8c0,2.2-1.8,4-3.8,4
		C293.9,167.1,292.1,165.3,292.1,163.1z"/>
	<path fill="#FFFFFF" d="M311.1,170.8v-9.1l6.1-2.6v11.5h7.3v5.1h-7.3v14.7c0,2.2,1,3.2,2.8,3.2c0,0,2.6,0,4.2-0.6l0.6,5.5
		c-3,0.8-6.5,0.8-6.5,0.8c-5.1,0-7.1-2.6-7.1-8.7v-14.8h-4.9v-5.1h4.9V170.8z"/>
	<path fill="#FFFFFF" d="M339.8,199.5c-5.5,0-10.5-4-10.5-9.3c0-3.4,3-7.9,9.1-8.7l7.7-0.8v-1.2c0-2.6-1.2-4.2-4.4-4.2
		c0,0-4.6,0-8.9,2.2l-2.4-4.8c3.4-2,8.1-3,11.5-3c9.1,0,10.3,7.7,10.3,9.3V192c0,1.4,0.6,2.2,2.4,3l-2.8,4.9c-2.8-1-3.6-1.4-4.8-2.8
		C344,199.5,339.8,199.5,339.8,199.5z"/>
	<path fill="#0079C1" d="M335.7,190.6c0,2.2,2.4,4,4.9,4c3.2,0,5.5-1.8,5.5-4v-4.8l-6.3,0.6C337,186.9,335.7,188.6,335.7,190.6z"/>
	<path fill="#FFFFFF" d="M362.8,159.3h6.3v13.9c1.8-2.2,4.2-3,7.5-3c7.5,0,12.3,6.1,12.3,14.7c0,11.7-9.1,14.7-12.1,14.7
		c0,0-4.6,0-7.7-2.8v2.4h-6.3V159.3z"/>
	<path fill="#FFFFFF" d="M404.8,193.6c0,0,1.2,0,3.4-0.4l0.8,5.5c-2.6,0.4-5.5,0.4-5.5,0.4c-5.9,0.6-7.3-2.4-7.3-9.3v-30.5h6.3v30.1
		C402.2,192.6,402.8,193.6,404.8,193.6z"/>
	<path fill="#FFFFFF" d="M411.9,184.9c0-8.9,5.3-14.7,13.3-14.7c7.5,0,12.3,5.5,12.3,16c0,0.6,0,1,0,1h-19c0.6,4.4,3,6.5,7.1,6.5
		c0,0,4.2,0,6.7-2.8l3.8,4.8c-4,4.2-10.3,4.2-10.3,4.2C417.2,199.9,411.9,194.2,411.9,184.9z"/>
	<path fill="#0079C1" d="M418.6,182.3h12.7c-0.2-4.2-2.4-6.9-5.9-6.9C421.8,175.6,419,177.6,418.6,182.3z"/>
	<path fill="#FFFFFF" d="M188.3,225.1v2.6h5.1v5.3h-5.1v23H182v-23h-4.6v-5.5h4.6v-5.1c0-4.2,4.2-6.3,8.3-6.3c1.6,0,3.2,0.2,4.8,0.6
		l-0.6,5.1c-2,0-3,0-3,0C189.3,221.7,188.3,222.9,188.3,225.1z"/>
	<path fill="#FFFFFF" d="M199.4,241.7c0-8.9,5.1-15,13.7-15c8.3,0,13.5,6.1,13.5,15c0,10.1-6.5,14.8-13.5,14.8
		C205.2,256.6,199.4,250,199.4,241.7z"/>
	<path fill="#0079C1" d="M220.4,241.7c0-5.5-2.8-9.1-7.3-9.1c-4.6,0-7.1,3.8-7.1,9.1s2.6,9.1,7.1,9.1
		C217.5,250.6,220.4,246.9,220.4,241.7z"/>
	<path fill="#FFFFFF" d="M249.5,233.6c-8.5-1.6-8.5,7.9-8.5,7.9v14.3h-6.1v-28.3h6.1v3c1.2-1.8,4.9-4,8.5-3.4V233.6z"/>
	<path fill="#0079C1" d="M375.3,176c-3,0-6.3,3-6.3,6.1v5.1c0,3.4,3.6,5.9,6.5,5.9c3.6,0,6.9-3.8,6.9-8.5
		C382.4,180.1,379.2,176,375.3,176z"/>
	<g enable-background="new    ">
		<path fill="#FFFFFF" d="M282.6,215h6.3v13.4c2.3-1.9,4.8-2.9,7.2-2.9c2.3,0,4.6,0.8,7,2.5c0.8,0.5,1.4,0.9,1.9,1.5
			c2.6,3.6,3.9,7.3,3.9,11.2c0,1.1-0.1,2.2-0.3,3.3s-0.5,2.2-0.9,3.3c-1.5,3.7-4,6.2-7.4,7.4c-1.5,0.5-3,0.8-4.4,0.8
			c-2.6,0-4.9-0.9-7-2.7v2.1h-6.3V215z M289.4,235.3c-0.1,0.4-0.2,0.7-0.3,1.1v7.8c1.1,3,3.1,4.5,6,4.5h0.4c0.1,0,0.3,0,0.4,0
			c3.9-0.8,6-3.3,6.4-7.5v-0.4c0-5.8-2.6-8.9-7.9-9.1C292,232.4,290.4,233.5,289.4,235.3z"/>
		<path fill="#FFFFFF" d="M315.5,226.3h6.3v18.1c0.1,0.1,0.1,0.2,0.1,0.3c0.1,0.1,0.1,0.1,0.1,0.2v0.1c0.1,0.8,0.3,1.5,0.5,2.1
			c1.2,1.7,2.7,2.5,4.6,2.5h0.1c2.3-0.6,4-1.9,4.9-3.9v-0.3l0.4-1.3v-17.7h6.4v28.5h-6.4v-2.3c-2.5,2.1-5,3.1-7.5,3.1
			c-1.9,0-3.9-0.6-5.9-1.8c-1.6-1.2-2.7-2.7-3.3-4.4l-0.1-0.7c-0.2-0.5-0.2-1-0.2-1.5v-0.2c0-0.1,0-0.2,0-0.3V226.3z"/>
		<path fill="#FFFFFF" d="M368.3,229.7l-0.3,0.4l-0.3,0.3l-0.3,0.2l-0.4,0.6l-0.2,0.2l-0.2,0.1c-0.2,0.3-0.4,0.6-0.6,0.7l-1.4,1.6
			c-2.9-1.9-5.3-2.8-7.2-2.8c-1.9,0-3.4,1-4.3,2.9c0,1.1,0.5,2,1.4,2.5c0.4,0.1,0.7,0.2,0.8,0.3c0.7,0.1,1.2,0.2,1.7,0.4
			c6.6,0.5,10.3,3.1,11.1,7.9c0,0.2,0.1,0.4,0.1,0.6s0,0.4,0,0.6c0,3.5-1.5,6.1-4.4,7.9c-2.1,1-4.3,1.4-6.4,1.4
			c-4.1,0-8.1-1.7-12.2-5.2l0.2-0.4l0.5-0.5c0.3-0.4,0.7-0.7,0.9-0.9c0.1-0.1,0.1-0.2,0.2-0.2l0.2-0.3c0.1-0.1,0.1-0.2,0.2-0.2
			l0.1-0.2l0.2-0.1l1.4-1.6c2.6,2.4,5.3,3.7,8.1,3.7c1.2,0,2.4-0.2,3.6-0.6c0.3-0.4,0.6-0.7,0.9-0.9c0.1-0.4,0.2-0.8,0.2-1.2
			c0-0.9-0.3-1.7-0.9-2.3l-2.4-0.8c-7.2-0.4-11.1-3.5-11.7-9.2c0.5-5.7,3.7-8.8,9.7-9.2h0.4C361.5,225.4,365.3,226.8,368.3,229.7z"
			/>
		<path fill="#FFFFFF" d="M399.3,238l0.1,1.6c0.1,0.1,0.1,0.2,0.1,0.3v3.1h-19.1c0.4,3.5,2.2,5.6,5.4,6.3c0.5,0.1,1,0.1,1.5,0.1
			c2.6,0,4.9-0.9,6.7-2.6c0.2,0.4,0.5,0.7,0.8,0.9l0.1,0.3l0.3,0.3c0.2,0.2,0.5,0.4,0.6,0.6c0.2,0.2,0.3,0.4,0.4,0.6
			c0.1,0.1,0.2,0.1,0.2,0.2l1.5,1.7c-3.3,2.8-6.8,4.2-10.6,4.2c-0.6,0-1.3,0-2-0.1s-1.3-0.2-2-0.4c-6-2-9.3-6.3-9.9-12.9
			c0-0.1,0-0.3,0-0.5c0-0.3,0-0.4,0-0.5c0-9.1,4.1-14.2,12.2-15.5C393.9,225.9,398.4,230,399.3,238z M380.3,238.1h12.6v-0.3
			c-0.1-0.2-0.1-0.4-0.1-0.6v-0.2c-0.2-0.4-0.3-0.7-0.3-1c-1.3-3-3.4-4.5-6.4-4.5C382.4,232.3,380.5,234.5,380.3,238.1z"/>
		<path fill="#FFFFFF" d="M426.5,229.7l-0.3,0.4l-0.3,0.3l-0.3,0.2l-0.4,0.6l-0.2,0.2l-0.2,0.1c-0.2,0.3-0.4,0.6-0.6,0.7l-1.4,1.6
			c-2.9-1.9-5.3-2.8-7.2-2.8c-1.9,0-3.4,1-4.3,2.9c0,1.1,0.5,2,1.4,2.5c0.4,0.1,0.7,0.2,0.8,0.3c0.7,0.1,1.2,0.2,1.7,0.4
			c6.6,0.5,10.3,3.1,11.1,7.9c0,0.2,0.1,0.4,0.1,0.6s0,0.4,0,0.6c0,3.5-1.5,6.1-4.4,7.9c-2.1,1-4.3,1.4-6.4,1.4
			c-4.1,0-8.1-1.7-12.2-5.2l0.2-0.4l0.5-0.5c0.3-0.4,0.7-0.7,0.9-0.9c0.1-0.1,0.1-0.2,0.2-0.2l0.2-0.3c0.1-0.1,0.1-0.2,0.2-0.2
			l0.1-0.2l0.2-0.1l1.4-1.6c2.6,2.4,5.3,3.7,8.1,3.7c1.2,0,2.4-0.2,3.6-0.6c0.3-0.4,0.6-0.7,0.9-0.9c0.1-0.4,0.2-0.8,0.2-1.2
			c0-0.9-0.3-1.7-0.9-2.3l-2.4-0.8c-7.2-0.4-11.1-3.5-11.7-9.2c0.5-5.7,3.7-8.8,9.7-9.2h0.4C419.6,225.4,423.4,226.8,426.5,229.7z"
			/>
	</g>
</g>
</svg>
