<?xml version="1.0" encoding="utf-8"?>
<!-- Generator: Adobe Illustrator 17.1.0, SVG Export Plug-In . SVG Version: 6.00 Build 0)  -->
<!DOCTYPE svg PUBLIC "-//W3C//DTD SVG 1.1//EN" "http://www.w3.org/Graphics/SVG/1.1/DTD/svg11.dtd">
<svg version="1.1" id="Layer_1" xmlns="http://www.w3.org/2000/svg" xmlns:xlink="http://www.w3.org/1999/xlink" x="0px" y="0px"
	 viewBox="85 70.9 425.2 283.5" enable-background="new 85 70.9 425.2 283.5" xml:space="preserve">
<g>
	<path fill="#FFFFFF" stroke="#0079C1" d="M467.7,328c0,12.5-10.1,22.6-22.6,22.6h-295c-12.5,0-22.6-10.1-22.6-22.6V97.2
		c0-12.5,10.1-22.6,22.6-22.6h295c12.5,0,22.6,10.1,22.6,22.6V328z"/>
	<path fill="#0079C1" d="M457,328c0,6.5-5.3,11.9-11.9,11.9h-295c-6.5,0-11.9-5.3-11.9-11.9V97.2c0-6.5,5.3-11.9,11.9-11.9h295
		c6.5,0,11.9,5.3,11.9,11.9V328z"/>
	<g>
		<path fill="#FFFFFF" d="M176.3,140.3c6.3,0,8.7-6.1,8.7-10.3v-24.2h6.5v25.3c0,8.1-5.9,15.2-15.2,15.2c-9.1,0-15.8-6.3-15.8-15.2
			v-25.3h6.7V130C167.4,135.8,171.3,140.3,176.3,140.3z"/>
		<path fill="#FFFFFF" d="M225.2,126.1v19.6h-6.3v-18.2c0-1-1.6-4.8-4.9-4.8c-3.2,0-5.9,3-5.9,5.9v17h-6.3v-28.3h6.3v2.6
			c2.2-3.2,7.7-3.2,7.7-3.2C220.4,116.6,225.2,120.7,225.2,126.1z"/>
		<path fill="#FFFFFF" d="M237.8,125.1c0,1.4,1.6,2.6,4.2,3c4.9,1,4.4,1,5.9,1.6c3.2,1.2,4.9,3.6,4.9,7.5c0,4.8-4,9.1-10.1,9.1
			c-4.4,0-7.1-0.8-12.5-5.1l4-4c2.8,2.6,4.9,3.4,7.7,3.4c3,0,4.6-1,4.6-3c0-2.2-1.2-2.2-7.1-3.8c-7.1-2-7.7-5.7-7.7-8.5
			c0-4,3-8.9,11.1-8.9c0,0,5.9,0,9.9,4.2l-3.4,4.4c-3-3-6.5-3-6.5-3C239.8,121.9,237.8,123.3,237.8,125.1z"/>
		<path fill="#FFFFFF" d="M260.4,137v-19.4h6.1v18.2c0,1.8,0.8,4.9,4.9,4.9c3,0,5.7-3.4,5.7-6.1v-17h6.3v28.1h-6.3v-2.6
			c-2,3.4-7.5,3.4-7.5,3.4C264,146.5,260.4,142.7,260.4,137z"/>
		<rect x="292.9" y="117.4" fill="#FFFFFF" width="6.3" height="28.3"/>
		<path fill="#FFFFFF" d="M292.1,109.6c0-2,1.8-3.8,3.8-3.8c2.2,0,4,1.8,4,3.8c0,2.2-1.8,4-3.8,4
			C293.9,113.6,292.1,111.8,292.1,109.6z"/>
		<path fill="#FFFFFF" d="M311.1,117.4v-9.1l6.1-2.6v11.5h7.3v5.1h-7.3V137c0,2.2,1,3.2,2.8,3.2c0,0,2.6,0,4.2-0.6l0.6,5.5
			c-3,0.8-6.5,0.8-6.5,0.8c-5.1,0-7.1-2.6-7.1-8.7v-14.8h-4.9v-5.1h4.9V117.4z"/>
		<path fill="#FFFFFF" d="M339.8,146.1c-5.5,0-10.5-4-10.5-9.3c0-3.4,3-7.9,9.1-8.7l7.7-0.8v-1.2c0-2.6-1.2-4.2-4.4-4.2
			c0,0-4.6,0-8.9,2.2l-2.4-4.8c3.4-2,8.1-3,11.5-3c9.1,0,10.3,7.7,10.3,9.3v12.9c0,1.4,0.6,2.2,2.4,3l-2.8,4.9
			c-2.8-1-3.6-1.4-4.8-2.8C344,146.1,339.8,146.1,339.8,146.1z"/>
		<path fill="#0079C1" d="M335.7,137.2c0,2.2,2.4,4,4.9,4c3.2,0,5.5-1.8,5.5-4v-4.8l-6.3,0.6C337,133.4,335.7,135.2,335.7,137.2z"/>
		<path fill="#FFFFFF" d="M362.8,105.9h6.3v13.9c1.8-2.2,4.2-3,7.5-3c7.5,0,12.3,6.1,12.3,14.7c0,11.7-9.1,14.7-12.1,14.7
			c0,0-4.6,0-7.7-2.8v2.4h-6.3V105.9z"/>
		<path fill="#FFFFFF" d="M404.8,140.1c0,0,1.2,0,3.4-0.4l0.8,5.5c-2.6,0.4-5.5,0.4-5.5,0.4c-5.9,0.6-7.3-2.4-7.3-9.3v-30.5h6.3V136
			C402.2,139.1,402.8,140.1,404.8,140.1z"/>
		<path fill="#FFFFFF" d="M411.9,131.4c0-8.9,5.3-14.7,13.3-14.7c7.5,0,12.3,5.5,12.3,16c0,0.6,0,1,0,1h-19c0.6,4.4,3,6.5,7.1,6.5
			c0,0,4.2,0,6.7-2.8l3.8,4.8c-4,4.2-10.3,4.2-10.3,4.2C417.2,146.5,411.9,140.7,411.9,131.4z"/>
		<path fill="#0079C1" d="M418.6,128.8h12.7c-0.2-4.2-2.4-6.9-5.9-6.9C421.8,122.1,419,124.1,418.6,128.8z"/>
		<path fill="#FFFFFF" d="M188.3,171.6v2.6h5.1v5.3h-5.1v23H182v-23h-4.6V174h4.6v-5.1c0-4.2,4.2-6.3,8.3-6.3c1.6,0,3.2,0.2,4.8,0.6
			l-0.6,5.1c-2,0-3,0-3,0C189.3,168.2,188.3,169.4,188.3,171.6z"/>
		<path fill="#FFFFFF" d="M199.4,188.2c0-8.9,5.1-15,13.7-15c8.3,0,13.5,6.1,13.5,15c0,10.1-6.5,14.8-13.5,14.8
			C205.2,203.1,199.4,196.6,199.4,188.2z"/>
		<path fill="#0079C1" d="M220.4,188.2c0-5.5-2.8-9.1-7.3-9.1c-4.6,0-7.1,3.8-7.1,9.1c0,5.3,2.6,9.1,7.1,9.1
			C217.5,197.2,220.4,193.4,220.4,188.2z"/>
		<path fill="#FFFFFF" d="M249.5,180.1c-8.5-1.6-8.5,7.9-8.5,7.9v14.3h-6.1V174h6.1v3c1.2-1.8,4.9-4,8.5-3.4V180.1z"/>
		<path fill="#FFFFFF" d="M297.2,181.9v20.4h-5.7v-17.2c0-3-1.8-5.9-4.9-5.9c-4.4,0-5.9,3.6-5.9,5.9v17.2h-6.1v-39.8h6.1v14.1
			c1.8-3.4,7.1-3.4,7.1-3.4C294.3,173.2,297.2,178.5,297.2,181.9z"/>
		<path fill="#FFFFFF" d="M303.6,188c0-8.9,5.3-14.7,13.3-14.7c7.5,0,12.3,5.5,12.3,16c0,0.6,0,1,0,1h-19c0.6,4.4,3,6.5,7.1,6.5
			c0,0,4.2,0,6.7-2.8l3.8,4.8c-4,4.2-10.3,4.2-10.3,4.2C308.7,203.1,303.6,197.4,303.6,188z"/>
		<path fill="#0079C1" d="M310.3,185.7H323c-0.2-4.2-2.4-6.9-5.9-6.9S310.7,180.9,310.3,185.7z"/>
		<path fill="#FFFFFF" d="M345,202.9c-5.5,0-10.5-4-10.5-9.3c0-3.4,3-7.9,9.1-8.7l7.7-0.8v-1.2c0-2.6-1.2-4.2-4.4-4.2
			c0,0-4.6,0-8.9,2.2l-2.4-4.8c3.4-2,8.1-3,11.5-3c9.1,0,10.3,7.7,10.3,9.3v12.9c0,1.4,0.6,2.2,2.4,3l-2.8,4.9
			c-2.8-1-3.6-1.4-4.8-2.8C349.1,202.9,345,202.9,345,202.9z"/>
		<path fill="#0079C1" d="M340.8,193.8c0,2.2,2.4,4,4.9,4c3.2,0,5.5-1.8,5.5-4v-4.6l-6.3,0.6C342.2,190,340.8,191.8,340.8,193.8z"/>
		<polygon fill="#FFFFFF" points="381,202.3 373.7,202.3 364.4,174.2 371.1,174.2 377.2,193.6 383.6,174.2 390.1,174.2 		"/>
		<path fill="#FFFFFF" d="M417.4,174l-11.1,33.5c-1.4,4.4-5.9,4.2-7.1,4.2c0,0-2.6,0-5.1-0.6l0.8-5.1c3,0.2,4.2,0.2,4.2,0.2
			c0.6,0,3.8,0.2,2-4.9l-8.9-27.3h6.7l5.9,19.2l5.9-19.2h6.7V174z"/>
		<path fill="#FFFFFF" d="M231.3,268.6c0,0-5.7,0-10.1-2.6l2.2-5.3c3.2,1.6,5.7,2.2,8.5,2.2c2.4,0,6.1-0.4,6.1-4.6v-3.8
			c-3,2.4-6.3,2.4-6.3,2.4c-10.3,0-12.1-9.9-12.1-13.5c0-4.2,2.2-13.1,11.7-13.1c0,0,4.8,0,6.7,2.6v-2.2h6.3v27.5
			C244.2,262.3,243.8,268.6,231.3,268.6z"/>
		<path fill="#0079C1" d="M231.9,251c4.4,0,6.1-3.4,6.1-7.5c0.6-7.1-6.1-7.1-6.1-7.1c-4.2,0-5.9,2.6-5.9,7.1
			C226,247.8,227.7,251,231.9,251z"/>
		<path fill="#FFFFFF" d="M251.7,244.9c0-8.9,5.1-15,13.7-15c8.3,0,13.5,6.1,13.5,15c0,10.1-6.5,14.8-13.5,14.8
			C257.2,259.9,251.7,253.4,251.7,244.9z"/>
		<path fill="#0079C1" d="M272.5,244.9c0-5.5-2.8-9.1-7.3-9.1c-4.6,0-7.1,3.8-7.1,9.1c0,5.3,2.6,9.1,7.1,9.1
			S272.5,250.2,272.5,244.9z"/>
		<path fill="#FFFFFF" d="M285.2,244.9c0-8.9,5.1-15,13.7-15c8.3,0,13.5,6.1,13.5,15c0,10.1-6.5,14.8-13.5,14.8
			C290.7,259.9,285.2,253.4,285.2,244.9z"/>
		<path fill="#0079C1" d="M306.2,244.9c0-5.5-2.8-9.1-7.3-9.1c-4.6,0-7.1,3.8-7.1,9.1c0,5.3,2.6,9.1,7.1,9.1
			C303.2,254,306.2,250.2,306.2,244.9z"/>
		<path fill="#FFFFFF" d="M338.2,256.8c-3.2,2.8-7.7,2.8-7.7,2.8c-3,0-12.1-3-12.1-14.7c0-8.5,4.8-14.7,12.3-14.7c3.4,0,5.7,1,7.5,3
			v-13.9h6.3v39.8h-6.3V256.8z"/>
		<path fill="#0079C1" d="M338.2,247.2v-5.1c0-3.4-3.2-6.1-6.3-6.1c-4,0-7.1,4.4-7.1,8.7c0,4.8,3.4,8.5,6.9,8.5
			C334.7,253.2,338.2,250.6,338.2,247.2z"/>
		<path fill="#FFFFFF" d="M358.6,238.5c0,1.4,1.6,2.6,4.2,3c4.9,1,4.4,1,5.9,1.6c3.2,1.2,4.9,3.6,4.9,7.5c0,4.8-4,9.1-10.1,9.1
			c-4.4,0-7.1-0.8-12.5-5.1l4-4c2.8,2.6,4.9,3.4,7.7,3.4c3,0,4.6-1,4.6-3c0-2.2-1.2-2.2-7.1-3.8c-7.1-2-7.7-5.7-7.7-8.5
			c0-4,3-8.9,11.1-8.9c0,0,5.9,0,9.9,4.2l-3.4,4.4c-3-3-6.5-3-6.5-3C360.6,235.4,358.6,236.8,358.6,238.5z"/>
		<polygon fill="#FFFFFF" points="209.3,315.8 202,315.8 192.7,287.8 199.4,287.8 205.6,307 211.9,287.8 218.4,287.8 		"/>
		<path fill="#FFFFFF" d="M222,301.5c0-8.9,5.3-14.7,13.3-14.7c7.5,0,12.3,5.5,12.3,16c0,0.6,0,1,0,1h-19c0.6,4.4,3,6.5,7.1,6.5
			c0,0,4.2,0,6.7-2.8l3.8,4.8c-4,4.2-10.3,4.2-10.3,4.2C227.2,316.5,222,310.8,222,301.5z"/>
		<path fill="#0079C1" d="M228.5,299.1h12.7c-0.2-4.2-2.4-6.9-5.9-6.9C231.7,292.2,228.9,294.4,228.5,299.1z"/>
		<path fill="#FFFFFF" d="M277.6,295.4v20.4h-5.7v-17c0-3-1.8-5.9-4.9-5.9c-4.4,0-5.9,3.6-5.9,5.9V316h-6.1v-39.8h6.1v14.1
			c1.8-3.4,7.1-3.4,7.1-3.4C274.9,286.7,277.6,292,277.6,295.4z"/>
		<rect x="285.8" y="287.4" fill="#FFFFFF" width="6.3" height="28.3"/>
		<path fill="#FFFFFF" d="M285,279.7c0-2,1.8-3.8,3.8-3.8c2.2,0,4,1.8,4,3.8c0,2.2-1.8,4-3.8,4C286.8,283.7,285,282.1,285,279.7z"/>
		<path fill="#FFFFFF" d="M324.2,294.2l-5.1,2.6c-2-4.2-6.1-4.2-6.1-4.2c-4.2,0-7.1,4.2-7.1,9.5c0,5.1,3.4,8.7,7.1,8.7
			c0,0,3,0,6.5-4.2l4.9,2.2c-3.4,7.5-12.3,7.5-12.3,7.5c-7.5,0-12.7-6.7-12.7-14.1c0-8.7,5.1-15,13.1-15
			C312.7,287,320,287,324.2,294.2z"/>
		<path fill="#FFFFFF" d="M339.4,310.4c0,0,1.2,0,3.4-0.4l0.8,5.5C341,316,338,316,338,316c-5.9,0.6-7.3-2.4-7.3-9.3v-30.5h6.3v30.1
			C336.8,309.2,337.4,310.4,339.4,310.4z"/>
		<path fill="#FFFFFF" d="M346.7,301.5c0-8.9,5.3-14.7,13.3-14.7c7.5,0,12.3,5.5,12.3,16c0,0.6,0,1,0,1h-19c0.6,4.4,3,6.5,7.1,6.5
			c0,0,4.2,0,6.7-2.8l3.8,4.8c-4,4.2-10.3,4.2-10.3,4.2C351.9,316.5,346.7,310.8,346.7,301.5z"/>
		<path fill="#0079C1" d="M353.3,299.1h12.7c-0.2-4.2-2.4-6.9-5.9-6.9S353.7,294.4,353.3,299.1z"/>
		<path fill="#FFFFFF" d="M383.8,295.4c0,1.4,1.6,2.6,4.2,3c4.9,1,4.4,1,5.9,1.6c3.2,1.2,4.9,3.6,4.9,7.5c0,4.8-4,9.1-10.1,9.1
			c-4.4,0-7.1-0.8-12.5-5.1l4-4c2.8,2.6,4.9,3.4,7.7,3.4c3,0,4.6-1,4.6-3c0-2.2-1.2-2.2-7.1-3.8c-7.1-2-7.7-5.7-7.7-8.5
			c0-4,3-8.9,11.1-8.9c0,0,5.9,0,9.9,4.2l-3.4,4.4c-3-3-6.5-3-6.5-3C385.7,292,383.8,293.4,383.8,295.4z"/>
		<path fill="#0079C1" d="M375.3,122.5c-3,0-6.3,3-6.3,6.1v5.1c0,3.4,3.6,5.9,6.5,5.9c3.6,0,6.9-3.8,6.9-8.5
			C382.4,126.7,379.2,122.5,375.3,122.5z"/>
	</g>
</g>
</svg>
