<?xml version="1.0" encoding="utf-8"?>
<!-- Generator: Adobe Illustrator 17.1.0, SVG Export Plug-In . SVG Version: 6.00 Build 0)  -->
<!DOCTYPE svg PUBLIC "-//W3C//DTD SVG 1.1//EN" "http://www.w3.org/Graphics/SVG/1.1/DTD/svg11.dtd">
<svg version="1.1" id="Layer_1" xmlns="http://www.w3.org/2000/svg" xmlns:xlink="http://www.w3.org/1999/xlink" x="0px" y="0px"
	 viewBox="0 0 141.7 141.7" enable-background="new 0 0 141.7 141.7" xml:space="preserve">
<polyline fill="#FFFFFF" points="81.3,122.1 11.7,122.1 70.4,19.6 129.2,122.1 81.3,122.1 "/>
<path fill="#231F20" d="M127.4,128.4c3.1,0,5.9-1.7,7.4-4.3c1.5-2.7,1.5-5.9,0-8.6L78.3,17.7c-1.5-2.7-4.4-4.3-7.5-4.3
	c-3.1,0-5.9,1.6-7.5,4.3L7,115.4c-1.6,2.7-1.6,6,0,8.6c1.5,2.7,4.4,4.3,7.5,4.3L127.4,128.4"/>
<polygon fill="#FFFFFF" points="19.4,116.8 122.3,116.8 70.9,27.8 "/>
<path fill="#1F1D1E" d="M70.5,96.6c4.2,0,7.7,3.4,7.7,7.7c0,4.2-3.4,7.7-7.7,7.7c-4.2,0-7.6-3.4-7.6-7.7
	C62.9,100,66.3,96.6,70.5,96.6"/>
<path fill="#1F1D1E" d="M69.4,92.8h2.3l8.6-33.9c0.1-0.7,0.2-1.4,0.2-2c0-5.5-4.5-9.9-9.9-9.9c-5.5,0-9.9,4.4-9.9,9.9
	c0,0.7,0.1,1.4,0.2,2L69.4,92.8"/>
</svg>
