<?xml version="1.0" encoding="utf-8"?>
<!-- Generator: Adobe Illustrator 17.1.0, SVG Export Plug-In . SVG Version: 6.00 Build 0)  -->
<!DOCTYPE svg PUBLIC "-//W3C//DTD SVG 1.1//EN" "http://www.w3.org/Graphics/SVG/1.1/DTD/svg11.dtd">
<svg version="1.1" id="Layer_1" xmlns="http://www.w3.org/2000/svg" xmlns:xlink="http://www.w3.org/1999/xlink" x="0px" y="0px"
	 viewBox="155.9 70.9 283.5 283.5" enable-background="new 155.9 70.9 283.5 283.5" xml:space="preserve">
<g>
	<g>
		<path fill="#ED1C24" d="M297.6,92.8c66.1,0,119.8,53.7,119.8,119.8s-53.7,119.8-119.8,119.8c-66.1,0-119.8-53.7-119.8-119.8
			S231.5,92.8,297.6,92.8"/>
		<path fill="#FFFFFF" d="M297.6,116.8c52.9,0,95.8,42.9,95.8,95.8c0,52.9-42.9,95.8-95.8,95.8c-52.9,0-95.8-42.9-95.8-95.8
			C201.8,159.7,244.7,116.8,297.6,116.8"/>
		<polyline fill="#262425" points="385.5,236.6 355.1,219.1 385.5,201.5 385.5,236.6 		"/>
		<polyline fill="#262425" points="209.8,201.5 209.8,236.6 240.2,219.1 209.8,201.5 		"/>
	</g>
	<path fill="#FEFEFE" d="M237.5,154.3c38.7,0,77.5,0,116.2-0.1c2.8,0,3.3,0.6,3.3,3.3c-0.1,37.7-0.1,75.3,0,113
		c0,2.8-0.6,3.3-3.3,3.3c-37.7-0.1-75.3-0.1-113,0c-2.8,0-3.3-0.6-3.3-3.3C237.5,231.7,237.5,193,237.5,154.3z"/>
	<path fill="#222222" d="M341.6,186.5c-0.2-7.3-0.6-7.6-7.7-6.1c-0.4-3.8-0.9-7.7-2.1-11.3c-1.3-3.7-3.7-5.9-7.7-6.2
		c-18.2-1.6-36.4-1.6-54.5,0c-4.2,0.4-6.7,2.7-7.9,6.6c-1.2,3.7-1.5,7.4-2.1,11.2c-6.7-2-7.7-1.3-7.6,5.3c0,2.9-0.3,5.8-0.3,8.8
		c0,7.5,0.4,7.8,8.2,6.4c0,5.7,0,11.4,0,17.1c0,1.5-0.5,3.1,0.8,4.4c1.9,1.7,1.7,3.1-0.6,4.2c-0.9,0.4-1.3,1.3-1.3,2.3
		c0.1,11.5-1,23.1,2.2,34.3c0.3,1,1,1.9,1.9,1.8c0.2,0.1,0.5,0.3,0.8,0.3h5.3c0,0,0,0,0.1,0c1.7,0,3.2-0.8,3.8-4
		c0.2-1.3,1.8-0.8,2.8-0.8c14,0,28.1,0,42.1,0c1,0,2.7-0.4,2.9,0.7c0.4,3,1.7,3.9,3.3,4c0.1,0,0.2,0.1,0.3,0.1h5.9
		c0.2,0,0.4-0.1,0.6-0.2c1-0.1,1.8-0.8,1.8-1.8c0-4.7,2.8-8.7,2.5-13.5c-0.4-5.2,0-10.5-0.1-15.7c-0.1-3,1.3-6.6-2.7-8.5
		c-0.8-0.4-0.7-1.8,0.1-2.4c2.3-1.8,1.5-4.2,1.6-6.4c0.1-5.3,0-10.6,0-16c7.5,1.7,8.2,1.2,8.2-5.7
		C342,192.3,341.7,189.4,341.6,186.5z M271,243.3c-2.1-0.1-4.5,0.4-4.4-3c0.1-2,0-4,0-6c0,0,0,0,0,0c0-1.5,0.1-3.1,0-4.6
		c-0.1-2.2,0.3-3.8,3.1-3.8c2.7,0,4.4,0.5,4.4,3.7c0,3.5,0.2,7,0.5,10.5C274.9,243.1,273.3,243.4,271,243.3z M278.4,242.8
		c0-0.3,0-0.6,0-0.8c12.2,0,24.5,0,36.7,0c0,0.3,0,0.6,0,0.8C302.9,242.8,290.7,242.8,278.4,242.8z M315.4,238.5
		c-12.4,0-24.9,0-37.3,0c0-0.3,0-0.6,0-0.9c12.4,0,24.9,0,37.3,0C315.4,237.9,315.4,238.2,315.4,238.5z M277.7,234.4
		c0-0.3,0-0.6,0-0.9c12.7,0,25.4,0,38.2,0c0,0.3,0,0.6,0,0.9C303.1,234.4,290.4,234.4,277.7,234.4z M277.7,230.2c0-0.3,0-0.6,0-0.9
		c12.7,0,25.4,0,38.1,0c0,0.3,0,0.6,0,0.9C303.1,230.2,290.4,230.2,277.7,230.2z M296.3,202.9c-9.7,0-19.4-0.1-29.1,0.1
		c-3.7,0.1-5.3-1.2-5.1-5c0.3-6.1,0.3-12.3,0.4-18.5c0-3.1,1.5-4.3,4.6-4.3c19.9,0.1,39.7,0.1,59.6,0c2.8,0,4.4,0.9,4.5,3.9
		c0.1,6.8,0.2,13.5,0.4,20.3c0.1,3.3-2.2,3.5-4.7,3.5C316.6,202.8,306.4,202.9,296.3,202.9z M318.9,239.1c0.2-3,0.4-6.1,0.4-9.2
		c0-2.8,1.1-4,4.1-4c3.1,0.1,3.6,1.6,3.4,4.1c-0.1,1.7,0,3.4,0,5c0,1.4-0.1,2.8,0,4.1c0.5,3.7-1.4,4.2-4.6,4.3
		C318.8,243.5,318.7,241.6,318.9,239.1z"/>
</g>
</svg>
