<?xml version="1.0" encoding="utf-8"?>
<!-- Generator: Adobe Illustrator 17.1.0, SVG Export Plug-In . SVG Version: 6.00 Build 0)  -->
<!DOCTYPE svg PUBLIC "-//W3C//DTD SVG 1.1//EN" "http://www.w3.org/Graphics/SVG/1.1/DTD/svg11.dtd">
<svg version="1.1" id="Layer_1" xmlns="http://www.w3.org/2000/svg" xmlns:xlink="http://www.w3.org/1999/xlink" x="0px" y="0px"
	 viewBox="155.9 70.9 283.5 283.5" enable-background="new 155.9 70.9 283.5 283.5" xml:space="preserve">
<g>
	<path fill="#ED1C24" d="M297.6,92.8c66.1,0,119.8,53.7,119.8,119.8s-53.7,119.8-119.8,119.8c-66.1,0-119.8-53.7-119.8-119.8
		S231.5,92.8,297.6,92.8"/>
	<path fill="#FFFFFF" d="M297.6,116.8c52.9,0,95.8,42.9,95.8,95.8c0,52.9-42.9,95.8-95.8,95.8c-52.9,0-95.8-42.9-95.8-95.8
		C201.8,159.7,244.7,116.8,297.6,116.8"/>
	<polyline fill="#262425" points="385.5,236.6 355.1,219.1 385.5,201.5 385.5,236.6 	"/>
	<polyline fill="#262425" points="209.8,201.5 209.8,236.6 240.2,219.1 209.8,201.5 	"/>
</g>
</svg>
