<?xml version="1.0" encoding="utf-8"?>
<!-- Generator: Adobe Illustrator 16.0.3, SVG Export Plug-In . SVG Version: 6.00 Build 0)  -->
<!DOCTYPE svg PUBLIC "-//W3C//DTD SVG 1.1//EN" "http://www.w3.org/Graphics/SVG/1.1/DTD/svg11.dtd">
<svg version="1.1" id="airport" xmlns="http://www.w3.org/2000/svg" xmlns:xlink="http://www.w3.org/1999/xlink" x="0px" y="0px"
	 width="141.732px" height="141.732px" viewBox="0 0 141.732 141.732" enable-background="new 0 0 141.732 141.732"
	 xml:space="preserve">
<g>
	<path d="M73.27,129.26l20.216,5.386l-1.281-8.72l-16.696-12.818l1.469-23.38c0.187-6.51-0.921-14.308,4.645-14.308
		c2.237,0,5.198,0.921,7.227,1.47l13.17,3.718l31.166,14.108v-3.333c0-2.215,0.559-5.758-1.307-7.437
		c-0.932-1.486-3.707-3.339-5.174-4.447L78.282,43.473v-3.893L76.977,20.63c-0.548-3.52-0.734-13.543-6.106-13.543
		c-5.385,0-5.571,10.024-6.131,13.543l-1.294,18.951v3.893L15.042,79.499c-1.492,1.108-4.091,2.961-5.197,4.447
		C7.99,85.625,8.55,89.167,8.55,91.383v3.333l31.155-14.108l13.355-3.718c2.027-0.548,4.826-1.47,7.051-1.47
		c5.56,0,4.44,7.797,4.628,14.308l1.491,23.38l-16.702,12.818l-1.293,8.72l20.222-5.386L73.27,129.26L73.27,129.26z"/>
</g>
</svg>
