<?xml version="1.0" encoding="utf-8"?>
<!-- Generator: Adobe Illustrator 16.0.3, SVG Export Plug-In . SVG Version: 6.00 Build 0)  -->
<!DOCTYPE svg PUBLIC "-//W3C//DTD SVG 1.1//EN" "http://www.w3.org/Graphics/SVG/1.1/DTD/svg11.dtd">
<svg version="1.1" id="car_charge_point" xmlns="http://www.w3.org/2000/svg" xmlns:xlink="http://www.w3.org/1999/xlink" x="0px"
	 y="0px" width="141.732px" height="141.732px" viewBox="0 0 141.732 141.732" enable-background="new 0 0 141.732 141.732"
	 xml:space="preserve">
<g>
	<path d="M126.001,70.559c0-7.38-5.368-13.542-12.547-15.106V49.04c0-11.903-9.682-21.585-21.583-21.585h-7.114V24.9
		c0-9.838-7.972-17.813-17.813-17.813H44.123c-9.84,0-17.817,7.976-17.817,17.813v96.757h-4.076c-3.584,0-6.499,2.908-6.499,6.495
		c0,3.585,2.915,6.493,6.499,6.493h4.076h58.451h4.083c3.584,0,6.494-2.908,6.494-6.493c0-3.587-2.909-6.495-6.494-6.495h-4.083
		v-86.66h7.114c7.744,0,14.042,6.3,14.042,14.043v6.508c-6.98,1.702-12.157,7.764-12.157,15.011v4.604h6.913v10.273
		c0,1.478,1.194,2.673,2.671,2.673c1.478,0,2.672-1.195,2.672-2.673V75.162h7.732v10.273c0,1.478,1.192,2.673,2.67,2.673
		c1.476,0,2.67-1.195,2.67-2.673V75.162h6.917V70.559z"/>
	<rect x="42.325" y="97.811" fill="#FFFFFF" width="26.421" height="6.779"/>
	<path fill="#FFFFFF" d="M75.226,66.679c0,4.917-3.992,8.904-8.908,8.904H44.75c-4.92,0-8.906-3.987-8.906-8.904V27.724
		c0-4.917,3.986-8.905,8.906-8.905h21.567c4.916,0,8.908,3.988,8.908,8.905V66.679z"/>
	<polygon points="52.214,57.014 52.214,47.193 42.315,47.193 42.315,40.415 52.214,40.415 52.214,30.597 58.814,30.597 
		58.814,40.415 68.737,40.415 68.737,47.193 58.814,47.193 58.814,57.014 	"/>
</g>
</svg>
