<?xml version="1.0" encoding="utf-8"?>
<!-- Generator: Adobe Illustrator 17.1.0, SVG Export Plug-In . SVG Version: 6.00 Build 0)  -->
<!DOCTYPE svg PUBLIC "-//W3C//DTD SVG 1.1//EN" "http://www.w3.org/Graphics/SVG/1.1/DTD/svg11.dtd">
<svg version="1.1" id="Layer_1" xmlns="http://www.w3.org/2000/svg" xmlns:xlink="http://www.w3.org/1999/xlink" x="0px" y="0px"
	 viewBox="0 0 141.7 141.7" enable-background="new 0 0 141.7 141.7" xml:space="preserve">
<g>
	<g>
		<g>
			<path d="M126,70.6c0-7.4-5.4-13.5-12.5-15.1V49c0-11.9-9.7-21.6-21.6-21.6h-7.1v-2.6c0-9.8-8-17.8-17.8-17.8H44.1
				c-9.8,0-17.8,8-17.8,17.8v96.8h-4.1c-3.6,0-6.5,2.9-6.5,6.5c0,3.6,2.9,6.5,6.5,6.5h4.1h58.5h4.1c3.6,0,6.5-2.9,6.5-6.5
				c0-3.6-2.9-6.5-6.5-6.5h-4.1V35h7.1c7.7,0,14,6.3,14,14v6.5c-7,1.7-12.2,7.8-12.2,15v4.6h6.9v10.3c0,1.5,1.2,2.7,2.7,2.7
				c1.5,0,2.7-1.2,2.7-2.7V75.2h7.7v10.3c0,1.5,1.2,2.7,2.7,2.7c1.5,0,2.7-1.2,2.7-2.7V75.2h6.9V70.6z"/>
		</g>
		<g>
			<g>
				<path fill="#FFFFFF" d="M42.3,104.6v-6.8h26.4v6.8H42.3z"/>
			</g>
		</g>
		<g>
			<path fill="#FFFFFF" d="M75.2,66.7c0,4.9-4,8.9-8.9,8.9H44.8c-4.9,0-8.9-4-8.9-8.9v-39c0-4.9,4-8.9,8.9-8.9h21.6
				c4.9,0,8.9,4,8.9,8.9V66.7z"/>
		</g>
		<g>
			<g>
				<path d="M52.2,57v-9.8h-9.9v-6.8h9.9v-9.8h6.6v9.8h9.9v6.8h-9.9V57H52.2z"/>
			</g>
		</g>
	</g>
</g>
</svg>
