<?xml version="1.0" encoding="utf-8"?>
<!-- Generator: Adobe Illustrator 17.1.0, SVG Export Plug-In . SVG Version: 6.00 Build 0)  -->
<!DOCTYPE svg PUBLIC "-//W3C//DTD SVG 1.1//EN" "http://www.w3.org/Graphics/SVG/1.1/DTD/svg11.dtd">
<svg version="1.1" id="Layer_1" xmlns="http://www.w3.org/2000/svg" xmlns:xlink="http://www.w3.org/1999/xlink" x="0px" y="0px"
	 viewBox="0 0 141.7 141.7" enable-background="new 0 0 141.7 141.7" xml:space="preserve">
<g>
	<path d="M32.5,121V20.8H65c12.3,0,20.3,0.5,24.1,1.5c5.7,1.5,10.5,4.8,14.4,9.8c3.9,5,5.8,11.5,5.8,19.5c0,6.2-1.1,11.3-3.3,15.5
		c-2.2,4.2-5.1,7.5-8.5,9.9c-3.4,2.4-6.9,4-10.5,4.8c-4.8,1-11.8,1.4-21,1.4H52.7V121H32.5z M52.7,37.7v28.4h11.1
		c8,0,13.3-0.5,16-1.6c2.7-1,4.8-2.7,6.3-4.9c1.5-2.2,2.3-4.8,2.3-7.8c0-3.6-1.1-6.7-3.2-9c-2.1-2.4-4.9-3.9-8.1-4.4
		c-2.4-0.5-7.3-0.7-14.6-0.7H52.7z" fill="param(fill)" fill-opacity="param(fill-opacity)" stroke="param(outline)" stroke-opacity="param(outline-opacity)" stroke-width="param(outline-width)"/>
</g>
</svg>
