<?xml version="1.0" encoding="utf-8"?>
<!-- Generator: Adobe Illustrator 16.0.3, SVG Export Plug-In . SVG Version: 6.00 Build 0)  -->
<!DOCTYPE svg PUBLIC "-//W3C//DTD SVG 1.1//EN" "http://www.w3.org/Graphics/SVG/1.1/DTD/svg11.dtd">
<svg version="1.1" id="castle" xmlns="http://www.w3.org/2000/svg" xmlns:xlink="http://www.w3.org/1999/xlink" x="0px" y="0px"
	 width="141.732px" height="141.732px" viewBox="0 0 141.732 141.732" enable-background="new 0 0 141.732 141.732"
	 xml:space="preserve">
<g>
	<polygon fill-rule="evenodd" clip-rule="evenodd" points="120.256,123.501 120.256,27.071 105.762,27.071 105.762,45.96 
		93.573,45.96 93.573,27.071 80.333,27.071 80.333,43.706 65.896,43.706 65.896,7.087 52.605,7.087 52.605,25.975 37.015,25.975 
		37.015,7.087 21.476,7.087 21.368,123.183 12.63,126.845 12.63,134.646 129.102,134.646 129.102,126.845 	"/>
	<path fill-rule="evenodd" clip-rule="evenodd" fill="#FFFFFF" d="M58.833,116.858H32.251v-36.37l0.044-0.132
		c0.321-7.026,6.102-12.628,13.207-12.628c6.982,0,12.688,5.411,13.188,12.265l0.142,0.234V116.858z"/>
</g>
</svg>
