<?xml version="1.0" encoding="utf-8"?>
<!-- Generator: Adobe Illustrator 16.0.3, SVG Export Plug-In . SVG Version: 6.00 Build 0)  -->
<!DOCTYPE svg PUBLIC "-//W3C//DTD SVG 1.1//EN" "http://www.w3.org/Graphics/SVG/1.1/DTD/svg11.dtd">
<svg version="1.1" id="cathedral" xmlns="http://www.w3.org/2000/svg" xmlns:xlink="http://www.w3.org/1999/xlink" x="0px" y="0px"
	 width="141.732px" height="141.732px" viewBox="0 0 141.732 141.732" enable-background="new 0 0 141.732 141.732"
	 xml:space="preserve">
<g>
	<path d="M76.393,59.327h16.506c1.927,4.651,6.57,7.693,11.86,7.693c7.211,0,13.141-5.927,13.141-13.141
		c0-7.213-5.93-13.141-13.141-13.141c-5.29,0-9.776,3.047-11.86,7.531H76.393V31.924c4.651-1.919,7.691-6.57,7.691-11.697
		c0-7.372-5.764-13.141-13.14-13.141c-7.208,0-13.294,5.769-13.294,13.141c0,5.127,3.204,9.614,7.845,11.697v16.345H48.993
		c-2.086-4.484-6.729-7.531-11.861-7.531c-7.21,0-13.298,5.928-13.298,13.141c0,7.213,6.088,13.141,13.298,13.141
		c5.132,0,9.618-3.042,11.861-7.693h16.501v50.159c-4.642,2.084-7.845,6.57-7.845,11.859c0,7.371,6.087,13.3,13.294,13.3
		c7.376,0,13.14-5.93,13.14-13.3c0-5.29-3.04-9.455-7.691-11.859V59.327L76.393,59.327z"/>
</g>
</svg>
