<svg xmlns="http://www.w3.org/2000/svg" width="24" height="24" viewBox="0 0 141.7 141.7"><path d="m112.4 115.9c.5-1.5.5-2.6 0-3.4-14.9-10.3-27.9-28.4-38.6-47.1v-40.2c9.2 13.6 17.3 21.6 27.5 27.4 1.8 1.1 2.7-3.6 1.8-4.2-10.8-6.9-22.9-21.8-30-37.3-.3-1-.8-1.8-1.8-4-1.1 2.3-1.5 3.1-1.8 4-6.8 16.1-19.1 30.4-29.9 37.3-1.3.8 0 2.1.2 2.9 0 .8.3 1.9 1.5 1.3 10-5.6 18.1-13.5 27.3-27.1v39.9c-10.8 18.7-24.1 37-38.9 47.1-1.9 1.3.5 5.5 2.6 4.7 8.4-6 20.5-16.1 36.7-41.2l-.8 31.5-1.3 27.1h9.1l-1.8-27.1-.7-31.5c16.1 25.2 28.6 35.4 37 41.2 1.1.6 1.5-.5 1.8-1.1z"/></svg>