<?xml version="1.0" encoding="utf-8"?>
<!-- Generator: Adobe Illustrator 16.0.3, SVG Export Plug-In . SVG Version: 6.00 Build 0)  -->
<!DOCTYPE svg PUBLIC "-//W3C//DTD SVG 1.1//EN" "http://www.w3.org/Graphics/SVG/1.1/DTD/svg11.dtd">
<svg version="1.1" id="coniferous_tree" xmlns="http://www.w3.org/2000/svg" xmlns:xlink="http://www.w3.org/1999/xlink" x="0px"
	 y="0px" width="141.732px" height="141.732px" viewBox="0 0 141.732 141.732" enable-background="new 0 0 141.732 141.732"
	 xml:space="preserve">
<g>
	<path d="M112.375,115.916c0.484-1.453,0.484-2.582,0-3.392c-14.854-10.334-27.934-28.418-38.59-47.147V25.171
		c9.203,13.563,17.278,21.637,27.45,27.449c1.776,1.131,2.744-3.552,1.776-4.197c-10.819-6.943-22.928-21.798-30.033-37.3
		c-0.322-0.969-0.807-1.776-1.776-4.036c-1.131,2.26-1.454,3.067-1.775,4.036c-6.784,16.146-19.054,30.356-29.873,37.3
		c-1.291,0.808,0,2.099,0.162,2.905c0,0.809,0.322,1.938,1.453,1.292c10.173-5.65,18.245-13.563,27.448-27.126v39.883
		C57.8,84.106,44.558,102.353,29.705,112.524c-1.938,1.293,0.484,5.489,2.583,4.682c8.396-5.974,20.507-16.145,36.654-41.172
		l-0.81,31.485l-1.291,27.126h9.203l-1.775-27.126l-0.807-31.485c16.146,25.188,28.58,35.361,36.975,41.172
		c1.133,0.648,1.454-0.484,1.776-1.13L112.375,115.916L112.375,115.916z"/>
</g>
</svg>
