<svg xmlns="http://www.w3.org/2000/svg" width="24" height="24" viewBox="0 0 141.7 141.7"><path d="m91.4 50.7-20.5 20.6-20.6-20.6 20.6-20.6zm-73-31.9h-11.3l33.4 33.4v71.5h12.9v-58.6l10.8 10.8v47.8h13.4v-47.8l11.3-11.3v59.2h12.3v-71.5l33.4-33.4h-11.3l-26.2 26.2-26.2-26.3-26.3 26.3zm19 7.1c0 4.3 3.6 7.9 7.9 7.9 4.5 0 7.9-3.6 7.9-7.9s-3.4-7.9-7.9-7.9c-4.3 0-7.9 3.6-7.9 7.9zm52.5 0c0 4.3 3.4 7.9 7.9 7.9 4.3 0 7.9-3.6 7.9-7.9s-3.6-7.9-7.9-7.9c-4.5 0-7.9 3.6-7.9 7.9zm-26.9 24.5c0 4.5 3.6 7.9 7.9 7.9 4.5 0 7.9-3.4 7.9-7.9 0-4.3-3.4-7.9-7.9-7.9-4.3 0-7.9 3.6-7.9 7.9z"/></svg>