<?xml version="1.0" encoding="utf-8"?>
<!-- Generator: Adobe Illustrator 17.1.0, SVG Export Plug-In . SVG Version: 6.00 Build 0)  -->
<!DOCTYPE svg PUBLIC "-//W3C//DTD SVG 1.1//EN" "http://www.w3.org/Graphics/SVG/1.1/DTD/svg11.dtd">
<svg version="1.1" id="Layer_1" xmlns="http://www.w3.org/2000/svg" xmlns:xlink="http://www.w3.org/1999/xlink" x="0px" y="0px"
	 viewBox="0 0 141.7 141.7" enable-background="new 0 0 141.7 141.7" xml:space="preserve">
<g>
	<path d="M91.4,50.7L70.9,71.3L50.3,50.7l20.6-20.6L91.4,50.7L91.4,50.7z M18.4,18.8H7.1l33.4,33.4v71.5h12.9V65.1l10.8,10.8v47.8
		h13.4V75.9l11.3-11.3v59.2h12.3V52.3l33.4-33.4h-11.3L97.1,45.1L70.9,18.8L44.6,45.1L18.4,18.8L18.4,18.8z M37.4,25.9
		c0,4.3,3.6,7.9,7.9,7.9c4.5,0,7.9-3.6,7.9-7.9c0-4.3-3.4-7.9-7.9-7.9C41,18,37.4,21.6,37.4,25.9L37.4,25.9L37.4,25.9z M89.9,25.9
		c0,4.3,3.4,7.9,7.9,7.9c4.3,0,7.9-3.6,7.9-7.9c0-4.3-3.6-7.9-7.9-7.9C93.3,18,89.9,21.6,89.9,25.9L89.9,25.9L89.9,25.9z M63,50.4
		c0,4.5,3.6,7.9,7.9,7.9c4.5,0,7.9-3.4,7.9-7.9c0-4.3-3.4-7.9-7.9-7.9C66.6,42.5,63,46.1,63,50.4L63,50.4z" fill="param(fill)" fill-opacity="param(fill-opacity)" stroke="param(outline)" stroke-opacity="param(outline-opacity)" stroke-width="param(outline-width)"/>
</g>
</svg>
