<?xml version="1.0" encoding="utf-8"?>
<!-- Generator: Adobe Illustrator 16.0.3, SVG Export Plug-In . SVG Version: 6.00 Build 0)  -->
<!DOCTYPE svg PUBLIC "-//W3C//DTD SVG 1.1//EN" "http://www.w3.org/Graphics/SVG/1.1/DTD/svg11.dtd">
<svg version="1.1" id="country_park" xmlns="http://www.w3.org/2000/svg" xmlns:xlink="http://www.w3.org/1999/xlink" x="0px"
	 y="0px" width="141.732px" height="141.732px" viewBox="0 0 141.732 141.732" enable-background="new 0 0 141.732 141.732"
	 xml:space="preserve">
<g>
	<polygon points="18.403,18.831 7.087,18.831 40.519,52.266 40.519,123.759 53.38,123.759 53.38,65.121 64.179,75.924 
		64.179,123.759 77.554,123.759 77.554,75.924 88.87,64.608 88.87,123.759 101.214,123.759 101.214,52.266 134.646,18.831 
		123.33,18.831 97.097,45.062 70.866,18.831 44.635,45.062 18.403,18.831 	"/>
	<polygon fill="#FFFFFF" points="91.441,50.722 70.866,71.294 50.291,50.722 70.866,30.146 91.441,50.722 	"/>
	<path d="M37.434,25.859c0,4.287,3.6,7.887,7.888,7.887c4.457,0,7.886-3.6,7.886-7.887c0-4.286-3.43-7.886-7.886-7.886
		C41.034,17.974,37.434,21.573,37.434,25.859L37.434,25.859L37.434,25.859z"/>
	<path d="M89.899,25.859c0,4.287,3.428,7.887,7.887,7.887c4.285,0,7.885-3.6,7.885-7.887c0-4.286-3.6-7.886-7.885-7.886
		C93.327,17.974,89.899,21.573,89.899,25.859L89.899,25.859L89.899,25.859z"/>
	<path d="M62.98,50.377c0,4.459,3.598,7.888,7.886,7.888c4.456,0,7.886-3.429,7.886-7.888c0-4.285-3.43-7.888-7.886-7.888
		C66.579,42.49,62.98,46.092,62.98,50.377L62.98,50.377z"/>
</g>
</svg>
