<svg xmlns="http://www.w3.org/2000/svg" width="24" height="24" viewBox="0 0 141.7 141.7"><path d="m111.7 59.4c-4 0-7.7 1-11 2.8-4.2-4.8-7.6-8.8-7.6-8.8l3.7-3.7h6.3c3.7 0 3.7-7.2 0-7.2h-17.7c-3 0-3.3 7.2 0 7.2l1.4 1.5-35.7.1 6.1-8.8h5.9v-6.1h-12.8l-.4 3.4-11.5 21.2c-2.6-1-5.4-1.6-8.4-1.6-12.7 0-23 10.3-23 23s10.3 23 23 23 23-10.3 23-23c0-7.6-3.7-14.3-9.4-18.5l3.6-5.7 18.7 27.8h23.1c1.8 10.9 11.2 19.3 22.6 19.3 12.7 0 23-10.3 23-23 0-12.6-10.2-22.9-22.9-22.9zm-65.6 23c0 8.9-7.2 16.1-16.1 16.1s-16-7.3-16-16.1 7.2-16.1 16-16.1c1.8 0 3.5.3 5.1.8l-5.6 10.3c-2.5.3-4.5 2.4-4.5 5 0 2.8 2.3 5 5 5 2.8 0 5-2.3 5-5 0-1.2-.4-2.2-1.1-3.1l6-9.5c3.8 2.9 6.2 7.4 6.2 12.6zm8.2-24.2h27.1s-12.7 21.5-12.4 21.5zm34-1 7.5 8.6c-3.9 3.7-6.5 8.7-7 14.4l-13.3-.1zm12.1 13.7 8.2 9.3-12.8-.1c.5-3.5 2.2-6.8 4.6-9.2zm11.3 27.5c-7.6 0-14-5.3-15.6-12.4h19s3.8-3.1-.1-7.5c-1.6-1.8-5.5-6.3-9.6-11 1.9-.8 4.1-1.3 6.3-1.3 8.9 0 16.1 7.2 16.1 16.1s-7.2 16.1-16.1 16.1z"/></svg>