<?xml version="1.0" encoding="utf-8"?>
<!-- Generator: Adobe Illustrator 17.1.0, SVG Export Plug-In . SVG Version: 6.00 Build 0)  -->
<!DOCTYPE svg PUBLIC "-//W3C//DTD SVG 1.1//EN" "http://www.w3.org/Graphics/SVG/1.1/DTD/svg11.dtd">
<svg version="1.1" id="Layer_1" xmlns="http://www.w3.org/2000/svg" xmlns:xlink="http://www.w3.org/1999/xlink" x="0px" y="0px"
	 viewBox="0 0 141.7 141.7" enable-background="new 0 0 141.7 141.7" xml:space="preserve">
<path d="M111.7,59.4c-4,0-7.7,1-11,2.8c-4.2-4.8-7.6-8.8-7.6-8.8l3.7-3.7h6.3c3.7,0,3.7-7.2,0-7.2H85.4c-3,0-3.3,7.2,0,7.2l1.4,1.5
	l-35.7,0.1l6.1-8.8h5.9v-6.1H50.3l-0.4,3.4L38.4,61c-2.6-1-5.4-1.6-8.4-1.6c-12.7,0-23,10.3-23,23c0,12.7,10.3,23,23,23
	c12.7,0,23-10.3,23-23c0-7.6-3.7-14.3-9.4-18.5l3.6-5.7L65.9,86l23.1,0c1.8,10.9,11.2,19.3,22.6,19.3c12.7,0,23-10.3,23-23
	C134.6,69.7,124.4,59.4,111.7,59.4z M46.1,82.4c0,8.9-7.2,16.1-16.1,16.1S14,91.2,14,82.4S21.2,66.3,30,66.3c1.8,0,3.5,0.3,5.1,0.8
	l-5.6,10.3c-2.5,0.3-4.5,2.4-4.5,5c0,2.8,2.3,5,5,5c2.8,0,5-2.3,5-5c0-1.2-0.4-2.2-1.1-3.1l6-9.5C43.7,72.7,46.1,77.2,46.1,82.4z
	 M54.3,58.2h27.1c0,0-12.7,21.5-12.4,21.5L54.3,58.2z M88.3,57.2l7.5,8.6c-3.9,3.7-6.5,8.7-7,14.4l-13.3-0.1L88.3,57.2z M100.4,70.9
	l8.2,9.3l-12.8-0.1C96.3,76.6,98,73.3,100.4,70.9z M111.7,98.4c-7.6,0-14-5.3-15.6-12.4l19,0c0,0,3.8-3.1-0.1-7.5
	c-1.6-1.8-5.5-6.3-9.6-11c1.9-0.8,4.1-1.3,6.3-1.3c8.9,0,16.1,7.2,16.1,16.1S120.6,98.4,111.7,98.4z" fill="param(fill)" fill-opacity="param(fill-opacity)" stroke="param(outline)" stroke-opacity="param(outline-opacity)" stroke-width="param(outline-width)"/>
</svg>
