<?xml version="1.0" encoding="utf-8"?>
<!-- Generator: Adobe Illustrator 16.0.3, SVG Export Plug-In . SVG Version: 6.00 Build 0)  -->
<!DOCTYPE svg PUBLIC "-//W3C//DTD SVG 1.1//EN" "http://www.w3.org/Graphics/SVG/1.1/DTD/svg11.dtd">
<svg version="1.1" id="cycle" xmlns="http://www.w3.org/2000/svg" xmlns:xlink="http://www.w3.org/1999/xlink" x="0px" y="0px"
	 width="141.732px" height="141.732px" viewBox="0 0 141.732 141.732" enable-background="new 0 0 141.732 141.732"
	 xml:space="preserve">
<g>
	<path d="M111.691,59.399c-3.969,0-7.701,1.008-10.959,2.782c-4.181-4.844-7.606-8.815-7.606-8.815l3.676-3.65h6.329
		c3.676,0,3.676-7.213,0-7.213H85.415c-3.013,0-3.287,7.213,0,7.213l1.407,1.495l-35.68,0.139l6.082-8.847h5.915v-6.08H50.26
		l-0.414,3.401l-11.447,21.17c-2.592-1.019-5.405-1.595-8.358-1.595c-12.678,0-22.954,10.277-22.954,22.955
		c0,12.679,10.276,22.955,22.954,22.955s22.956-10.276,22.956-22.955c0-7.58-3.69-14.281-9.355-18.461l3.58-5.72l18.708,27.832
		l23.127,0.007c1.757,10.936,11.207,19.297,22.635,19.297c12.678,0,22.954-10.276,22.954-22.955
		C134.646,69.677,124.369,59.399,111.691,59.399z"/>
	<path fill="#FFFFFF" d="M46.107,82.354c0,8.875-7.191,16.067-16.066,16.067s-16.069-7.192-16.069-16.067
		s7.194-16.066,16.069-16.066c1.767,0,3.461,0.294,5.052,0.82l-5.553,10.265c-2.54,0.256-4.531,2.373-4.531,4.981
		c0,2.776,2.252,5.031,5.032,5.031c2.778,0,5.031-2.255,5.031-5.031c0-1.161-0.41-2.217-1.071-3.069l5.975-9.541
		C43.707,72.687,46.107,77.235,46.107,82.354z"/>
	<path fill="#FFFFFF" d="M54.296,58.174h27.08c0,0-12.656,21.504-12.403,21.504L54.296,58.174z"/>
	<path fill="#FFFFFF" d="M88.343,57.178l7.533,8.566c-3.882,3.698-6.482,8.73-7.025,14.376l-13.303-0.056L88.343,57.178z"/>
	<path fill="#FFFFFF" d="M100.42,70.909l8.179,9.297l-12.809-0.054C96.286,76.556,97.957,73.334,100.42,70.909z"/>
	<path fill="#FFFFFF" d="M111.691,98.422c-7.612,0-13.974-5.299-15.632-12.403l18.987,0.006c0,0,3.824-3.092-0.081-7.468
		c-1.586-1.779-5.494-6.278-9.572-10.986c1.935-0.827,4.062-1.282,6.298-1.282c8.875,0,16.068,7.191,16.068,16.066
		S120.566,98.422,111.691,98.422z"/>
</g>
</svg>
