<?xml version="1.0" encoding="utf-8"?>
<!-- Generator: Adobe Illustrator 16.0.3, SVG Export Plug-In . SVG Version: 6.00 Build 0)  -->
<!DOCTYPE svg PUBLIC "-//W3C//DTD SVG 1.1//EN" "http://www.w3.org/Graphics/SVG/1.1/DTD/svg11.dtd">
<svg version="1.1" id="eating_drinking_venue" xmlns="http://www.w3.org/2000/svg" xmlns:xlink="http://www.w3.org/1999/xlink"
	 x="0px" y="0px" width="141.732px" height="141.732px" viewBox="0 0 141.732 141.732" enable-background="new 0 0 141.732 141.732"
	 xml:space="preserve">
<g>
	<path fill="#0F0D0D" d="M117.516,120.158c-3.126-3.83-35.63-43.052-41.377-49.986l0.054-0.072L85.772,56.2l10.221,1.218
		c0,0,0.836,0.249,2.54-1.77c1.689-2.008,22.076-30.419,22.076-30.419s1.323-4.95-3.333-3.262
		c-2.373,2.648-20.733,26.644-20.733,26.644s-1.856,2.043-4.317-0.036c-1.894-1.688-0.099-3.697-0.099-3.697
		s20.164-27.264,20.235-27.316c0.417-0.711,0.604-5.031-3.324-3.263c-3.279,3.67-20.769,26.937-20.769,26.937
		s-1.52,1.973-3.76,0.053c-1.76-1.76-0.667-3.777-0.667-3.777s19.589-26.729,19.597-26.811c0.551-0.639,1.065-5.688-3.413-2.647
		L76.583,37.956c0,0-0.854,0.738-0.318,2.408c0.531,1.67,3.615,10.042,3.615,10.042l-7.864,9.562l-1.891,2.304l-1.336-1.779
		l-7.688-9.083c0,0,7.332-13.286-5.98-26.456C43.426,13.384,32.042,5.848,24.559,9.721c-7.146,4.354-0.106,24.741,1.831,27.922
		c0.746,1.226,4.709,10.841,12.324,16.733c7.918,5.466,16.396,2.417,16.396,2.417l9.047,12.777l-41.875,51.946
		c0,0-3.945,6.086,1.351,9.703c5.279,3.875,6.986,1.796,10.257-1.227c1.189-1.387,35.652-50.78,35.652-50.78l0.586-0.803
		l0.926,1.372l38.417,52.771c0,0,4.114,4.655,8.646,0.069C122.644,128.05,120.947,124.363,117.516,120.158z"/>
</g>
</svg>
