<?xml version="1.0" encoding="utf-8"?>
<!-- Generator: Adobe Illustrator 17.1.0, SVG Export Plug-In . SVG Version: 6.00 Build 0)  -->
<!DOCTYPE svg PUBLIC "-//W3C//DTD SVG 1.1//EN" "http://www.w3.org/Graphics/SVG/1.1/DTD/svg11.dtd">
<svg version="1.1" id="Layer_1" xmlns="http://www.w3.org/2000/svg" xmlns:xlink="http://www.w3.org/1999/xlink" x="0px" y="0px"
	 viewBox="0 0 141.7 141.7" enable-background="new 0 0 141.7 141.7" xml:space="preserve">
<path d="M135.5,61.1h-13.2c-4.6-24.2-25.9-42.6-51.5-42.6S24,36.9,19.4,61.1H6.2V81h13.3c4.7,24,25.9,42.1,51.3,42.1
	s46.6-18.2,51.3-42.2h13.3V61.1z M70.9,37.4c15.1,0,27.9,10,32.1,23.7H38.7C42.9,47.3,55.7,37.4,70.9,37.4z M70.9,104.5
	c-15,0-27.7-9.8-32-23.4h64C98.6,94.5,85.8,104.5,70.9,104.5z" fill="param(fill)" fill-opacity="param(fill-opacity)" stroke="param(outline)" stroke-opacity="param(outline-opacity)" stroke-width="param(outline-width)"/>
</svg>
