<?xml version="1.0" encoding="utf-8"?>
<!-- Generator: Adobe Illustrator 28.1.0, SVG Export Plug-In . SVG Version: 6.00 Build 0)  -->
<svg version="1.1" id="Layer_1" xmlns="http://www.w3.org/2000/svg" xmlns:xlink="http://www.w3.org/1999/xlink" x="0px" y="0px"
	 width="48px" height="48px" viewBox="0 0 48 48" style="enable-background:new 0 0 48 48;" xml:space="preserve">
<style type="text/css">
	.st0{fill-rule:evenodd;clip-rule:evenodd;fill:#231F20;}
</style>
<path class="st0" d="M44.7,43.3H3.3v-4.2h1.4c1.3,0,1.5-0.5,1.6-1.2l0.4-14.8L4.7,20h8l-2,3.1l0.4,14.8c0.1,0.7,0.3,1.2,1.6,1.2
	h22.6c1.3,0,1.5-0.5,1.6-1.2l0.4-14.8l-2-3.1h8l-2.1,3.1l0.4,14.8c0.1,0.7,0.3,1.2,1.6,1.2h1.4V43.3z M34.2,13.8H13.8L24,7.9
	L34.2,13.8z M3.7,16.5h40.6L24,4.7L3.7,16.5z M24.4,27.3l6-5.8h4.2l-1.7,1.7v10.9c0,0.6,0,1.4,0.3,1.6c0.2,0.2,0.3,0.4,0.2,0.7
	c0,0.3-0.3,0.5-0.7,0.4h-2.5h-0.8c-0.3,0.1-0.6-0.1-0.7-0.4c-0.1-0.3,0-0.4,0.3-0.7c0.2-0.2,0.3-1,0.3-1.6v-7.3l-5.1,5l-5.1-5v7.3
	c0,0.6,0.1,1.4,0.3,1.6c0.2,0.2,0.3,0.4,0.3,0.7c-0.1,0.3-0.4,0.5-0.7,0.4h-0.8h-2.5c-0.3,0.1-0.6-0.1-0.7-0.4
	c-0.1-0.3,0-0.4,0.2-0.7c0.3-0.2,0.3-1,0.3-1.6V23.1l-1.7-1.7h4.2L24.4,27.3z"/>
</svg>
