<?xml version="1.0" encoding="utf-8"?>
<!-- Generator: Adobe Illustrator 28.1.0, SVG Export Plug-In . SVG Version: 6.00 Build 0)  -->
<svg version="1.1" id="airport" xmlns="http://www.w3.org/2000/svg" xmlns:xlink="http://www.w3.org/1999/xlink" x="0px" y="0px"
	 width="141.7px" height="141.7px" viewBox="0 0 141.7 141.7" style="enable-background:new 0 0 141.7 141.7;" xml:space="preserve"
	>
<style type="text/css">
	.st0{fill-rule:evenodd;clip-rule:evenodd;fill:#231F20;}
</style>
<path class="st0" d="M133.5,129.2H8.2v-12.7h4.2c3.9,0,4.5-1.6,4.8-3.6l1.3-44.8l-6.3-9.3h24.4l-6.1,9.3l1.3,44.8
	c0.3,2,0.9,3.6,4.8,3.6h68.5c3.9,0,4.5-1.6,4.8-3.6l1.3-44.8l-6.1-9.3h24.4l-6.3,9.3l1.3,44.8c0.3,2,0.9,3.6,4.8,3.6h4.2V129.2z
	 M101.7,39.9H40l30.9-18L101.7,39.9z M9.3,48.1h123L70.8,12.5L9.3,48.1z M71.9,80.8l18.2-17.7h12.7l-5.1,5.1v33.1c0,1.9,0.1,4.2,1,5
	c0.7,0.7,1,1.2,0.7,2c-0.1,0.9-1,1.5-2,1.2H90h-2.5c-1,0.3-1.9-0.3-2.2-1.2c-0.2-0.9,0.1-1.3,0.9-2c0.7-0.7,1-3.1,1-5V79.2
	L71.9,94.3L56.6,79.2v22.2c0,1.9,0.3,4.2,1,5c0.7,0.7,1,1.2,0.9,2c-0.3,0.9-1.2,1.5-2.2,1.2h-2.5h-7.4c-1,0.3-1.9-0.3-2-1.2
	c-0.3-0.9,0-1.3,0.7-2c0.9-0.7,1-3.1,1-5V68.2L41,63.1h12.7L71.9,80.8z"/>
</svg>
