<?xml version="1.0" encoding="utf-8"?>
<!-- Generator: Adobe Illustrator 16.0.3, SVG Export Plug-In . SVG Version: 6.00 Build 0)  -->
<!DOCTYPE svg PUBLIC "-//W3C//DTD SVG 1.1//EN" "http://www.w3.org/Graphics/SVG/1.1/DTD/svg11.dtd">
<svg version="1.1" id="non_coniferous_tree" xmlns="http://www.w3.org/2000/svg" xmlns:xlink="http://www.w3.org/1999/xlink"
	 x="0px" y="0px" width="141.732px" height="141.732px" viewBox="0 0 141.732 141.732" enable-background="new 0 0 141.732 141.732"
	 xml:space="preserve">
<g>
	<polygon points="67.426,98.301 67.426,134.645 74.483,134.645 74.483,98.301 67.426,98.301 	"/>
	<path d="M70.955,12.909c11.115,0,21.701,7.057,21.701,21.877c0,4.587,1.235,5.822,5.822,5.822h2.47
		c8.821,0,14.644,7.586,14.644,14.644c0,3,0.529,4.765-3.528,9.527c-2.999,4.587-1.765,7.938,3.528,9.351
		c6.528,1.588,11.821,7.586,11.821,15.35c0,8.821-5.999,16.938-17.114,16.938c-7.057,0-8.292,0.706-15.35-3.528
		c-2.823-1.765-3.528-2.293-4.058-2.823c-1.235-1.235-2.293-2.47-3-3.529l-4.059,4.058c1.235,1.235,2.999,4.765,8.292,7.587
		c5.293,3,9.88,4.233,18.172,4.233c12.351,0,22.937-10.057,22.937-22.936c0-10.058-7.058-18.878-16.408-21.171
		c2.823-3.529,4.587-7.764,4.587-13.057c0-11.115-9.351-20.466-20.466-20.466h-2.47c0-15.349-11.646-27.699-27.523-27.699
		c-15.879,0-27.7,12.351-27.7,27.699H40.96c-11.292,0-20.643,9.351-20.643,20.466c0,5.293,1.764,9.527,4.764,13.057
		C15.555,70.602,8.498,79.423,8.498,89.479c0,12.879,10.586,22.936,22.937,22.936c8.292,0,13.056-1.234,18.349-4.233
		c5.293-2.823,7.057-6.353,7.586-7.586l-4.058-4.059c-0.706,1.06-1.235,2.294-2.471,3.529c-0.528,0.529-1.059,1.059-4.058,2.823
		c-7.058,4.233-8.292,3.528-15.35,3.528c-11.115,0-16.938-8.116-16.938-16.938c0-7.764,5.293-13.762,11.646-15.35
		c5.293-1.412,6.527-4.764,3.528-9.351c-4.058-4.764-3.528-6.528-3.528-9.527c0-7.057,5.999-14.644,14.819-14.644h2.293
		c4.765,0,5.822-1.235,5.822-5.822C49.077,19.966,59.663,12.909,70.955,12.909L70.955,12.909z"/>
</g>
</svg>
