<svg xmlns="http://www.w3.org/2000/svg" width="24" height="24" viewBox="0 0 141.7 141.7"><path d="m67.4 98.3v36.3h7.1v-36.3zm3.6-85.4c11.1 0 21.7 7.1 21.7 21.9 0 4.6 1.2 5.8 5.8 5.8h2.5c8.8 0 14.6 7.6 14.6 14.6 0 3 .5 4.8-3.5 9.5-3 4.6-1.8 7.9 3.5 9.4 6.5 1.6 11.8 7.6 11.8 15.3 0 8.8-6 16.9-17.1 16.9-7.1 0-8.3.7-15.3-3.5-2.8-1.8-3.5-2.3-4.1-2.8-1.2-1.2-2.3-2.5-3-3.5l-4.1 4.1c1.2 1.2 3 4.8 8.3 7.6 5.3 3 9.9 4.2 18.2 4.2 12.4 0 22.9-10.1 22.9-22.9 0-10.1-7.1-18.9-16.4-21.2 2.8-3.5 4.6-7.8 4.6-13.1 0-11.1-9.4-20.5-20.5-20.5h-2.5c.1-15.3-11.6-27.6-27.4-27.6-15.9 0-27.7 12.4-27.7 27.7h-2.3c-11.3 0-20.6 9.4-20.6 20.5 0 5.3 1.8 9.5 4.8 13.1-9.6 2.2-16.7 11-16.7 21.1 0 12.9 10.6 22.9 22.9 22.9 8.3 0 13.1-1.2 18.3-4.2 5.3-2.8 7.1-6.4 7.6-7.6l-4.1-4.1c-.7 1.1-1.2 2.3-2.5 3.5-.5.5-1.1 1.1-4.1 2.8-7.1 4.2-8.3 3.5-15.3 3.5-11.1 0-16.9-8.1-16.9-16.9 0-7.8 5.3-13.8 11.6-15.3 5.3-1.4 6.5-4.8 3.5-9.4-4.1-4.8-3.5-6.5-3.5-9.5 0-7.1 6-14.6 14.8-14.6h2.3c4.8 0 5.8-1.2 5.8-5.8.2-14.8 10.8-21.9 22.1-21.9z"/></svg>