<?xml version="1.0" encoding="utf-8"?>
<!-- Generator: Adobe Illustrator 16.0.3, SVG Export Plug-In . SVG Version: 6.00 Build 0)  -->
<!DOCTYPE svg PUBLIC "-//W3C//DTD SVG 1.1//EN" "http://www.w3.org/Graphics/SVG/1.1/DTD/svg11.dtd">
<svg version="1.1" id="orchard_tree" xmlns="http://www.w3.org/2000/svg" xmlns:xlink="http://www.w3.org/1999/xlink" x="0px"
	 y="0px" width="141.732px" height="141.732px" viewBox="0 0 141.732 141.732" enable-background="new 0 0 141.732 141.732"
	 xml:space="preserve">
<g>
	<path d="M95.299,104.228c30.223,0,36.895-12.561,36.895-29.044c0-17.073-12.756-29.634-26.102-29.829
		c0.981-17.271-14.718-38.269-35.323-38.269c-20.213,0-35.913,20.998-34.933,38.269C22.492,45.551,9.54,58.11,9.54,75.184
		c0,16.483,6.869,29.239,37.09,29.239v-7.652c-23.353,0-29.437-5.691-29.437-21.587c0-10.99,6.28-22.568,19.231-22.568
		c6.673,0,7.065-0.785,6.869-7.653C42.901,31.421,54.872,14.74,70.964,14.74c16.093,0,28.063,16.681,27.67,30.222
		c-0.195,6.869,0.196,7.851,7.065,7.851c12.756,0,19.036,11.382,19.036,22.372c0,15.896-6.083,21.782-29.438,21.782L95.299,104.228
		L95.299,104.228z"/>
	<polygon points="67.236,134.646 74.693,134.646 74.693,98.144 67.236,98.144 67.236,134.646 	"/>
</g>
</svg>
