<?xml version="1.0" encoding="utf-8"?>
<!-- Generator: Adobe Illustrator 16.0.3, SVG Export Plug-In . SVG Version: 6.00 Build 0)  -->
<!DOCTYPE svg PUBLIC "-//W3C//DTD SVG 1.1//EN" "http://www.w3.org/Graphics/SVG/1.1/DTD/svg11.dtd">
<svg version="1.1" id="places_to_stay" xmlns="http://www.w3.org/2000/svg" xmlns:xlink="http://www.w3.org/1999/xlink" x="0px"
	 y="0px" width="141.732px" height="141.732px" viewBox="0 0 141.732 141.732" enable-background="new 0 0 141.732 141.732"
	 xml:space="preserve">
<g>
	<polygon fill="#0E1111" points="121.453,37.165 121.453,82.089 20.271,82.089 20.271,20.295 7.087,20.295 7.087,121.439 
		20.272,121.439 20.272,98.869 121.455,98.869 121.455,121.439 134.647,121.439 134.647,37.165 	"/>
	<polygon fill="#0E1111" points="109.498,43.694 60.546,43.694 60.546,69.695 109.498,69.695 109.498,43.694 	"/>
	<path fill="#0E1111" d="M42.164,71.341c7.116,0,12.877-7.354,12.877-16.427c0-9.085-5.761-16.44-12.877-16.44
		c-7.098,0-12.858,7.355-12.858,16.44C29.304,63.983,35.066,71.341,42.164,71.341z"/>
</g>
</svg>
