<svg xmlns="http://www.w3.org/2000/svg" width="24" height="24" viewBox="0 0 141.7 141.7"><path d="m45.6 33.8c0 9.7-7.8 17.5-17.5 17.5-9.7 0-17.5-7.8-17.5-17.5 0-9.7 7.8-17.5 17.5-17.5 9.7 0 17.5 7.9 17.5 17.5z"/><path d="m66.1 7.1h9v127.6h-9z"/><path d="m96.1 33.8c0 9.7 7.8 17.5 17.5 17.5 9.7 0 17.5-7.8 17.5-17.5 0-9.7-7.8-17.5-17.5-17.5-9.6 0-17.5 7.9-17.5 17.5z"/><path d="m49.1 68.8c0-4.7-3.8-8.5-8.5-8.5h-25c-4.7 0-8.5 3.8-8.5 8.5v32.5h10.8l2.2 33.3h16l2.2-33.3h10.8z"/><path d="m134.6 118.2-6-49.4c0-4.7-3.8-8.5-8.5-8.5h-13c-4.7 0-8.5 3.8-8.5 8.5l-6 49.4h10.8l2.2 16.5h16l2.2-16.5z"/></svg>