<?xml version="1.0" encoding="utf-8"?>
<!-- Generator: Adobe Illustrator 28.1.0, SVG Export Plug-In . SVG Version: 6.00 Build 0)  -->
<svg version="1.1" id="Layer_1" xmlns="http://www.w3.org/2000/svg" xmlns:xlink="http://www.w3.org/1999/xlink" x="0px" y="0px"
	 width="48px" height="48px" viewBox="0 0 48 48" style="enable-background:new 0 0 48 48;" xml:space="preserve">
<style type="text/css">
	.st0{fill-rule:evenodd;clip-rule:evenodd;fill:#231F20;}
</style>
<path class="st0" d="M43.7,28.1c1-1.4,3.8-13.8-2.3-17.6c-2.3-1.4-5.3-0.5-8,1.1c-0.6-1.7-1.4-3.3-2.2-4.8H6.6
	c-5.6,9.1-5,24.8,1.9,34.5h20.9c1.9-2.7,3.2-5.7,4.2-9C38,31.7,41.5,31,43.7,28.1 M40.9,16.9c0.5,2.6-0.1,8.3-0.5,8.8
	c-0.4,0.7-0.9,0.9-2.3,1.5c-1.4,0.5-1.6,0.7-3.4,0.8c0.7-4.3,0.6-8.5-0.1-12.5c2.4-1.8,4.3-2,4.7-1.6C39.8,14.4,40.4,14.9,40.9,16.9
	 M31,17.6H5.9c0.4-3.2,1.3-6.1,2.6-8.6h20.7C29.4,9.3,31.2,14.8,31,17.6"/>
</svg>
