<?xml version="1.0" encoding="utf-8"?>
<!-- Generator: Adobe Illustrator 16.0.3, SVG Export Plug-In . SVG Version: 6.00 Build 0)  -->
<!DOCTYPE svg PUBLIC "-//W3C//DTD SVG 1.1//EN" "http://www.w3.org/Graphics/SVG/1.1/DTD/svg11.dtd">
<svg version="1.1" id="public_convenience" xmlns="http://www.w3.org/2000/svg" xmlns:xlink="http://www.w3.org/1999/xlink" x="0px"
	 y="0px" width="141.732px" height="141.732px" viewBox="0 0 141.732 141.732" enable-background="new 0 0 141.732 141.732"
	 xml:space="preserve">
<g>
	<path d="M45.613,33.821c0,9.666-7.834,17.501-17.5,17.501l0,0c-9.666,0-17.502-7.835-17.502-17.501l0,0
		c0-9.663,7.836-17.496,17.502-17.496l0,0C37.779,16.326,45.613,24.159,45.613,33.821L45.613,33.821z"/>
	<rect x="66.112" y="7.087" width="8.999" height="127.56"/>
	<path d="M96.125,33.821c0,9.666,7.831,17.501,17.497,17.501l0,0c9.661,0,17.5-7.835,17.5-17.501l0,0
		c0-9.663-7.839-17.496-17.5-17.496l0,0C103.956,16.326,96.125,24.159,96.125,33.821L96.125,33.821z"/>
	<path d="M49.111,68.827c0-4.696-3.805-8.502-8.505-8.502h-24.99c-4.698,0-8.504,3.807-8.504,8.502v32.495h10.787l2.214,33.323h16
		l2.212-33.323h10.786V68.827z"/>
	<path d="M134.62,118.19l-5.999-49.363c0-4.696-3.81-8.502-8.501-8.502h-12.992c-4.702,0-8.506,3.807-8.506,8.502l-6,49.363h10.787
		l2.213,16.455h15.997l2.215-16.455H134.62z"/>
</g>
</svg>
