<?xml version="1.0" encoding="utf-8"?>
<!-- Generator: Adobe Illustrator 17.1.0, SVG Export Plug-In . SVG Version: 6.00 Build 0)  -->
<!DOCTYPE svg PUBLIC "-//W3C//DTD SVG 1.1//EN" "http://www.w3.org/Graphics/SVG/1.1/DTD/svg11.dtd">
<svg version="1.1" id="Layer_1" xmlns="http://www.w3.org/2000/svg" xmlns:xlink="http://www.w3.org/1999/xlink" x="0px" y="0px"
	 viewBox="0 0 141.7 141.7" enable-background="new 0 0 141.7 141.7" xml:space="preserve">
<path fill="#0D0A0A" d="M45.3,68.6L45.3,68.6L45.3,68.6c-7.5-4.3-17.4-2.2-23.5,5.4c-3.6,4.6-5.2,10.2-4.7,15.5
	c0.2,1.9,0.7,3.7,1.3,5.4c1.6,4,4.5,7.3,8.5,9.3c1,0.5,1.9,0.8,2.9,1.1c1.7,0.5,3.4,0.7,5.2,0.6c5.3-0.2,10.6-2.8,14.4-7.6
	c4.5-5.6,5.8-12.9,4-19.1c-0.2-0.6-0.4-1.3-0.7-1.9c-0.5-1.3-1.2-2.6-2.1-3.8l-3.7,5.3l-0.3,0.5l-3,4.2L39,88.2c0,0-0.7,0.9-1.8,1.2
	c-1.5,0.2-2.8-1.5-3.3-2.7c-0.5-1.2,1.3-3,1.3-3s1.1-1.4,1.8-2.3l0.6-0.8c0.6-0.6,1.6-2.1,1.6-2.1l3.4-5.4c0,0,1.3-2.1,2.8-4.4
	L45.3,68.6L45.3,68.6z M85.6,84.3c-1.5,0.8-1,0.7-1.5,2.5c0,0-0.2,0.8-0.7,1c-0.5,0.3-0.5,0.8-0.7,1.1c-0.1,0.3-0.8,0.6-1.4,1.1
	c-0.1,0.1,0.1,0.3-0.8,0.6c-0.8,0.3-1.7,1.2-2,1.6c-0.3,0.3-0.9,1.5,0.1,2c0.8,0.4,2.1,0.6,2.4,0.7l-0.5,0.7c-0.5-0.3-1-0.5-1.5-0.6
	c-0.4-0.1-0.8-0.2-1.3-0.2L65.5,62.3l18.8,15.4c0.2,0.5,0.4,0.9,0.4,1.1c0.1,0.8,1.1,3.1,1.1,3.1s-0.1,0-0.1,0.4
	c0,0.4,0.4,1.1,0.4,1.1l-0.1,0.6L85.6,84.3L85.6,84.3z M102.1,104.3c-0.2,0.2-0.3,0.4-0.4,0.6l-13.3-3.2c0.3-0.9,0.6-1.8,1.1-2.7
	c0.1-0.2,0.2-0.4,0.3-0.6l0.3-0.5c1.4-2.6,3.2-4.7,5.3-6.3L102.1,104.3L102.1,104.3z M111,104.1c1.2,1.4,1.7,3.4,1.2,5.3
	c-0.8,3.1-4,4.9-7,4c-0.7-0.2-1.4-0.6-2-1c-0.9-0.8-1.5-1.6-1.9-2.6l0-0.1l-13.8-3.3l0,0.1c-0.4,5.9,1.6,11.9,6.1,15.8
	c3,2.7,6.7,4.1,10.4,4.2c2.8,0.1,5.7-0.6,8.4-1.8c3.9-1.9,7.3-5.2,9.4-9.6c0.6-1.2,1-2.4,1.4-3.6c0.6-2,0.8-4.1,0.7-6.1
	c-0.2-5.1-2.3-10-6.2-13.4c-3.9-3.4-8.8-4.7-13.5-4.1c-1.7,0.2-3.3,0.7-4.9,1.5l6.8,12.8C107.8,101.8,109.4,102.5,111,104.1
	L111,104.1z M87.1,62.9c-1.1,0-1.2,0.3-1.2,0.3s1.5,2.1,2.2,3.3c0.6,1.2,0.9,3.4,1,4.5c0.1,1.1,0.9,4.7,0.9,4.7l0,0
	c1.1-1.7,1.5-2,2.8-3.5c1.5-1.6,2.6-3.2,4.1-4.7c0.5-0.5,0.9-0.9,1.2-1.2c0.9-1.1,1.4-2.2,1.1-2.3C95.9,62.9,90.5,62.8,87.1,62.9
	L87.1,62.9z M57.3,52.9l-0.8,0l-0.7-0.2l-0.4-0.4l-0.7-1.2l-1-0.9L53,49.1l-0.5-1.4l-1.1-2.3l0-1.3l0.9-0.4l1.1-0.3l1.6-0.2l1.4,1.2
	l2.4,0.4l1,0.2l0.6,0.1l1.8,1l2.6,0.1l2.2-0.3l6.1-1.5l6.5-2.1l0.6-0.3l1-5.3l-0.3-1.5l-0.5-2.5l-0.3-1.4l0.1-1.2l0.7-1.5
	c0-0.2,0.3-0.4,0.5-0.6c-0.1-0.3-0.2-0.6-0.2-0.7c-0.8-0.2-1.9-0.3-2.2-0.7c-0.3-0.4-0.2-1-0.1-1.5c0.1-0.5-0.4-0.8-0.3-1.1
	c0-0.3,0.3-0.5,0.3-0.5l0.4-0.4c0,0-0.3-0.2-0.4-0.2c-0.1,0-0.4-0.1-0.5-0.5c-0.1-0.2,0.2-0.4,0.2-0.7c0.1-0.3,0.1-0.5,0.1-0.5
	s-0.6,0-0.9-0.3c-0.2-0.2-0.3-0.4-0.1-0.8c0.7-1.1,0.6-0.9,0.9-1.4c0.4-0.8,0.1-1.3,0.1-1.6c0-0.2,0-0.4,0-0.6
	c-0.2-0.2-0.6-0.4-0.8-0.6c-0.4-0.3-0.9,0.2-0.6-1.2c1.3-6.1,6.7-7.9,12.1-6.8c2.1,0.4,5.5,1.8,5.5,2.3c0,0.6-0.5,1.1-0.5,1.5
	c0,0.4,1.3,0.2,1.4,0.6c0.2,0.4-0.8,1-0.7,1.3c0.1,0.3,0.8,0.5,0.7,0.9c-0.1,0.4-0.6,3.5-1.1,4.1l-0.7,2.5c-0.7,2.2,1.8,1.4,4.4,3
	c6.2,3.8,6.7,4.9,10.3,10c0.7,1,1.3,1.9,1.8,2.4c1.7,1.8,4.3,5.3,5.4,7.3c0.5,0.8,0.9,1.5,1.3,2.2c3.5,5.7,4,11.7,0.3,17.7
	c-1.6,2.7-4.4,4.3-7.6,5.8c-1.2,0.6-4.3,3.4-4.5,3.8c-0.4,0.6-4.3,3.4-4.8,3.7c0,0-1.5,0.9-2.4,1.5c-0.9,0.6-2.5,2-2.8,2.5
	c-0.3,0.5-0.9,1.5-1,1.8c0,0.1-0.1,0.2-0.2,0.5c0.1,0.1,0.3,0.2,0.4,0.3c8.4-4.5,18.9-4,26.6,2.8c4.1,3.7,6.8,8.6,7.9,14.1
	c1.5,7.8-0.6,16.1-5.5,22.2c-2.1,2.6-4.5,4.7-7.2,6.3h17.7v4.2L7.1,133.8l0-20.3l4.5-0.6c0.7-0.4,1.5-0.9,3-1.9
	c0.8-0.5,1.5-0.9,2.2-1.4c1.1-0.7,2.4-1.3,3.6-1.9c-0.4-0.3-0.8-0.6-1.2-1C8.5,97.3,8.4,80.8,17,69.9c7.9-9.8,21.4-13,31.9-6.6
	c0.2-0.2,0.3-0.4,0.4-0.5c0.1-0.1,0.2-0.2,0.3-0.2l0.3-0.2c0.2-0.1,0.4-0.2,0.5-0.1L57.3,52.9L57.3,52.9z M81.6,112.6
	c0,0.1,0,0.3,0.1,0.4c1,5.5,3.7,10.4,7.9,14.1c1,0.9,2.1,1.7,3.2,2.4h-0.6c-7.5,0-21.2-1.1-27.6-3.5c-5.4-2-9.3-3.7-14.9-6.9
	c-2.5-1.4-4.9-2.8-7.4-4.2c-2.2-1.3-3-1.4-4.4-2.6c6.2-0.9,12.2-4.3,16.5-9.7c8.1-10.1,8.5-25.1,0-34.7l1.8-2.6c0,0,0.3,0.4,0.5-0.1
	c0.2-0.5,0.1-1.1,0.6-1.4c0.5-0.3,0.7-0.6,0.7-1.1c0-0.1,0-0.2,0-0.4l0.3-0.6l0.1-0.2l0,0c0,0,0.6-0.3,0.9-0.6l13.2,36
	c-0.7,0.8-1.3,1.8-1.6,2.9c-0.4,1.6-0.3,3.3,0.4,4.7c-0.2-0.1-0.5-0.2-0.7-0.3c-0.4-0.1-0.6,0-0.6,0l-0.9,0c0,0-1.4-0.1-2.1-0.3
	c-0.7-0.2-1.7,0.3-1.9,0.8c-0.3,0.7,0.1,1.7,0.1,1.7s2.1,1.6,2.7,2.1c0.1,0.1,0.4,0.2,0.7,0.4c-0.1,0.3-0.2,1.2,0.4,1.5
	c0.7,0.4,2.1,1.1,2.6,1c0.4-0.1,0.7-0.5,0.8-0.8c0.6,0.2,2.3,0.7,2.6,0.7c0.4,0,1.5,0.7,2.2,1.1c0.7,0.4,1.5,0.9,2.2,1
	c0.4,0.1,1.8,0.7,2.1,0.2C81.4,113.3,81.6,112.9,81.6,112.6L81.6,112.6z M65.7,52.6l-1.3,0.7c-0.1,0-0.2,0-0.2-0.1
	c-0.1,0.1-0.4,0.2-0.6,0.2l4.6,3.8L78.6,66c-0.1-0.1-0.1-0.2-0.1-0.3c-0.4-1.1-1.5-3.4-1.8-5.3c-0.3-1.8,1-3.5,1-3.5
	c0.3-0.3,2-1.9,2.8-2.2c4-1.5,5.8-2.1,10-2.7c2.3-0.3,5.2-0.7,6.4-0.7c0.4,0.1,0.2,0,0.5-0.4c0,0,0.1-0.1,0.2-0.1
	c-0.3-0.6-0.4-1-0.4-1.1l-4.3-4.9l-1.8-5.2l-3.9,7.5l-1,0.9l-1.1,0.4l-1.2,0.1l-1.2,0.4l-2.1,0.7l-1.6,0.2l-9.9,1.8L65.7,52.6z"/>
</svg>
