<?xml version="1.0" encoding="utf-8"?>
<!-- Generator: Adobe Illustrator 16.0.3, SVG Export Plug-In . SVG Version: 6.00 Build 0)  -->
<!DOCTYPE svg PUBLIC "-//W3C//DTD SVG 1.1//EN" "http://www.w3.org/Graphics/SVG/1.1/DTD/svg11.dtd">
<svg version="1.1" id="riding" xmlns="http://www.w3.org/2000/svg" xmlns:xlink="http://www.w3.org/1999/xlink" x="0px" y="0px"
	 width="141.732px" height="141.732px" viewBox="0 0 141.732 141.732" enable-background="new 0 0 141.732 141.732"
	 xml:space="preserve">
<g>
	<path fill="#0D0A0A" d="M57.271,52.895l-0.789,0.027L55.8,52.724l-0.415-0.354l-0.673-1.244l-1.021-0.859l-0.731-1.132l-0.48-1.366
		l-1.055-2.265l0.042-1.294l0.931-0.368l1.088-0.25l1.644-0.213l1.354,1.211l2.433,0.368l0.979,0.182l0.582,0.113l1.769,0.999
		l2.632,0.127l2.234-0.281l6.104-1.527l6.544-2.083l0.6-0.349l1.047-5.322l-0.259-1.516l-0.489-2.469l-0.323-1.439l0.107-1.163
		l0.681-1.523c0.033-0.155,0.282-0.409,0.507-0.614c-0.1-0.331-0.165-0.631-0.183-0.699c-0.839-0.168-1.884-0.335-2.167-0.732
		c-0.274-0.377-0.166-0.979-0.101-1.474c0.066-0.496-0.364-0.782-0.34-1.104c0.024-0.311,0.35-0.475,0.35-0.475l0.415-0.36
		c0,0-0.309-0.15-0.392-0.176c-0.148-0.045-0.397-0.123-0.488-0.467c-0.052-0.16,0.156-0.442,0.239-0.675
		c0.101-0.282,0.124-0.517,0.124-0.517s-0.623-0.042-0.903-0.254c-0.241-0.177-0.342-0.446-0.108-0.819
		c0.664-1.053,0.605-0.896,0.88-1.412c0.434-0.795,0.125-1.261,0.083-1.571c-0.032-0.186-0.016-0.381,0-0.569
		c-0.224-0.16-0.581-0.409-0.847-0.573c-0.423-0.262-0.889,0.168-0.598-1.157c1.337-6.057,6.659-7.927,12.125-6.751
		c2.051,0.441,5.464,1.761,5.455,2.324c-0.017,0.562-0.522,1.126-0.474,1.49c0.033,0.368,1.263,0.222,1.438,0.622
		c0.155,0.401-0.831,0.966-0.707,1.286c0.125,0.318,0.848,0.52,0.729,0.912c-0.106,0.359-0.556,3.509-1.079,4.14l-0.682,2.489
		c-0.663,2.239,1.786,1.437,4.427,3.023c6.203,3.752,6.743,4.853,10.289,10.003c0.689,1.003,1.337,1.888,1.845,2.443
		c1.66,1.851,4.317,5.297,5.438,7.308c0.457,0.813,0.89,1.544,1.287,2.211c3.479,5.743,4.011,11.684,0.35,17.652
		c-1.644,2.701-4.418,4.29-7.599,5.847c-1.222,0.594-4.276,3.426-4.51,3.799c-0.374,0.626-4.345,3.438-4.774,3.66
		c0,0-1.487,0.896-2.4,1.519c-0.913,0.619-2.524,1.979-2.807,2.526c-0.274,0.549-0.896,1.498-0.979,1.792
		c-0.011,0.05-0.067,0.229-0.159,0.483c0.134,0.089,0.267,0.188,0.355,0.254c8.405-4.536,18.861-4.021,26.608,2.851
		c4.128,3.667,6.843,8.596,7.864,14.115c1.453,7.826-0.623,16.063-5.506,22.203c-2.06,2.588-4.502,4.691-7.176,6.272h17.688v4.159
		L7.087,133.758l0.017-20.337l4.459-0.572c0.673-0.36,1.462-0.936,2.974-1.876c0.755-0.467,1.495-0.925,2.242-1.393
		c1.071-0.663,2.351-1.31,3.587-1.891c-0.407-0.313-0.805-0.64-1.187-0.983C8.549,97.34,8.374,80.766,17.035,69.931
		c7.865-9.851,21.443-13.02,31.89-6.563c0.166-0.234,0.282-0.389,0.365-0.467c0.101-0.094,0.191-0.18,0.274-0.245l0.299-0.192
		c0.233-0.127,0.432-0.151,0.548-0.146L57.271,52.895L57.271,52.895z"/>
	<path fill="#FFFFFF" d="M45.262,68.607l-0.009-0.009l-0.016-0.013c-7.491-4.232-17.365-2.152-23.437,5.438
		c-3.645,4.56-5.182,10.202-4.684,15.49c0.2,1.893,0.656,3.726,1.346,5.438c1.637,4.012,4.542,7.336,8.521,9.31
		c0.955,0.468,1.917,0.844,2.906,1.121c1.693,0.477,3.422,0.688,5.166,0.64c5.29-0.213,10.622-2.801,14.44-7.582
		c4.501-5.634,5.78-12.896,4.012-19.144c-0.19-0.635-0.407-1.27-0.664-1.884c-0.54-1.343-1.237-2.606-2.061-3.773l-3.729,5.252
		l-0.341,0.471l-3.006,4.242l-4.683,4.616c0,0-0.731,0.877-1.812,1.244c-1.526,0.205-2.807-1.505-3.313-2.71
		c-0.523-1.203,1.254-3.038,1.254-3.038s1.122-1.392,1.769-2.275l0.624-0.835c0.558-0.589,1.62-2.111,1.62-2.111l3.431-5.396
		c0,0,1.329-2.108,2.798-4.413L45.262,68.607L45.262,68.607z"/>
	<path fill="#FFFFFF" d="M85.64,84.348c-1.453,0.826-0.988,0.688-1.471,2.464c0,0-0.207,0.754-0.729,1.049
		c-0.507,0.294-0.516,0.794-0.657,1.064c-0.141,0.277-0.838,0.558-1.42,1.104c-0.125,0.123,0.059,0.271-0.78,0.598
		c-0.83,0.327-1.686,1.211-2.025,1.557c-0.35,0.344-0.854,1.507,0.115,2.038c0.822,0.441,2.053,0.646,2.417,0.695l-0.465,0.695
		c-0.474-0.271-0.987-0.5-1.536-0.647c-0.416-0.113-0.839-0.194-1.263-0.229L65.518,62.34L84.32,77.695
		c0.24,0.52,0.407,0.912,0.432,1.067c0.149,0.795,1.08,3.07,1.08,3.07s-0.106-0.032-0.106,0.409c0,0.435,0.447,1.063,0.447,1.063
		l-0.091,0.599L85.64,84.348L85.64,84.348z"/>
	<path fill="#FFFFFF" d="M102.149,104.302c-0.157,0.188-0.29,0.395-0.423,0.622l-13.313-3.241c0.299-0.893,0.647-1.784,1.071-2.669
		c0.101-0.214,0.207-0.427,0.314-0.639l0.259-0.459c1.396-2.555,3.238-4.676,5.34-6.338L102.149,104.302L102.149,104.302z"/>
	<path fill="#FFFFFF" d="M110.993,104.089c1.196,1.417,1.694,3.373,1.172,5.307c-0.839,3.063-3.979,4.854-7.01,3.996
		c-0.739-0.213-1.396-0.559-1.969-0.999c-0.889-0.77-1.526-1.639-1.885-2.638l-0.033-0.099l-13.803-3.34l-0.017,0.114
		c-0.44,5.927,1.628,11.855,6.12,15.835c3.021,2.686,6.693,4.077,10.432,4.239c2.849,0.084,5.723-0.556,8.37-1.841
		c3.904-1.892,7.31-5.2,9.426-9.629c0.573-1.203,1.022-2.424,1.361-3.643c0.557-2.049,0.79-4.11,0.74-6.125
		c-0.207-5.094-2.276-10.005-6.162-13.444c-3.861-3.438-8.778-4.749-13.536-4.094c-1.661,0.245-3.298,0.735-4.866,1.457
		l6.775,12.772C107.822,101.812,109.448,102.484,110.993,104.089L110.993,104.089z"/>
	<path fill="#FFFFFF" d="M87.051,62.864c-1.063,0.012-1.236,0.258-1.236,0.258s1.546,2.084,2.168,3.259
		c0.598,1.18,0.854,3.381,0.997,4.486c0.132,1.102,0.938,4.732,0.938,4.732l0,0c1.063-1.729,1.471-2.011,2.782-3.483
		c1.462-1.63,2.558-3.161,4.136-4.749c0.465-0.471,0.881-0.901,1.154-1.212c0.913-1.062,1.354-2.243,1.129-2.311
		C95.896,62.937,90.473,62.823,87.051,62.864L87.051,62.864z"/>
	<path fill="#FFFFFF" d="M81.595,112.644c0.024,0.123,0.042,0.254,0.066,0.385c1.028,5.52,3.745,10.449,7.872,14.108
		c1.021,0.907,2.103,1.711,3.206,2.397H92.1c-7.468,0-21.202-1.13-27.604-3.504c-5.356-1.997-9.26-3.652-14.948-6.943
		c-2.449-1.407-4.907-2.832-7.357-4.249c-2.184-1.277-2.974-1.384-4.418-2.646c6.245-0.935,12.216-4.306,16.493-9.67
		c8.056-10.07,8.471-25.099-0.05-34.694l1.786-2.596c0,0,0.315,0.369,0.523-0.14c0.208-0.504,0.091-1.102,0.589-1.384
		c0.499-0.287,0.715-0.578,0.731-1.139c0-0.106-0.017-0.225-0.033-0.356l0.308-0.567l0.083-0.156l0.018-0.02
		c0,0,0.605-0.296,0.938-0.611l13.18,35.98c-0.748,0.785-1.313,1.776-1.62,2.906c-0.447,1.638-0.266,3.309,0.399,4.74
		c-0.232-0.082-0.499-0.204-0.698-0.253c-0.397-0.115-0.623,0.008-0.623,0.008l-0.931-0.008c0,0-1.395-0.091-2.142-0.303
		c-0.748-0.216-1.661,0.326-1.902,0.842c-0.316,0.688,0.058,1.72,0.058,1.72s2.061,1.637,2.725,2.146
		c0.142,0.099,0.398,0.245,0.706,0.4c-0.06,0.255-0.208,1.171,0.356,1.5c0.664,0.408,2.076,1.096,2.607,0.965
		c0.356-0.099,0.656-0.54,0.797-0.811c0.615,0.221,2.251,0.712,2.6,0.696c0.374-0.018,1.495,0.672,2.177,1.111
		c0.688,0.443,1.503,0.868,2.2,1.008c0.448,0.082,1.793,0.696,2.109,0.222C81.438,113.316,81.562,112.907,81.595,112.644
		L81.595,112.644z"/>
	<path fill="#FFFFFF" d="M65.683,52.6l-1.263,0.732c-0.065-0.021-0.157-0.046-0.249-0.074c-0.092,0.147-0.398,0.155-0.631,0.16
		l4.567,3.813l10.472,8.744c-0.05-0.11-0.092-0.204-0.125-0.277c-0.448-1.073-1.526-3.448-1.836-5.291
		c-0.307-1.837,0.956-3.487,0.956-3.487c0.34-0.344,1.993-1.879,2.757-2.166c3.994-1.494,5.838-2.107,9.965-2.722
		c2.293-0.344,5.249-0.729,6.396-0.663c0.398,0.114,0.19-0.009,0.466-0.369c0.042-0.041,0.108-0.09,0.183-0.131
		c-0.333-0.577-0.439-1.031-0.448-1.138l-4.318-4.946l-1.827-5.158l-3.853,7.508l-0.964,0.89l-1.071,0.393l-1.221,0.104
		l-1.237,0.418l-2.051,0.675l-1.628,0.205l-9.874,1.842L65.683,52.6z"/>
</g>
</svg>
