<svg xmlns="http://www.w3.org/2000/svg" width="48" height="48" viewBox="0 0 141.7 141.7"><path d="m45.3 68.6c-7.5-4.3-17.4-2.2-23.5 5.4-3.6 4.6-5.2 10.2-4.7 15.5.2 1.9.7 3.7 1.3 5.4 1.6 4 4.5 7.3 8.5 9.3 1 .5 1.9.8 2.9 1.1 1.7.5 3.4.7 5.2.6 5.3-.2 10.6-2.8 14.4-7.6 4.5-5.6 5.8-12.9 4-19.1-.2-.6-.4-1.3-.7-1.9-.5-1.3-1.2-2.6-2.1-3.8l-3.7 5.3-.3.5-3 4.2-4.6 4.7s-.7.9-1.8 1.2c-1.5.2-2.8-1.5-3.3-2.7s1.3-3 1.3-3 1.1-1.4 1.8-2.3l.6-.8c.6-.6 1.6-2.1 1.6-2.1l3.4-5.4s1.3-2.1 2.8-4.4zm40.3 15.7c-1.5.8-1 .7-1.5 2.5 0 0-.2.8-.7 1-.5.3-.5.8-.7 1.1-.1.3-.8.6-1.4 1.1-.1.1.1.3-.8.6-.8.3-1.7 1.2-2 1.6-.3.3-.9 1.5.1 2 .8.4 2.1.6 2.4.7l-.5.7c-.5-.3-1-.5-1.5-.6-.4-.1-.8-.2-1.3-.2l-12.2-32.5 18.8 15.4c.2.5.4.9.4 1.1.1.8 1.1 3.1 1.1 3.1s-.1 0-.1.4.4 1.1.4 1.1l-.1.6zm16.5 20c-.2.2-.3.4-.4.6l-13.3-3.2c.3-.9.6-1.8 1.1-2.7.1-.2.2-.4.3-.6l.3-.5c1.4-2.6 3.2-4.7 5.3-6.3zm8.9-.2c1.2 1.4 1.7 3.4 1.2 5.3-.8 3.1-4 4.9-7 4-.7-.2-1.4-.6-2-1-.9-.8-1.5-1.6-1.9-2.6v-.1l-13.8-3.3v.1c-.4 5.9 1.6 11.9 6.1 15.8 3 2.7 6.7 4.1 10.4 4.2 2.8.1 5.7-.6 8.4-1.8 3.9-1.9 7.3-5.2 9.4-9.6.6-1.2 1-2.4 1.4-3.6.6-2 .8-4.1.7-6.1-.2-5.1-2.3-10-6.2-13.4s-8.8-4.7-13.5-4.1c-1.7.2-3.3.7-4.9 1.5l6.8 12.8c1.7-.4 3.3.3 4.9 1.9zm-23.9-41.2c-1.1 0-1.2.3-1.2.3s1.5 2.1 2.2 3.3c.6 1.2.9 3.4 1 4.5s.9 4.7.9 4.7c1.1-1.7 1.5-2 2.8-3.5 1.5-1.6 2.6-3.2 4.1-4.7.5-.5.9-.9 1.2-1.2.9-1.1 1.4-2.2 1.1-2.3-3.3-1.1-8.7-1.2-12.1-1.1zm-29.8-10h-.8l-.7-.2-.4-.4-.7-1.2-1-.9-.7-1.1-.5-1.4-1.1-2.3v-1.3l.9-.4 1.1-.3 1.6-.2 1.4 1.2 2.4.4 1 .2.6.1 1.8 1 2.6.1 2.2-.3 6.1-1.5 6.5-2.1.6-.3 1-5.3-.3-1.5-.5-2.5-.3-1.4.1-1.2.7-1.5c0-.2.3-.4.5-.6-.1-.3-.2-.6-.2-.7-.8-.2-1.9-.3-2.2-.7s-.2-1-.1-1.5-.4-.8-.3-1.1c0-.3.3-.5.3-.5l.4-.4s-.3-.2-.4-.2-.4-.1-.5-.5c-.1-.2.2-.4.2-.7.1-.3.1-.5.1-.5s-.6 0-.9-.3c-.2-.2-.3-.4-.1-.8.7-1.1.6-.9.9-1.4.4-.8.1-1.3.1-1.6 0-.2 0-.4 0-.6-.2-.2-.6-.4-.8-.6-.4-.3-.9.2-.6-1.2 1.3-6.1 6.7-7.9 12.1-6.8 2.1.4 5.5 1.8 5.5 2.3 0 .6-.5 1.1-.5 1.5s1.3.2 1.4.6c.2.4-.8 1-.7 1.3s.8.5.7.9-.6 3.5-1.1 4.1l-.7 2.5c-.7 2.2 1.8 1.4 4.4 3 6.2 3.8 6.7 4.9 10.3 10 .7 1 1.3 1.9 1.8 2.4 1.7 1.8 4.3 5.3 5.4 7.3.5.8.9 1.5 1.3 2.2 3.5 5.7 4 11.7.3 17.7-1.6 2.7-4.4 4.3-7.6 5.8-1.2.6-4.3 3.4-4.5 3.8-.4.6-4.3 3.4-4.8 3.7 0 0-1.5.9-2.4 1.5s-2.5 2-2.8 2.5-.9 1.5-1 1.8c0 .1-.1.2-.2.5.1.1.3.2.4.3 8.4-4.5 18.9-4 26.6 2.8 4.1 3.7 6.8 8.6 7.9 14.1 1.5 7.8-.6 16.1-5.5 22.2-2.1 2.6-4.5 4.7-7.2 6.3h17.7v4.2l-127 .6v-20.3l4.5-.6c.7-.4 1.5-.9 3-1.9.8-.5 1.5-.9 2.2-1.4 1.1-.7 2.4-1.3 3.6-1.9-.4-.3-.8-.6-1.2-1-10.7-9.4-10.8-25.9-2.2-36.8 7.9-9.8 21.4-13 31.9-6.6.2-.2.3-.4.4-.5s.2-.2.3-.2l.3-.2c.2-.1.4-.2.5-.1zm24.3 59.7c0 .1 0 .3.1.4 1 5.5 3.7 10.4 7.9 14.1 1 .9 2.1 1.7 3.2 2.4h-.6c-7.5 0-21.2-1.1-27.6-3.5-5.4-2-9.3-3.7-14.9-6.9-2.5-1.4-4.9-2.8-7.4-4.2-2.2-1.3-3-1.4-4.4-2.6 6.2-.9 12.2-4.3 16.5-9.7 8.1-10.1 8.5-25.1 0-34.7l1.8-2.6s.3.4.5-.1.1-1.1.6-1.4.7-.6.7-1.1c0-.1 0-.2 0-.4l.3-.6.1-.2s.6-.3.9-.6l13.2 36c-.7.8-1.3 1.8-1.6 2.9-.4 1.6-.3 3.3.4 4.7-.2-.1-.5-.2-.7-.3-.4-.1-.6 0-.6 0h-.9s-1.4-.1-2.1-.3-1.7.3-1.9.8c-.3.7.1 1.7.1 1.7s2.1 1.6 2.7 2.1c.1.1.4.2.7.4-.1.3-.2 1.2.4 1.5.7.4 2.1 1.1 2.6 1 .4-.1.7-.5.8-.8.6.2 2.3.7 2.6.7.4 0 1.5.7 2.2 1.1s1.5.9 2.2 1c.4.1 1.8.7 2.1.2-.1-.3.1-.7.1-1zm-15.9-60-1.3.7c-.1 0-.2 0-.2-.1-.1.1-.4.2-.6.2l4.6 3.8 10.4 8.8c-.1-.1-.1-.2-.1-.3-.4-1.1-1.5-3.4-1.8-5.3-.3-1.8 1-3.5 1-3.5.3-.3 2-1.9 2.8-2.2 4-1.5 5.8-2.1 10-2.7 2.3-.3 5.2-.7 6.4-.7.4.1.2 0 .5-.4 0 0 .1-.1.2-.1-.3-.6-.4-1-.4-1.1l-4.3-4.9-1.8-5.2-3.9 7.5-1 .9-1.1.4-1.2.1-1.2.4-2.1.7-1.6.2-9.9 1.8z"/></svg>