<svg xmlns="http://www.w3.org/2000/svg" width="48" height="48" viewBox="0 0 141.7 141.7"><path d="m117.8 53.5c-8.5 0-15.6 6.3-17 14.4h-27.2v-26.7c8.3-1.2 14.7-8.4 14.7-17-.1-9.5-7.8-17.2-17.3-17.2s-17.2 7.7-17.2 17.2c0 8.5 6.1 15.5 14.2 16.9v26.9h-26.8c-1.3-8.2-8.4-14.4-17-14.4-9.5-.1-17.2 7.7-17.2 17.1 0 9.5 7.7 17.3 17.2 17.3 8.5 0 15.6-6.3 17-14.4h26.8v26.8c-8.1 1.4-14.2 8.5-14.2 16.9 0 9.5 7.7 17.2 17.2 17.2s17.2-7.7 17.2-17.2c0-8.6-6.4-15.8-14.7-17v-26.8h27.2c1.3 8.2 8.4 14.4 17 14.4 9.5 0 17.2-7.7 17.2-17.2.1-9.4-7.6-17.2-17.1-17.2zm-58.4-29.3c0-6.4 5.2-11.6 11.6-11.6s11.6 5.2 11.6 11.6-5.2 11.6-11.6 11.6-11.6-5.2-11.6-11.6zm-35.2 58.2c-6.4 0-11.6-5.2-11.6-11.6s5.2-11.6 11.6-11.6 11.6 5.2 11.6 11.6-5.2 11.6-11.6 11.6zm58.4 34.9c0 6.4-5.2 11.6-11.6 11.6s-11.6-5.2-11.6-11.6 5.2-11.6 11.6-11.6 11.6 5.2 11.6 11.6zm35.2-34.9c-6.4 0-11.6-5.2-11.6-11.6s5.2-11.6 11.6-11.6 11.6 5.2 11.6 11.6-5.2 11.6-11.6 11.6z"/></svg>