<?xml version="1.0" encoding="utf-8"?>
<!-- Generator: Adobe Illustrator 16.0.3, SVG Export Plug-In . SVG Version: 6.00 Build 0)  -->
<!DOCTYPE svg PUBLIC "-//W3C//DTD SVG 1.1//EN" "http://www.w3.org/Graphics/SVG/1.1/DTD/svg11.dtd">
<svg version="1.1" id="site_of_antiquity" xmlns="http://www.w3.org/2000/svg" xmlns:xlink="http://www.w3.org/1999/xlink" x="0px"
	 y="0px" width="141.732px" height="141.732px" viewBox="0 0 141.732 141.732" enable-background="new 0 0 141.732 141.732"
	 xml:space="preserve">
<g>
	<path fill="#2E251A" d="M117.788,53.525c-8.546,0-15.638,6.261-16.979,14.432H73.561V41.209
		c8.284-1.244,14.664-8.387,14.664-17.014c0-9.497-7.728-17.226-17.226-17.226s-17.225,7.729-17.225,17.226
		c0,8.465,6.142,15.506,14.199,16.942v26.818H41.19c-1.342-8.171-8.433-14.432-16.978-14.432c-9.499,0-17.226,7.728-17.226,17.225
		c0,9.498,7.727,17.227,17.226,17.227c8.545,0,15.636-6.262,16.978-14.433h26.783v26.818c-8.058,1.437-14.199,8.479-14.199,16.942
		c0,9.497,7.728,17.225,17.225,17.225c9.498,0,17.227-7.728,17.227-17.225c0-8.627-6.381-15.771-14.664-17.015V73.544h27.248
		c1.341,8.171,8.433,14.433,16.979,14.433c9.498,0,17.226-7.729,17.226-17.227C135.012,61.252,127.286,53.525,117.788,53.525z"/>
	<path fill="#FFFFFF" d="M59.361,24.196c0-6.417,5.221-11.639,11.639-11.639s11.64,5.221,11.64,11.639S77.418,35.834,71,35.834
		S59.361,30.613,59.361,24.196z"/>
	<path fill="#FFFFFF" d="M24.214,82.388c-6.418,0-11.639-5.223-11.639-11.64s5.22-11.639,11.639-11.639
		c6.417,0,11.639,5.221,11.639,11.639S30.632,82.388,24.214,82.388z"/>
	<path fill="#FFFFFF" d="M82.638,117.304c0,6.417-5.222,11.638-11.64,11.638c-6.417,0-11.639-5.221-11.639-11.638
		c0-6.419,5.221-11.64,11.639-11.64C77.418,105.666,82.638,110.885,82.638,117.304z"/>
	<path fill="#FFFFFF" d="M117.788,82.388c-6.418,0-11.639-5.223-11.639-11.64s5.221-11.639,11.639-11.639
		c6.417,0,11.639,5.221,11.639,11.639S124.205,82.388,117.788,82.388z"/>
</g>
</svg>
