<?xml version="1.0" encoding="utf-8"?>
<!-- Generator: Adobe Illustrator 17.1.0, SVG Export Plug-In . SVG Version: 6.00 Build 0)  -->
<!DOCTYPE svg PUBLIC "-//W3C//DTD SVG 1.1//EN" "http://www.w3.org/Graphics/SVG/1.1/DTD/svg11.dtd">
<svg version="1.1" id="Layer_1" xmlns="http://www.w3.org/2000/svg" xmlns:xlink="http://www.w3.org/1999/xlink" x="0px" y="0px"
	 viewBox="0 0 141.7 141.7" enable-background="new 0 0 141.7 141.7" xml:space="preserve">
<g>
	<g>
		<g>
		</g>
	</g>
	<g>
		<g>
		</g>
	</g>
	<g>
		<g>
		</g>
	</g>
	<g>
		<g>
		</g>
	</g>
</g>
<g>
	<g>
		<g>
		</g>
	</g>
	<g>
		<g>
		</g>
	</g>
	<g>
		<g>
		</g>
	</g>
	<g>
		<g>
		</g>
	</g>
</g>
<path fill="#2E251A" d="M117.8,53.5c-8.5,0-15.6,6.3-17,14.4H73.6V41.2c8.3-1.2,14.7-8.4,14.7-17C88.2,14.7,80.5,7,71,7
	s-17.2,7.7-17.2,17.2c0,8.5,6.1,15.5,14.2,16.9V68H41.2c-1.3-8.2-8.4-14.4-17-14.4C14.7,53.5,7,61.3,7,70.7C7,80.2,14.7,88,24.2,88
	c8.5,0,15.6-6.3,17-14.4H68v26.8c-8.1,1.4-14.2,8.5-14.2,16.9c0,9.5,7.7,17.2,17.2,17.2c9.5,0,17.2-7.7,17.2-17.2
	c0-8.6-6.4-15.8-14.7-17V73.5h27.2c1.3,8.2,8.4,14.4,17,14.4c9.5,0,17.2-7.7,17.2-17.2C135,61.3,127.3,53.5,117.8,53.5z M59.4,24.2
	c0-6.4,5.2-11.6,11.6-11.6s11.6,5.2,11.6,11.6S77.4,35.8,71,35.8S59.4,30.6,59.4,24.2z M24.2,82.4c-6.4,0-11.6-5.2-11.6-11.6
	s5.2-11.6,11.6-11.6c6.4,0,11.6,5.2,11.6,11.6S30.6,82.4,24.2,82.4z M82.6,117.3c0,6.4-5.2,11.6-11.6,11.6
	c-6.4,0-11.6-5.2-11.6-11.6c0-6.4,5.2-11.6,11.6-11.6C77.4,105.7,82.6,110.9,82.6,117.3z M117.8,82.4c-6.4,0-11.6-5.2-11.6-11.6
	s5.2-11.6,11.6-11.6c6.4,0,11.6,5.2,11.6,11.6S124.2,82.4,117.8,82.4z"/>
</svg>
