<?xml version="1.0" encoding="utf-8"?>
<!-- Generator: Adobe Illustrator 17.1.0, SVG Export Plug-In . SVG Version: 6.00 Build 0)  -->
<!DOCTYPE svg PUBLIC "-//W3C//DTD SVG 1.1//EN" "http://www.w3.org/Graphics/SVG/1.1/DTD/svg11.dtd">
<svg version="1.1" id="Layer_1" xmlns="http://www.w3.org/2000/svg" xmlns:xlink="http://www.w3.org/1999/xlink" x="0px" y="0px"
	 viewBox="0 0 141.7 141.7" enable-background="new 0 0 141.7 141.7" xml:space="preserve">
<g>
	<path d="M77.7,26.2V12.7c0-3-2.4-5.4-5.4-5.4c-3,0-5.4,2.4-5.4,5.4v13.4c1.8-0.2,3.5-0.3,5.4-0.3C74.2,25.8,76,26,77.7,26.2z" fill="param(fill)" fill-opacity="param(fill-opacity)" stroke="param(outline)" stroke-opacity="param(outline-opacity)" stroke-width="param(outline-width)"/>
	<path d="M109,43.6l24.1-24.1c2.1-2.1,2.1-5.5,0-7.6c-2.1-2.1-5.5-2.1-7.6,0L101.4,36C104.2,38.2,106.8,40.8,109,43.6z" fill="param(fill)" fill-opacity="param(fill-opacity)" stroke="param(outline)" stroke-opacity="param(outline-opacity)" stroke-width="param(outline-width)"/>
	<path d="M35.7,101.7L13,124.4c-2.1,2.1-2.1,5.5,0,7.6c1.1,1,2.4,1.6,3.8,1.6s2.7-0.5,3.8-1.6l22.7-22.7
		C40.5,107,38,104.5,35.7,101.7z" fill="param(fill)" fill-opacity="param(fill-opacity)" stroke="param(outline)" stroke-opacity="param(outline-opacity)" stroke-width="param(outline-width)"/>
	<path d="M25.9,67.3H12.5c-3,0-5.4,2.4-5.4,5.4S9.5,78,12.5,78h13.4c-0.2-1.8-0.3-3.6-0.3-5.4C25.6,70.8,25.7,69,25.9,67.3z" fill="param(fill)" fill-opacity="param(fill-opacity)" stroke="param(outline)" stroke-opacity="param(outline-opacity)" stroke-width="param(outline-width)"/>
	<path d="M43.3,36L20.6,13.2c-2.1-2.1-5.5-2.1-7.6,0c-2.1,2.1-2.1,5.5,0,7.6l22.7,22.7C38,40.8,40.5,38.2,43.3,36z" fill="param(fill)" fill-opacity="param(fill-opacity)" stroke="param(outline)" stroke-opacity="param(outline-opacity)" stroke-width="param(outline-width)"/>
	<polygon points="112.5,68.9 94.3,87.1 107.5,100.3 134.1,73.7 134.1,47.2 	" fill="param(fill)" fill-opacity="param(fill-opacity)" stroke="param(outline)" stroke-opacity="param(outline-opacity)" stroke-width="param(outline-width)"/>
	<polygon points="47,134.4 73.4,134.4 100,107.9 86.7,94.6 68.6,112.8 	" fill="param(fill)" fill-opacity="param(fill-opacity)" stroke="param(outline)" stroke-opacity="param(outline-opacity)" stroke-width="param(outline-width)"/>
	<polygon points="88.6,134.4 126.5,134.4 107.5,115.5 	" fill="param(fill)" fill-opacity="param(fill-opacity)" stroke="param(outline)" stroke-opacity="param(outline-opacity)" stroke-width="param(outline-width)"/>
	<polygon points="134.1,126.9 134.1,88.9 115.1,107.9 	" fill="param(fill)" fill-opacity="param(fill-opacity)" stroke="param(outline)" stroke-opacity="param(outline-opacity)" stroke-width="param(outline-width)"/>
	<path d="M99.8,52.8c-2.1-2.9-4.7-5.5-7.6-7.6c-4.2-3-9.1-5.2-14.5-6c-1.8-0.3-3.5-0.4-5.4-0.4c-1.8,0-3.6,0.2-5.4,0.4
		c-5.3,0.9-10.3,3-14.5,6c-2.9,2.1-5.5,4.7-7.6,7.6c-3,4.2-5.2,9.1-6,14.5c-0.3,1.8-0.4,3.5-0.4,5.4s0.2,3.6,0.4,5.4
		c0.9,5.3,3,10.3,6,14.5c2.1,2.9,4.7,5.5,7.6,7.6c1.7,1.2,3.5,2.3,5.3,3.2L103,58.1C102.1,56.3,101,54.5,99.8,52.8z" fill="param(fill)" fill-opacity="param(fill-opacity)" stroke="param(outline)" stroke-opacity="param(outline-opacity)" stroke-width="param(outline-width)"/>
</g>
</svg>
