<?xml version="1.0" encoding="utf-8"?>
<!-- Generator: Adobe Illustrator 16.0.3, SVG Export Plug-In . SVG Version: 6.00 Build 0)  -->
<!DOCTYPE svg PUBLIC "-//W3C//DTD SVG 1.1//EN" "http://www.w3.org/Graphics/SVG/1.1/DTD/svg11.dtd">
<svg version="1.1" id="solar_farm" xmlns="http://www.w3.org/2000/svg" xmlns:xlink="http://www.w3.org/1999/xlink" x="0px" y="0px"
	 width="141.732px" height="141.732px" viewBox="0 0 141.732 141.732" enable-background="new 0 0 141.732 141.732"
	 xml:space="preserve">
<g>
	<path d="M77.729,26.164V12.719c0-2.966-2.409-5.367-5.374-5.367c-2.964,0-5.364,2.401-5.364,5.367v13.444
		c1.761-0.201,3.549-0.315,5.364-0.315C74.174,25.847,75.965,25.962,77.729,26.164z"/>
	<path d="M108.986,43.587L133.074,19.5c2.096-2.097,2.096-5.499,0-7.596c-2.097-2.095-5.497-2.095-7.594,0l-24.088,24.087
		C104.204,38.226,106.753,40.774,108.986,43.587z"/>
	<path d="M35.727,101.655L12.982,124.4c-2.096,2.098-2.096,5.499,0,7.595c1.05,1.047,2.421,1.57,3.797,1.57s2.748-0.523,3.796-1.57
		l22.747-22.745C40.509,107.017,37.96,104.468,35.727,101.655z"/>
	<path d="M25.903,67.251H12.457c-2.967,0-5.37,2.403-5.37,5.37s2.402,5.369,5.37,5.369h13.446c-0.203-1.764-0.317-3.553-0.317-5.369
		C25.585,70.804,25.7,69.015,25.903,67.251z"/>
	<path d="M43.321,35.991L20.575,13.245c-2.096-2.093-5.493-2.095-7.593,0c-2.096,2.097-2.096,5.497,0,7.596l22.745,22.745
		C37.961,40.774,40.509,38.226,43.321,35.991z"/>
	<polygon points="112.496,68.867 94.311,87.052 107.545,100.286 134.118,73.714 134.118,47.246 	"/>
	<polygon points="46.98,134.382 73.449,134.382 99.953,107.878 86.719,94.645 68.6,112.763 	"/>
	<polygon points="88.637,134.382 126.456,134.382 107.547,115.473 	"/>
	<polygon points="134.118,126.858 134.118,88.902 115.14,107.881 	"/>
	<path d="M99.785,52.788c-2.114-2.916-4.679-5.48-7.594-7.596c-4.201-3.047-9.123-5.155-14.461-6.01
		c-1.751-0.281-3.545-0.433-5.374-0.433c-1.826,0-3.616,0.15-5.364,0.431c-5.341,0.854-10.266,2.963-14.47,6.012
		c-2.915,2.114-5.479,4.68-7.593,7.596c-3.047,4.202-5.155,9.124-6.01,14.463c-0.279,1.75-0.43,3.543-0.43,5.37
		s0.15,3.619,0.43,5.369c0.854,5.339,2.962,10.262,6.01,14.464c2.113,2.915,4.678,5.48,7.593,7.596
		c1.673,1.214,3.464,2.271,5.347,3.166l45.082-45.081C102.054,56.253,100.998,54.462,99.785,52.788z"/>
</g>
</svg>
