<?xml version="1.0" encoding="utf-8"?>
<!-- Generator: Adobe Illustrator 17.1.0, SVG Export Plug-In . SVG Version: 6.00 Build 0)  -->
<!DOCTYPE svg PUBLIC "-//W3C//DTD SVG 1.1//EN" "http://www.w3.org/Graphics/SVG/1.1/DTD/svg11.dtd">
<svg version="1.1" id="Layer_1" xmlns="http://www.w3.org/2000/svg" xmlns:xlink="http://www.w3.org/1999/xlink" x="0px" y="0px"
	 viewBox="0 0 141.7 141.7" enable-background="new 0 0 141.7 141.7" xml:space="preserve">
<g>
	<g>
		<path fill="#110F0F" d="M90.2,92.1C76.1,81.2,73.8,72.7,73.7,65.2c-0.2-7.5,5.1-8.1,5.1-8.1l34.4-30.9l-7.7-7.6
			c0,0-25.8,22.3-26.8,23.2c-13.6,8.7-23.3,3.8-23.3,3.8l-22.9-27l-7.8,7.6c0,0,15.3,20.7,23.2,31c11.5,9.3,4,30.6,4,30.6l-4,46.8
			h11.5c0,0,3.5-34.7,3.9-39.1c5-8.4,12.8-0.2,12.8-0.2l37.2,19.9l3.6-7.8C116.9,107.5,103.6,99.8,90.2,92.1z M63.4,32.8
			c7.1,0,12.8-5.8,12.8-12.9c0-7.1-5.7-12.9-12.8-12.9c-7.1,0-12.8,5.8-12.8,12.9C50.6,27.1,56.3,32.8,63.4,32.8z"/>
	</g>
</g>
</svg>
