<?xml version="1.0" encoding="utf-8"?>
<!-- Generator: Adobe Illustrator 16.0.3, SVG Export Plug-In . SVG Version: 6.00 Build 0)  -->
<!DOCTYPE svg PUBLIC "-//W3C//DTD SVG 1.1//EN" "http://www.w3.org/Graphics/SVG/1.1/DTD/svg11.dtd">
<svg version="1.1" id="sports_leisure" xmlns="http://www.w3.org/2000/svg" xmlns:xlink="http://www.w3.org/1999/xlink" x="0px"
	 y="0px" width="141.732px" height="141.732px" viewBox="0 0 141.732 141.732" enable-background="new 0 0 141.732 141.732"
	 xml:space="preserve">
<g>
	<path fill="#110F0F" d="M90.197,92.088C76.115,81.154,73.845,72.705,73.658,65.197c-0.193-7.505,5.101-8.076,5.101-8.076
		l34.405-30.874l-7.652-7.601c0,0-25.764,22.319-26.754,23.182c-13.611,8.74-23.341,3.8-23.341,3.8L32.54,18.646l-7.751,7.601
		c0,0,15.335,20.653,23.161,30.971c11.474,9.321,3.966,30.595,3.966,30.595l-3.966,46.834h11.528c0,0,3.487-34.726,3.876-39.05
		c5.01-8.448,12.76-0.188,12.76-0.188l37.237,19.854l3.592-7.784C116.943,107.477,103.636,99.797,90.197,92.088z"/>
	<path fill="#110F0F" d="M63.389,32.839c7.071,0,12.809-5.765,12.809-12.874c0-7.113-5.736-12.878-12.809-12.878
		c-7.079,0-12.815,5.765-12.815,12.878C50.573,27.074,56.31,32.839,63.389,32.839z"/>
</g>
</svg>
