<?xml version="1.0" encoding="utf-8"?>
<!-- Generator: Adobe Illustrator 16.0.3, SVG Export Plug-In . SVG Version: 6.00 Build 0)  -->
<!DOCTYPE svg PUBLIC "-//W3C//DTD SVG 1.1//EN" "http://www.w3.org/Graphics/SVG/1.1/DTD/svg11.dtd">
<svg version="1.1" id="theme_park" xmlns="http://www.w3.org/2000/svg" xmlns:xlink="http://www.w3.org/1999/xlink" x="0px" y="0px"
	 width="141.732px" height="141.732px" viewBox="0 0 141.732 141.732" enable-background="new 0 0 141.732 141.732"
	 xml:space="preserve">
<g>
	<path d="M133.131,23.51H95.342L70.787,7.087L46.231,23.51H8.602l3.348,13.075h52.299v26.309c-3.667-0.319-6.697,0.319-9.727-0.159
		c-4.783-0.797-9.407-8.61-16.423-13.075c-7.016-4.465-22.801,0-22.801,0s-0.797,1.275-0.797,2.71s-4.305,4.146-4.305,4.146
		s3.986-0.478,6.538-0.159c2.392,0.159,1.594,2.392,1.594,2.392s0.16,3.827,0,5.74c-0.159,1.754,1.595,6.378,1.595,6.378
		s-4.624,6.856-2.232,8.132c2.551,1.276,6.538,0.797,6.538-1.275s1.116-5.262,4.146-5.262c3.03,0.159,5.262-3.508,7.973-3.508
		c2.551,0,2.073,4.465,2.073,4.465s0.319,6.059,0,11.321C37.94,90,28.533,89.043,25.025,88.884
		c-3.508-0.159-3.827,5.421-3.827,5.421s0.16,7.813,0,11.799c-0.159,4.146,3.189,5.581,3.189,5.581h10.524v-6.537
		c0,0-4.305,0.159-5.103-1.595c-2.073-4.464,1.754-7.813,1.754-7.813s12.437,0.16,14.191,0c1.914-0.16,2.232-6.856,2.232-6.856
		l8.77-0.319c0,0,2.232,2.551,7.016,3.508l0.479,0.16v29.338H11.95v13.075h117.673v-13.075H77.324V89.043l9.886-0.16
		c0,0-0.159,2.551,0.797,4.624c1.116,2.073,5.74,2.232,5.74,2.232h12.278v8.77c0,3.03,4.305,5.9,4.305,5.9h9.408l0.159-5.262
		c0,0-2.392,0-5.262-1.595s1.754-7.813,1.595-11.64c-0.16-3.986-6.059-2.711-9.408-3.03c-3.348-0.319-2.392-6.218-0.797-7.972
		c1.594-1.914-0.479-6.378,0.638-10.843c0.957-4.624,10.842-4.783,13.234-4.146c2.392,0.638-0.957,8.61-0.957,8.61
		s4.305-1.435,6.378-4.943c3.508-6.059,1.595-10.683-2.71-12.437c-4.305-1.914-6.059,2.232-6.059,2.232l-13.075,6.538
		c0,0-1.914-2.232-9.727-3.667s-16.423,3.667-16.423,3.667V36.584h52.299L133.131,23.51L133.131,23.51z"/>
	<path fill="#FFFFFF" d="M28.214,59.705c0,1.435-1.116,2.392-2.392,2.392c-1.435,0-2.551-0.957-2.551-2.392
		c0-1.275,1.116-2.392,2.551-2.392C27.098,57.313,28.214,58.429,28.214,59.705L28.214,59.705z"/>
</g>
</svg>
