<?xml version="1.0" encoding="utf-8"?>
<!-- Generator: Adobe Illustrator 17.1.0, SVG Export Plug-In . SVG Version: 6.00 Build 0)  -->
<!DOCTYPE svg PUBLIC "-//W3C//DTD SVG 1.1//EN" "http://www.w3.org/Graphics/SVG/1.1/DTD/svg11.dtd">
<svg version="1.1" id="Layer_1" xmlns="http://www.w3.org/2000/svg" xmlns:xlink="http://www.w3.org/1999/xlink" x="0px" y="0px"
	 viewBox="0 0 141.7 141.7" enable-background="new 0 0 141.7 141.7" xml:space="preserve">
<g>
	<path d="M133.1,23.5H95.3L70.8,7.1L46.2,23.5H8.6l3.3,13.1h52.3v26.3c-3.7-0.3-6.7,0.3-9.7-0.2c-4.8-0.8-9.4-8.6-16.4-13.1
		c-7-4.5-22.8,0-22.8,0s-0.8,1.3-0.8,2.7c0,1.4-4.3,4.1-4.3,4.1s4-0.5,6.5-0.2c2.4,0.2,1.6,2.4,1.6,2.4s0.2,3.8,0,5.7
		c-0.2,1.8,1.6,6.4,1.6,6.4s-4.6,6.9-2.2,8.1c2.6,1.3,6.5,0.8,6.5-1.3c0-2.1,1.1-5.3,4.1-5.3c3,0.2,5.3-3.5,8-3.5
		c2.6,0,2.1,4.5,2.1,4.5s0.3,6.1,0,11.3C37.9,90,28.5,89,25,88.9c-3.5-0.2-3.8,5.4-3.8,5.4s0.2,7.8,0,11.8c-0.2,4.1,3.2,5.6,3.2,5.6
		h10.5v-6.5c0,0-4.3,0.2-5.1-1.6c-2.1-4.5,1.8-7.8,1.8-7.8s12.4,0.2,14.2,0c1.9-0.2,2.2-6.9,2.2-6.9l8.8-0.3c0,0,2.2,2.6,7,3.5
		l0.5,0.2v29.3H11.9v13.1h117.7v-13.1H77.3V89l9.9-0.2c0,0-0.2,2.6,0.8,4.6c1.1,2.1,5.7,2.2,5.7,2.2H106v8.8c0,3,4.3,5.9,4.3,5.9
		h9.4l0.2-5.3c0,0-2.4,0-5.3-1.6c-2.9-1.6,1.8-7.8,1.6-11.6c-0.2-4-6.1-2.7-9.4-3c-3.3-0.3-2.4-6.2-0.8-8c1.6-1.9-0.5-6.4,0.6-10.8
		c1-4.6,10.8-4.8,13.2-4.1c2.4,0.6-1,8.6-1,8.6s4.3-1.4,6.4-4.9c3.5-6.1,1.6-10.7-2.7-12.4c-4.3-1.9-6.1,2.2-6.1,2.2l-13.1,6.5
		c0,0-1.9-2.2-9.7-3.7c-7.8-1.4-16.4,3.7-16.4,3.7V36.6h52.3L133.1,23.5L133.1,23.5z M28.2,59.7c0,1.4-1.1,2.4-2.4,2.4
		c-1.4,0-2.6-1-2.6-2.4c0-1.3,1.1-2.4,2.6-2.4C27.1,57.3,28.2,58.4,28.2,59.7L28.2,59.7z"/>
</g>
</svg>
