<?xml version="1.0" encoding="utf-8"?>
<!-- Generator: Adobe Illustrator 16.0.3, SVG Export Plug-In . SVG Version: 6.00 Build 0)  -->
<!DOCTYPE svg PUBLIC "-//W3C//DTD SVG 1.1//EN" "http://www.w3.org/Graphics/SVG/1.1/DTD/svg11.dtd">
<svg version="1.1" id="tourist_information" xmlns="http://www.w3.org/2000/svg" xmlns:xlink="http://www.w3.org/1999/xlink"
	 x="0px" y="0px" width="141.732px" height="141.732px" viewBox="0 0 141.732 141.732" enable-background="new 0 0 141.732 141.732"
	 xml:space="preserve">
<g>
	<path d="M87.343,42.746c13.427-3.776,21.819-14.264,19.298-23.707c-2.512-10.07-15.734-14.266-28.742-10.7
		c-13.008,3.569-22.238,13.638-19.298,23.707C61.328,41.28,74.335,46.318,87.343,42.746z"/>
	<path d="M55.028,134.643c11.333,0.209,28.118-12.852,33.097-19.352c5.872-6.926,0.056-10.438-3.722-7.292
		c-8.597,6.711-15.101,1.256-12.17-5.667l18.674-45.109H57.762l-21.4,48.05C32.165,114.71,34.679,134.434,55.028,134.643z"/>
</g>
</svg>
