<?xml version="1.0" encoding="utf-8"?>
<!-- Generator: Adobe Illustrator 16.0.3, SVG Export Plug-In . SVG Version: 6.00 Build 0)  -->
<!DOCTYPE svg PUBLIC "-//W3C//DTD SVG 1.1//EN" "http://www.w3.org/Graphics/SVG/1.1/DTD/svg11.dtd">
<svg version="1.1" id="train_station" xmlns="http://www.w3.org/2000/svg" xmlns:xlink="http://www.w3.org/1999/xlink" x="0px"
	 y="0px" width="141.732px" height="141.732px" viewBox="0 0 141.732 141.732" enable-background="new 0 0 141.732 141.732"
	 xml:space="preserve">
<g>
	<path d="M7.087,61.817c0-4.332,0-8.664,0-13.011c0.386,0.043,0.753,0.107,1.138,0.107c21.178,0,42.338,0,63.519,0
		c0.377,0,0.77-0.064,1.146-0.09c-0.373-0.392-0.727-0.594-1.101-0.766c-10.391-4.525-20.767-9.052-31.157-13.6
		c-3.364-1.473-6.719-3.014-10.071-4.526c10.289,0,20.575,0,30.859,0c0.392,0.232,0.766,0.503,1.164,0.7
		C75.37,36.56,88.159,42.477,100.97,48.347c0.727,0.349,1.604,0.524,2.437,0.524c9.948,0.043,19.896,0.021,29.844,0.021
		c0.469,0,0.927-0.064,1.396-0.09c0,4.332,0,8.661,0,13.008c-10.538,0-21.079-0.021-31.631,0c-0.571,0-1.165,0.179-1.679,0.423
		c-10.492,5.052-20.959,10.103-31.418,15.16c-0.327,0.173-0.631,0.373-0.938,0.55c0.021,0.086,0.04,0.176,0.062,0.24
		c0.442,0,0.884,0,1.34,0c20.961,0,41.901,0,62.862,0c0.466,0,0.934-0.021,1.402-0.043c0,4.505,0,9.009,0,13.515
		c-0.286-0.022-0.599-0.048-0.896-0.048c-20.637,0-41.302,0-61.938,0c-0.308,0-0.615,0.048-1.255,0.111
		c0.706,0.353,1.104,0.568,1.52,0.748c8.79,3.93,17.598,7.824,26.375,11.754c5.615,2.507,11.215,5.062,16.802,7.579
		c-10.2,0-20.411,0-30.609,0c-0.282-0.172-0.55-0.373-0.859-0.524c-13.905-6.438-27.795-12.874-41.718-19.29
		c-0.579-0.248-1.296-0.374-1.957-0.374c-6.839-0.017-13.688-0.017-20.529-0.004c-4.167,0-8.333,0.025-12.492,0.048
		c0-4.506,0-9.01,0-13.515c0.131,0.021,0.255,0.043,0.386,0.043c10.195,0,20.394,0,30.607,0c0.441,0,0.926-0.107,1.335-0.287
		c10.952-5.116,21.915-10.26,32.859-15.4c0.242-0.111,0.478-0.313,0.921-0.636c-0.483-0.043-0.641-0.05-0.815-0.05
		C50.625,61.811,28.847,61.811,7.087,61.817z"/>
</g>
</svg>
