<svg xmlns="http://www.w3.org/2000/svg" width="24" height="24" viewBox="0 0 141.7 141.7"><path d="m7.1 61.8c0-4.3 0-8.7 0-13 .4 0 .8.1 1.1.1h63.5c.4 0 .8-.1 1.1-.1-.4-.4-.7-.6-1.1-.8-10.3-4.5-20.7-9-31.1-13.5-3.4-1.5-6.7-3-10.1-4.5h30.9c.4.2.8.5 1.2.7l38.4 17.7c.7.3 1.6.5 2.4.5h29.8c.5 0 .9-.1 1.4-.1v13c-10.5 0-21.1 0-31.6 0-.6 0-1.2.2-1.7.4-10.5 5.1-21 10.1-31.4 15.2-.3.2-.6.4-.9.5 0 .1 0 .2.1.2h1.3 62.9 1.4v13.5c-.3 0-.6 0-.9 0-20.6 0-41.3 0-61.9 0-.3 0-.6 0-1.3.1.7.4 1.1.6 1.5.7 8.8 3.9 17.6 7.8 26.4 11.8 5.6 2.5 11.2 5.1 16.8 7.6-10.2 0-20.4 0-30.6 0-.3-.2-.5-.4-.9-.5-13.9-6.5-27.8-12.9-41.7-19.3-.6-.2-1.3-.4-2-.4-6.8 0-13.7 0-20.5 0-4.2 0-8.3 0-12.5 0 0-4.5 0-9 0-13.5h.4 30.6c.4 0 .9-.1 1.3-.3 11-5.1 21.9-10.3 32.9-15.4.2-.1.5-.3.9-.6-.5 0-.6 0-.8 0-21.8 0-43.6 0-65.3 0z"/></svg>