<?xml version="1.0" encoding="utf-8"?>
<!-- Generator: Adobe Illustrator 28.1.0, SVG Export Plug-In . SVG Version: 6.00 Build 0)  -->
<svg version="1.1" id="airport" xmlns="http://www.w3.org/2000/svg" xmlns:xlink="http://www.w3.org/1999/xlink" x="0px" y="0px"
	 width="141.7px" height="141.7px" viewBox="0 0 141.7 141.7" style="enable-background:new 0 0 141.7 141.7;" xml:space="preserve"
	>
<style type="text/css">
	.st0{fill-rule:evenodd;clip-rule:evenodd;fill:#231F20;}
</style>
<path class="st0" d="M82.5,40c-6.5-1.1-7.8-1.1-11.6-1.1c-3.9,0-6.2,0.1-11.7,1.1l11.7,51.5L82.5,40z M40,47.1
	c-5.7,3.2-6.8,4-9.7,6.6c-2.9,2.5-4.7,4-8.1,8.4l42,31.9L40,47.1z M11.7,79.8C9.6,86,9.3,87.4,8.7,91c-0.8,3.9-1,6.2-1,11.8
	l52.8-2.5L11.7,79.8z M134,102.8c0-6.6-0.3-8-1-11.8c-0.6-3.8-1.1-6.1-3-11.3l-48.7,20.5L134,102.8z M119.6,62.1
	c-4.2-5.1-5.2-5.9-8.1-8.4c-3-2.5-4.8-3.9-9.7-6.6L77.6,93.9L119.6,62.1z"/>
</svg>
