<?xml version="1.0" encoding="utf-8"?>
<!-- Generator: Adobe Illustrator 16.0.3, SVG Export Plug-In . SVG Version: 6.00 Build 0)  -->
<!DOCTYPE svg PUBLIC "-//W3C//DTD SVG 1.1//EN" "http://www.w3.org/Graphics/SVG/1.1/DTD/svg11.dtd">
<svg version="1.1" id="walk" xmlns="http://www.w3.org/2000/svg" xmlns:xlink="http://www.w3.org/1999/xlink" x="0px" y="0px"
	 width="141.732px" height="141.732px" viewBox="0 0 141.732 141.732" enable-background="new 0 0 141.732 141.732"
	 xml:space="preserve">
<g>
	<path d="M57.289,87.449h27.106c0,0,4.784-14.031,9.089-22.323c4.464-8.451,7.175-33.006,0.797-41.775
		c-6.378-8.77-12.596-16.264-23.439-16.264c-10.683,0-17.061,7.494-23.439,16.264c-6.378,8.77-3.508,33.325,0.797,41.775
		C52.505,73.417,57.289,87.449,57.289,87.449L57.289,87.449L57.289,87.449z"/>
	<path d="M57.289,96.059h27.106c0,0,0,10.364,2.392,13.872c2.392,3.667,3.986,12.277-2.392,18.336
		c-6.378,5.9-11.161,6.378-15.147,6.378h3.189c-3.986,0-8.77-0.478-15.147-6.378c-6.378-6.059-4.784-14.669-2.392-18.336
		C57.289,106.423,57.289,96.059,57.289,96.059L57.289,96.059z"/>
</g>
</svg>
