<?xml version="1.0" encoding="utf-8"?>
<!-- Generator: Adobe Illustrator 17.1.0, SVG Export Plug-In . SVG Version: 6.00 Build 0)  -->
<!DOCTYPE svg PUBLIC "-//W3C//DTD SVG 1.1//EN" "http://www.w3.org/Graphics/SVG/1.1/DTD/svg11.dtd">
<svg version="1.1" id="Layer_1" xmlns="http://www.w3.org/2000/svg" xmlns:xlink="http://www.w3.org/1999/xlink" x="0px" y="0px"
	 viewBox="0 0 141.7 141.7" enable-background="new 0 0 141.7 141.7" xml:space="preserve">
<g>
	<path d="M57.3,87.4h27.1c0,0,4.8-14,9.1-22.3c4.5-8.5,7.2-33,0.8-41.8C87.9,14.6,81.7,7.1,70.8,7.1c-10.7,0-17.1,7.5-23.4,16.3
		c-6.4,8.8-3.5,33.3,0.8,41.8C52.5,73.4,57.3,87.4,57.3,87.4L57.3,87.4L57.3,87.4z M57.3,96.1h27.1c0,0,0,10.4,2.4,13.9
		c2.4,3.7,4,12.3-2.4,18.3c-6.4,5.9-11.2,6.4-15.1,6.4h3.2c-4,0-8.8-0.5-15.1-6.4c-6.4-6.1-4.8-14.7-2.4-18.3
		C57.3,106.4,57.3,96.1,57.3,96.1L57.3,96.1z" fill="param(fill)" fill-opacity="param(fill-opacity)" stroke="param(outline)" stroke-opacity="param(outline-opacity)" stroke-width="param(outline-width)"/>
</g>
</svg>
