<?xml version="1.0" encoding="utf-8"?>
<!-- Generator: Adobe Illustrator 17.1.0, SVG Export Plug-In . SVG Version: 6.00 Build 0)  -->
<!DOCTYPE svg PUBLIC "-//W3C//DTD SVG 1.1//EN" "http://www.w3.org/Graphics/SVG/1.1/DTD/svg11.dtd">
<svg version="1.1" id="Layer_1" xmlns="http://www.w3.org/2000/svg" xmlns:xlink="http://www.w3.org/1999/xlink" x="0px" y="0px"
	 viewBox="0 0 141.7 141.7" enable-background="new 0 0 141.7 141.7" xml:space="preserve">
<g>
	<path fill="#2E251A" d="M69.1,134.6l-3.7-71.9c1.6-1,2.8-2.9,2.8-4.9c0-3.2-2.6-5.8-5.7-5.8c-3.3,0-5.8,2.6-5.8,5.8
		c0,2.2,1.2,4.1,3.1,5.1l-4,71.8H69.1z" fill="param(fill)" fill-opacity="param(fill-opacity)" stroke="param(outline)" stroke-opacity="param(outline-opacity)" stroke-width="param(outline-width)"/>
	<path fill="#2F251A" d="M27.3,97.9L27,97.5c-0.5-2,0-4.5,1.5-7.4c3.1-6.3,9.9-12.8,14.7-16.5c4.3-3.3,9.7-9.4,11.3-11.2l0.2-0.3
		l0.2,0.3c0.5,0.8,1,1.4,1.6,1.9c0.3,0.3,0.6,0.5,1,0.7l0.2,0.2l-0.1,0.3C51.2,73.2,30,98.1,27.4,97.9L27.3,97.9z" fill="param(fill)" fill-opacity="param(fill-opacity)" stroke="param(outline)" stroke-opacity="param(outline-opacity)" stroke-width="param(outline-width)"/>
	<path fill="#2F251A" d="M103.7,71c-6.3-0.4-13.4-2.6-17.9-4.5c-5.1-2.1-13.7-3.8-15.3-4.2l-0.4-0.1l0.2-0.3
		c0.4-0.8,0.7-1.6,0.9-2.3c0.1-0.4,0.1-0.9,0.1-1.3V58l0.3,0c12.8,2.3,42.5,7.8,43.2,10l0,0.2l-0.2,0.3c-1.5,1.4-3.9,2.2-7.1,2.5
		C106.4,71.1,105.1,71.1,103.7,71L103.7,71z" fill="param(fill)" fill-opacity="param(fill-opacity)" stroke="param(outline)" stroke-opacity="param(outline-opacity)" stroke-width="param(outline-width)"/>
	<path fill="#2F251A" d="M58.2,49.6c-3.4-9.4-14.5-40.3-13-42.3l0.1-0.1l0.3,0c2.1,0.6,4.1,2.3,5.8,5c3.9,5.9,6.2,15,7,21
		c0.7,5.5,3.5,13.8,4,15.4l0.1,0.3h-0.4c-1,0-1.8,0.2-2.5,0.4c-0.4,0.2-0.8,0.3-1.2,0.5l-0.3,0.2L58.2,49.6z" fill="param(fill)" fill-opacity="param(fill-opacity)" stroke="param(outline)" stroke-opacity="param(outline-opacity)" stroke-width="param(outline-width)"/>
</g>
</svg>
