<?xml version="1.0" encoding="utf-8"?>
<!-- Generator: Adobe Illustrator 16.0.3, SVG Export Plug-In . SVG Version: 6.00 Build 0)  -->
<!DOCTYPE svg PUBLIC "-//W3C//DTD SVG 1.1//EN" "http://www.w3.org/Graphics/SVG/1.1/DTD/svg11.dtd">
<svg version="1.1" id="wind_turbine" xmlns="http://www.w3.org/2000/svg" xmlns:xlink="http://www.w3.org/1999/xlink" x="0px"
	 y="0px" width="141.732px" height="141.732px" viewBox="0 0 141.732 141.732" enable-background="new 0 0 141.732 141.732"
	 xml:space="preserve">
<g>
	<path fill="#2E251A" d="M69.087,134.646l-3.713-71.91c1.649-1.011,2.791-2.855,2.791-4.944c0-3.205-2.572-5.798-5.736-5.798
		c-3.25,0-5.822,2.593-5.822,5.798c0,2.198,1.231,4.088,3.055,5.055l-3.977,71.799H69.087z"/>
	<path fill="#2F251A" d="M27.251,97.89l-0.25-0.371c-0.475-2.023,0.031-4.548,1.459-7.426c3.098-6.263,9.887-12.811,14.745-16.546
		c4.261-3.253,9.711-9.361,11.271-11.163l0.242-0.264l0.219,0.309c0.484,0.791,1.011,1.406,1.56,1.933
		c0.308,0.264,0.617,0.484,0.968,0.682l0.241,0.175l-0.11,0.307c-6.437,7.625-27.598,32.561-30.146,32.388L27.251,97.89z"/>
	<path fill="#2F251A" d="M103.717,70.999c-6.328-0.44-13.36-2.593-17.864-4.483c-5.142-2.11-13.667-3.845-15.315-4.153l-0.352-0.087
		l0.176-0.309c0.44-0.813,0.748-1.582,0.901-2.329c0.089-0.44,0.089-0.858,0.133-1.275v-0.329l0.307,0.043
		c12.788,2.285,42.5,7.822,43.155,10.02l0.048,0.155l-0.198,0.329c-1.546,1.429-3.918,2.242-7.142,2.462
		c-1.187,0.064-2.463,0.064-3.826-0.044H103.717z"/>
	<path fill="#2F251A" d="M58.233,49.575C54.806,40.17,43.775,9.24,45.269,7.263l0.089-0.128l0.308-0.048
		c2.131,0.619,4.064,2.271,5.823,4.965c3.888,5.858,6.174,14.999,6.986,21.044c0.703,5.515,3.472,13.776,4,15.38l0.131,0.332h-0.351
		c-0.989,0.022-1.758,0.152-2.462,0.396c-0.417,0.152-0.79,0.328-1.165,0.503l-0.263,0.153L58.233,49.575z"/>
</g>
</svg>
