<svg xmlns="http://www.w3.org/2000/svg" width="24" height="24" viewBox="0 0 141.7 141.7"><path d="m69.1 134.6-3.7-71.9c1.6-1 2.8-2.9 2.8-4.9 0-3.2-2.6-5.8-5.7-5.8-3.3 0-5.8 2.6-5.8 5.8 0 2.2 1.2 4.1 3.1 5.1l-4 71.8h13.3z"/><path d="m27.3 97.9-.3-.4c-.5-2 0-4.5 1.5-7.4 3.1-6.3 9.9-12.8 14.7-16.5 4.3-3.3 9.7-9.4 11.3-11.2l.2-.3.2.3c.5.8 1 1.4 1.6 1.9.3.3.6.5 1 .7l.2.2-.1.3c-6.4 7.7-27.6 32.6-30.2 32.4z"/><path d="m103.7 71c-6.3-.4-13.4-2.6-17.9-4.5-5.1-2.1-13.7-3.8-15.3-4.2l-.4-.1.2-.3c.4-.8.7-1.6.9-2.3.1-.4.1-.9.1-1.3v-.3h.3c12.8 2.3 42.5 7.8 43.2 10v.2l-.2.3c-1.5 1.4-3.9 2.2-7.1 2.5-1.1.1-2.4.1-3.8 0z"/><path d="m58.2 49.6c-3.4-9.4-14.5-40.3-13-42.3l.1-.1h.3c2.1.6 4.1 2.3 5.8 5 3.9 5.9 6.2 15 7 21 .7 5.5 3.5 13.8 4 15.4l.1.3h-.4c-1 0-1.8.2-2.5.4-.4.2-.8.3-1.2.5l-.3.2z"/></svg>