<?xml version="1.0" encoding="utf-8"?>
<!-- Generator: Adobe Illustrator 17.1.0, SVG Export Plug-In . SVG Version: 6.00 Build 0)  -->
<!DOCTYPE svg PUBLIC "-//W3C//DTD SVG 1.1//EN" "http://www.w3.org/Graphics/SVG/1.1/DTD/svg11.dtd">
<svg version="1.1" id="airport" xmlns="http://www.w3.org/2000/svg" xmlns:xlink="http://www.w3.org/1999/xlink" x="0px" y="0px"
	 viewBox="0 0 141.7 141.7" enable-background="new 0 0 141.7 141.7" xml:space="preserve">
<g>
	<path d="M73.3,129.3l20.2,5.4l-1.3-8.7l-16.7-12.8L77,89.7c0.2-6.5-0.9-14.3,4.6-14.3c2.2,0,5.2,0.9,7.2,1.5l13.2,3.7l31.2,14.1
		v-3.3c0-2.2,0.6-5.8-1.3-7.4c-0.9-1.5-3.7-3.3-5.2-4.4l-48.4-36v-3.9L77,20.6c-0.5-3.5-0.7-13.5-6.1-13.5c-5.4,0-5.6,10-6.1,13.5
		l-1.3,19v3.9L15,79.5c-1.5,1.1-4.1,3-5.2,4.4c-1.9,1.7-1.3,5.2-1.3,7.4v3.3l31.2-14.1l13.4-3.7c2-0.5,4.8-1.5,7.1-1.5
		c5.6,0,4.4,7.8,4.6,14.3l1.5,23.4l-16.7,12.8l-1.3,8.7l20.2-5.4H73.3L73.3,129.3z" fill="param(fill)" fill-opacity="param(fill-opacity)" stroke="param(outline)" stroke-opacity="param(outline-opacity)" stroke-width="param(outline-width)"/>
</g>
</svg>
