<svg xmlns="http://www.w3.org/2000/svg" width="48" height="48" viewBox="0 0 141.7 141.7"><path d="m73.3 129.3 20.2 5.4-1.3-8.7-16.7-12.8 1.5-23.5c.2-6.5-.9-14.3 4.6-14.3 2.2 0 5.2.9 7.2 1.5l13.2 3.7 31.2 14.1v-3.3c0-2.2.6-5.8-1.3-7.4-.9-1.5-3.7-3.3-5.2-4.4l-48.4-36v-3.9l-1.3-19.1c-.5-3.5-.7-13.5-6.1-13.5s-5.6 10-6.1 13.5l-1.3 19v3.9l-48.5 36c-1.5 1.1-4.1 3-5.2 4.4-1.9 1.7-1.3 5.2-1.3 7.4v3.3l31.2-14.1 13.4-3.7c2-.5 4.8-1.5 7.1-1.5 5.6 0 4.4 7.8 4.6 14.3l1.5 23.4-16.7 12.8-1.3 8.7 20.2-5.4h4.8z"/></svg>