<svg xmlns="http://www.w3.org/2000/svg" width="24" height="24" viewBox="0 0 141.7 141.7"><path d="m126 70.6c0-7.4-5.4-13.5-12.5-15.1v-6.5c0-11.9-9.7-21.6-21.6-21.6h-7.1v-2.6c0-9.8-8-17.8-17.8-17.8h-22.9c-9.8 0-17.8 8-17.8 17.8v96.8h-4.1c-3.6 0-6.5 2.9-6.5 6.5s2.9 6.5 6.5 6.5h4.1 58.5 4.1c3.6 0 6.5-2.9 6.5-6.5s-2.9-6.5-6.5-6.5h-4.1v-86.6h7.1c7.7 0 14 6.3 14 14v6.5c-7 1.7-12.2 7.8-12.2 15v4.6h6.9v10.3c0 1.5 1.2 2.7 2.7 2.7s2.7-1.2 2.7-2.7v-10.2h7.7v10.3c0 1.5 1.2 2.7 2.7 2.7s2.7-1.2 2.7-2.7v-10.3h6.9z"/><path d="m42.3 104.6v-6.8h26.4v6.8z" fill="#fff"/><path d="m75.2 66.7c0 4.9-4 8.9-8.9 8.9h-21.5c-4.9 0-8.9-4-8.9-8.9v-39c0-4.9 4-8.9 8.9-8.9h21.6c4.9 0 8.9 4 8.9 8.9v39z" fill="#fff"/><path d="m52.2 57v-9.8h-9.9v-6.8h9.9v-9.8h6.6v9.8h9.9v6.8h-9.9v9.8z"/></svg>