<?xml version="1.0" encoding="utf-8"?>
<!-- Generator: Adobe Illustrator 17.1.0, SVG Export Plug-In . SVG Version: 6.00 Build 0)  -->
<!DOCTYPE svg PUBLIC "-//W3C//DTD SVG 1.1//EN" "http://www.w3.org/Graphics/SVG/1.1/DTD/svg11.dtd">
<svg version="1.1" id="Layer_1" xmlns="http://www.w3.org/2000/svg" xmlns:xlink="http://www.w3.org/1999/xlink" x="0px" y="0px"
	 viewBox="0 0 141.7 141.7" enable-background="new 0 0 141.7 141.7" xml:space="preserve">
<g>
	<path d="M76.4,59.3h16.5c1.9,4.7,6.6,7.7,11.9,7.7c7.2,0,13.1-5.9,13.1-13.1c0-7.2-5.9-13.1-13.1-13.1c-5.3,0-9.8,3-11.9,7.5H76.4
		V31.9c4.7-1.9,7.7-6.6,7.7-11.7c0-7.4-5.8-13.1-13.1-13.1c-7.2,0-13.3,5.8-13.3,13.1c0,5.1,3.2,9.6,7.8,11.7v16.3H49
		c-2.1-4.5-6.7-7.5-11.9-7.5c-7.2,0-13.3,5.9-13.3,13.1c0,7.2,6.1,13.1,13.3,13.1c5.1,0,9.6-3,11.9-7.7h16.5v50.2
		c-4.6,2.1-7.8,6.6-7.8,11.9c0,7.4,6.1,13.3,13.3,13.3c7.4,0,13.1-5.9,13.1-13.3c0-5.3-3-9.5-7.7-11.9V59.3L76.4,59.3z" fill="param(fill)" fill-opacity="param(fill-opacity)" stroke="param(outline)" stroke-opacity="param(outline-opacity)" stroke-width="param(outline-width)"/>
</g>
</svg>
