<svg xmlns="http://www.w3.org/2000/svg" width="48" height="48" viewBox="0 0 141.7 141.7"><path d="m76.4 59.3h16.5c1.9 4.7 6.6 7.7 11.9 7.7 7.2 0 13.1-5.9 13.1-13.1s-5.9-13.1-13.1-13.1c-5.3 0-9.8 3-11.9 7.5h-16.5v-16.4c4.7-1.9 7.7-6.6 7.7-11.7 0-7.4-5.8-13.1-13.1-13.1-7.2 0-13.3 5.8-13.3 13.1 0 5.1 3.2 9.6 7.8 11.7v16.3h-16.5c-2.1-4.5-6.7-7.5-11.9-7.5-7.2 0-13.3 5.9-13.3 13.1s6.1 13.1 13.3 13.1c5.1 0 9.6-3 11.9-7.7h16.5v50.2c-4.6 2.1-7.8 6.6-7.8 11.9 0 7.4 6.1 13.3 13.3 13.3 7.4 0 13.1-5.9 13.1-13.3 0-5.3-3-9.5-7.7-11.9z"/></svg>