<?xml version="1.0" encoding="utf-8"?>
<!-- Generator: Adobe Illustrator 17.1.0, SVG Export Plug-In . SVG Version: 6.00 Build 0)  -->
<!DOCTYPE svg PUBLIC "-//W3C//DTD SVG 1.1//EN" "http://www.w3.org/Graphics/SVG/1.1/DTD/svg11.dtd">
<svg version="1.1" id="Layer_1" xmlns="http://www.w3.org/2000/svg" xmlns:xlink="http://www.w3.org/1999/xlink" x="0px" y="0px"
	 viewBox="0 0 141.7 141.7" enable-background="new 0 0 141.7 141.7" xml:space="preserve">
<g>
	<path d="M112.4,115.9c0.5-1.5,0.5-2.6,0-3.4c-14.9-10.3-27.9-28.4-38.6-47.1V25.2c9.2,13.6,17.3,21.6,27.5,27.4
		c1.8,1.1,2.7-3.6,1.8-4.2c-10.8-6.9-22.9-21.8-30-37.3c-0.3-1-0.8-1.8-1.8-4c-1.1,2.3-1.5,3.1-1.8,4c-6.8,16.1-19.1,30.4-29.9,37.3
		c-1.3,0.8,0,2.1,0.2,2.9c0,0.8,0.3,1.9,1.5,1.3C51.3,47,59.4,39.1,68.6,25.5v39.9c-10.8,18.7-24.1,37-38.9,47.1
		c-1.9,1.3,0.5,5.5,2.6,4.7c8.4-6,20.5-16.1,36.7-41.2l-0.8,31.5l-1.3,27.1H76l-1.8-27.1L73.5,76c16.1,25.2,28.6,35.4,37,41.2
		c1.1,0.6,1.5-0.5,1.8-1.1L112.4,115.9L112.4,115.9z" fill="param(fill)" fill-opacity="param(fill-opacity)" stroke="param(outline)" stroke-opacity="param(outline-opacity)" stroke-width="param(outline-width)"/>
</g>
</svg>
