<svg xmlns="http://www.w3.org/2000/svg" width="24" height="24" viewBox="0 0 141.7 141.7"><path d="m117.5 120.2c-3.1-3.8-35.6-43.1-41.4-50l.1-.1 9.6-13.9 10.2 1.2s.8.2 2.5-1.8 22.1-30.4 22.1-30.4 1.3-4.9-3.3-3.3c-2.4 2.6-20.7 26.6-20.7 26.6s-1.9 2-4.3 0c-1.9-1.7-.1-3.7-.1-3.7s20.2-27.3 20.2-27.3c.4-.7.6-5-3.3-3.3-3.3 3.7-20.8 26.9-20.8 26.9s-1.5 2-3.8.1c-1.8-1.8-.7-3.8-.7-3.8s19.6-26.7 19.6-26.8c.6-.6 1.1-5.7-3.4-2.6l-23.4 30s-.9.7-.3 2.4c.5 1.7 3.6 10 3.6 10l-7.9 9.6-1.9 2.3-1.3-1.8-7.7-9.1s7.3-13.3-6-26.5c-11.7-11.5-23.1-19.1-30.5-15.2-7.1 4.4-.1 24.7 1.8 27.9.7 1.2 4.7 10.8 12.3 16.7 7.9 5.5 16.4 2.4 16.4 2.4l9 12.8-41.9 51.9s-3.9 6.1 1.4 9.7c5.3 3.9 7 1.8 10.3-1.2 1.2-1.4 35.7-50.8 35.7-50.8l.6-.8.9 1.4 38.4 52.8s4.1 4.7 8.6.1c4.5-4.5 2.8-8.2-.6-12.4z"/></svg>