<?xml version="1.0" encoding="utf-8"?>
<!-- Generator: Adobe Illustrator 17.1.0, SVG Export Plug-In . SVG Version: 6.00 Build 0)  -->
<!DOCTYPE svg PUBLIC "-//W3C//DTD SVG 1.1//EN" "http://www.w3.org/Graphics/SVG/1.1/DTD/svg11.dtd">
<svg version="1.1" id="Layer_1" xmlns="http://www.w3.org/2000/svg" xmlns:xlink="http://www.w3.org/1999/xlink" x="0px" y="0px"
	 viewBox="0 0 141.7 141.7" enable-background="new 0 0 141.7 141.7" xml:space="preserve">
<g>
	<g>
		<path fill="#0F0D0D" d="M117.5,120.2c-3.1-3.8-35.6-43.1-41.4-50l0.1-0.1l9.6-13.9L96,57.4c0,0,0.8,0.2,2.5-1.8
			c1.7-2,22.1-30.4,22.1-30.4s1.3-4.9-3.3-3.3c-2.4,2.6-20.7,26.6-20.7,26.6s-1.9,2-4.3,0c-1.9-1.7-0.1-3.7-0.1-3.7
			s20.2-27.3,20.2-27.3c0.4-0.7,0.6-5-3.3-3.3c-3.3,3.7-20.8,26.9-20.8,26.9s-1.5,2-3.8,0.1c-1.8-1.8-0.7-3.8-0.7-3.8
			s19.6-26.7,19.6-26.8c0.6-0.6,1.1-5.7-3.4-2.6L76.6,38c0,0-0.9,0.7-0.3,2.4c0.5,1.7,3.6,10,3.6,10L72,60l-1.9,2.3l-1.3-1.8
			l-7.7-9.1c0,0,7.3-13.3-6-26.5C43.4,13.4,32,5.8,24.6,9.7c-7.1,4.4-0.1,24.7,1.8,27.9c0.7,1.2,4.7,10.8,12.3,16.7
			c7.9,5.5,16.4,2.4,16.4,2.4l9,12.8l-41.9,51.9c0,0-3.9,6.1,1.4,9.7c5.3,3.9,7,1.8,10.3-1.2c1.2-1.4,35.7-50.8,35.7-50.8l0.6-0.8
			l0.9,1.4l38.4,52.8c0,0,4.1,4.7,8.6,0.1C122.6,128.1,120.9,124.4,117.5,120.2z" fill="param(fill)" fill-opacity="param(fill-opacity)" stroke="param(outline)" stroke-opacity="param(outline-opacity)" stroke-width="param(outline-width)"/>
	</g>
</g>
</svg>
