<?xml version="1.0" encoding="utf-8"?>
<!-- Generator: Adobe Illustrator 28.1.0, SVG Export Plug-In . SVG Version: 6.00 Build 0)  -->
<svg version="1.1" id="Layer_1" xmlns="http://www.w3.org/2000/svg" xmlns:xlink="http://www.w3.org/1999/xlink" x="0px" y="0px"
	 width="24px" height="24px" viewBox="0 0 24 24" style="enable-background:new 0 0 24 24;" xml:space="preserve">
<style type="text/css">
	.st0{fill-rule:evenodd;clip-rule:evenodd;fill:#231F20;}
</style>
<path class="st0" d="M22.5,21.8h-21v-2.1h0.7c0.7,0,0.8-0.3,0.8-0.6l0.2-7.5L2.2,10h4.1l-1,1.6l0.2,7.5c0.1,0.3,0.1,0.6,0.8,0.6
	h11.5c0.7,0,0.8-0.3,0.8-0.6l0.2-7.5l-1-1.6h4.1l-1.1,1.6l0.2,7.5c0,0.3,0.1,0.6,0.8,0.6h0.7V21.8z M17.2,6.8H6.8l5.2-3L17.2,6.8z
	 M1.7,8.2h20.7L12,2.2L1.7,8.2z M12.2,13.7l3.1-3h2.1l-0.9,0.9v5.6c0,0.3,0,0.7,0.2,0.8c0.1,0.1,0.2,0.2,0.1,0.3
	c0,0.1-0.2,0.2-0.3,0.2h-1.2h-0.4c-0.2,0-0.3,0-0.4-0.2c0-0.1,0-0.2,0.1-0.3c0.1-0.1,0.2-0.5,0.2-0.8v-3.7l-2.6,2.5l-2.6-2.5v3.7
	c0,0.3,0.1,0.7,0.2,0.8c0.1,0.1,0.2,0.2,0.1,0.3c0,0.1-0.2,0.2-0.4,0.2H9.1H7.9c-0.2,0-0.3,0-0.3-0.2c-0.1-0.1,0-0.2,0.1-0.3
	c0.1-0.1,0.2-0.5,0.2-0.8v-5.6L7,10.7h2.1L12.2,13.7z"/>
</svg>
