<?xml version="1.0" encoding="utf-8"?>
<!-- Generator: Adobe Illustrator 17.1.0, SVG Export Plug-In . SVG Version: 6.00 Build 0)  -->
<!DOCTYPE svg PUBLIC "-//W3C//DTD SVG 1.1//EN" "http://www.w3.org/Graphics/SVG/1.1/DTD/svg11.dtd">
<svg version="1.1" id="Layer_1" xmlns="http://www.w3.org/2000/svg" xmlns:xlink="http://www.w3.org/1999/xlink" x="0px" y="0px"
	 viewBox="0 0 141.7 141.7" enable-background="new 0 0 141.7 141.7" xml:space="preserve">
<g>
	<path d="M67.4,98.3v36.3h7.1V98.3H67.4L67.4,98.3z M71,12.9c11.1,0,21.7,7.1,21.7,21.9c0,4.6,1.2,5.8,5.8,5.8h2.5
		c8.8,0,14.6,7.6,14.6,14.6c0,3,0.5,4.8-3.5,9.5c-3,4.6-1.8,7.9,3.5,9.4c6.5,1.6,11.8,7.6,11.8,15.3c0,8.8-6,16.9-17.1,16.9
		c-7.1,0-8.3,0.7-15.3-3.5c-2.8-1.8-3.5-2.3-4.1-2.8c-1.2-1.2-2.3-2.5-3-3.5l-4.1,4.1c1.2,1.2,3,4.8,8.3,7.6c5.3,3,9.9,4.2,18.2,4.2
		c12.4,0,22.9-10.1,22.9-22.9c0-10.1-7.1-18.9-16.4-21.2c2.8-3.5,4.6-7.8,4.6-13.1c0-11.1-9.4-20.5-20.5-20.5h-2.5
		C98.5,19.4,86.8,7.1,71,7.1c-15.9,0-27.7,12.4-27.7,27.7H41c-11.3,0-20.6,9.4-20.6,20.5c0,5.3,1.8,9.5,4.8,13.1
		C15.6,70.6,8.5,79.4,8.5,89.5c0,12.9,10.6,22.9,22.9,22.9c8.3,0,13.1-1.2,18.3-4.2c5.3-2.8,7.1-6.4,7.6-7.6l-4.1-4.1
		c-0.7,1.1-1.2,2.3-2.5,3.5c-0.5,0.5-1.1,1.1-4.1,2.8c-7.1,4.2-8.3,3.5-15.3,3.5c-11.1,0-16.9-8.1-16.9-16.9
		c0-7.8,5.3-13.8,11.6-15.3c5.3-1.4,6.5-4.8,3.5-9.4c-4.1-4.8-3.5-6.5-3.5-9.5c0-7.1,6-14.6,14.8-14.6h2.3c4.8,0,5.8-1.2,5.8-5.8
		C49.1,20,59.7,12.9,71,12.9L71,12.9z" fill="param(fill)" fill-opacity="param(fill-opacity)" stroke="param(outline)" stroke-opacity="param(outline-opacity)" stroke-width="param(outline-width)"/>
</g>
</svg>
