<?xml version="1.0" encoding="utf-8"?>
<!-- Generator: Adobe Illustrator 17.1.0, SVG Export Plug-In . SVG Version: 6.00 Build 0)  -->
<!DOCTYPE svg PUBLIC "-//W3C//DTD SVG 1.1//EN" "http://www.w3.org/Graphics/SVG/1.1/DTD/svg11.dtd">
<svg version="1.1" id="Layer_1" xmlns="http://www.w3.org/2000/svg" xmlns:xlink="http://www.w3.org/1999/xlink" x="0px" y="0px"
	 viewBox="0 0 141.7 141.7" enable-background="new 0 0 141.7 141.7" xml:space="preserve">
<g>
	<path d="M95.3,104.2c30.2,0,36.9-12.6,36.9-29c0-17.1-12.8-29.6-26.1-29.8c1-17.3-14.7-38.3-35.3-38.3c-20.2,0-35.9,21-34.9,38.3
		C22.5,45.6,9.5,58.1,9.5,75.2c0,16.5,6.9,29.2,37.1,29.2v-7.7c-23.4,0-29.4-5.7-29.4-21.6c0-11,6.3-22.6,19.2-22.6
		c6.7,0,7.1-0.8,6.9-7.7C42.9,31.4,54.9,14.7,71,14.7C87.1,14.7,99,31.4,98.6,45c-0.2,6.9,0.2,7.8,7.1,7.8c12.8,0,19,11.4,19,22.4
		c0,15.9-6.1,21.8-29.4,21.8V104.2L95.3,104.2z M67.2,134.6h7.5V98.1h-7.5V134.6L67.2,134.6z" fill="param(fill)" fill-opacity="param(fill-opacity)" stroke="param(outline)" stroke-opacity="param(outline-opacity)" stroke-width="param(outline-width)"/>
</g>
</svg>
