<?xml version="1.0" encoding="utf-8"?>
<!-- Generator: Adobe Illustrator 28.1.0, SVG Export Plug-In . SVG Version: 6.00 Build 0)  -->
<svg version="1.1" id="Layer_1" xmlns="http://www.w3.org/2000/svg" xmlns:xlink="http://www.w3.org/1999/xlink" x="0px" y="0px"
	 width="24px" height="24px" viewBox="0 0 24 24" style="enable-background:new 0 0 24 24;" xml:space="preserve">
<style type="text/css">
	.st0{fill-rule:evenodd;clip-rule:evenodd;fill:#231F20;}
</style>
<path class="st0" d="M21.8,14c0.5-0.7,1.9-6.9-1.1-8.8c-1.2-0.7-2.6-0.3-4,0.6c-0.3-0.9-0.7-1.6-1.1-2.4H3.3
	C0.5,7.9,0.8,15.8,4.2,20.6h10.5c1-1.4,1.6-2.9,2.1-4.5C19,15.9,20.8,15.5,21.8,14 M20.4,8.5c0.3,1.3-0.1,4.2-0.3,4.4
	c-0.2,0.4-0.5,0.4-1.2,0.7c-0.7,0.3-0.8,0.3-1.7,0.4c0.4-2.1,0.3-4.3,0-6.2c1.2-0.9,2.2-1,2.4-0.8C19.9,7.2,20.2,7.4,20.4,8.5
	 M15.5,8.8H3c0.2-1.6,0.6-3.1,1.3-4.3h10.4C14.7,4.7,15.6,7.4,15.5,8.8"/>
</svg>
