<?xml version="1.0" encoding="utf-8"?>
<!-- Generator: Adobe Illustrator 28.1.0, SVG Export Plug-In . SVG Version: 6.00 Build 0)  -->
<svg version="1.1" id="airport" xmlns="http://www.w3.org/2000/svg" xmlns:xlink="http://www.w3.org/1999/xlink" x="0px" y="0px"
	 width="141.7px" height="141.7px" viewBox="0 0 141.7 141.7" style="enable-background:new 0 0 141.7 141.7;" xml:space="preserve"
	>
<style type="text/css">
	.st0{fill-rule:evenodd;clip-rule:evenodd;fill:#231F20;}
</style>
<path class="st0" d="M130.1,83.1c2.9-4.3,11.5-41.4-6.8-53c-7-4.3-15.9-1.6-24.1,3.3c-1.8-5.2-4.1-9.9-6.6-14.4H18.4
	C1.7,46.4,3.3,93.6,24,122.7h63c5.8-8.2,9.7-17.3,12.6-27C113,94.2,123.5,92,130.1,83.1 M121.6,49.5c1.5,8-0.4,25-1.6,26.6
	c-1.2,2.1-2.7,2.7-7,4.5c-4.3,1.6-4.9,2-10.3,2.5c2.1-12.8,1.7-25.6-0.2-37.5c7.2-5.4,13-6,14.2-4.9
	C118.3,41.9,120.2,43.5,121.6,49.5 M92,51.6H16.5c1.3-9.5,3.9-18.5,7.8-25.8h62.4C87,26.7,92.6,43.1,92,51.6"/>
</svg>
