<svg xmlns="http://www.w3.org/2000/svg" width="24" height="24" viewBox="0 0 141.7 141.7"><path d="m77.7 26.2v-13.5c0-3-2.4-5.4-5.4-5.4s-5.4 2.4-5.4 5.4v13.4c1.8-.2 3.5-.3 5.4-.3s3.7.2 5.4.4z"/><path d="m109 43.6 24.1-24.1c2.1-2.1 2.1-5.5 0-7.6s-5.5-2.1-7.6 0l-24.1 24.1c2.8 2.2 5.4 4.8 7.6 7.6z"/><path d="m35.7 101.7-22.7 22.7c-2.1 2.1-2.1 5.5 0 7.6 1.1 1 2.4 1.6 3.8 1.6s2.7-.5 3.8-1.6l22.7-22.7c-2.8-2.3-5.3-4.8-7.6-7.6z"/><path d="m25.9 67.3h-13.4c-3 0-5.4 2.4-5.4 5.4s2.4 5.3 5.4 5.3h13.4c-.2-1.8-.3-3.6-.3-5.4s.1-3.6.3-5.3z"/><path d="m43.3 36-22.7-22.8c-2.1-2.1-5.5-2.1-7.6 0s-2.1 5.5 0 7.6l22.7 22.7c2.3-2.7 4.8-5.3 7.6-7.5z"/><path d="m112.5 68.9-18.2 18.2 13.2 13.2 26.6-26.6v-26.5z"/><path d="m47 134.4h26.4l26.6-26.5-13.3-13.3-18.1 18.2z"/><path d="m88.6 134.4h37.9l-19-18.9z"/><path d="m134.1 126.9v-38l-19 19z"/><path d="m99.8 52.8c-2.1-2.9-4.7-5.5-7.6-7.6-4.2-3-9.1-5.2-14.5-6-1.8-.3-3.5-.4-5.4-.4-1.8 0-3.6.2-5.4.4-5.3.9-10.3 3-14.5 6-2.9 2.1-5.5 4.7-7.6 7.6-3 4.2-5.2 9.1-6 14.5-.3 1.8-.4 3.5-.4 5.4s.2 3.6.4 5.4c.9 5.3 3 10.3 6 14.5 2.1 2.9 4.7 5.5 7.6 7.6 1.7 1.2 3.5 2.3 5.3 3.2l45.3-45.3c-.9-1.8-2-3.6-3.2-5.3z"/></svg>