<svg xmlns="http://www.w3.org/2000/svg" width="144" height="144" viewBox="0 0 144 144">
<svg id="airport" width="24" height="24" viewBox="0 0 141.7 141.7" x="0" y="0"><path d="m73.3 129.3 20.2 5.4-1.3-8.7-16.7-12.8 1.5-23.5c.2-6.5-.9-14.3 4.6-14.3 2.2 0 5.2.9 7.2 1.5l13.2 3.7 31.2 14.1v-3.3c0-2.2.6-5.8-1.3-7.4-.9-1.5-3.7-3.3-5.2-4.4l-48.4-36v-3.9l-1.3-19.1c-.5-3.5-.7-13.5-6.1-13.5s-5.6 10-6.1 13.5l-1.3 19v3.9l-48.5 36c-1.5 1.1-4.1 3-5.2 4.4-1.9 1.7-1.3 5.2-1.3 7.4v3.3l31.2-14.1 13.4-3.7c2-.5 4.8-1.5 7.1-1.5 5.6 0 4.4 7.8 4.6 14.3l1.5 23.4-16.7 12.8-1.3 8.7 20.2-5.4h4.8z"/></svg>
<svg id="attraction" width="24" height="24" viewBox="0 0 141.7 141.7" x="24" y="0"><path d="m55.7 56.7h-48.6l38.8 28.1-15.1 45.2 39.4-28 39.4 28.4-15.1-45.3 40.1-28h-48.6l-15.4-45.7z"/></svg>
<svg id="car_charge_point" width="24" height="24" viewBox="0 0 141.7 141.7" x="48" y="0"><path d="m126 70.6c0-7.4-5.4-13.5-12.5-15.1v-6.5c0-11.9-9.7-21.6-21.6-21.6h-7.1v-2.6c0-9.8-8-17.8-17.8-17.8h-22.9c-9.8 0-17.8 8-17.8 17.8v96.8h-4.1c-3.6 0-6.5 2.9-6.5 6.5s2.9 6.5 6.5 6.5h4.1 58.5 4.1c3.6 0 6.5-2.9 6.5-6.5s-2.9-6.5-6.5-6.5h-4.1v-86.6h7.1c7.7 0 14 6.3 14 14v6.5c-7 1.7-12.2 7.8-12.2 15v4.6h6.9v10.3c0 1.5 1.2 2.7 2.7 2.7s2.7-1.2 2.7-2.7v-10.2h7.7v10.3c0 1.5 1.2 2.7 2.7 2.7s2.7-1.2 2.7-2.7v-10.3h6.9z"/><path d="m42.3 104.6v-6.8h26.4v6.8z" fill="#fff"/><path d="m75.2 66.7c0 4.9-4 8.9-8.9 8.9h-21.5c-4.9 0-8.9-4-8.9-8.9v-39c0-4.9 4-8.9 8.9-8.9h21.6c4.9 0 8.9 4 8.9 8.9v39z" fill="#fff"/><path d="m52.2 57v-9.8h-9.9v-6.8h9.9v-9.8h6.6v9.8h9.9v6.8h-9.9v9.8z"/></svg>
<svg id="car_park1" width="24" height="24" viewBox="0 0 141.7 141.7" x="72" y="0"><path d="m32.5 121v-100.2h32.5c12.3 0 20.3.5 24.1 1.5 5.7 1.5 10.5 4.8 14.4 9.8s5.8 11.5 5.8 19.5c0 6.2-1.1 11.3-3.3 15.5s-5.1 7.5-8.5 9.9-6.9 4-10.5 4.8c-4.8 1-11.8 1.4-21 1.4h-13.3v37.8zm20.2-83.3v28.4h11.1c8 0 13.3-.5 16-1.6 2.7-1 4.8-2.7 6.3-4.9s2.3-4.8 2.3-7.8c0-3.6-1.1-6.7-3.2-9-2.1-2.4-4.9-3.9-8.1-4.4-2.4-.5-7.3-.7-14.6-.7z"/></svg>
<svg id="car_park2" width="24" height="24" viewBox="0 0 141.7 141.7" x="96" y="0"><path d="m77.1 38.4c-2.4-.5-7.3-.7-14.6-.7h-9.8v28.4h11.1c8 0 13.3-.5 16-1.6 2.7-1 4.8-2.7 6.3-4.9s2.3-4.8 2.3-7.8c0-3.6-1.1-6.7-3.2-9-2.2-2.3-4.9-3.8-8.1-4.4z"/><path d="m7.1 7.1v127.6h127.6v-127.6zm98.8 60c-2.2 4.2-5.1 7.5-8.5 9.9s-6.9 4-10.5 4.8c-4.8 1-11.8 1.4-21 1.4h-13.2v37.8h-20.2v-100.2h32.5c12.3 0 20.3.5 24.1 1.5 5.7 1.5 10.5 4.8 14.4 9.8s5.8 11.5 5.8 19.5c0 6.1-1.2 11.3-3.4 15.5z"/></svg>
<svg id="castle" width="24" height="24" viewBox="0 0 141.7 141.7" x="120" y="0"><path d="m120.3 123.5v-96.4h-14.5v18.9h-12.2v-18.9h-13.3v16.6h-14.4v-36.6h-13.3v18.9h-15.6v-18.9h-15.5l-.1 116.1-8.7 3.7v7.8h116.5v-7.8zm-61.5-6.6h-26.5v-36.4-.1c.3-7 6.1-12.6 13.2-12.6 7 0 12.7 5.4 13.2 12.3l.1.2z"/></svg>
<svg id="cathedral" width="24" height="24" viewBox="0 0 141.7 141.7" x="0" y="24"><path d="m76.4 59.3h16.5c1.9 4.7 6.6 7.7 11.9 7.7 7.2 0 13.1-5.9 13.1-13.1s-5.9-13.1-13.1-13.1c-5.3 0-9.8 3-11.9 7.5h-16.5v-16.4c4.7-1.9 7.7-6.6 7.7-11.7 0-7.4-5.8-13.1-13.1-13.1-7.2 0-13.3 5.8-13.3 13.1 0 5.1 3.2 9.6 7.8 11.7v16.3h-16.5c-2.1-4.5-6.7-7.5-11.9-7.5-7.2 0-13.3 5.9-13.3 13.1s6.1 13.1 13.3 13.1c5.1 0 9.6-3 11.9-7.7h16.5v50.2c-4.6 2.1-7.8 6.6-7.8 11.9 0 7.4 6.1 13.3 13.3 13.3 7.4 0 13.1-5.9 13.1-13.3 0-5.3-3-9.5-7.7-11.9z"/></svg>
<svg id="coniferous_tree" width="24" height="24" viewBox="0 0 141.7 141.7" x="24" y="24"><path d="m112.4 115.9c.5-1.5.5-2.6 0-3.4-14.9-10.3-27.9-28.4-38.6-47.1v-40.2c9.2 13.6 17.3 21.6 27.5 27.4 1.8 1.1 2.7-3.6 1.8-4.2-10.8-6.9-22.9-21.8-30-37.3-.3-1-.8-1.8-1.8-4-1.1 2.3-1.5 3.1-1.8 4-6.8 16.1-19.1 30.4-29.9 37.3-1.3.8 0 2.1.2 2.9 0 .8.3 1.9 1.5 1.3 10-5.6 18.1-13.5 27.3-27.1v39.9c-10.8 18.7-24.1 37-38.9 47.1-1.9 1.3.5 5.5 2.6 4.7 8.4-6 20.5-16.1 36.7-41.2l-.8 31.5-1.3 27.1h9.1l-1.8-27.1-.7-31.5c16.1 25.2 28.6 35.4 37 41.2 1.1.6 1.5-.5 1.8-1.1z"/></svg>
<svg id="country_park" width="24" height="24" viewBox="0 0 141.7 141.7" x="48" y="24"><path d="m91.4 50.7-20.5 20.6-20.6-20.6 20.6-20.6zm-73-31.9h-11.3l33.4 33.4v71.5h12.9v-58.6l10.8 10.8v47.8h13.4v-47.8l11.3-11.3v59.2h12.3v-71.5l33.4-33.4h-11.3l-26.2 26.2-26.2-26.3-26.3 26.3zm19 7.1c0 4.3 3.6 7.9 7.9 7.9 4.5 0 7.9-3.6 7.9-7.9s-3.4-7.9-7.9-7.9c-4.3 0-7.9 3.6-7.9 7.9zm52.5 0c0 4.3 3.4 7.9 7.9 7.9 4.3 0 7.9-3.6 7.9-7.9s-3.6-7.9-7.9-7.9c-4.5 0-7.9 3.6-7.9 7.9zm-26.9 24.5c0 4.5 3.6 7.9 7.9 7.9 4.5 0 7.9-3.4 7.9-7.9 0-4.3-3.4-7.9-7.9-7.9-4.3 0-7.9 3.6-7.9 7.9z"/></svg>
<svg id="cycle" width="24" height="24" viewBox="0 0 141.7 141.7" x="72" y="24"><path d="m111.7 59.4c-4 0-7.7 1-11 2.8-4.2-4.8-7.6-8.8-7.6-8.8l3.7-3.7h6.3c3.7 0 3.7-7.2 0-7.2h-17.7c-3 0-3.3 7.2 0 7.2l1.4 1.5-35.7.1 6.1-8.8h5.9v-6.1h-12.8l-.4 3.4-11.5 21.2c-2.6-1-5.4-1.6-8.4-1.6-12.7 0-23 10.3-23 23s10.3 23 23 23 23-10.3 23-23c0-7.6-3.7-14.3-9.4-18.5l3.6-5.7 18.7 27.8h23.1c1.8 10.9 11.2 19.3 22.6 19.3 12.7 0 23-10.3 23-23 0-12.6-10.2-22.9-22.9-22.9zm-65.6 23c0 8.9-7.2 16.1-16.1 16.1s-16-7.3-16-16.1 7.2-16.1 16-16.1c1.8 0 3.5.3 5.1.8l-5.6 10.3c-2.5.3-4.5 2.4-4.5 5 0 2.8 2.3 5 5 5 2.8 0 5-2.3 5-5 0-1.2-.4-2.2-1.1-3.1l6-9.5c3.8 2.9 6.2 7.4 6.2 12.6zm8.2-24.2h27.1s-12.7 21.5-12.4 21.5zm34-1 7.5 8.6c-3.9 3.7-6.5 8.7-7 14.4l-13.3-.1zm12.1 13.7 8.2 9.3-12.8-.1c.5-3.5 2.2-6.8 4.6-9.2zm11.3 27.5c-7.6 0-14-5.3-15.6-12.4h19s3.8-3.1-.1-7.5c-1.6-1.8-5.5-6.3-9.6-11 1.9-.8 4.1-1.3 6.3-1.3 8.9 0 16.1 7.2 16.1 16.1s-7.2 16.1-16.1 16.1z"/></svg>
<svg id="eating_drinking_venue" width="24" height="24" viewBox="0 0 141.7 141.7" x="96" y="24"><path d="m117.5 120.2c-3.1-3.8-35.6-43.1-41.4-50l.1-.1 9.6-13.9 10.2 1.2s.8.2 2.5-1.8 22.1-30.4 22.1-30.4 1.3-4.9-3.3-3.3c-2.4 2.6-20.7 26.6-20.7 26.6s-1.9 2-4.3 0c-1.9-1.7-.1-3.7-.1-3.7s20.2-27.3 20.2-27.3c.4-.7.6-5-3.3-3.3-3.3 3.7-20.8 26.9-20.8 26.9s-1.5 2-3.8.1c-1.8-1.8-.7-3.8-.7-3.8s19.6-26.7 19.6-26.8c.6-.6 1.1-5.7-3.4-2.6l-23.4 30s-.9.7-.3 2.4c.5 1.7 3.6 10 3.6 10l-7.9 9.6-1.9 2.3-1.3-1.8-7.7-9.1s7.3-13.3-6-26.5c-11.7-11.5-23.1-19.1-30.5-15.2-7.1 4.4-.1 24.7 1.8 27.9.7 1.2 4.7 10.8 12.3 16.7 7.9 5.5 16.4 2.4 16.4 2.4l9 12.8-41.9 51.9s-3.9 6.1 1.4 9.7c5.3 3.9 7 1.8 10.3-1.2 1.2-1.4 35.7-50.8 35.7-50.8l.6-.8.9 1.4 38.4 52.8s4.1 4.7 8.6.1c4.5-4.5 2.8-8.2-.6-12.4z"/></svg>
<svg id="london_underground" width="24" height="24" viewBox="0 0 141.7 141.7" x="120" y="24"><path d="m135.5 61.1h-13.2c-4.6-24.2-25.9-42.6-51.5-42.6s-46.8 18.4-51.4 42.6h-13.2v19.9h13.3c4.7 24 25.9 42.1 51.3 42.1s46.6-18.2 51.3-42.2h13.3v-19.8zm-64.6-23.7c15.1 0 27.9 10 32.1 23.7h-64.3c4.2-13.8 17-23.7 32.2-23.7zm0 67.1c-15 0-27.7-9.8-32-23.4h64c-4.3 13.4-17.1 23.4-32 23.4z"/></svg>
<svg id="mast" width="24" height="24" viewBox="0 0 141.7 141.7" x="0" y="48"><path d="m72.4 24.8 1.2-8.2 15.2-1.6 2.5 8.7 39.3-9.5-32.4.8-2.5-7.9-24.9 3.3-1.8 11.9-12.4 1.7-2.1-9-43.4 6.6 36.7 1.2 1.8 8.7 20.9-2.1-19.4 105.2h42.3zm-.3 45.2 9.9 56.4h-19.8z"/></svg>
<svg id="non_coniferous_tree" width="24" height="24" viewBox="0 0 141.7 141.7" x="24" y="48"><path d="m67.4 98.3v36.3h7.1v-36.3zm3.6-85.4c11.1 0 21.7 7.1 21.7 21.9 0 4.6 1.2 5.8 5.8 5.8h2.5c8.8 0 14.6 7.6 14.6 14.6 0 3 .5 4.8-3.5 9.5-3 4.6-1.8 7.9 3.5 9.4 6.5 1.6 11.8 7.6 11.8 15.3 0 8.8-6 16.9-17.1 16.9-7.1 0-8.3.7-15.3-3.5-2.8-1.8-3.5-2.3-4.1-2.8-1.2-1.2-2.3-2.5-3-3.5l-4.1 4.1c1.2 1.2 3 4.8 8.3 7.6 5.3 3 9.9 4.2 18.2 4.2 12.4 0 22.9-10.1 22.9-22.9 0-10.1-7.1-18.9-16.4-21.2 2.8-3.5 4.6-7.8 4.6-13.1 0-11.1-9.4-20.5-20.5-20.5h-2.5c.1-15.3-11.6-27.6-27.4-27.6-15.9 0-27.7 12.4-27.7 27.7h-2.3c-11.3 0-20.6 9.4-20.6 20.5 0 5.3 1.8 9.5 4.8 13.1-9.6 2.2-16.7 11-16.7 21.1 0 12.9 10.6 22.9 22.9 22.9 8.3 0 13.1-1.2 18.3-4.2 5.3-2.8 7.1-6.4 7.6-7.6l-4.1-4.1c-.7 1.1-1.2 2.3-2.5 3.5-.5.5-1.1 1.1-4.1 2.8-7.1 4.2-8.3 3.5-15.3 3.5-11.1 0-16.9-8.1-16.9-16.9 0-7.8 5.3-13.8 11.6-15.3 5.3-1.4 6.5-4.8 3.5-9.4-4.1-4.8-3.5-6.5-3.5-9.5 0-7.1 6-14.6 14.8-14.6h2.3c4.8 0 5.8-1.2 5.8-5.8.2-14.8 10.8-21.9 22.1-21.9z"/></svg>
<svg id="orchard_tree" width="24" height="24" viewBox="0 0 141.7 141.7" x="48" y="48"><path d="m95.3 104.2c30.2 0 36.9-12.6 36.9-29 0-17.1-12.8-29.6-26.1-29.8 1-17.3-14.7-38.3-35.3-38.3-20.2 0-35.9 21-34.9 38.3-13.4.2-26.4 12.7-26.4 29.8 0 16.5 6.9 29.2 37.1 29.2v-7.7c-23.4 0-29.4-5.7-29.4-21.6 0-11 6.3-22.6 19.2-22.6 6.7 0 7.1-.8 6.9-7.7-.4-13.4 11.6-30.1 27.7-30.1s28 16.7 27.6 30.3c-.2 6.9.2 7.8 7.1 7.8 12.8 0 19 11.4 19 22.4 0 15.9-6.1 21.8-29.4 21.8zm-28.1 30.4h7.5v-36.5h-7.5z"/></svg>
<svg id="pin1" width="24" height="24" viewBox="0 0 141.7 141.7" x="72" y="48"><path d="m70.9 7.1c-24.8 0-44.9 16.5-44.9 48.4s44.9 79.1 44.9 79.1 44.9-47.2 44.9-79.1c-.1-31.9-20.2-48.4-44.9-48.4z"/></svg>
<svg id="pin2" width="24" height="24" viewBox="0 0 141.7 141.7" x="96" y="48"><path d="m70.9 7.1c-24.8 0-44.9 16.5-44.9 48.4s44.9 79.1 44.9 79.1 44.9-47.2 44.9-79.1c-.1-31.9-20.2-48.4-44.9-48.4z"/><path d="m105.3 52.6c0 19-15.4 34.4-34.4 34.4s-34.4-15.4-34.4-34.4 15.4-34.4 34.4-34.4 34.4 15.4 34.4 34.4" fill="#fff"/></svg>
<svg id="pin3" width="24" height="24" viewBox="0 0 141.7 141.7" x="120" y="48"><path d="m70.9 7.1c-24.8 0-44.9 16.5-44.9 48.4s44.9 79.1 44.9 79.1 44.9-47.2 44.9-79.1c-.1-31.9-20.2-48.4-44.9-48.4z"/><path d="m98.4 52.6c0 15.2-12.3 27.5-27.5 27.5s-27.6-12.3-27.6-27.5 12.4-27.6 27.6-27.6 27.5 12.4 27.5 27.6" fill="#fff"/></svg>
<svg id="place_of_worship" width="24" height="24" viewBox="0 0 141.7 141.7" x="0" y="72"><path d="m60.2 60.2h-53.1v21.3h53.1v53.1h21.3v-53.1h53.1v-21.3h-53.1v-53.1h-21.3z"/></svg>
<svg id="place_of_worship_spire" width="24" height="24" viewBox="0 0 141.7 141.7" x="24" y="72"><path d="m65.4 61.9c-17.6 2.6-31.1 17.6-31.1 36.1 0 20.2 16.3 36.6 36.6 36.6 20.2 0 36.6-16.3 36.6-36.6 0-18.3-13.5-33.5-31.1-36.1v-25.9h27.2v-10.8h-27.3v-18.1h-10.9v18.1h-27.2v10.8h27.2z"/></svg>
<svg id="place_of_worship_tower" width="24" height="24" viewBox="0 0 141.7 141.7" x="48" y="72"><path d="m76.5 67.5v-30.6h27.9v-11.2h-27.9v-18.6h-11.2v18.6h-28v11.2h28v30.6h-28v67.1h67.1v-67.1z"/></svg>
<svg id="places_to_stay" width="24" height="24" viewBox="0 0 141.7 141.7" x="72" y="72"><path d="m121.5 37.2v44.9h-101.2v-61.8h-13.2v101.1h13.2v-22.5h101.2v22.6h13.2v-84.3zm-12 6.5h-49v26h49zm-67.3 27.6c7.1 0 12.8-7.3 12.8-16.4s-5.8-16.4-12.9-16.4-12.9 7.4-12.9 16.4c.1 9.1 5.9 16.4 13 16.4z"/></svg>
<svg id="public_convenience" width="24" height="24" viewBox="0 0 141.7 141.7" x="96" y="72"><path d="m45.6 33.8c0 9.7-7.8 17.5-17.5 17.5-9.7 0-17.5-7.8-17.5-17.5 0-9.7 7.8-17.5 17.5-17.5 9.7 0 17.5 7.9 17.5 17.5z"/><path d="m66.1 7.1h9v127.6h-9z"/><path d="m96.1 33.8c0 9.7 7.8 17.5 17.5 17.5 9.7 0 17.5-7.8 17.5-17.5 0-9.7-7.8-17.5-17.5-17.5-9.6 0-17.5 7.9-17.5 17.5z"/><path d="m49.1 68.8c0-4.7-3.8-8.5-8.5-8.5h-25c-4.7 0-8.5 3.8-8.5 8.5v32.5h10.8l2.2 33.3h16l2.2-33.3h10.8z"/><path d="m134.6 118.2-6-49.4c0-4.7-3.8-8.5-8.5-8.5h-13c-4.7 0-8.5 3.8-8.5 8.5l-6 49.4h10.8l2.2 16.5h16l2.2-16.5z"/></svg>
<svg id="riding" width="24" height="24" viewBox="0 0 141.7 141.7" x="120" y="72"><path d="m45.3 68.6c-7.5-4.3-17.4-2.2-23.5 5.4-3.6 4.6-5.2 10.2-4.7 15.5.2 1.9.7 3.7 1.3 5.4 1.6 4 4.5 7.3 8.5 9.3 1 .5 1.9.8 2.9 1.1 1.7.5 3.4.7 5.2.6 5.3-.2 10.6-2.8 14.4-7.6 4.5-5.6 5.8-12.9 4-19.1-.2-.6-.4-1.3-.7-1.9-.5-1.3-1.2-2.6-2.1-3.8l-3.7 5.3-.3.5-3 4.2-4.6 4.7s-.7.9-1.8 1.2c-1.5.2-2.8-1.5-3.3-2.7s1.3-3 1.3-3 1.1-1.4 1.8-2.3l.6-.8c.6-.6 1.6-2.1 1.6-2.1l3.4-5.4s1.3-2.1 2.8-4.4zm40.3 15.7c-1.5.8-1 .7-1.5 2.5 0 0-.2.8-.7 1-.5.3-.5.8-.7 1.1-.1.3-.8.6-1.4 1.1-.1.1.1.3-.8.6-.8.3-1.7 1.2-2 1.6-.3.3-.9 1.5.1 2 .8.4 2.1.6 2.4.7l-.5.7c-.5-.3-1-.5-1.5-.6-.4-.1-.8-.2-1.3-.2l-12.2-32.5 18.8 15.4c.2.5.4.9.4 1.1.1.8 1.1 3.1 1.1 3.1s-.1 0-.1.4.4 1.1.4 1.1l-.1.6zm16.5 20c-.2.2-.3.4-.4.6l-13.3-3.2c.3-.9.6-1.8 1.1-2.7.1-.2.2-.4.3-.6l.3-.5c1.4-2.6 3.2-4.7 5.3-6.3zm8.9-.2c1.2 1.4 1.7 3.4 1.2 5.3-.8 3.1-4 4.9-7 4-.7-.2-1.4-.6-2-1-.9-.8-1.5-1.6-1.9-2.6v-.1l-13.8-3.3v.1c-.4 5.9 1.6 11.9 6.1 15.8 3 2.7 6.7 4.1 10.4 4.2 2.8.1 5.7-.6 8.4-1.8 3.9-1.9 7.3-5.2 9.4-9.6.6-1.2 1-2.4 1.4-3.6.6-2 .8-4.1.7-6.1-.2-5.1-2.3-10-6.2-13.4s-8.8-4.7-13.5-4.1c-1.7.2-3.3.7-4.9 1.5l6.8 12.8c1.7-.4 3.3.3 4.9 1.9zm-23.9-41.2c-1.1 0-1.2.3-1.2.3s1.5 2.1 2.2 3.3c.6 1.2.9 3.4 1 4.5s.9 4.7.9 4.7c1.1-1.7 1.5-2 2.8-3.5 1.5-1.6 2.6-3.2 4.1-4.7.5-.5.9-.9 1.2-1.2.9-1.1 1.4-2.2 1.1-2.3-3.3-1.1-8.7-1.2-12.1-1.1zm-29.8-10h-.8l-.7-.2-.4-.4-.7-1.2-1-.9-.7-1.1-.5-1.4-1.1-2.3v-1.3l.9-.4 1.1-.3 1.6-.2 1.4 1.2 2.4.4 1 .2.6.1 1.8 1 2.6.1 2.2-.3 6.1-1.5 6.5-2.1.6-.3 1-5.3-.3-1.5-.5-2.5-.3-1.4.1-1.2.7-1.5c0-.2.3-.4.5-.6-.1-.3-.2-.6-.2-.7-.8-.2-1.9-.3-2.2-.7s-.2-1-.1-1.5-.4-.8-.3-1.1c0-.3.3-.5.3-.5l.4-.4s-.3-.2-.4-.2-.4-.1-.5-.5c-.1-.2.2-.4.2-.7.1-.3.1-.5.1-.5s-.6 0-.9-.3c-.2-.2-.3-.4-.1-.8.7-1.1.6-.9.9-1.4.4-.8.1-1.3.1-1.6 0-.2 0-.4 0-.6-.2-.2-.6-.4-.8-.6-.4-.3-.9.2-.6-1.2 1.3-6.1 6.7-7.9 12.1-6.8 2.1.4 5.5 1.8 5.5 2.3 0 .6-.5 1.1-.5 1.5s1.3.2 1.4.6c.2.4-.8 1-.7 1.3s.8.5.7.9-.6 3.5-1.1 4.1l-.7 2.5c-.7 2.2 1.8 1.4 4.4 3 6.2 3.8 6.7 4.9 10.3 10 .7 1 1.3 1.9 1.8 2.4 1.7 1.8 4.3 5.3 5.4 7.3.5.8.9 1.5 1.3 2.2 3.5 5.7 4 11.7.3 17.7-1.6 2.7-4.4 4.3-7.6 5.8-1.2.6-4.3 3.4-4.5 3.8-.4.6-4.3 3.4-4.8 3.7 0 0-1.5.9-2.4 1.5s-2.5 2-2.8 2.5-.9 1.5-1 1.8c0 .1-.1.2-.2.5.1.1.3.2.4.3 8.4-4.5 18.9-4 26.6 2.8 4.1 3.7 6.8 8.6 7.9 14.1 1.5 7.8-.6 16.1-5.5 22.2-2.1 2.6-4.5 4.7-7.2 6.3h17.7v4.2l-127 .6v-20.3l4.5-.6c.7-.4 1.5-.9 3-1.9.8-.5 1.5-.9 2.2-1.4 1.1-.7 2.4-1.3 3.6-1.9-.4-.3-.8-.6-1.2-1-10.7-9.4-10.8-25.9-2.2-36.8 7.9-9.8 21.4-13 31.9-6.6.2-.2.3-.4.4-.5s.2-.2.3-.2l.3-.2c.2-.1.4-.2.5-.1zm24.3 59.7c0 .1 0 .3.1.4 1 5.5 3.7 10.4 7.9 14.1 1 .9 2.1 1.7 3.2 2.4h-.6c-7.5 0-21.2-1.1-27.6-3.5-5.4-2-9.3-3.7-14.9-6.9-2.5-1.4-4.9-2.8-7.4-4.2-2.2-1.3-3-1.4-4.4-2.6 6.2-.9 12.2-4.3 16.5-9.7 8.1-10.1 8.5-25.1 0-34.7l1.8-2.6s.3.4.5-.1.1-1.1.6-1.4.7-.6.7-1.1c0-.1 0-.2 0-.4l.3-.6.1-.2s.6-.3.9-.6l13.2 36c-.7.8-1.3 1.8-1.6 2.9-.4 1.6-.3 3.3.4 4.7-.2-.1-.5-.2-.7-.3-.4-.1-.6 0-.6 0h-.9s-1.4-.1-2.1-.3-1.7.3-1.9.8c-.3.7.1 1.7.1 1.7s2.1 1.6 2.7 2.1c.1.1.4.2.7.4-.1.3-.2 1.2.4 1.5.7.4 2.1 1.1 2.6 1 .4-.1.7-.5.8-.8.6.2 2.3.7 2.6.7.4 0 1.5.7 2.2 1.1s1.5.9 2.2 1c.4.1 1.8.7 2.1.2-.1-.3.1-.7.1-1zm-15.9-60-1.3.7c-.1 0-.2 0-.2-.1-.1.1-.4.2-.6.2l4.6 3.8 10.4 8.8c-.1-.1-.1-.2-.1-.3-.4-1.1-1.5-3.4-1.8-5.3-.3-1.8 1-3.5 1-3.5.3-.3 2-1.9 2.8-2.2 4-1.5 5.8-2.1 10-2.7 2.3-.3 5.2-.7 6.4-.7.4.1.2 0 .5-.4 0 0 .1-.1.2-.1-.3-.6-.4-1-.4-1.1l-4.3-4.9-1.8-5.2-3.9 7.5-1 .9-1.1.4-1.2.1-1.2.4-2.1.7-1.6.2-9.9 1.8z"/></svg>
<svg id="site_of_antiquity" width="24" height="24" viewBox="0 0 141.7 141.7" x="0" y="96"><path d="m117.8 53.5c-8.5 0-15.6 6.3-17 14.4h-27.2v-26.7c8.3-1.2 14.7-8.4 14.7-17-.1-9.5-7.8-17.2-17.3-17.2s-17.2 7.7-17.2 17.2c0 8.5 6.1 15.5 14.2 16.9v26.9h-26.8c-1.3-8.2-8.4-14.4-17-14.4-9.5-.1-17.2 7.7-17.2 17.1 0 9.5 7.7 17.3 17.2 17.3 8.5 0 15.6-6.3 17-14.4h26.8v26.8c-8.1 1.4-14.2 8.5-14.2 16.9 0 9.5 7.7 17.2 17.2 17.2s17.2-7.7 17.2-17.2c0-8.6-6.4-15.8-14.7-17v-26.8h27.2c1.3 8.2 8.4 14.4 17 14.4 9.5 0 17.2-7.7 17.2-17.2.1-9.4-7.6-17.2-17.1-17.2zm-58.4-29.3c0-6.4 5.2-11.6 11.6-11.6s11.6 5.2 11.6 11.6-5.2 11.6-11.6 11.6-11.6-5.2-11.6-11.6zm-35.2 58.2c-6.4 0-11.6-5.2-11.6-11.6s5.2-11.6 11.6-11.6 11.6 5.2 11.6 11.6-5.2 11.6-11.6 11.6zm58.4 34.9c0 6.4-5.2 11.6-11.6 11.6s-11.6-5.2-11.6-11.6 5.2-11.6 11.6-11.6 11.6 5.2 11.6 11.6zm35.2-34.9c-6.4 0-11.6-5.2-11.6-11.6s5.2-11.6 11.6-11.6 11.6 5.2 11.6 11.6-5.2 11.6-11.6 11.6z"/></svg>
<svg id="solar_farm" width="24" height="24" viewBox="0 0 141.7 141.7" x="24" y="96"><path d="m77.7 26.2v-13.5c0-3-2.4-5.4-5.4-5.4s-5.4 2.4-5.4 5.4v13.4c1.8-.2 3.5-.3 5.4-.3s3.7.2 5.4.4z"/><path d="m109 43.6 24.1-24.1c2.1-2.1 2.1-5.5 0-7.6s-5.5-2.1-7.6 0l-24.1 24.1c2.8 2.2 5.4 4.8 7.6 7.6z"/><path d="m35.7 101.7-22.7 22.7c-2.1 2.1-2.1 5.5 0 7.6 1.1 1 2.4 1.6 3.8 1.6s2.7-.5 3.8-1.6l22.7-22.7c-2.8-2.3-5.3-4.8-7.6-7.6z"/><path d="m25.9 67.3h-13.4c-3 0-5.4 2.4-5.4 5.4s2.4 5.3 5.4 5.3h13.4c-.2-1.8-.3-3.6-.3-5.4s.1-3.6.3-5.3z"/><path d="m43.3 36-22.7-22.8c-2.1-2.1-5.5-2.1-7.6 0s-2.1 5.5 0 7.6l22.7 22.7c2.3-2.7 4.8-5.3 7.6-7.5z"/><path d="m112.5 68.9-18.2 18.2 13.2 13.2 26.6-26.6v-26.5z"/><path d="m47 134.4h26.4l26.6-26.5-13.3-13.3-18.1 18.2z"/><path d="m88.6 134.4h37.9l-19-18.9z"/><path d="m134.1 126.9v-38l-19 19z"/><path d="m99.8 52.8c-2.1-2.9-4.7-5.5-7.6-7.6-4.2-3-9.1-5.2-14.5-6-1.8-.3-3.5-.4-5.4-.4-1.8 0-3.6.2-5.4.4-5.3.9-10.3 3-14.5 6-2.9 2.1-5.5 4.7-7.6 7.6-3 4.2-5.2 9.1-6 14.5-.3 1.8-.4 3.5-.4 5.4s.2 3.6.4 5.4c.9 5.3 3 10.3 6 14.5 2.1 2.9 4.7 5.5 7.6 7.6 1.7 1.2 3.5 2.3 5.3 3.2l45.3-45.3c-.9-1.8-2-3.6-3.2-5.3z"/></svg>
<svg id="sports_leisure" width="24" height="24" viewBox="0 0 141.7 141.7" x="48" y="96"><path d="m90.2 92.1c-14.1-10.9-16.4-19.4-16.5-26.9-.2-7.5 5.1-8.1 5.1-8.1l34.4-30.9-7.7-7.6s-25.8 22.3-26.8 23.2c-13.6 8.7-23.3 3.8-23.3 3.8l-22.9-27-7.8 7.6s15.3 20.7 23.2 31c11.5 9.3 4 30.6 4 30.6l-4 46.8h11.5s3.5-34.7 3.9-39.1c5-8.4 12.8-.2 12.8-.2l37.2 19.9 3.6-7.8c0 .1-13.3-7.6-26.7-15.3zm-26.8-59.3c7.1 0 12.8-5.8 12.8-12.9s-5.7-12.9-12.8-12.9-12.8 5.8-12.8 12.9c0 7.2 5.7 12.9 12.8 12.9z"/></svg>
<svg id="theme_park" width="24" height="24" viewBox="0 0 141.7 141.7" x="72" y="96"><path d="m133.1 23.5h-37.8l-24.5-16.4-24.6 16.4h-37.6l3.3 13.1h52.3v26.3c-3.7-.3-6.7.3-9.7-.2-4.8-.8-9.4-8.6-16.4-13.1s-22.8 0-22.8 0-.8 1.3-.8 2.7-4.3 4.1-4.3 4.1 4-.5 6.5-.2c2.4.2 1.6 2.4 1.6 2.4s.2 3.8 0 5.7c-.2 1.8 1.6 6.4 1.6 6.4s-4.6 6.9-2.2 8.1c2.6 1.3 6.5.8 6.5-1.3s1.1-5.3 4.1-5.3c3 .2 5.3-3.5 8-3.5 2.6 0 2.1 4.5 2.1 4.5s.3 6.1 0 11.3c-.5 5.5-9.9 4.5-13.4 4.4-3.5-.2-3.8 5.4-3.8 5.4s.2 7.8 0 11.8c-.2 4.1 3.2 5.6 3.2 5.6h10.5v-6.5s-4.3.2-5.1-1.6c-2.1-4.5 1.8-7.8 1.8-7.8s12.4.2 14.2 0c1.9-.2 2.2-6.9 2.2-6.9l8.8-.3s2.2 2.6 7 3.5l.5.2v29.3h-52.4v13.1h117.7v-13.1h-52.3v-32.6l9.9-.2s-.2 2.6.8 4.6c1.1 2.1 5.7 2.2 5.7 2.2h12.3v8.8c0 3 4.3 5.9 4.3 5.9h9.4l.2-5.3s-2.4 0-5.3-1.6 1.8-7.8 1.6-11.6c-.2-4-6.1-2.7-9.4-3s-2.4-6.2-.8-8c1.6-1.9-.5-6.4.6-10.8 1-4.6 10.8-4.8 13.2-4.1 2.4.6-1 8.6-1 8.6s4.3-1.4 6.4-4.9c3.5-6.1 1.6-10.7-2.7-12.4-4.3-1.9-6.1 2.2-6.1 2.2l-13.1 6.5s-1.9-2.2-9.7-3.7c-7.8-1.4-16.4 3.7-16.4 3.7v-29.3h52.3zm-104.9 36.2c0 1.4-1.1 2.4-2.4 2.4-1.4 0-2.6-1-2.6-2.4 0-1.3 1.1-2.4 2.6-2.4 1.3 0 2.4 1.1 2.4 2.4z"/></svg>
<svg id="tourist_information" width="24" height="24" viewBox="0 0 141.7 141.7" x="96" y="96"><path d="m87.3 42.7c13.4-3.8 21.8-14.3 19.3-23.7-2.5-10-15.7-14.2-28.7-10.7-13 3.6-22.2 13.7-19.3 23.7 2.7 9.3 15.7 14.3 28.7 10.7z"/><path d="m55 134.6c11.3.2 28.1-12.9 33.1-19.4 5.9-6.9.1-10.4-3.7-7.3-8.6 6.7-15.1 1.3-12.2-5.7l18.7-45.1h-33.1l-21.4 48c-4.2 9.6-1.7 29.3 18.6 29.5z"/></svg>
<svg id="train_station" width="24" height="24" viewBox="0 0 141.7 141.7" x="120" y="96"><path d="m7.1 61.8c0-4.3 0-8.7 0-13 .4 0 .8.1 1.1.1h63.5c.4 0 .8-.1 1.1-.1-.4-.4-.7-.6-1.1-.8-10.3-4.5-20.7-9-31.1-13.5-3.4-1.5-6.7-3-10.1-4.5h30.9c.4.2.8.5 1.2.7l38.4 17.7c.7.3 1.6.5 2.4.5h29.8c.5 0 .9-.1 1.4-.1v13c-10.5 0-21.1 0-31.6 0-.6 0-1.2.2-1.7.4-10.5 5.1-21 10.1-31.4 15.2-.3.2-.6.4-.9.5 0 .1 0 .2.1.2h1.3 62.9 1.4v13.5c-.3 0-.6 0-.9 0-20.6 0-41.3 0-61.9 0-.3 0-.6 0-1.3.1.7.4 1.1.6 1.5.7 8.8 3.9 17.6 7.8 26.4 11.8 5.6 2.5 11.2 5.1 16.8 7.6-10.2 0-20.4 0-30.6 0-.3-.2-.5-.4-.9-.5-13.9-6.5-27.8-12.9-41.7-19.3-.6-.2-1.3-.4-2-.4-6.8 0-13.7 0-20.5 0-4.2 0-8.3 0-12.5 0 0-4.5 0-9 0-13.5h.4 30.6c.4 0 .9-.1 1.3-.3 11-5.1 21.9-10.3 32.9-15.4.2-.1.5-.3.9-.6-.5 0-.6 0-.8 0-21.8 0-43.6 0-65.3 0z"/></svg>
<svg id="walk" width="24" height="24" viewBox="0 0 141.7 141.7" x="0" y="120"><path d="m57.3 87.4h27.1s4.8-14 9.1-22.3c4.5-8.5 7.2-33 .8-41.8-6.4-8.7-12.6-16.2-23.5-16.2-10.7 0-17.1 7.5-23.4 16.3-6.4 8.8-3.5 33.3.8 41.8 4.3 8.2 9.1 22.2 9.1 22.2zm0 8.7h27.1s0 10.4 2.4 13.9c2.4 3.7 4 12.3-2.4 18.3-6.4 5.9-11.2 6.4-15.1 6.4h3.2c-4 0-8.8-.5-15.1-6.4-6.4-6.1-4.8-14.7-2.4-18.3 2.3-3.6 2.3-13.9 2.3-13.9z"/></svg>
<svg id="wind_turbine" width="24" height="24" viewBox="0 0 141.7 141.7" x="24" y="120"><path d="m69.1 134.6-3.7-71.9c1.6-1 2.8-2.9 2.8-4.9 0-3.2-2.6-5.8-5.7-5.8-3.3 0-5.8 2.6-5.8 5.8 0 2.2 1.2 4.1 3.1 5.1l-4 71.8h13.3z"/><path d="m27.3 97.9-.3-.4c-.5-2 0-4.5 1.5-7.4 3.1-6.3 9.9-12.8 14.7-16.5 4.3-3.3 9.7-9.4 11.3-11.2l.2-.3.2.3c.5.8 1 1.4 1.6 1.9.3.3.6.5 1 .7l.2.2-.1.3c-6.4 7.7-27.6 32.6-30.2 32.4z"/><path d="m103.7 71c-6.3-.4-13.4-2.6-17.9-4.5-5.1-2.1-13.7-3.8-15.3-4.2l-.4-.1.2-.3c.4-.8.7-1.6.9-2.3.1-.4.1-.9.1-1.3v-.3h.3c12.8 2.3 42.5 7.8 43.2 10v.2l-.2.3c-1.5 1.4-3.9 2.2-7.1 2.5-1.1.1-2.4.1-3.8 0z"/><path d="m58.2 49.6c-3.4-9.4-14.5-40.3-13-42.3l.1-.1h.3c2.1.6 4.1 2.3 5.8 5 3.9 5.9 6.2 15 7 21 .7 5.5 3.5 13.8 4 15.4l.1.3h-.4c-1 0-1.8.2-2.5.4-.4.2-.8.3-1.2.5l-.3.2z"/></svg>
</svg>