<svg xmlns="http://www.w3.org/2000/svg" width="24" height="24" viewBox="0 0 141.7 141.7"><path d="m133.1 23.5h-37.8l-24.5-16.4-24.6 16.4h-37.6l3.3 13.1h52.3v26.3c-3.7-.3-6.7.3-9.7-.2-4.8-.8-9.4-8.6-16.4-13.1s-22.8 0-22.8 0-.8 1.3-.8 2.7-4.3 4.1-4.3 4.1 4-.5 6.5-.2c2.4.2 1.6 2.4 1.6 2.4s.2 3.8 0 5.7c-.2 1.8 1.6 6.4 1.6 6.4s-4.6 6.9-2.2 8.1c2.6 1.3 6.5.8 6.5-1.3s1.1-5.3 4.1-5.3c3 .2 5.3-3.5 8-3.5 2.6 0 2.1 4.5 2.1 4.5s.3 6.1 0 11.3c-.5 5.5-9.9 4.5-13.4 4.4-3.5-.2-3.8 5.4-3.8 5.4s.2 7.8 0 11.8c-.2 4.1 3.2 5.6 3.2 5.6h10.5v-6.5s-4.3.2-5.1-1.6c-2.1-4.5 1.8-7.8 1.8-7.8s12.4.2 14.2 0c1.9-.2 2.2-6.9 2.2-6.9l8.8-.3s2.2 2.6 7 3.5l.5.2v29.3h-52.4v13.1h117.7v-13.1h-52.3v-32.6l9.9-.2s-.2 2.6.8 4.6c1.1 2.1 5.7 2.2 5.7 2.2h12.3v8.8c0 3 4.3 5.9 4.3 5.9h9.4l.2-5.3s-2.4 0-5.3-1.6 1.8-7.8 1.6-11.6c-.2-4-6.1-2.7-9.4-3s-2.4-6.2-.8-8c1.6-1.9-.5-6.4.6-10.8 1-4.6 10.8-4.8 13.2-4.1 2.4.6-1 8.6-1 8.6s4.3-1.4 6.4-4.9c3.5-6.1 1.6-10.7-2.7-12.4-4.3-1.9-6.1 2.2-6.1 2.2l-13.1 6.5s-1.9-2.2-9.7-3.7c-7.8-1.4-16.4 3.7-16.4 3.7v-29.3h52.3zm-104.9 36.2c0 1.4-1.1 2.4-2.4 2.4-1.4 0-2.6-1-2.6-2.4 0-1.3 1.1-2.4 2.6-2.4 1.3 0 2.4 1.1 2.4 2.4z"/></svg>