<?xml version="1.0" encoding="utf-8"?>
<!-- Generator: Adobe Illustrator 17.1.0, SVG Export Plug-In . SVG Version: 6.00 Build 0)  -->
<!DOCTYPE svg PUBLIC "-//W3C//DTD SVG 1.1//EN" "http://www.w3.org/Graphics/SVG/1.1/DTD/svg11.dtd">
<svg version="1.1" id="Layer_1" xmlns="http://www.w3.org/2000/svg" xmlns:xlink="http://www.w3.org/1999/xlink" x="0px" y="0px"
	 viewBox="0 0 141.7 141.7" enable-background="new 0 0 141.7 141.7" xml:space="preserve">
<g>
	<g>
		<path d="M7.1,61.8c0-4.3,0-8.7,0-13c0.4,0,0.8,0.1,1.1,0.1c21.2,0,42.3,0,63.5,0c0.4,0,0.8-0.1,1.1-0.1c-0.4-0.4-0.7-0.6-1.1-0.8
			C61.4,43.5,51,39,40.6,34.5c-3.4-1.5-6.7-3-10.1-4.5c10.3,0,20.6,0,30.9,0c0.4,0.2,0.8,0.5,1.2,0.7c12.8,5.9,25.6,11.8,38.4,17.7
			c0.7,0.3,1.6,0.5,2.4,0.5c9.9,0,19.9,0,29.8,0c0.5,0,0.9-0.1,1.4-0.1c0,4.3,0,8.7,0,13c-10.5,0-21.1,0-31.6,0
			c-0.6,0-1.2,0.2-1.7,0.4c-10.5,5.1-21,10.1-31.4,15.2c-0.3,0.2-0.6,0.4-0.9,0.5c0,0.1,0,0.2,0.1,0.2c0.4,0,0.9,0,1.3,0
			c21,0,41.9,0,62.9,0c0.5,0,0.9,0,1.4,0c0,4.5,0,9,0,13.5c-0.3,0-0.6,0-0.9,0c-20.6,0-41.3,0-61.9,0c-0.3,0-0.6,0-1.3,0.1
			c0.7,0.4,1.1,0.6,1.5,0.7c8.8,3.9,17.6,7.8,26.4,11.8c5.6,2.5,11.2,5.1,16.8,7.6c-10.2,0-20.4,0-30.6,0c-0.3-0.2-0.5-0.4-0.9-0.5
			C69.9,104.8,56,98.4,42.1,92c-0.6-0.2-1.3-0.4-2-0.4c-6.8,0-13.7,0-20.5,0c-4.2,0-8.3,0-12.5,0c0-4.5,0-9,0-13.5
			c0.1,0,0.3,0,0.4,0c10.2,0,20.4,0,30.6,0c0.4,0,0.9-0.1,1.3-0.3c11-5.1,21.9-10.3,32.9-15.4c0.2-0.1,0.5-0.3,0.9-0.6
			c-0.5,0-0.6,0-0.8,0C50.6,61.8,28.8,61.8,7.1,61.8z" fill="param(fill)" fill-opacity="param(fill-opacity)" stroke="param(outline)" stroke-opacity="param(outline-opacity)" stroke-width="param(outline-width)"/>
	</g>
</g>
</svg>
