<?xml version="1.0" encoding="utf-8"?>
<!-- Generator: Adobe Illustrator 28.1.0, SVG Export Plug-In . SVG Version: 6.00 Build 0)  -->
<svg version="1.1" id="Layer_1" xmlns="http://www.w3.org/2000/svg" xmlns:xlink="http://www.w3.org/1999/xlink" x="0px" y="0px"
	 width="24px" height="24px" viewBox="0 0 24 24" style="enable-background:new 0 0 24 24;" xml:space="preserve">
<style type="text/css">
	.st0{fill-rule:evenodd;clip-rule:evenodd;fill:#231F20;}
</style>
<path class="st0" d="M14,6.8c-1.1-0.2-1.3-0.2-2-0.2c-0.7,0-1,0-2,0.2l2,8.6L14,6.8z M6.8,8c-1,0.5-1.1,0.7-1.6,1.1
	c-0.5,0.4-0.8,0.7-1.4,1.4l7.1,5.4L6.8,8z M2.1,13.5c-0.4,1-0.4,1.3-0.5,1.9c-0.1,0.7-0.2,1-0.2,2l8.9-0.4L2.1,13.5z M22.6,17.4
	c0-1.1,0-1.3-0.2-2c-0.1-0.6-0.2-1-0.5-1.9l-8.2,3.4L22.6,17.4z M20.2,10.5c-0.7-0.9-0.9-1-1.4-1.4C18.3,8.7,18,8.5,17.2,8l-4.1,7.9
	L20.2,10.5z"/>
</svg>
