<?xml version="1.0" encoding="utf-8"?>
<!-- Generator: Adobe Illustrator 16.0.3, SVG Export Plug-In . SVG Version: 6.00 Build 0)  -->
<!DOCTYPE svg PUBLIC "-//W3C//DTD SVG 1.1//EN" "http://www.w3.org/Graphics/SVG/1.1/DTD/svg11.dtd">
<svg version="1.1" id="Layer_1" xmlns="http://www.w3.org/2000/svg" xmlns:xlink="http://www.w3.org/1999/xlink" x="0px" y="0px"
	 width="14.422px" height="7.012px" viewBox="4.143 2.43 14.422 7.012" enable-background="new 4.143 2.43 14.422 7.012"
	 xml:space="preserve">
<circle fill="#A09400" cx="7.379" cy="6.003" r="2.55"/>
<path fill="#424242" d="M7.379,8.663c-1.467,0-2.66-1.193-2.66-2.66s1.193-2.66,2.66-2.66s2.66,1.193,2.66,2.66
	S8.846,8.663,7.379,8.663z M7.379,3.563c-1.346,0-2.44,1.095-2.44,2.44c0,1.346,1.095,2.439,2.44,2.439
	c1.345,0,2.44-1.094,2.44-2.439C9.819,4.658,8.724,3.563,7.379,3.563z"/>
<path fill="#C91818" d="M14.647,8.985c-1.644,0-2.981-1.338-2.981-2.981c0-1.645,1.338-2.983,2.981-2.983
	c1.645,0,2.982,1.338,2.982,2.983C17.63,7.647,16.292,8.985,14.647,8.985z M14.647,4.02c-1.093,0-1.981,0.89-1.981,1.983
	c0,1.093,0.889,1.981,1.981,1.981s1.982-0.889,1.982-1.981C16.63,4.909,15.74,4.02,14.647,4.02z"/>
<polygon fill="#142482" points="11.104,5.51 18.202,5.51 18.202,6.5 11.104,6.5 "/>
</svg>
