<?xml version="1.0" encoding="utf-8"?>
<!-- Generator: Adobe Illustrator 16.0.3, SVG Export Plug-In . SVG Version: 6.00 Build 0)  -->
<!DOCTYPE svg PUBLIC "-//W3C//DTD SVG 1.1//EN" "http://www.w3.org/Graphics/SVG/1.1/DTD/svg11.dtd">
<svg version="1.1" id="Layer_1" xmlns="http://www.w3.org/2000/svg" xmlns:xlink="http://www.w3.org/1999/xlink" x="0px" y="0px"
	 width="15.459px" height="15.333px" viewBox="-1.998 -1.809 15.459 15.333" enable-background="new -1.998 -1.809 15.459 15.333"
	 xml:space="preserve">
<path fill="#A09400" d="M5.746-1.331c3.972,0,7.194,3.216,7.194,7.188c0,3.973-3.222,7.193-7.194,7.193
	c-3.982,0-7.201-3.221-7.201-7.193C-1.456,1.885,1.763-1.331,5.746-1.331z"/>
<path fill="#424242" d="M5.746,13.359c-4.15,0-7.512-3.368-7.512-7.502c0-4.134,3.362-7.499,7.512-7.499
	c4.135,0,7.507,3.364,7.507,7.499C13.253,9.991,9.881,13.359,5.746,13.359z M5.746-1.02c-3.804,0-6.891,3.083-6.891,6.877
	s3.086,6.88,6.891,6.88c3.793,0,6.885-3.086,6.885-6.88S9.539-1.02,5.746-1.02z"/>
</svg>
