<?xml version="1.0" encoding="utf-8"?>
<!-- Generator: Adobe Illustrator 16.0.3, SVG Export Plug-In . SVG Version: 6.00 Build 0)  -->
<!DOCTYPE svg PUBLIC "-//W3C//DTD SVG 1.1//EN" "http://www.w3.org/Graphics/SVG/1.1/DTD/svg11.dtd">
<svg version="1.1" id="Layer_1" xmlns="http://www.w3.org/2000/svg" xmlns:xlink="http://www.w3.org/1999/xlink" x="0px" y="0px"
	 width="15.49px" height="6.498px" viewBox="6.003 2.798 15.49 6.498" enable-background="new 6.003 2.798 15.49 6.498"
	 xml:space="preserve">
<circle fill="#A09400" cx="18.142" cy="6.005" r="2.55"/>
<path fill="#424242" d="M18.142,8.665c-1.467,0-2.66-1.193-2.66-2.661c0-1.467,1.193-2.66,2.66-2.66s2.66,1.193,2.66,2.66
	C20.802,7.472,19.608,8.665,18.142,8.665z M18.142,3.564c-1.346,0-2.439,1.095-2.439,2.44s1.094,2.44,2.439,2.44
	s2.439-1.095,2.439-2.44S19.487,3.564,18.142,3.564z"/>
<g>
	<g>
		<g>
			<path fill="#C91818" d="M6.777,5.396c0-0.263,0-0.531,0-0.794c0.023,0,0.049,0.007,0.067,0.007c1.293,0,2.58,0,3.874,0
				c0.023,0,0.048-0.007,0.066-0.007c-0.024-0.023-0.043-0.037-0.066-0.048C10.09,4.278,9.455,4.004,8.82,3.729
				C8.613,3.638,8.412,3.547,8.205,3.455c0.628,0,1.256,0,1.885,0c0.023,0.013,0.049,0.031,0.073,0.043
				c0.781,0.36,1.562,0.72,2.343,1.081c0.043,0.018,0.098,0.03,0.146,0.03c0.604,0,1.214,0,1.817,0c0.031,0,0.055-0.007,0.086-0.007
				c0,0.263,0,0.531,0,0.794c-0.641,0-1.287,0-1.928,0c-0.036,0-0.073,0.012-0.104,0.024c-0.642,0.311-1.282,0.616-1.916,0.927
				c-0.019,0.013-0.036,0.024-0.055,0.03c0,0.007,0,0.013,0.006,0.013c0.024,0,0.056,0,0.079,0c1.281,0,2.557,0,3.838,0
				c0.03,0,0.055,0,0.085,0c0,0.274,0,0.549,0,0.824c-0.019,0-0.037,0-0.055,0c-1.257,0-2.52,0-3.776,0c-0.019,0-0.037,0-0.08,0.006
				c0.043,0.024,0.068,0.037,0.092,0.042c0.537,0.238,1.074,0.477,1.611,0.72c0.342,0.153,0.684,0.311,1.025,0.464
				c-0.623,0-1.246,0-1.868,0c-0.018-0.011-0.03-0.023-0.055-0.03C10.608,8.019,9.76,7.628,8.912,7.237
				C8.876,7.225,8.833,7.214,8.791,7.214c-0.416,0-0.837,0-1.251,0c-0.257,0-0.507,0-0.763,0c0-0.275,0-0.55,0-0.824
				c0.006,0,0.018,0,0.023,0c0.623,0,1.245,0,1.868,0c0.023,0,0.055-0.006,0.078-0.019c0.672-0.311,1.337-0.628,2.008-0.938
				c0.012-0.006,0.03-0.019,0.056-0.037c-0.031,0-0.037,0-0.05,0C9.431,5.396,8.101,5.396,6.777,5.396z"/>
		</g>
	</g>
</g>
</svg>
