<?xml version="1.0" encoding="utf-8"?>
<!-- Generator: Adobe Illustrator 16.0.3, SVG Export Plug-In . SVG Version: 6.00 Build 0)  -->
<!DOCTYPE svg PUBLIC "-//W3C//DTD SVG 1.1//EN" "http://www.w3.org/Graphics/SVG/1.1/DTD/svg11.dtd">
<svg version="1.1" id="Layer_1" xmlns="http://www.w3.org/2000/svg" xmlns:xlink="http://www.w3.org/1999/xlink" x="0px" y="0px"
	 width="40.397px" height="15.961px" viewBox="-6.474 -2.004 40.397 15.961" enable-background="new -6.474 -2.004 40.397 15.961"
	 xml:space="preserve">
<circle fill="#A09400" cx="26.06" cy="6.004" r="7.19"/>
<path fill="#424242" d="M26.06,13.505c-4.136,0-7.5-3.365-7.5-7.501c0-4.135,3.364-7.499,7.5-7.499s7.5,3.363,7.5,7.499
	C33.56,10.14,30.195,13.505,26.06,13.505z M26.06-0.876c-3.794,0-6.878,3.087-6.878,6.879s3.084,6.879,6.878,6.879
	c3.795,0,6.878-3.087,6.878-6.879S29.854-0.876,26.06-0.876z"/>
<path fill="#C91818" d="M-5.98,4.287c0-0.742,0-1.496,0-2.238c0.065,0,0.137,0.02,0.189,0.02c3.645,0,7.274,0,10.922,0
	c0.066,0,0.135-0.02,0.188-0.02C5.25,1.982,5.198,1.945,5.132,1.912C3.359,1.137,1.569,0.365-0.22-0.41
	c-0.584-0.259-1.151-0.515-1.735-0.775c1.771,0,3.541,0,5.314,0C3.425-1.15,3.496-1.097,3.565-1.064
	c2.203,1.016,4.402,2.031,6.604,3.047c0.122,0.051,0.276,0.085,0.414,0.085c1.704,0,3.422,0,5.124,0c0.088,0,0.154-0.02,0.242-0.02
	c0,0.742,0,1.496,0,2.238c-1.806,0-3.629,0-5.435,0c-0.102,0-0.206,0.033-0.292,0.069C8.414,5.231,6.607,6.093,4.821,6.968
	C4.769,7.004,4.719,7.036,4.667,7.054c0,0.02,0,0.036,0.017,0.036c0.069,0,0.157,0,0.223,0c3.613,0,7.208,0,10.821,0
	c0.085,0,0.154,0,0.239,0c0,0.773,0,1.548,0,2.323c-0.052,0-0.104,0-0.154,0c-3.543,0-7.104,0-10.646,0
	c-0.052,0-0.104,0-0.226,0.017c0.122,0.069,0.193,0.104,0.259,0.119c1.514,0.672,3.029,1.344,4.543,2.028
	c0.964,0.433,1.928,0.876,2.891,1.308c-1.757,0-3.513,0-5.267,0c-0.05-0.029-0.085-0.065-0.154-0.085
	c-2.39-1.118-4.782-2.219-7.172-3.32c-0.102-0.036-0.223-0.066-0.341-0.066c-1.173,0-2.359,0-3.527,0c-0.724,0-1.429,0-2.15,0
	c0-0.775,0-1.55,0-2.323c0.016,0,0.049,0,0.065,0c1.757,0,3.511,0,5.268,0c0.066,0,0.154-0.017,0.22-0.054
	c1.895-0.875,3.77-1.771,5.661-2.646c0.033-0.018,0.086-0.052,0.157-0.104c-0.088,0-0.104,0-0.141,0
	C1.5,4.287-2.25,4.287-5.98,4.287z"/>
</svg>
