<?xml version="1.0" encoding="utf-8"?>
<!-- Generator: Adobe Illustrator 16.0.3, SVG Export Plug-In . SVG Version: 6.00 Build 0)  -->
<!DOCTYPE svg PUBLIC "-//W3C//DTD SVG 1.1//EN" "http://www.w3.org/Graphics/SVG/1.1/DTD/svg11.dtd">
<svg version="1.1" id="Layer_1" xmlns="http://www.w3.org/2000/svg" xmlns:xlink="http://www.w3.org/1999/xlink" x="0px" y="0px"
	 width="39.958px" height="15.5px" viewBox="-5.526 -1.829 39.958 15.5" enable-background="new -5.526 -1.829 39.958 15.5"
	 xml:space="preserve">
<circle fill="#FFFFFF" cx="25.318" cy="6.003" r="5.947"/>
<path fill="#FFFFFF" d="M25.305-0.24c3.448,0,6.243,2.798,6.243,6.246c0,3.447-2.795,6.239-6.243,6.239s-6.24-2.792-6.24-6.239
	C19.064,2.558,21.856-0.24,25.305-0.24L25.305-0.24z"/>
<path fill="#C91818" d="M25.305,13.503c-4.133,0-7.497-3.361-7.497-7.497c0-4.137,3.364-7.503,7.497-7.503
	c4.136,0,7.501,3.366,7.501,7.503C32.806,10.142,29.44,13.503,25.305,13.503z M25.305,1.018c-2.748,0-4.982,2.237-4.982,4.988
	c0,2.747,2.234,4.982,4.982,4.982c2.749,0,4.985-2.235,4.985-4.982C30.29,3.255,28.054,1.018,25.305,1.018z"/>
<polygon fill="#142482" points="16.393,4.765 34.244,4.765 34.244,7.256 16.393,7.256 "/>
<path fill="#C91818" d="M-5.282,4.642c0-0.661,0-1.334,0-1.997c0.06,0,0.123,0.018,0.17,0.018c3.252,0,6.489,0,9.743,0
	c0.059,0,0.121-0.018,0.167-0.018C4.736,2.586,4.689,2.553,4.63,2.523c-1.582-0.691-3.178-1.38-4.774-2.072
	c-0.521-0.23-1.027-0.458-1.547-0.691c1.579,0,3.158,0,4.74,0c0.059,0.032,0.123,0.079,0.184,0.109
	C5.198,0.775,7.16,1.68,9.125,2.586c0.109,0.045,0.246,0.077,0.369,0.077c1.521,0,3.053,0,4.57,0c0.079,0,0.138-0.018,0.217-0.018
	c0,0.662,0,1.335,0,1.997c-1.611,0-3.237,0-4.848,0c-0.091,0-0.185,0.03-0.26,0.062c-1.614,0.781-3.225,1.55-4.819,2.331
	C4.307,7.066,4.262,7.096,4.215,7.109c0,0.018,0,0.032,0.015,0.032c0.062,0,0.14,0,0.199,0c3.223,0,6.43,0,9.652,0
	c0.076,0,0.138,0,0.213,0c0,0.69,0,1.381,0,2.073c-0.046,0-0.093,0-0.137,0c-3.161,0-6.336,0-9.497,0c-0.047,0-0.093,0-0.202,0.015
	C4.567,9.292,4.63,9.322,4.689,9.335c1.351,0.6,2.702,1.199,4.052,1.811c0.859,0.386,1.719,0.78,2.579,1.166
	c-1.567,0-3.133,0-4.698,0c-0.044-0.027-0.077-0.059-0.138-0.075c-2.131-0.998-4.266-1.98-6.397-2.962
	c-0.091-0.032-0.199-0.06-0.305-0.06c-1.046,0-2.105,0-3.146,0c-0.646,0-1.274,0-1.918,0c0-0.692,0-1.383,0-2.073
	c0.015,0,0.044,0,0.06,0c1.567,0,3.131,0,4.698,0c0.059,0,0.138-0.015,0.197-0.046c1.689-0.781,3.362-1.582,5.049-2.361
	c0.03-0.016,0.076-0.047,0.14-0.093c-0.079,0-0.093,0-0.125,0C1.391,4.642-1.954,4.642-5.282,4.642z"/>
</svg>
