<?xml version="1.0" encoding="utf-8"?>
<!-- Generator: Adobe Illustrator 16.0.3, SVG Export Plug-In . SVG Version: 6.00 Build 0)  -->
<!DOCTYPE svg PUBLIC "-//W3C//DTD SVG 1.1//EN" "http://www.w3.org/Graphics/SVG/1.1/DTD/svg11.dtd">
<svg version="1.1" id="Layer_1" xmlns="http://www.w3.org/2000/svg" xmlns:xlink="http://www.w3.org/1999/xlink" x="0px" y="0px"
	 width="34.583px" height="15.667px" viewBox="-5.859 -1.871 34.583 15.667" enable-background="new -5.859 -1.871 34.583 15.667"
	 xml:space="preserve">
<circle fill="#A09400" cx="1.197" cy="6.005" r="6.412"/>
<path fill="#424242" d="M1.197,12.695c-3.689,0-6.689-3.002-6.689-6.69c0-3.688,3-6.688,6.689-6.688c3.688,0,6.688,3,6.688,6.688
	C7.885,9.693,4.885,12.695,1.197,12.695z M1.197-0.131c-3.384,0-6.137,2.753-6.137,6.136c0,3.384,2.753,6.134,6.137,6.134
	c3.382,0,6.135-2.75,6.135-6.134C7.332,2.622,4.579-0.131,1.197-0.131z"/>
<path fill="#C91818" d="M19.475,13.502c-4.133,0-7.498-3.365-7.498-7.498c0-4.137,3.365-7.502,7.498-7.502
	c4.136,0,7.501,3.366,7.501,7.502C26.976,10.137,23.61,13.502,19.475,13.502z M19.475,1.017c-2.748,0-4.982,2.237-4.982,4.988
	c0,2.748,2.234,4.983,4.982,4.983s4.986-2.235,4.986-4.983C24.461,3.254,22.223,1.017,19.475,1.017z"/>
<polygon fill="#142482" points="10.563,4.764 28.414,4.764 28.414,7.255 10.563,7.255 "/>
</svg>
