<?xml version="1.0" encoding="utf-8"?>
<!-- Generator: Adobe Illustrator 16.0.3, SVG Export Plug-In . SVG Version: 6.00 Build 0)  -->
<!DOCTYPE svg PUBLIC "-//W3C//DTD SVG 1.1//EN" "http://www.w3.org/Graphics/SVG/1.1/DTD/svg11.dtd">
<svg version="1.1" id="Layer_1" xmlns="http://www.w3.org/2000/svg" xmlns:xlink="http://www.w3.org/1999/xlink" x="0px" y="0px"
	 width="16.704px" height="6.598px" viewBox="6.003 2.667 16.704 6.598" enable-background="new 6.003 2.667 16.704 6.598"
	 xml:space="preserve">
<g>
	<path fill="#FFFFFF" d="M18.785,3.521c1.371,0,2.482,1.112,2.482,2.483c0,1.371-1.111,2.481-2.482,2.481s-2.481-1.11-2.481-2.481
		C16.304,4.633,17.414,3.521,18.785,3.521L18.785,3.521z"/>
	<path fill="#C91818" d="M18.785,8.985c-1.644,0-2.981-1.337-2.981-2.981c0-1.645,1.338-2.983,2.981-2.983
		c1.645,0,2.982,1.338,2.982,2.983C21.768,7.648,20.43,8.985,18.785,8.985z M18.785,4.021c-1.093,0-1.981,0.89-1.981,1.983
		c0,1.092,0.889,1.981,1.981,1.981s1.982-0.889,1.982-1.981C20.768,4.911,19.878,4.021,18.785,4.021z"/>
</g>
<g>
	<polygon fill="#142482" points="15.241,5.511 22.34,5.511 22.34,6.501 15.241,6.501 	"/>
</g>
<g>
	<g>
		<g>
			<path fill="#C91818" d="M6.623,5.462c0-0.263,0-0.531,0-0.794c0.023,0,0.049,0.007,0.067,0.007c1.293,0,2.58,0,3.874,0
				c0.023,0,0.048-0.007,0.066-0.007c-0.024-0.023-0.043-0.037-0.066-0.048C9.936,4.345,9.301,4.071,8.666,3.796
				C8.459,3.704,8.258,3.613,8.051,3.521c0.628,0,1.256,0,1.885,0c0.023,0.013,0.049,0.031,0.073,0.043
				c0.781,0.36,1.562,0.72,2.343,1.081c0.043,0.018,0.098,0.03,0.146,0.03c0.604,0,1.214,0,1.817,0c0.031,0,0.055-0.007,0.086-0.007
				c0,0.263,0,0.531,0,0.794c-0.641,0-1.287,0-1.928,0c-0.036,0-0.073,0.012-0.104,0.024c-0.642,0.311-1.282,0.616-1.916,0.927
				c-0.019,0.013-0.036,0.024-0.055,0.03c0,0.007,0,0.013,0.006,0.013c0.024,0,0.056,0,0.079,0c1.281,0,2.557,0,3.838,0
				c0.03,0,0.055,0,0.085,0c0,0.274,0,0.549,0,0.824c-0.019,0-0.037,0-0.055,0c-1.257,0-2.52,0-3.776,0c-0.019,0-0.037,0-0.08,0.006
				c0.043,0.024,0.068,0.037,0.092,0.042c0.537,0.238,1.074,0.477,1.611,0.72c0.342,0.153,0.684,0.311,1.025,0.464
				c-0.623,0-1.246,0-1.868,0c-0.018-0.011-0.03-0.023-0.055-0.03c-0.848-0.396-1.696-0.787-2.544-1.178
				C8.722,7.291,8.679,7.28,8.637,7.28c-0.416,0-0.837,0-1.251,0c-0.257,0-0.507,0-0.763,0c0-0.275,0-0.55,0-0.824
				c0.006,0,0.018,0,0.023,0c0.623,0,1.245,0,1.868,0c0.023,0,0.055-0.006,0.078-0.019c0.672-0.311,1.337-0.629,2.008-0.939
				c0.012-0.006,0.03-0.019,0.056-0.037c-0.031,0-0.037,0-0.05,0C9.276,5.462,7.946,5.462,6.623,5.462z"/>
		</g>
	</g>
</g>
</svg>
