<?xml version="1.0" encoding="utf-8"?>
<!-- Generator: Adobe Illustrator 16.0.3, SVG Export Plug-In . SVG Version: 6.00 Build 0)  -->
<!DOCTYPE svg PUBLIC "-//W3C//DTD SVG 1.1//EN" "http://www.w3.org/Graphics/SVG/1.1/DTD/svg11.dtd">
<svg version="1.1" id="Layer_1" xmlns="http://www.w3.org/2000/svg" xmlns:xlink="http://www.w3.org/1999/xlink" x="0px" y="0px"
	 width="24.147px" height="15.466px" viewBox="-6.117 -1.567 24.147 15.466" enable-background="new -6.117 -1.567 24.147 15.466"
	 xml:space="preserve">
<path fill="#C91818" d="M-5.696,4.496c0-0.791,0-1.595,0-2.386c0.071,0,0.147,0.021,0.203,0.021c3.886,0,7.754,0,11.643,0
	c0.07,0,0.144-0.021,0.199-0.021C6.276,2.039,6.22,2,6.15,1.964C4.259,1.138,2.352,0.315,0.444-0.512
	c-0.622-0.276-1.227-0.549-1.849-0.826c1.887,0,3.774,0,5.664,0C4.33-1.3,4.406-1.244,4.479-1.208
	c2.349,1.083,4.691,2.164,7.04,3.247c0.129,0.054,0.293,0.091,0.439,0.091c1.82,0,3.652,0,5.465,0c0.094,0,0.164-0.021,0.259-0.021
	c0,0.791,0,1.595,0,2.386c-1.926,0-3.868,0-5.794,0c-0.111,0-0.223,0.035-0.311,0.073c-1.932,0.933-3.856,1.852-5.76,2.784
	C5.762,7.395,5.709,7.43,5.654,7.447c0,0.018,0,0.034,0.018,0.034c0.073,0,0.167,0,0.237,0c3.849,0,7.683,0,11.533,0
	c0.094,0,0.164,0,0.259,0c0,0.828,0,1.65,0,2.478c-0.059,0-0.112,0-0.165,0c-3.779,0-7.571,0-11.35,0c-0.056,0-0.112,0-0.241,0.018
	c0.129,0.076,0.206,0.112,0.276,0.13c1.612,0.715,3.227,1.432,4.841,2.16c1.027,0.463,2.055,0.933,3.082,1.396
	c-1.873,0-3.746,0-5.612,0c-0.053-0.034-0.095-0.069-0.164-0.094c-2.549-1.191-5.1-2.364-7.647-3.539
	c-0.108-0.035-0.237-0.07-0.364-0.07c-1.25,0-2.515,0-3.759,0c-0.772,0-1.523,0-2.292,0c0-0.827,0-1.649,0-2.478
	c0.018,0,0.053,0,0.071,0c1.872,0,3.742,0,5.614,0c0.07,0,0.165-0.017,0.234-0.052c2.02-0.936,4.018-1.893,6.035-2.824
	c0.035-0.019,0.091-0.056,0.167-0.11c-0.094,0-0.112,0-0.15,0C2.279,4.496-1.719,4.496-5.696,4.496z"/>
</svg>
