<?xml version="1.0" encoding="utf-8"?>
<!-- Generator: Adobe Illustrator 16.0.3, SVG Export Plug-In . SVG Version: 6.00 Build 0)  -->
<!DOCTYPE svg PUBLIC "-//W3C//DTD SVG 1.1//EN" "http://www.w3.org/Graphics/SVG/1.1/DTD/svg11.dtd">
<svg version="1.1" id="Layer_1" xmlns="http://www.w3.org/2000/svg" xmlns:xlink="http://www.w3.org/1999/xlink" x="0px" y="0px"
	 width="18.28px" height="15.542px" viewBox="-3.18 -1.854 18.28 15.542" enable-background="new -3.18 -1.854 18.28 15.542"
	 xml:space="preserve">
<circle fill="#FFFFFF" cx="5.989" cy="5.917" r="6.244"/>
<path fill="#C91818" d="M5.988,13.504c-4.137,0-7.5-3.363-7.5-7.498c0-4.137,3.363-7.501,7.5-7.501c4.135,0,7.501,3.364,7.501,7.501
	C13.489,10.141,10.123,13.504,5.988,13.504z M5.988,1.017c-2.75,0-4.986,2.238-4.986,4.989c0,2.751,2.236,4.984,4.986,4.984
	c2.749,0,4.988-2.233,4.988-4.984C10.976,3.256,8.736,1.017,5.988,1.017z"/>
<polygon fill="#142482" points="-2.925,4.763 14.93,4.763 14.93,7.253 -2.925,7.253 "/>
</svg>
